<svg width="240" height="240" viewBox="0 0 240 240" fill="none" xmlns="http://www.w3.org/2000/svg">
<g filter="url(#filter0_d_1836_9850)">
<rect x="20" y="10" width="200" height="200" rx="30" fill="#FF9933"/>
</g>
<path d="M107.517 115.067H96.3351C95.1398 118.449 92.7874 121.299 89.6937 123.114C86.5999 124.93 82.964 125.593 79.4287 124.986C75.8933 124.38 72.6862 122.543 70.3741 119.801C68.0621 117.058 66.7939 113.587 66.7939 110C66.7939 106.413 68.0621 102.942 70.3741 100.199C72.6862 97.4568 75.8933 95.6201 79.4287 95.0137C82.964 94.4074 86.5999 95.0704 89.6937 96.8856C92.7874 98.7008 95.1398 101.551 96.3351 104.933H107.517L125.068 74.5333H141.129C142.323 71.1507 144.674 68.299 147.767 66.4823C150.86 64.6655 154.495 64.0007 158.031 64.6053C161.567 65.2099 164.775 67.0449 167.088 69.7862C169.402 72.5274 170.671 75.9982 170.673 79.5852C170.675 83.1722 169.409 86.6443 167.098 89.3878C164.787 92.1313 161.581 93.9696 158.046 94.5777C154.511 95.1859 150.875 94.5247 147.78 92.711C144.685 90.8973 142.331 88.048 141.135 84.6666H130.915L116.293 109.995L130.92 135.333H141.135C142.33 131.951 144.682 129.101 147.776 127.286C150.87 125.47 154.506 124.807 158.041 125.414C161.576 126.02 164.783 127.857 167.096 130.599C169.408 133.342 170.676 136.813 170.676 140.4C170.676 143.987 169.408 147.458 167.096 150.201C164.783 152.943 161.576 154.78 158.041 155.386C154.506 155.993 150.87 155.33 147.776 153.514C144.682 151.699 142.33 148.849 141.135 145.467H125.068L107.517 115.067ZM155.468 135.333C154.124 135.333 152.836 135.867 151.885 136.817C150.935 137.767 150.401 139.056 150.401 140.4C150.401 141.744 150.935 143.032 151.885 143.983C152.836 144.933 154.124 145.467 155.468 145.467C156.812 145.467 158.101 144.933 159.051 143.983C160.001 143.032 160.535 141.744 160.535 140.4C160.535 139.056 160.001 137.767 159.051 136.817C158.101 135.867 156.812 135.333 155.468 135.333ZM82.0015 104.933C80.6577 104.933 79.369 105.467 78.4188 106.417C77.4686 107.367 76.9348 108.656 76.9348 110C76.9348 111.344 77.4686 112.632 78.4188 113.583C79.369 114.533 80.6577 115.067 82.0015 115.067C83.3452 115.067 84.634 114.533 85.5842 113.583C86.5343 112.632 87.0681 111.344 87.0681 110C87.0681 108.656 86.5343 107.367 85.5842 106.417C84.634 105.467 83.3452 104.933 82.0015 104.933ZM155.468 74.5333C154.124 74.5333 152.836 75.0671 151.885 76.0173C150.935 76.9675 150.401 78.2562 150.401 79.6C150.401 80.9437 150.935 82.2325 151.885 83.1826C152.836 84.1328 154.124 84.6666 155.468 84.6666C156.812 84.6666 158.101 84.1328 159.051 83.1826C160.001 82.2325 160.535 80.9437 160.535 79.6C160.535 78.2562 160.001 76.9675 159.051 76.0173C158.101 75.0671 156.812 74.5333 155.468 74.5333Z" fill="white"/>
<defs>
<filter id="filter0_d_1836_9850" x="0" y="0" width="240" height="240" filterUnits="userSpaceOnUse" color-interpolation-filters="sRGB">
<feFlood flood-opacity="0" result="BackgroundImageFix"/>
<feColorMatrix in="SourceAlpha" type="matrix" values="0 0 0 0 0 0 0 0 0 0 0 0 0 0 0 0 0 0 127 0" result="hardAlpha"/>
<feOffset dy="10"/>
<feGaussianBlur stdDeviation="10"/>
<feColorMatrix type="matrix" values="0 0 0 0 1 0 0 0 0 0.6 0 0 0 0 0.2 0 0 0 0.2 0"/>
<feBlend mode="normal" in2="BackgroundImageFix" result="effect1_dropShadow_1836_9850"/>
<feBlend mode="normal" in="SourceGraphic" in2="effect1_dropShadow_1836_9850" result="shape"/>
</filter>
</defs>
</svg>
