<svg width="240" height="240" viewBox="0 0 240 240" fill="none" xmlns="http://www.w3.org/2000/svg">
<g filter="url(#filter0_d_1836_9833)">
<rect x="20" y="10" width="200" height="200" rx="30" fill="#33CC99"/>
</g>
<path d="M83.5263 110C83.5263 111.647 85.9526 114.516 91.579 117.332C98.8632 120.974 109.195 123.158 120.368 123.158C131.542 123.158 141.874 120.974 149.158 117.332C154.784 114.516 157.211 111.647 157.211 110V98.5737C148.526 103.942 135.247 107.368 120.368 107.368C105.489 107.368 92.2105 103.937 83.5263 98.5737V110ZM157.211 124.889C148.526 130.258 135.247 133.684 120.368 133.684C105.489 133.684 92.2105 130.253 83.5263 124.889V136.316C83.5263 137.963 85.9526 140.832 91.579 143.647C98.8632 147.289 109.195 149.474 120.368 149.474C131.542 149.474 141.874 147.289 149.158 143.647C154.784 140.832 157.211 137.963 157.211 136.316V124.889ZM73 136.316V83.6842C73 70.6053 94.2105 60 120.368 60C146.526 60 167.737 70.6053 167.737 83.6842V136.316C167.737 149.395 146.526 160 120.368 160C94.2105 160 73 149.395 73 136.316ZM120.368 96.8421C131.542 96.8421 141.874 94.6579 149.158 91.0158C154.784 88.2 157.211 85.3316 157.211 83.6842C157.211 82.0368 154.784 79.1684 149.158 76.3526C141.874 72.7105 131.542 70.5263 120.368 70.5263C109.195 70.5263 98.8632 72.7105 91.579 76.3526C85.9526 79.1684 83.5263 82.0368 83.5263 83.6842C83.5263 85.3316 85.9526 88.2 91.579 91.0158C98.8632 94.6579 109.195 96.8421 120.368 96.8421Z" fill="white"/>
<defs>
<filter id="filter0_d_1836_9833" x="0" y="0" width="240" height="240" filterUnits="userSpaceOnUse" color-interpolation-filters="sRGB">
<feFlood flood-opacity="0" result="BackgroundImageFix"/>
<feColorMatrix in="SourceAlpha" type="matrix" values="0 0 0 0 0 0 0 0 0 0 0 0 0 0 0 0 0 0 127 0" result="hardAlpha"/>
<feOffset dy="10"/>
<feGaussianBlur stdDeviation="10"/>
<feColorMatrix type="matrix" values="0 0 0 0 0.2 0 0 0 0 0.8 0 0 0 0 0.6 0 0 0 0.22 0"/>
<feBlend mode="normal" in2="BackgroundImageFix" result="effect1_dropShadow_1836_9833"/>
<feBlend mode="normal" in="SourceGraphic" in2="effect1_dropShadow_1836_9833" result="shape"/>
</filter>
</defs>
</svg>
