<svg width="240" height="240" viewBox="0 0 240 240" fill="none" xmlns="http://www.w3.org/2000/svg">
<g filter="url(#filter0_d_1836_9847)">
<rect x="20" y="10" width="200" height="200" rx="30" fill="#FF3399"/>
</g>
<path d="M128.72 135.16V126.94H143.105C145.477 126.939 147.811 126.353 149.901 125.232C151.992 124.111 153.772 122.491 155.084 120.515C156.397 118.54 157.201 116.271 157.424 113.91C157.647 111.549 157.284 109.169 156.365 106.983C155.446 104.796 154.001 102.871 152.158 101.378C150.316 99.8848 148.132 98.8706 145.803 98.4254C143.473 97.9803 141.07 98.118 138.807 98.8263C136.543 99.5347 134.49 100.792 132.83 102.485V102.28C132.83 95.7395 130.232 89.4672 125.607 84.8425C120.983 80.2179 114.71 77.6198 108.17 77.6198C101.63 77.6198 95.3574 80.2179 90.7328 84.8425C86.1082 89.4672 83.51 95.7395 83.51 102.28V102.309H75.29V102.28C75.2838 94.607 77.9611 87.1737 82.8583 81.2671C87.7555 75.3605 94.5642 71.3525 102.105 69.9373C109.646 68.522 117.445 69.7887 124.151 73.5178C130.856 77.2469 136.046 83.2038 138.822 90.3567C141.915 89.7619 145.097 89.8197 148.165 90.5264C151.234 91.2331 154.121 92.5731 156.641 94.4604C159.162 96.3478 161.26 98.7409 162.802 101.486C164.344 104.232 165.295 107.269 165.594 110.404C165.894 113.538 165.536 116.701 164.542 119.689C163.548 122.677 161.941 125.424 159.824 127.755C157.706 130.085 155.126 131.948 152.247 133.223C149.368 134.498 146.254 135.158 143.105 135.16H128.72ZM95.8401 143.38H136.94V151.6H95.8401V143.38ZM95.8401 110.5H128.72V118.72H95.8401V110.5ZM79.4001 126.94H120.5V135.16H79.4001V126.94Z" fill="white"/>
<defs>
<filter id="filter0_d_1836_9847" x="0" y="0" width="240" height="240" filterUnits="userSpaceOnUse" color-interpolation-filters="sRGB">
<feFlood flood-opacity="0" result="BackgroundImageFix"/>
<feColorMatrix in="SourceAlpha" type="matrix" values="0 0 0 0 0 0 0 0 0 0 0 0 0 0 0 0 0 0 127 0" result="hardAlpha"/>
<feOffset dy="10"/>
<feGaussianBlur stdDeviation="10"/>
<feColorMatrix type="matrix" values="0 0 0 0 1 0 0 0 0 0.2 0 0 0 0 0.6 0 0 0 0.2 0"/>
<feBlend mode="normal" in2="BackgroundImageFix" result="effect1_dropShadow_1836_9847"/>
<feBlend mode="normal" in="SourceGraphic" in2="effect1_dropShadow_1836_9847" result="shape"/>
</filter>
</defs>
</svg>
