<svg width="267" height="227" viewBox="0 0 267 227" fill="none" xmlns="http://www.w3.org/2000/svg">
<rect x="19.4319" y="66.2097" width="75.5654" height="77.0048" rx="7.1967" fill="#4D7DD6"/>
<rect x="20.8685" y="64.7704" width="75.5654" height="77.0048" rx="7.1967" fill="url(#paint0_linear_5647_1803)"/>
<g filter="url(#filter0_dddddi_5647_1803)">
<path d="M32.3823 100.034L48.5064 83.5088C49.0752 82.9258 50.0139 82.9305 50.5768 83.5192L62.3317 95.8123C62.918 96.4255 63.9048 96.4011 64.4601 95.7597L81.3199 76.285" stroke="url(#paint1_linear_5647_1803)" stroke-width="5.75736" stroke-linecap="round"/>
</g>
<rect x="27.349" y="113.708" width="61.8917" height="7.19671" rx="3.59835" fill="#4C7CD9"/>
<rect x="27.349" y="124.503" width="61.8917" height="7.19671" rx="3.59835" fill="#4C7CD9"/>
<g filter="url(#filter1_di_5647_1803)">
<path d="M30.9456 117.306H52.5357" stroke="url(#paint2_linear_5647_1803)" stroke-width="5.75736" stroke-linecap="round"/>
</g>
<g filter="url(#filter2_di_5647_1803)">
<path d="M30.9456 128.101H73.4061" stroke="url(#paint3_linear_5647_1803)" stroke-width="5.75736" stroke-linecap="round"/>
</g>
<g style="mix-blend-mode:multiply" filter="url(#filter3_b_5647_1803)">
<path fill-rule="evenodd" clip-rule="evenodd" d="M0.0641854 185.052C-0.353412 187.139 1.32317 188.983 3.45209 188.983H263.518C265.615 188.983 267.279 187.191 266.961 185.118C262.807 158.032 237.748 137.207 207.456 137.207C198.096 137.207 189.236 139.195 181.337 142.742C179.36 143.63 176.999 142.739 176.078 140.777C166.809 121.032 145.617 107.231 120.957 107.231C93.3366 107.231 70.067 124.545 63.0286 148.132C62.4162 150.185 60.2562 151.416 58.1759 150.906C54.3489 149.969 50.3306 149.47 46.1868 149.47C23.2243 149.47 4.11497 164.802 0.0641854 185.052Z" fill="url(#paint4_linear_5647_1803)" fill-opacity="0.8"/>
</g>
<path d="M199.508 160.921C199.508 173.793 189.073 212.602 176.201 212.602C163.329 212.602 152.894 173.793 152.894 160.921C152.894 148.049 163.329 137.614 176.201 137.614C189.073 137.614 199.508 148.049 199.508 160.921Z" fill="url(#paint5_linear_5647_1803)"/>
<path fill-rule="evenodd" clip-rule="evenodd" d="M197.613 129.191C197.969 126.984 198.154 124.721 198.154 122.414C198.154 99.0952 179.25 80.1915 155.932 80.1915C132.613 80.1915 113.709 99.0952 113.709 122.414C113.709 124.721 113.894 126.984 114.25 129.191H197.613Z" fill="url(#paint6_linear_5647_1803)"/>
<path fill-rule="evenodd" clip-rule="evenodd" d="M235.447 129.191C235.803 126.984 235.988 124.721 235.988 122.414C235.988 99.0952 217.084 80.1915 193.765 80.1915C170.446 80.1915 151.543 99.0952 151.543 122.414C151.543 124.721 151.728 126.984 152.084 129.191H235.447Z" fill="url(#paint7_linear_5647_1803)"/>
<rect x="146.81" y="121.401" width="56.7472" height="14.1868" fill="#D12C2C"/>
<g filter="url(#filter4_iii_5647_1803)">
<path fill-rule="evenodd" clip-rule="evenodd" d="M175.534 0C162.555 13.6754 136.599 58.7166 136.599 129.478H175.534V0ZM175.536 0C188.26 13.6754 213.708 58.7166 213.708 129.478H175.536V0Z" fill="#D12C2C"/>
<path fill-rule="evenodd" clip-rule="evenodd" d="M175.534 0C162.555 13.6754 136.599 58.7166 136.599 129.478H175.534V0ZM175.536 0C188.26 13.6754 213.708 58.7166 213.708 129.478H175.536V0Z" fill="url(#paint8_radial_5647_1803)"/>
</g>
<g filter="url(#filter5_iii_5647_1803)">
<path d="M187.347 95.2007C187.347 101.625 182.508 150.45 176.538 150.45C170.569 150.45 165.729 101.625 165.729 95.2007C165.729 88.7769 170.569 83.5693 176.538 83.5693C182.508 83.5693 187.347 88.7769 187.347 95.2007Z" fill="#D12C2C"/>
<path d="M187.347 95.2007C187.347 101.625 182.508 150.45 176.538 150.45C170.569 150.45 165.729 101.625 165.729 95.2007C165.729 88.7769 170.569 83.5693 176.538 83.5693C182.508 83.5693 187.347 88.7769 187.347 95.2007Z" fill="url(#paint9_radial_5647_1803)"/>
</g>
<g filter="url(#filter6_dddddd_5647_1803)">
<circle cx="176.198" cy="56.8846" r="12.4979" fill="#F9EDCE"/>
</g>
<circle cx="176.196" cy="56.8846" r="9.12008" fill="#341455"/>
<circle cx="174.173" cy="54.858" r="2.36447" fill="white"/>
<circle cx="96.0772" cy="184.596" r="29.1467" fill="url(#paint10_linear_5647_1803)"/>
<circle cx="98.2331" cy="182.436" r="29.1467" fill="url(#paint11_linear_5647_1803)"/>
<path d="M127.38 182.436C127.38 186.264 126.626 190.054 125.161 193.59C123.696 197.127 121.549 200.34 118.843 203.046L98.2331 182.436H127.38Z" fill="#5ECFFF"/>
<g filter="url(#filter7_ddd_5647_1803)">
<path d="M127.38 182.436C127.38 175.969 125.229 169.685 121.265 164.574C117.301 159.463 111.75 155.816 105.486 154.207L98.2331 182.436H127.38Z" fill="#FFCF5F"/>
</g>
<g style="mix-blend-mode:multiply" filter="url(#filter8_b_5647_1803)">
<path fill-rule="evenodd" clip-rule="evenodd" d="M66.3496 49.1087C65.6983 51.12 67.3871 52.9573 69.5013 52.9573H155.92C158.006 52.9573 159.681 51.1749 159.185 49.1488C156.862 39.6572 148.57 32.6357 138.697 32.6357C136.45 32.6357 134.285 32.9994 132.254 33.6731C130.084 34.3927 127.541 33.4554 126.391 31.4797C122.69 25.1216 115.966 20.8705 108.284 20.8705C99.4844 20.8705 91.9409 26.4483 88.7597 34.3814C87.9324 36.4446 85.6479 37.7122 83.434 37.5132C82.9586 37.4705 82.4774 37.4487 81.9914 37.4487C74.7183 37.4487 68.5445 42.3311 66.3496 49.1087Z" fill="url(#paint12_linear_5647_1803)" fill-opacity="0.8"/>
</g>
<path fill-rule="evenodd" clip-rule="evenodd" d="M226.039 38.3564C226.039 37.4434 225.299 36.7032 224.386 36.7032C223.473 36.7032 222.733 37.4434 222.733 38.3564V40.4229C222.733 42.4771 221.068 44.1425 219.013 44.1425L216.118 44.1425C215.205 44.1425 214.465 44.8826 214.465 45.7956C214.465 46.7086 215.205 47.4488 216.118 47.4488H218.6C220.883 47.4488 222.733 49.2991 222.733 51.5817V54.0614C222.733 54.9744 223.473 55.7145 224.386 55.7145C225.299 55.7145 226.039 54.9744 226.039 54.0614V51.5803C226.039 49.2985 227.889 47.4488 230.171 47.4488H232.649C233.562 47.4488 234.302 46.7086 234.302 45.7956C234.302 44.8826 233.562 44.1425 232.649 44.1425L229.759 44.1425C227.705 44.1425 226.039 42.4771 226.039 40.4229V38.3564Z" fill="#E7E1F4"/>
<path fill-rule="evenodd" clip-rule="evenodd" d="M50.4384 209.638C50.4384 208.725 49.6983 207.985 48.7853 207.985C47.8722 207.985 47.1321 208.725 47.1321 209.638V211.704C47.1321 213.759 45.4668 215.424 43.4125 215.424L40.5168 215.424C39.6038 215.424 38.8636 216.164 38.8636 217.077C38.8636 217.99 39.6038 218.73 40.5168 218.73H42.9992C45.2818 218.73 47.1321 220.581 47.1321 222.863V225.343C47.1321 226.256 47.8722 226.996 48.7853 226.996C49.6983 226.996 50.4384 226.256 50.4384 225.343V222.862C50.4384 220.58 52.2882 218.73 54.57 218.73H57.0484C57.9614 218.73 58.7015 217.99 58.7015 217.077C58.7015 216.164 57.9614 215.424 57.0484 215.424H54.158C52.1037 215.424 50.4384 213.759 50.4384 211.704V209.638Z" fill="#E7E1F4"/>
<path fill-rule="evenodd" clip-rule="evenodd" d="M118.687 70.6216C118.687 70.1723 118.322 69.8081 117.873 69.8081C117.424 69.8081 117.06 70.1723 117.06 70.6216V71.6386C117.06 72.6495 116.24 73.469 115.229 73.469H113.802C113.353 73.469 112.989 73.8333 112.989 74.2826C112.989 74.7319 113.353 75.0961 113.802 75.0961H115.026C116.149 75.0961 117.06 76.0067 117.06 77.13V78.3503C117.06 78.7996 117.424 79.1638 117.873 79.1638C118.322 79.1638 118.687 78.7996 118.687 78.3503V77.1285C118.687 76.006 119.597 75.0961 120.719 75.0961H121.938C122.387 75.0961 122.751 74.7319 122.751 74.2826C122.751 73.8333 122.387 73.469 121.938 73.469H120.517C119.506 73.469 118.687 72.6495 118.687 71.6386V70.6216Z" fill="#E7E1F4"/>
<defs>
<filter id="filter0_dddddi_5647_1803" x="16.6438" y="65.8511" width="80.4146" height="55.2262" filterUnits="userSpaceOnUse" color-interpolation-filters="sRGB">
<feFlood flood-opacity="0" result="BackgroundImageFix"/>
<feColorMatrix in="SourceAlpha" type="matrix" values="0 0 0 0 0 0 0 0 0 0 0 0 0 0 0 0 0 0 127 0" result="hardAlpha"/>
<feOffset dy="0.657199"/>
<feGaussianBlur stdDeviation="0.796605"/>
<feColorMatrix type="matrix" values="0 0 0 0 0 0 0 0 0 0 0 0 0 0 0 0 0 0 0.0449833 0"/>
<feBlend mode="normal" in2="BackgroundImageFix" result="effect1_dropShadow_5647_1803"/>
<feColorMatrix in="SourceAlpha" type="matrix" values="0 0 0 0 0 0 0 0 0 0 0 0 0 0 0 0 0 0 127 0" result="hardAlpha"/>
<feOffset dy="1.57934"/>
<feGaussianBlur stdDeviation="1.91435"/>
<feColorMatrix type="matrix" values="0 0 0 0 0 0 0 0 0 0 0 0 0 0 0 0 0 0 0.0646228 0"/>
<feBlend mode="normal" in2="effect1_dropShadow_5647_1803" result="effect2_dropShadow_5647_1803"/>
<feColorMatrix in="SourceAlpha" type="matrix" values="0 0 0 0 0 0 0 0 0 0 0 0 0 0 0 0 0 0 127 0" result="hardAlpha"/>
<feOffset dy="2.97376"/>
<feGaussianBlur stdDeviation="3.60456"/>
<feColorMatrix type="matrix" values="0 0 0 0 0 0 0 0 0 0 0 0 0 0 0 0 0 0 0.08 0"/>
<feBlend mode="normal" in2="effect2_dropShadow_5647_1803" result="effect3_dropShadow_5647_1803"/>
<feColorMatrix in="SourceAlpha" type="matrix" values="0 0 0 0 0 0 0 0 0 0 0 0 0 0 0 0 0 0 127 0" result="hardAlpha"/>
<feOffset dy="5.30468"/>
<feGaussianBlur stdDeviation="6.42991"/>
<feColorMatrix type="matrix" values="0 0 0 0 0 0 0 0 0 0 0 0 0 0 0 0 0 0 0.0953772 0"/>
<feBlend mode="normal" in2="effect3_dropShadow_5647_1803" result="effect4_dropShadow_5647_1803"/>
<feColorMatrix in="SourceAlpha" type="matrix" values="0 0 0 0 0 0 0 0 0 0 0 0 0 0 0 0 0 0 127 0" result="hardAlpha"/>
<feOffset dy="1.43934"/>
<feGaussianBlur stdDeviation="0.71967"/>
<feColorMatrix type="matrix" values="0 0 0 0 0.404167 0 0 0 0 0.404167 0 0 0 0 0.404167 0 0 0 0.24 0"/>
<feBlend mode="normal" in2="effect4_dropShadow_5647_1803" result="effect5_dropShadow_5647_1803"/>
<feBlend mode="normal" in="SourceGraphic" in2="effect5_dropShadow_5647_1803" result="shape"/>
<feColorMatrix in="SourceAlpha" type="matrix" values="0 0 0 0 0 0 0 0 0 0 0 0 0 0 0 0 0 0 127 0" result="hardAlpha"/>
<feOffset dy="-2.87868"/>
<feGaussianBlur stdDeviation="0.71967"/>
<feComposite in2="hardAlpha" operator="arithmetic" k2="-1" k3="1"/>
<feColorMatrix type="matrix" values="0 0 0 0 0.645833 0 0 0 0 0.622153 0 0 0 0 0.586632 0 0 0 0.32 0"/>
<feBlend mode="normal" in2="shape" result="effect6_innerShadow_5647_1803"/>
</filter>
<filter id="filter1_di_5647_1803" x="26.6276" y="112.988" width="30.2261" height="10.0753" filterUnits="userSpaceOnUse" color-interpolation-filters="sRGB">
<feFlood flood-opacity="0" result="BackgroundImageFix"/>
<feColorMatrix in="SourceAlpha" type="matrix" values="0 0 0 0 0 0 0 0 0 0 0 0 0 0 0 0 0 0 127 0" result="hardAlpha"/>
<feOffset dy="1.43934"/>
<feGaussianBlur stdDeviation="0.71967"/>
<feColorMatrix type="matrix" values="0 0 0 0 0 0 0 0 0 0 0 0 0 0 0 0 0 0 0.03 0"/>
<feBlend mode="normal" in2="BackgroundImageFix" result="effect1_dropShadow_5647_1803"/>
<feBlend mode="normal" in="SourceGraphic" in2="effect1_dropShadow_5647_1803" result="shape"/>
<feColorMatrix in="SourceAlpha" type="matrix" values="0 0 0 0 0 0 0 0 0 0 0 0 0 0 0 0 0 0 127 0" result="hardAlpha"/>
<feOffset dy="-2.87868"/>
<feGaussianBlur stdDeviation="0.71967"/>
<feComposite in2="hardAlpha" operator="arithmetic" k2="-1" k3="1"/>
<feColorMatrix type="matrix" values="0 0 0 0 0.409684 0 0 0 0 0.187622 0 0 0 0 0.445833 0 0 0 0.14 0"/>
<feBlend mode="normal" in2="shape" result="effect2_innerShadow_5647_1803"/>
</filter>
<filter id="filter2_di_5647_1803" x="26.6276" y="123.783" width="51.0966" height="10.0753" filterUnits="userSpaceOnUse" color-interpolation-filters="sRGB">
<feFlood flood-opacity="0" result="BackgroundImageFix"/>
<feColorMatrix in="SourceAlpha" type="matrix" values="0 0 0 0 0 0 0 0 0 0 0 0 0 0 0 0 0 0 127 0" result="hardAlpha"/>
<feOffset dy="1.43934"/>
<feGaussianBlur stdDeviation="0.71967"/>
<feColorMatrix type="matrix" values="0 0 0 0 0 0 0 0 0 0 0 0 0 0 0 0 0 0 0.03 0"/>
<feBlend mode="normal" in2="BackgroundImageFix" result="effect1_dropShadow_5647_1803"/>
<feBlend mode="normal" in="SourceGraphic" in2="effect1_dropShadow_5647_1803" result="shape"/>
<feColorMatrix in="SourceAlpha" type="matrix" values="0 0 0 0 0 0 0 0 0 0 0 0 0 0 0 0 0 0 127 0" result="hardAlpha"/>
<feOffset dy="-2.87868"/>
<feGaussianBlur stdDeviation="0.71967"/>
<feComposite in2="hardAlpha" operator="arithmetic" k2="-1" k3="1"/>
<feColorMatrix type="matrix" values="0 0 0 0 0.409684 0 0 0 0 0.187622 0 0 0 0 0.445833 0 0 0 0.14 0"/>
<feBlend mode="normal" in2="shape" result="effect2_innerShadow_5647_1803"/>
</filter>
<filter id="filter3_b_5647_1803" x="-3.59835" y="103.633" width="274.197" height="88.9493" filterUnits="userSpaceOnUse" color-interpolation-filters="sRGB">
<feFlood flood-opacity="0" result="BackgroundImageFix"/>
<feGaussianBlur in="BackgroundImageFix" stdDeviation="1.79918"/>
<feComposite in2="SourceAlpha" operator="in" result="effect1_backgroundBlur_5647_1803"/>
<feBlend mode="normal" in="SourceGraphic" in2="effect1_backgroundBlur_5647_1803" result="shape"/>
</filter>
<filter id="filter4_iii_5647_1803" x="136.599" y="-13.5112" width="83.8651" height="153.798" filterUnits="userSpaceOnUse" color-interpolation-filters="sRGB">
<feFlood flood-opacity="0" result="BackgroundImageFix"/>
<feBlend mode="normal" in="SourceGraphic" in2="BackgroundImageFix" result="shape"/>
<feColorMatrix in="SourceAlpha" type="matrix" values="0 0 0 0 0 0 0 0 0 0 0 0 0 0 0 0 0 0 127 0" result="hardAlpha"/>
<feOffset dx="6.75562" dy="10.809"/>
<feGaussianBlur stdDeviation="6.75562"/>
<feComposite in2="hardAlpha" operator="arithmetic" k2="-1" k3="1"/>
<feColorMatrix type="matrix" values="0 0 0 0 0.9875 0 0 0 0 0.63776 0 0 0 0 0.63776 0 0 0 0.95 0"/>
<feBlend mode="normal" in2="shape" result="effect1_innerShadow_5647_1803"/>
<feColorMatrix in="SourceAlpha" type="matrix" values="0 0 0 0 0 0 0 0 0 0 0 0 0 0 0 0 0 0 127 0" result="hardAlpha"/>
<feOffset dy="-13.5112"/>
<feGaussianBlur stdDeviation="16.889"/>
<feComposite in2="hardAlpha" operator="arithmetic" k2="-1" k3="1"/>
<feColorMatrix type="matrix" values="0 0 0 0 0.883333 0 0 0 0 0.161944 0 0 0 0 0.161944 0 0 0 0.37 0"/>
<feBlend mode="normal" in2="effect1_innerShadow_5647_1803" result="effect2_innerShadow_5647_1803"/>
<feColorMatrix in="SourceAlpha" type="matrix" values="0 0 0 0 0 0 0 0 0 0 0 0 0 0 0 0 0 0 127 0" result="hardAlpha"/>
<feOffset dy="1.35112"/>
<feGaussianBlur stdDeviation="3.37781"/>
<feComposite in2="hardAlpha" operator="arithmetic" k2="-1" k3="1"/>
<feColorMatrix type="matrix" values="0 0 0 0 1 0 0 0 0 1 0 0 0 0 1 0 0 0 0.58 0"/>
<feBlend mode="normal" in2="effect2_innerShadow_5647_1803" result="effect3_innerShadow_5647_1803"/>
</filter>
<filter id="filter5_iii_5647_1803" x="165.729" y="70.0581" width="28.3735" height="91.2008" filterUnits="userSpaceOnUse" color-interpolation-filters="sRGB">
<feFlood flood-opacity="0" result="BackgroundImageFix"/>
<feBlend mode="normal" in="SourceGraphic" in2="BackgroundImageFix" result="shape"/>
<feColorMatrix in="SourceAlpha" type="matrix" values="0 0 0 0 0 0 0 0 0 0 0 0 0 0 0 0 0 0 127 0" result="hardAlpha"/>
<feOffset dx="6.75562" dy="10.809"/>
<feGaussianBlur stdDeviation="6.75562"/>
<feComposite in2="hardAlpha" operator="arithmetic" k2="-1" k3="1"/>
<feColorMatrix type="matrix" values="0 0 0 0 1 0 0 0 0 0.375 0 0 0 0 0.375 0 0 0 0.95 0"/>
<feBlend mode="normal" in2="shape" result="effect1_innerShadow_5647_1803"/>
<feColorMatrix in="SourceAlpha" type="matrix" values="0 0 0 0 0 0 0 0 0 0 0 0 0 0 0 0 0 0 127 0" result="hardAlpha"/>
<feOffset dy="-13.5112"/>
<feGaussianBlur stdDeviation="16.889"/>
<feComposite in2="hardAlpha" operator="arithmetic" k2="-1" k3="1"/>
<feColorMatrix type="matrix" values="0 0 0 0 1 0 0 0 0 0.3375 0 0 0 0 0.3375 0 0 0 0.37 0"/>
<feBlend mode="normal" in2="effect1_innerShadow_5647_1803" result="effect2_innerShadow_5647_1803"/>
<feColorMatrix in="SourceAlpha" type="matrix" values="0 0 0 0 0 0 0 0 0 0 0 0 0 0 0 0 0 0 127 0" result="hardAlpha"/>
<feOffset dy="1.35112"/>
<feGaussianBlur stdDeviation="3.37781"/>
<feComposite in2="hardAlpha" operator="arithmetic" k2="-1" k3="1"/>
<feColorMatrix type="matrix" values="0 0 0 0 1 0 0 0 0 1 0 0 0 0 1 0 0 0 0.58 0"/>
<feBlend mode="normal" in2="effect2_innerShadow_5647_1803" result="effect3_innerShadow_5647_1803"/>
</filter>
<filter id="filter6_dddddd_5647_1803" x="106.126" y="44.3867" width="140.143" height="154.536" filterUnits="userSpaceOnUse" color-interpolation-filters="sRGB">
<feFlood flood-opacity="0" result="BackgroundImageFix"/>
<feColorMatrix in="SourceAlpha" type="matrix" values="0 0 0 0 0 0 0 0 0 0 0 0 0 0 0 0 0 0 127 0" result="hardAlpha"/>
<feOffset dy="1.99151"/>
<feGaussianBlur stdDeviation="0.796605"/>
<feColorMatrix type="matrix" values="0 0 0 0 0 0 0 0 0 0 0 0 0 0 0 0 0 0 0.0590406 0"/>
<feBlend mode="normal" in2="BackgroundImageFix" result="effect1_dropShadow_5647_1803"/>
<feColorMatrix in="SourceAlpha" type="matrix" values="0 0 0 0 0 0 0 0 0 0 0 0 0 0 0 0 0 0 127 0" result="hardAlpha"/>
<feOffset dy="4.78588"/>
<feGaussianBlur stdDeviation="1.91435"/>
<feColorMatrix type="matrix" values="0 0 0 0 0 0 0 0 0 0 0 0 0 0 0 0 0 0 0.0848175 0"/>
<feBlend mode="normal" in2="effect1_dropShadow_5647_1803" result="effect2_dropShadow_5647_1803"/>
<feColorMatrix in="SourceAlpha" type="matrix" values="0 0 0 0 0 0 0 0 0 0 0 0 0 0 0 0 0 0 127 0" result="hardAlpha"/>
<feOffset dy="9.01139"/>
<feGaussianBlur stdDeviation="3.60456"/>
<feColorMatrix type="matrix" values="0 0 0 0 0 0 0 0 0 0 0 0 0 0 0 0 0 0 0.105 0"/>
<feBlend mode="normal" in2="effect2_dropShadow_5647_1803" result="effect3_dropShadow_5647_1803"/>
<feColorMatrix in="SourceAlpha" type="matrix" values="0 0 0 0 0 0 0 0 0 0 0 0 0 0 0 0 0 0 127 0" result="hardAlpha"/>
<feOffset dy="16.0748"/>
<feGaussianBlur stdDeviation="6.42991"/>
<feColorMatrix type="matrix" values="0 0 0 0 0 0 0 0 0 0 0 0 0 0 0 0 0 0 0.125183 0"/>
<feBlend mode="normal" in2="effect3_dropShadow_5647_1803" result="effect4_dropShadow_5647_1803"/>
<feColorMatrix in="SourceAlpha" type="matrix" values="0 0 0 0 0 0 0 0 0 0 0 0 0 0 0 0 0 0 127 0" result="hardAlpha"/>
<feOffset dy="30.0661"/>
<feGaussianBlur stdDeviation="12.0264"/>
<feColorMatrix type="matrix" values="0 0 0 0 0 0 0 0 0 0 0 0 0 0 0 0 0 0 0.150959 0"/>
<feBlend mode="normal" in2="effect4_dropShadow_5647_1803" result="effect5_dropShadow_5647_1803"/>
<feColorMatrix in="SourceAlpha" type="matrix" values="0 0 0 0 0 0 0 0 0 0 0 0 0 0 0 0 0 0 127 0" result="hardAlpha"/>
<feOffset dy="71.967"/>
<feGaussianBlur stdDeviation="28.7868"/>
<feColorMatrix type="matrix" values="0 0 0 0 0 0 0 0 0 0 0 0 0 0 0 0 0 0 0.21 0"/>
<feBlend mode="normal" in2="effect5_dropShadow_5647_1803" result="effect6_dropShadow_5647_1803"/>
<feBlend mode="normal" in="SourceGraphic" in2="effect6_dropShadow_5647_1803" result="shape"/>
</filter>
<filter id="filter7_ddd_5647_1803" x="91.0239" y="154.207" width="43.565" height="44.4502" filterUnits="userSpaceOnUse" color-interpolation-filters="sRGB">
<feFlood flood-opacity="0" result="BackgroundImageFix"/>
<feColorMatrix in="SourceAlpha" type="matrix" values="0 0 0 0 0 0 0 0 0 0 0 0 0 0 0 0 0 0 127 0" result="hardAlpha"/>
<feOffset dy="1.99151"/>
<feGaussianBlur stdDeviation="0.796605"/>
<feColorMatrix type="matrix" values="0 0 0 0 0 0 0 0 0 0 0 0 0 0 0 0 0 0 0.0477948 0"/>
<feBlend mode="normal" in2="BackgroundImageFix" result="effect1_dropShadow_5647_1803"/>
<feColorMatrix in="SourceAlpha" type="matrix" values="0 0 0 0 0 0 0 0 0 0 0 0 0 0 0 0 0 0 127 0" result="hardAlpha"/>
<feOffset dy="4.78588"/>
<feGaussianBlur stdDeviation="1.91435"/>
<feColorMatrix type="matrix" values="0 0 0 0 0 0 0 0 0 0 0 0 0 0 0 0 0 0 0.0686618 0"/>
<feBlend mode="normal" in2="effect1_dropShadow_5647_1803" result="effect2_dropShadow_5647_1803"/>
<feColorMatrix in="SourceAlpha" type="matrix" values="0 0 0 0 0 0 0 0 0 0 0 0 0 0 0 0 0 0 127 0" result="hardAlpha"/>
<feOffset dy="9.01139"/>
<feGaussianBlur stdDeviation="3.60456"/>
<feColorMatrix type="matrix" values="0 0 0 0 0 0 0 0 0 0 0 0 0 0 0 0 0 0 0.085 0"/>
<feBlend mode="normal" in2="effect2_dropShadow_5647_1803" result="effect3_dropShadow_5647_1803"/>
<feBlend mode="normal" in="SourceGraphic" in2="effect3_dropShadow_5647_1803" result="shape"/>
</filter>
<filter id="filter8_b_5647_1803" x="62.6097" y="17.2721" width="100.261" height="39.2836" filterUnits="userSpaceOnUse" color-interpolation-filters="sRGB">
<feFlood flood-opacity="0" result="BackgroundImageFix"/>
<feGaussianBlur in="BackgroundImageFix" stdDeviation="1.79918"/>
<feComposite in2="SourceAlpha" operator="in" result="effect1_backgroundBlur_5647_1803"/>
<feBlend mode="normal" in="SourceGraphic" in2="effect1_backgroundBlur_5647_1803" result="shape"/>
</filter>
<linearGradient id="paint0_linear_5647_1803" x1="58.6512" y1="64.7704" x2="58.6512" y2="141.775" gradientUnits="userSpaceOnUse">
<stop stop-color="#94E2F7"/>
<stop offset="1" stop-color="#6ABBEF"/>
</linearGradient>
<linearGradient id="paint1_linear_5647_1803" x1="52.8339" y1="88.5994" x2="55.407" y2="96.7188" gradientUnits="userSpaceOnUse">
<stop stop-color="white"/>
<stop offset="1" stop-color="#ECECEC"/>
</linearGradient>
<linearGradient id="paint2_linear_5647_1803" x1="51.0963" y1="104.306" x2="54.3726" y2="113.266" gradientUnits="userSpaceOnUse">
<stop stop-color="white"/>
<stop offset="1" stop-color="#ECECEC"/>
</linearGradient>
<linearGradient id="paint3_linear_5647_1803" x1="70.5754" y1="115.101" x2="72.401" y2="124.92" gradientUnits="userSpaceOnUse">
<stop stop-color="white"/>
<stop offset="1" stop-color="#ECECEC"/>
</linearGradient>
<linearGradient id="paint4_linear_5647_1803" x1="85.7355" y1="131.724" x2="334.148" y2="233.177" gradientUnits="userSpaceOnUse">
<stop stop-color="#AEB1FA"/>
<stop offset="0.772612" stop-color="#FAD2AE" stop-opacity="0"/>
</linearGradient>
<linearGradient id="paint5_linear_5647_1803" x1="176.201" y1="137.614" x2="176.201" y2="212.602" gradientUnits="userSpaceOnUse">
<stop stop-color="#FDEB7A"/>
<stop offset="1" stop-color="#E55B49"/>
</linearGradient>
<linearGradient id="paint6_linear_5647_1803" x1="155.932" y1="80.1915" x2="155.932" y2="129.191" gradientUnits="userSpaceOnUse">
<stop stop-color="#F2787A"/>
<stop offset="1" stop-color="#DB4D51"/>
</linearGradient>
<linearGradient id="paint7_linear_5647_1803" x1="193.765" y1="80.1915" x2="193.765" y2="129.191" gradientUnits="userSpaceOnUse">
<stop stop-color="#F2787A"/>
<stop offset="1" stop-color="#DB4D51"/>
</linearGradient>
<radialGradient id="paint8_radial_5647_1803" cx="0" cy="0" r="1" gradientUnits="userSpaceOnUse" gradientTransform="translate(190.884 40.397) rotate(102.86) scale(127.496 82.7731)">
<stop stop-color="#FE5D5D"/>
<stop offset="1" stop-color="#EA4E4E" stop-opacity="0"/>
</radialGradient>
<radialGradient id="paint9_radial_5647_1803" cx="0" cy="0" r="1" gradientUnits="userSpaceOnUse" gradientTransform="translate(180.948 104.436) rotate(97.0633) scale(64.6964 23.6222)">
<stop stop-color="#FE5D5D"/>
<stop offset="1" stop-color="#E3E6FF" stop-opacity="0"/>
</radialGradient>
<linearGradient id="paint10_linear_5647_1803" x1="96.0772" y1="155.449" x2="96.0772" y2="213.742" gradientUnits="userSpaceOnUse">
<stop stop-color="#CA91FD"/>
<stop offset="1" stop-color="#7631B5"/>
</linearGradient>
<linearGradient id="paint11_linear_5647_1803" x1="98.2331" y1="153.29" x2="98.2331" y2="211.583" gradientUnits="userSpaceOnUse">
<stop stop-color="#CA91FD"/>
<stop offset="1" stop-color="#8655EF"/>
</linearGradient>
<linearGradient id="paint12_linear_5647_1803" x1="96.0917" y1="30.4839" x2="185.375" y2="62.8661" gradientUnits="userSpaceOnUse">
<stop stop-color="#FAD2AE"/>
<stop offset="0.772612" stop-color="#FAD2AE" stop-opacity="0"/>
</linearGradient>
</defs>
</svg>
