<svg width="235" height="235" viewBox="0 0 235 235" fill="none" xmlns="http://www.w3.org/2000/svg">
<circle cx="117.5" cy="117.5" r="117.5" fill="white"/>
<g filter="url(#filter0_iii_7774_1606)">
<circle cx="118.209" cy="117.209" r="95.2086" fill="#FF570F"/>
<circle cx="118.209" cy="117.209" r="95.2086" fill="url(#paint0_radial_7774_1606)"/>
</g>
<circle cx="118.208" cy="117.209" r="73.7084" stroke="#FFECBB" stroke-opacity="0.63" stroke-dasharray="1 3"/>
<g filter="url(#filter1_ddddd_7774_1606)">
<path fill-rule="evenodd" clip-rule="evenodd" d="M119.348 80.4173C122.788 80.4121 126.187 81.205 129.3 82.7387C132.413 84.2724 135.162 86.5088 137.35 89.2871L130.115 96.8562C128.499 94.4687 126.198 92.6811 123.546 91.7519C120.895 90.8227 118.029 90.8002 115.364 91.6876C112.7 92.5749 110.374 94.3262 108.723 96.688C107.073 99.0498 106.183 101.9 106.183 104.826C106.183 107.751 107.073 110.601 108.723 112.963C110.374 115.325 112.7 117.076 115.364 117.964C118.029 118.851 120.895 118.828 123.546 117.899C126.192 116.972 128.491 115.149 130.107 112.769L130.102 112.763C132.29 109.985 135.039 107.749 138.152 106.215C141.265 104.681 144.664 103.888 148.104 103.894V103.896C152.034 103.899 155.899 104.94 159.341 106.923C162.784 108.906 165.691 111.766 167.795 115.239C169.898 118.712 171.129 122.684 171.372 126.787C171.616 130.891 170.865 134.992 169.189 138.711C167.514 142.429 164.967 145.644 161.786 148.058C158.605 150.472 154.893 152.006 150.994 152.517C147.095 153.029 143.135 152.502 139.483 150.985C135.831 149.468 132.604 147.011 130.102 143.84L137.337 136.271C138.953 138.659 141.254 140.446 143.905 141.376C146.557 142.305 149.423 142.327 152.087 141.44C154.752 140.552 157.078 138.801 158.729 136.439C160.379 134.078 161.269 131.228 161.269 128.302C161.269 125.376 160.379 122.526 158.729 120.164C157.078 117.803 154.752 116.051 152.087 115.164C149.423 114.277 146.557 114.299 143.905 115.228C141.302 116.14 138.958 118.03 137.344 120.358L137.35 120.364C137.324 120.397 137.298 120.43 137.272 120.463L137.254 120.489L137.252 120.487C134.764 123.598 131.574 126.012 127.969 127.509C124.317 129.026 120.357 129.553 116.458 129.041C112.559 128.529 108.847 126.996 105.666 124.582C102.485 122.168 99.9384 118.953 98.2624 115.234C96.5865 111.516 95.8356 107.414 96.0795 103.311C96.3233 99.2079 97.5539 95.2357 99.6572 91.7629C101.76 88.2902 104.668 85.4297 108.11 83.4467C111.553 81.4638 115.418 80.4227 119.348 80.4202V80.4173ZM87.6294 104.62C89.1703 104.619 90.7069 104.778 92.2169 105.093C92.3426 106.368 92.5574 107.704 92.892 109.034C93.0831 111.941 93.739 114.797 94.8361 117.484C92.6714 116.005 90.1388 115.225 87.5537 115.242C84.9686 115.258 82.4451 116.069 80.2974 117.574C78.1496 119.079 76.4724 121.212 75.4747 123.707C74.4769 126.202 74.2027 128.949 74.6861 131.606C75.1694 134.263 76.3889 136.713 78.193 138.65C79.997 140.587 82.3057 141.927 84.8318 142.501C87.358 143.076 89.9899 142.861 92.3999 141.882C94.81 140.904 96.8916 139.205 98.3859 136.998L105.621 144.567C103.119 147.737 99.8919 150.195 96.2396 151.712C92.5873 153.229 88.6279 153.756 84.7289 153.244C80.8299 152.732 77.1176 151.199 73.9366 148.785C70.7556 146.371 68.209 143.156 66.5331 139.437C64.8572 135.719 64.1063 131.617 64.3501 127.514C64.594 123.411 65.8246 119.439 67.9279 115.966C70.0311 112.493 72.9388 109.633 76.3811 107.65C79.8234 105.667 83.6886 104.626 87.6182 104.623L87.6294 104.62Z" fill="white"/>
</g>
<defs>
<filter id="filter0_iii_7774_1606" x="23" y="2" width="200.417" height="226.417" filterUnits="userSpaceOnUse" color-interpolation-filters="sRGB">
<feFlood flood-opacity="0" result="BackgroundImageFix"/>
<feBlend mode="normal" in="SourceGraphic" in2="BackgroundImageFix" result="shape"/>
<feColorMatrix in="SourceAlpha" type="matrix" values="0 0 0 0 0 0 0 0 0 0 0 0 0 0 0 0 0 0 127 0" result="hardAlpha"/>
<feOffset dx="10" dy="16"/>
<feGaussianBlur stdDeviation="10"/>
<feComposite in2="hardAlpha" operator="arithmetic" k2="-1" k3="1"/>
<feColorMatrix type="matrix" values="0 0 0 0 1 0 0 0 0 0.775167 0 0 0 0 0.704167 0 0 0 0.95 0"/>
<feBlend mode="normal" in2="shape" result="effect1_innerShadow_7774_1606"/>
<feColorMatrix in="SourceAlpha" type="matrix" values="0 0 0 0 0 0 0 0 0 0 0 0 0 0 0 0 0 0 127 0" result="hardAlpha"/>
<feOffset dy="-20"/>
<feGaussianBlur stdDeviation="25"/>
<feComposite in2="hardAlpha" operator="arithmetic" k2="-1" k3="1"/>
<feColorMatrix type="matrix" values="0 0 0 0 1 0 0 0 0 0.549 0 0 0 0 0.4875 0 0 0 0.37 0"/>
<feBlend mode="normal" in2="effect1_innerShadow_7774_1606" result="effect2_innerShadow_7774_1606"/>
<feColorMatrix in="SourceAlpha" type="matrix" values="0 0 0 0 0 0 0 0 0 0 0 0 0 0 0 0 0 0 127 0" result="hardAlpha"/>
<feOffset dy="2"/>
<feGaussianBlur stdDeviation="5"/>
<feComposite in2="hardAlpha" operator="arithmetic" k2="-1" k3="1"/>
<feColorMatrix type="matrix" values="0 0 0 0 1 0 0 0 0 1 0 0 0 0 1 0 0 0 0.58 0"/>
<feBlend mode="normal" in2="effect2_innerShadow_7774_1606" result="effect3_innerShadow_7774_1606"/>
</filter>
<filter id="filter1_ddddd_7774_1606" x="30.8831" y="80.4172" width="173.956" height="148.216" filterUnits="userSpaceOnUse" color-interpolation-filters="sRGB">
<feFlood flood-opacity="0" result="BackgroundImageFix"/>
<feColorMatrix in="SourceAlpha" type="matrix" values="0 0 0 0 0 0 0 0 0 0 0 0 0 0 0 0 0 0 127 0" result="hardAlpha"/>
<feOffset dy="2.76726"/>
<feGaussianBlur stdDeviation="1.1069"/>
<feColorMatrix type="matrix" values="0 0 0 0 0.87451 0 0 0 0 0.25098 0 0 0 0 0 0 0 0 0.177122 0"/>
<feBlend mode="normal" in2="BackgroundImageFix" result="effect1_dropShadow_7774_1606"/>
<feColorMatrix in="SourceAlpha" type="matrix" values="0 0 0 0 0 0 0 0 0 0 0 0 0 0 0 0 0 0 127 0" result="hardAlpha"/>
<feOffset dy="6.6501"/>
<feGaussianBlur stdDeviation="2.66004"/>
<feColorMatrix type="matrix" values="0 0 0 0 0.87451 0 0 0 0 0.25098 0 0 0 0 0 0 0 0 0.254452 0"/>
<feBlend mode="normal" in2="effect1_dropShadow_7774_1606" result="effect2_dropShadow_7774_1606"/>
<feColorMatrix in="SourceAlpha" type="matrix" values="0 0 0 0 0 0 0 0 0 0 0 0 0 0 0 0 0 0 127 0" result="hardAlpha"/>
<feOffset dy="12.5216"/>
<feGaussianBlur stdDeviation="5.00862"/>
<feColorMatrix type="matrix" values="0 0 0 0 0.87451 0 0 0 0 0.25098 0 0 0 0 0 0 0 0 0.315 0"/>
<feBlend mode="normal" in2="effect2_dropShadow_7774_1606" result="effect3_dropShadow_7774_1606"/>
<feColorMatrix in="SourceAlpha" type="matrix" values="0 0 0 0 0 0 0 0 0 0 0 0 0 0 0 0 0 0 127 0" result="hardAlpha"/>
<feOffset dy="22.3363"/>
<feGaussianBlur stdDeviation="8.93452"/>
<feColorMatrix type="matrix" values="0 0 0 0 0.87451 0 0 0 0 0.25098 0 0 0 0 0 0 0 0 0.375548 0"/>
<feBlend mode="normal" in2="effect3_dropShadow_7774_1606" result="effect4_dropShadow_7774_1606"/>
<feColorMatrix in="SourceAlpha" type="matrix" values="0 0 0 0 0 0 0 0 0 0 0 0 0 0 0 0 0 0 127 0" result="hardAlpha"/>
<feOffset dy="41.7776"/>
<feGaussianBlur stdDeviation="16.711"/>
<feColorMatrix type="matrix" values="0 0 0 0 0.87451 0 0 0 0 0.25098 0 0 0 0 0 0 0 0 0.452878 0"/>
<feBlend mode="normal" in2="effect4_dropShadow_7774_1606" result="effect5_dropShadow_7774_1606"/>
<feBlend mode="normal" in="SourceGraphic" in2="effect5_dropShadow_7774_1606" result="shape"/>
</filter>
<radialGradient id="paint0_radial_7774_1606" cx="0" cy="0" r="1" gradientUnits="userSpaceOnUse" gradientTransform="translate(157.054 81.4102) rotate(110.973) scale(195.771)">
<stop stop-color="#FF7C33"/>
<stop offset="1" stop-color="#FFAD61" stop-opacity="0"/>
</radialGradient>
</defs>
</svg>
