<svg width="283" height="218" viewBox="0 0 283 218" fill="none" xmlns="http://www.w3.org/2000/svg">
<path d="M15.4875 57.9945C15.4875 55.7067 17.3422 53.8521 19.63 53.8521H107.45C109.738 53.8521 111.593 55.7067 111.593 57.9945V106.876C111.593 109.163 109.738 111.018 107.45 111.018H19.63C17.3422 111.018 15.4875 109.163 15.4875 106.876V57.9945Z" fill="#9090A5"/>
<rect x="17.1448" y="53.0234" width="95.2767" height="56.3375" rx="3.31397" fill="url(#paint0_linear_5647_1758)"/>
<g filter="url(#filter0_dddddi_5647_1758)">
<path d="M31.2277 94.4482L53.6739 75.1354C54.3 74.5967 55.2271 74.6014 55.8478 75.1463L72.6471 89.8953C73.2961 90.465 74.2739 90.4408 74.8939 89.8396L98.3357 67.1079" stroke="url(#paint1_linear_5647_1758)" stroke-width="6.62794" stroke-linecap="round"/>
</g>
<rect x="124.018" width="104.39" height="140.844" rx="8.28493" fill="url(#paint2_linear_5647_1758)"/>
<rect x="127.332" width="104.39" height="140.844" rx="8.28493" fill="url(#paint3_linear_5647_1758)"/>
<g style="mix-blend-mode:multiply" opacity="0.7" filter="url(#filter1_b_5647_1758)">
<path fill-rule="evenodd" clip-rule="evenodd" d="M13.061 168.816C12.6288 171.211 14.5529 173.305 16.9867 173.305H278.483C280.885 173.305 282.795 171.263 282.465 168.885C278.245 138.398 252.964 114.968 222.407 114.968C213.271 114.968 204.607 117.062 196.836 120.813C194.466 121.957 191.545 120.878 190.503 118.461C181.032 96.4964 159.782 81.1924 135.086 81.1924C107.338 81.1924 83.9398 100.514 76.7127 126.895C76.0366 129.363 73.418 130.83 70.9381 130.198C67.3083 129.274 63.514 128.784 59.6094 128.784C36.4496 128.784 17.1726 146.029 13.061 168.816Z" fill="url(#paint4_linear_5647_1758)" fill-opacity="0.8"/>
</g>
<g filter="url(#filter2_dddddi_5647_1758)">
<path d="M183.566 21.5931V37.6683H175.661V21.5931H183.566ZM182.618 107.661V121.733H174.765V107.661H182.618ZM193.159 91.0062C193.159 88.898 192.684 87.0006 191.736 85.314C190.787 83.6274 189.223 82.0814 187.045 80.6759C184.866 79.2704 181.95 77.9704 178.296 76.7757C173.869 75.4054 170.039 73.7364 166.806 71.7687C163.609 69.801 161.131 67.359 159.375 64.4426C157.653 61.5263 156.792 57.995 156.792 53.8488C156.792 49.527 157.723 45.8025 159.585 42.6753C161.448 39.5481 164.083 37.1412 167.491 35.4546C170.899 33.7681 174.905 32.9248 179.508 32.9248C183.092 32.9248 186.289 33.4694 189.1 34.5586C191.911 35.6127 194.283 37.1939 196.216 39.3021C198.183 41.4103 199.677 43.9929 200.696 47.0498C201.75 50.1068 202.277 53.638 202.277 57.6436H192.579C192.579 55.2895 192.298 53.1285 191.736 51.1609C191.173 49.1932 190.33 47.489 189.206 46.0484C188.081 44.5727 186.711 43.4483 185.095 42.6753C183.478 41.8671 181.616 41.4631 179.508 41.4631C176.557 41.4631 174.114 41.9725 172.182 42.9915C170.285 44.0105 168.879 45.4511 167.966 47.3134C167.052 49.1405 166.595 51.2663 166.595 53.6907C166.595 55.9395 167.052 57.9072 167.966 59.5937C168.879 61.2803 170.425 62.8088 172.604 64.1791C174.817 65.5143 177.857 66.832 181.722 68.132C186.254 69.5726 190.102 71.2768 193.264 73.2445C196.426 75.177 198.833 77.5663 200.485 80.4124C202.136 83.2234 202.962 86.7195 202.962 90.9008C202.962 95.4335 201.943 99.2634 199.905 102.391C197.867 105.483 195.003 107.837 191.314 109.453C187.625 111.069 183.303 111.878 178.348 111.878C175.362 111.878 172.41 111.473 169.494 110.665C166.578 109.857 163.942 108.54 161.588 106.712C159.234 104.85 157.354 102.408 155.949 99.3864C154.543 96.3295 153.84 92.5874 153.84 88.1601H163.644C163.644 91.1467 164.065 93.6239 164.909 95.5916C165.787 97.5241 166.947 99.0701 168.387 100.23C169.828 101.354 171.409 102.162 173.131 102.654C174.888 103.111 176.627 103.339 178.348 103.339C181.511 103.339 184.181 102.847 186.36 101.864C188.573 100.845 190.26 99.4039 191.419 97.5417C192.579 95.6794 193.159 93.5009 193.159 91.0062Z" fill="white"/>
</g>
<rect x="34.5423" y="141.672" width="86.9918" height="75.3929" rx="8.28493" fill="url(#paint5_linear_5647_1758)"/>
<rect x="37.0274" y="139.187" width="86.9918" height="75.3929" rx="8.28493" fill="url(#paint6_linear_5647_1758)"/>
<g style="mix-blend-mode:multiply" filter="url(#filter3_b_5647_1758)">
<path fill-rule="evenodd" clip-rule="evenodd" d="M50.4733 34.3245C49.6451 36.613 51.5935 38.7364 54.0273 38.7364H139.334C141.735 38.7364 143.667 36.6801 143.036 34.3633C140.527 25.1514 132.364 18.4009 122.68 18.4009C120.664 18.4009 118.714 18.6936 116.866 19.2402C114.342 19.9872 111.408 18.9072 110.016 16.6731C106.249 10.6288 99.6955 6.6283 92.241 6.6283C83.6555 6.6283 76.2648 11.9348 72.9505 19.5585C71.9304 21.9051 69.2937 23.3647 66.738 23.2374C66.4713 23.2241 66.203 23.2174 65.9331 23.2174C58.8574 23.2174 52.8214 27.8354 50.4733 34.3245Z" fill="url(#paint7_linear_5647_1758)" fill-opacity="0.8"/>
</g>
<rect x="46.1417" y="146.643" width="66.2794" height="33.9682" rx="2.48548" fill="#29A8DC"/>
<rect x="46.1417" y="188.068" width="66.2794" height="7.45644" rx="2.48548" fill="#29A9DC"/>
<rect x="46.1417" y="198.839" width="31.4827" height="7.45644" rx="2.48548" fill="#29A9DC"/>
<path fill-rule="evenodd" clip-rule="evenodd" d="M256.652 69.011C256.652 67.96 255.8 67.1079 254.749 67.1079C253.697 67.1079 252.845 67.96 252.845 69.011V71.3898C252.845 73.7546 250.928 75.6716 248.564 75.6716H245.231C244.18 75.6716 243.328 76.5237 243.328 77.5748C243.328 78.6258 244.18 79.4779 245.231 79.4779H248.087C250.715 79.4779 252.845 81.6081 252.845 84.2359V87.0908C252.845 88.1419 253.697 88.9939 254.749 88.9939C255.8 88.9939 256.652 88.1419 256.652 87.0908V84.2348C256.652 81.6077 258.781 79.4779 261.409 79.4779H264.262C265.313 79.4779 266.165 78.6258 266.165 77.5748C266.165 76.5237 265.313 75.6716 264.262 75.6716H260.934C258.569 75.6716 256.652 73.7546 256.652 71.3898V69.011Z" fill="#E7E1F4"/>
<path fill-rule="evenodd" clip-rule="evenodd" d="M158.056 183.343C158.056 182.292 157.204 181.44 156.153 181.44C155.101 181.44 154.249 182.292 154.249 183.343V185.722C154.249 188.087 152.332 190.004 149.968 190.004H146.635C145.584 190.004 144.732 190.856 144.732 191.907C144.732 192.958 145.584 193.81 146.635 193.81H149.491C152.119 193.81 154.249 195.941 154.249 198.568V201.423C154.249 202.474 155.101 203.326 156.153 203.326C157.204 203.326 158.056 202.474 158.056 201.423V198.567C158.056 195.94 160.185 193.81 162.813 193.81H165.666C166.717 193.81 167.569 192.958 167.569 191.907C167.569 190.856 166.717 190.004 165.666 190.004H162.338C159.973 190.004 158.056 188.087 158.056 185.722V183.343Z" fill="#E7E1F4"/>
<path d="M207.695 139.187C207.695 136.899 209.55 135.044 211.838 135.044H259.89C262.178 135.044 264.033 136.899 264.033 139.187V188.068C264.033 190.356 262.178 192.21 259.89 192.21H211.838C209.55 192.21 207.695 190.356 207.695 188.068V139.187Z" fill="url(#paint8_linear_5647_1758)"/>
<rect x="209.353" y="134.216" width="55.509" height="56.3375" rx="3.31397" fill="url(#paint9_linear_5647_1758)"/>
<g filter="url(#filter4_dd_5647_1758)">
<path d="M227.084 172.824H247.962V151.946H227.084V172.824ZM241.002 176.304H234.043V179.783H230.563V176.304H225.344C224.882 176.304 224.44 176.12 224.113 175.794C223.787 175.468 223.604 175.025 223.604 174.564V169.344H220.124V165.865H223.604V158.905H220.124V155.426H223.604V150.206C223.604 149.745 223.787 149.302 224.113 148.976C224.44 148.65 224.882 148.466 225.344 148.466H230.563V144.987H234.043V148.466H241.002V144.987H244.482V148.466H249.701C250.163 148.466 250.605 148.65 250.932 148.976C251.258 149.302 251.441 149.745 251.441 150.206V155.426H254.921V158.905H251.441V165.865H254.921V169.344H251.441V174.564C251.441 175.025 251.258 175.468 250.932 175.794C250.605 176.12 250.163 176.304 249.701 176.304H244.482V179.783H241.002V176.304ZM230.563 155.426H244.482V169.344H230.563V155.426Z" fill="#FFE4C8"/>
</g>
<defs>
<filter id="filter0_dddddi_5647_1758" x="0.223709" y="47.5261" width="129.116" height="89.3482" filterUnits="userSpaceOnUse" color-interpolation-filters="sRGB">
<feFlood flood-opacity="0" result="BackgroundImageFix"/>
<feColorMatrix in="SourceAlpha" type="matrix" values="0 0 0 0 0 0 0 0 0 0 0 0 0 0 0 0 0 0 127 0" result="hardAlpha"/>
<feOffset dy="0.756575"/>
<feGaussianBlur stdDeviation="0.917061"/>
<feColorMatrix type="matrix" values="0 0 0 0 0 0 0 0 0 0 0 0 0 0 0 0 0 0 0.0449833 0"/>
<feBlend mode="normal" in2="BackgroundImageFix" result="effect1_dropShadow_5647_1758"/>
<feColorMatrix in="SourceAlpha" type="matrix" values="0 0 0 0 0 0 0 0 0 0 0 0 0 0 0 0 0 0 127 0" result="hardAlpha"/>
<feOffset dy="1.81816"/>
<feGaussianBlur stdDeviation="2.20383"/>
<feColorMatrix type="matrix" values="0 0 0 0 0 0 0 0 0 0 0 0 0 0 0 0 0 0 0.0646228 0"/>
<feBlend mode="normal" in2="effect1_dropShadow_5647_1758" result="effect2_dropShadow_5647_1758"/>
<feColorMatrix in="SourceAlpha" type="matrix" values="0 0 0 0 0 0 0 0 0 0 0 0 0 0 0 0 0 0 127 0" result="hardAlpha"/>
<feOffset dy="6.10681"/>
<feGaussianBlur stdDeviation="7.40219"/>
<feColorMatrix type="matrix" values="0 0 0 0 0 0 0 0 0 0 0 0 0 0 0 0 0 0 0.0953772 0"/>
<feBlend mode="normal" in2="effect2_dropShadow_5647_1758" result="effect3_dropShadow_5647_1758"/>
<feColorMatrix in="SourceAlpha" type="matrix" values="0 0 0 0 0 0 0 0 0 0 0 0 0 0 0 0 0 0 127 0" result="hardAlpha"/>
<feOffset dy="11.4221"/>
<feGaussianBlur stdDeviation="13.845"/>
<feColorMatrix type="matrix" values="0 0 0 0 0 0 0 0 0 0 0 0 0 0 0 0 0 0 0.115017 0"/>
<feBlend mode="normal" in2="effect3_dropShadow_5647_1758" result="effect4_dropShadow_5647_1758"/>
<feColorMatrix in="SourceAlpha" type="matrix" values="0 0 0 0 0 0 0 0 0 0 0 0 0 0 0 0 0 0 127 0" result="hardAlpha"/>
<feOffset dy="1.65699"/>
<feGaussianBlur stdDeviation="0.828493"/>
<feColorMatrix type="matrix" values="0 0 0 0 0.404167 0 0 0 0 0.404167 0 0 0 0 0.404167 0 0 0 0.24 0"/>
<feBlend mode="normal" in2="effect4_dropShadow_5647_1758" result="effect5_dropShadow_5647_1758"/>
<feBlend mode="normal" in="SourceGraphic" in2="effect5_dropShadow_5647_1758" result="shape"/>
<feColorMatrix in="SourceAlpha" type="matrix" values="0 0 0 0 0 0 0 0 0 0 0 0 0 0 0 0 0 0 127 0" result="hardAlpha"/>
<feOffset dy="-3.31397"/>
<feGaussianBlur stdDeviation="0.828493"/>
<feComposite in2="hardAlpha" operator="arithmetic" k2="-1" k3="1"/>
<feColorMatrix type="matrix" values="0 0 0 0 0.645833 0 0 0 0 0.622153 0 0 0 0 0.586632 0 0 0 0.32 0"/>
<feBlend mode="normal" in2="shape" result="effect6_innerShadow_5647_1758"/>
</filter>
<filter id="filter1_b_5647_1758" x="8.85753" y="77.0499" width="277.787" height="100.398" filterUnits="userSpaceOnUse" color-interpolation-filters="sRGB">
<feFlood flood-opacity="0" result="BackgroundImageFix"/>
<feGaussianBlur in="BackgroundImageFix" stdDeviation="2.07123"/>
<feComposite in2="SourceAlpha" operator="in" result="effect1_backgroundBlur_5647_1758"/>
<feBlend mode="normal" in="SourceGraphic" in2="effect1_backgroundBlur_5647_1758" result="shape"/>
</filter>
<filter id="filter2_dddddi_5647_1758" x="126.15" y="18.2792" width="104.501" height="165.757" filterUnits="userSpaceOnUse" color-interpolation-filters="sRGB">
<feFlood flood-opacity="0" result="BackgroundImageFix"/>
<feColorMatrix in="SourceAlpha" type="matrix" values="0 0 0 0 0 0 0 0 0 0 0 0 0 0 0 0 0 0 127 0" result="hardAlpha"/>
<feOffset dy="2.29265"/>
<feGaussianBlur stdDeviation="0.917061"/>
<feColorMatrix type="matrix" values="0 0 0 0 0 0 0 0 0 0 0 0 0 0 0 0 0 0 0.0449833 0"/>
<feBlend mode="normal" in2="BackgroundImageFix" result="effect1_dropShadow_5647_1758"/>
<feColorMatrix in="SourceAlpha" type="matrix" values="0 0 0 0 0 0 0 0 0 0 0 0 0 0 0 0 0 0 127 0" result="hardAlpha"/>
<feOffset dy="5.50956"/>
<feGaussianBlur stdDeviation="2.20383"/>
<feColorMatrix type="matrix" values="0 0 0 0 0 0 0 0 0 0 0 0 0 0 0 0 0 0 0.0646228 0"/>
<feBlend mode="normal" in2="effect1_dropShadow_5647_1758" result="effect2_dropShadow_5647_1758"/>
<feColorMatrix in="SourceAlpha" type="matrix" values="0 0 0 0 0 0 0 0 0 0 0 0 0 0 0 0 0 0 127 0" result="hardAlpha"/>
<feOffset dy="10.374"/>
<feGaussianBlur stdDeviation="4.14961"/>
<feColorMatrix type="matrix" values="0 0 0 0 0 0 0 0 0 0 0 0 0 0 0 0 0 0 0.08 0"/>
<feBlend mode="normal" in2="effect2_dropShadow_5647_1758" result="effect3_dropShadow_5647_1758"/>
<feColorMatrix in="SourceAlpha" type="matrix" values="0 0 0 0 0 0 0 0 0 0 0 0 0 0 0 0 0 0 127 0" result="hardAlpha"/>
<feOffset dy="18.5055"/>
<feGaussianBlur stdDeviation="7.40219"/>
<feColorMatrix type="matrix" values="0 0 0 0 0 0 0 0 0 0 0 0 0 0 0 0 0 0 0.0953772 0"/>
<feBlend mode="normal" in2="effect3_dropShadow_5647_1758" result="effect4_dropShadow_5647_1758"/>
<feColorMatrix in="SourceAlpha" type="matrix" values="0 0 0 0 0 0 0 0 0 0 0 0 0 0 0 0 0 0 127 0" result="hardAlpha"/>
<feOffset dy="34.6125"/>
<feGaussianBlur stdDeviation="13.845"/>
<feColorMatrix type="matrix" values="0 0 0 0 0 0 0 0 0 0 0 0 0 0 0 0 0 0 0.115017 0"/>
<feBlend mode="normal" in2="effect4_dropShadow_5647_1758" result="effect5_dropShadow_5647_1758"/>
<feBlend mode="normal" in="SourceGraphic" in2="effect5_dropShadow_5647_1758" result="shape"/>
<feColorMatrix in="SourceAlpha" type="matrix" values="0 0 0 0 0 0 0 0 0 0 0 0 0 0 0 0 0 0 127 0" result="hardAlpha"/>
<feOffset dy="-4.14247"/>
<feGaussianBlur stdDeviation="1.65699"/>
<feComposite in2="hardAlpha" operator="arithmetic" k2="-1" k3="1"/>
<feColorMatrix type="matrix" values="0 0 0 0 0.219608 0 0 0 0 0.807843 0 0 0 0 0.560784 0 0 0 0.41 0"/>
<feBlend mode="normal" in2="shape" result="effect6_innerShadow_5647_1758"/>
</filter>
<filter id="filter3_b_5647_1758" x="46.1372" y="2.48583" width="101.162" height="40.3931" filterUnits="userSpaceOnUse" color-interpolation-filters="sRGB">
<feFlood flood-opacity="0" result="BackgroundImageFix"/>
<feGaussianBlur in="BackgroundImageFix" stdDeviation="2.07123"/>
<feComposite in2="SourceAlpha" operator="in" result="effect1_backgroundBlur_5647_1758"/>
<feBlend mode="normal" in="SourceGraphic" in2="effect1_backgroundBlur_5647_1758" result="shape"/>
</filter>
<filter id="filter4_dd_5647_1758" x="215.717" y="144.987" width="43.612" height="44.714" filterUnits="userSpaceOnUse" color-interpolation-filters="sRGB">
<feFlood flood-opacity="0" result="BackgroundImageFix"/>
<feColorMatrix in="SourceAlpha" type="matrix" values="0 0 0 0 0 0 0 0 0 0 0 0 0 0 0 0 0 0 127 0" result="hardAlpha"/>
<feOffset dy="2.29265"/>
<feGaussianBlur stdDeviation="0.917061"/>
<feColorMatrix type="matrix" values="0 0 0 0 1 0 0 0 0 0 0 0 0 0 0 0 0 0 0.0955895 0"/>
<feBlend mode="normal" in2="BackgroundImageFix" result="effect1_dropShadow_5647_1758"/>
<feColorMatrix in="SourceAlpha" type="matrix" values="0 0 0 0 0 0 0 0 0 0 0 0 0 0 0 0 0 0 127 0" result="hardAlpha"/>
<feOffset dy="5.50956"/>
<feGaussianBlur stdDeviation="2.20383"/>
<feColorMatrix type="matrix" values="0 0 0 0 1 0 0 0 0 0 0 0 0 0 0 0 0 0 0.137324 0"/>
<feBlend mode="normal" in2="effect1_dropShadow_5647_1758" result="effect2_dropShadow_5647_1758"/>
<feBlend mode="normal" in="SourceGraphic" in2="effect2_dropShadow_5647_1758" result="shape"/>
</filter>
<linearGradient id="paint0_linear_5647_1758" x1="64.7832" y1="53.0234" x2="64.7832" y2="109.361" gradientUnits="userSpaceOnUse">
<stop stop-color="#E2E5ED"/>
<stop offset="1" stop-color="#C4C3D2"/>
</linearGradient>
<linearGradient id="paint1_linear_5647_1758" x1="59.2728" y1="81.2843" x2="61.8285" y2="90.8903" gradientUnits="userSpaceOnUse">
<stop stop-color="white"/>
<stop offset="1" stop-color="#ECECEC"/>
</linearGradient>
<linearGradient id="paint2_linear_5647_1758" x1="155.828" y1="-6.18571" x2="258.57" y2="72.8102" gradientUnits="userSpaceOnUse">
<stop stop-color="#21B778"/>
<stop offset="1" stop-color="#27AF76"/>
</linearGradient>
<linearGradient id="paint3_linear_5647_1758" x1="159.142" y1="-6.18571" x2="261.884" y2="72.8102" gradientUnits="userSpaceOnUse">
<stop stop-color="#4CF3AD"/>
<stop offset="1" stop-color="#27AF76"/>
</linearGradient>
<linearGradient id="paint4_linear_5647_1758" x1="99.5391" y1="108.79" x2="357.563" y2="203.192" gradientUnits="userSpaceOnUse">
<stop stop-color="#FAD2AE"/>
<stop offset="0.772612" stop-color="#FAD2AE" stop-opacity="0"/>
</linearGradient>
<linearGradient id="paint5_linear_5647_1758" x1="78.0382" y1="141.672" x2="78.0382" y2="217.065" gradientUnits="userSpaceOnUse">
<stop stop-color="#5CBFDA"/>
<stop offset="1" stop-color="#2E8FCE"/>
</linearGradient>
<linearGradient id="paint6_linear_5647_1758" x1="80.5233" y1="139.187" x2="80.5233" y2="214.58" gradientUnits="userSpaceOnUse">
<stop stop-color="#94E2F7"/>
<stop offset="1" stop-color="#6ABBEF"/>
</linearGradient>
<linearGradient id="paint7_linear_5647_1758" x1="80.1032" y1="16.2481" x2="169.262" y2="48.4988" gradientUnits="userSpaceOnUse">
<stop stop-color="#AEB1FA"/>
<stop offset="0.772612" stop-color="#FAD2AE" stop-opacity="0"/>
</linearGradient>
<linearGradient id="paint8_linear_5647_1758" x1="235.864" y1="135.044" x2="235.864" y2="192.21" gradientUnits="userSpaceOnUse">
<stop stop-color="#FFAA5C"/>
<stop offset="1" stop-color="#D63F33"/>
</linearGradient>
<linearGradient id="paint9_linear_5647_1758" x1="237.107" y1="134.216" x2="237.107" y2="190.553" gradientUnits="userSpaceOnUse">
<stop stop-color="#FFDF5C"/>
<stop offset="1" stop-color="#FF796E"/>
</linearGradient>
</defs>
</svg>
