<svg width="15" height="15" viewBox="0 0 15 15" fill="none" xmlns="http://www.w3.org/2000/svg">
<path d="M7.50002 14.5833C3.5879 14.5833 0.416687 11.4121 0.416687 7.49999C0.416687 3.58787 3.5879 0.416656 7.50002 0.416656C11.4121 0.416656 14.5834 3.58787 14.5834 7.49999C14.5834 11.4121 11.4121 14.5833 7.50002 14.5833ZM7.50002 13.1667C9.00291 13.1667 10.4443 12.5696 11.507 11.5069C12.5697 10.4442 13.1667 9.00288 13.1667 7.49999C13.1667 5.9971 12.5697 4.55576 11.507 3.49305C10.4443 2.43035 9.00291 1.83332 7.50002 1.83332C5.99713 1.83332 4.55579 2.43035 3.49308 3.49305C2.43038 4.55576 1.83335 5.9971 1.83335 7.49999C1.83335 9.00288 2.43038 10.4442 3.49308 11.5069C4.55579 12.5696 5.99713 13.1667 7.50002 13.1667ZM6.79381 10.3333L3.78835 7.32787L4.78994 6.32628L6.79381 8.33016L10.8001 4.32311L11.8024 5.3247L6.79381 10.3333Z" fill="#1FBC7D"/>
</svg>
