<svg width="22" height="12" viewBox="0 0 22 12" fill="none" xmlns="http://www.w3.org/2000/svg">
<path d="M11.917 6.99987C11.6623 8.47994 10.8619 9.81072 9.67392 10.7295C8.48593 11.6483 6.99666 12.0884 5.50009 11.9628C4.00352 11.8372 2.60841 11.1551 1.59016 10.0512C0.57191 8.94725 0.00452288 7.50169 2.5002e-06 5.99987C-0.00137098 4.49448 0.563193 3.04358 1.58168 1.93503C2.60017 0.826478 3.99816 0.141291 5.49828 0.0154102C6.9984 -0.11047 8.49103 0.332155 9.68002 1.25547C10.869 2.17878 11.6675 3.5153 11.917 4.99987H22V6.99987H20V10.9999H18V6.99987H16V10.9999H14V6.99987H11.917ZM6 9.99987C7.06087 9.99987 8.07828 9.57844 8.82843 8.8283C9.57858 8.07815 10 7.06074 10 5.99987C10 4.939 9.57858 3.92159 8.82843 3.17144C8.07828 2.4213 7.06087 1.99987 6 1.99987C4.93914 1.99987 3.92172 2.4213 3.17158 3.17144C2.42143 3.92159 2 4.939 2 5.99987C2 7.06074 2.42143 8.07815 3.17158 8.8283C3.92172 9.57844 4.93914 9.99987 6 9.99987Z" fill="#FB5647"/>
</svg>
