<svg width="18" height="20" viewBox="0 0 18 20" fill="none" xmlns="http://www.w3.org/2000/svg">
<path d="M9.00053 15C12.6625 15 15.8655 16.575 17.6075 18.925L15.7655 19.796C14.3475 18.116 11.8475 17 9.00053 17C6.15353 17 3.65353 18.116 2.23553 19.796L0.394531 18.924C2.13653 16.574 5.33853 15 9.00053 15ZM9.00053 0C10.3266 0 11.5984 0.526784 12.5361 1.46447C13.4737 2.40215 14.0005 3.67392 14.0005 5V8C14.0005 9.28846 13.503 10.5272 12.6119 11.4578C11.7208 12.3884 10.5048 12.9391 9.21753 12.995L9.00053 13C7.67445 13 6.40268 12.4732 5.465 11.5355C4.52732 10.5979 4.00053 9.32608 4.00053 8V5C4.00061 3.71154 4.49807 2.47284 5.38919 1.54222C6.28031 0.611607 7.49628 0.0609194 8.78353 0.00500011L9.00053 0ZM9.00053 2C8.23532 1.99996 7.49902 2.29233 6.94227 2.81728C6.38552 3.34224 6.05042 4.06011 6.00553 4.824L6.00053 5V8C5.99978 8.7809 6.30355 9.53133 6.8473 10.0918C7.39105 10.6523 8.13193 10.9787 8.91249 11.0016C9.69306 11.0245 10.4518 10.7422 11.0275 10.2145C11.6032 9.68691 11.9505 8.9556 11.9955 8.176L12.0005 8V5C12.0005 4.20435 11.6845 3.44129 11.1219 2.87868C10.5592 2.31607 9.79618 2 9.00053 2Z" fill="#D4D4D4"/>
</svg>
