<svg width="16" height="18" viewBox="0 0 16 18" fill="none" xmlns="http://www.w3.org/2000/svg">
<path d="M2.57143 6V5.14286C2.57143 3.77889 3.11326 2.47078 4.07774 1.50631C5.04221 0.541835 6.35032 0 7.71429 0C9.07826 0 10.3864 0.541835 11.3508 1.50631C12.3153 2.47078 12.8571 3.77889 12.8571 5.14286V6H14.5714C14.7988 6 15.0168 6.09031 15.1775 6.25105C15.3383 6.4118 15.4286 6.62981 15.4286 6.85714V17.1429C15.4286 17.3702 15.3383 17.5882 15.1775 17.7489C15.0168 17.9097 14.7988 18 14.5714 18H0.857143C0.629814 18 0.411797 17.9097 0.251051 17.7489C0.0903058 17.5882 0 17.3702 0 17.1429V6.85714C0 6.62981 0.0903058 6.4118 0.251051 6.25105C0.411797 6.09031 0.629814 6 0.857143 6H2.57143ZM13.7143 7.71429H1.71429V16.2857H13.7143V7.71429ZM6.85714 12.6274C6.53033 12.4387 6.27491 12.1475 6.13049 11.7988C5.98608 11.4502 5.96074 11.0636 6.05841 10.6991C6.15608 10.3346 6.3713 10.0125 6.67069 9.78278C6.97009 9.55305 7.33691 9.42853 7.71429 9.42853C8.09166 9.42853 8.45849 9.55305 8.75788 9.78278C9.05727 10.0125 9.27249 10.3346 9.37016 10.6991C9.46783 11.0636 9.44249 11.4502 9.29808 11.7988C9.15367 12.1475 8.89824 12.4387 8.57143 12.6274V14.5714H6.85714V12.6274ZM4.28571 6H11.1429V5.14286C11.1429 4.23354 10.7816 3.36147 10.1387 2.71849C9.49567 2.07551 8.6236 1.71429 7.71429 1.71429C6.80497 1.71429 5.9329 2.07551 5.28992 2.71849C4.64694 3.36147 4.28571 4.23354 4.28571 5.14286V6Z" fill="#FB5647"/>
</svg>
