<svg width="25" height="30" viewBox="0 0 25 30" fill="none" xmlns="http://www.w3.org/2000/svg">
<path d="M12.1523 0.907389C11.7407 0.952184 11.3348 1.02498 10.9344 1.12856C10.5397 1.22935 10.1561 1.36094 9.77535 1.50932C9.41979 1.6493 9.06982 1.80329 8.72826 1.97407C8.4231 2.12805 8.12353 2.29603 7.83236 2.47801C7.5328 2.66559 7.24723 2.86997 6.97006 3.08554C6.47172 3.4719 6.01257 3.90305 5.59542 4.379C5.17827 4.85494 4.80311 5.37288 4.47834 5.91602C4.15358 6.45916 3.88201 7.0331 3.64684 7.62103C3.41726 8.19777 3.23528 8.7913 3.0841 9.39323C2.92732 10.0288 2.81533 10.6755 2.72854 11.325C2.64175 11.9661 2.59136 12.6129 2.56336 13.2596C2.50737 14.5754 2.55216 15.8913 2.66135 17.2043C2.71454 17.8567 2.77894 18.509 2.88252 19.1557C2.98051 19.7773 3.1205 20.3876 3.28848 20.9923C3.37527 21.2975 3.47606 21.5998 3.57684 21.8994C3.68043 22.199 3.79242 22.4957 3.91281 22.7897C4.15358 23.3776 4.41675 23.9572 4.72192 24.5143C5.01588 25.0519 5.34345 25.5698 5.7102 26.0625C6.06856 26.5441 6.46052 27.0004 6.89727 27.4092C7.32562 27.8095 7.79597 28.1679 8.29991 28.4647C8.80385 28.7642 9.35259 28.9966 9.91813 29.159C10.5089 29.3298 11.1276 29.4166 11.7435 29.4306C12.4238 29.4474 13.1098 29.3634 13.7733 29.215C14.476 29.0582 15.1591 28.8174 15.8087 28.5095C16.111 28.3667 16.405 28.2043 16.6878 28.0279C16.9705 27.8515 17.2393 27.6584 17.5025 27.454C18.5104 26.6645 19.3279 25.6482 19.9606 24.5367C20.6073 23.4 21.0553 22.157 21.3772 20.8943C21.7048 19.6093 21.898 18.2878 22.0044 16.9636C22.0632 16.2441 22.094 15.5217 22.1108 14.7994C22.1304 13.9651 22.1248 13.1308 22.0744 12.2965C22.024 11.4426 21.9288 10.5943 21.7776 9.75159C21.7048 9.34284 21.6124 8.93408 21.5032 8.53093C21.3968 8.13617 21.2708 7.74702 21.1225 7.36626C20.9741 6.9855 20.8061 6.61314 20.6129 6.25199C20.4701 5.98601 20.3162 5.72564 20.1566 5.46807C19.8626 4.99773 19.5378 4.54698 19.1879 4.11583C19.1795 4.10463 19.1711 4.09343 19.1599 4.08223C19.0787 3.98144 18.9947 3.88345 18.9107 3.78266C18.4404 3.23393 17.9196 2.72438 17.3513 2.27643C16.797 1.83688 16.1922 1.45613 15.5287 1.20976C15.2039 1.08937 14.868 0.999779 14.5264 0.957783C14.3164 0.929787 14.1065 0.921388 13.8965 0.924188C13.6837 0.896191 13.4681 0.876593 13.2526 0.865394C13.149 0.859795 13.0426 0.856995 12.939 0.856995C12.6758 0.862594 12.4126 0.879393 12.1523 0.907389ZM13.7453 1.78929C14.2912 1.87048 14.826 2.01886 15.3355 2.22884C15.9318 2.48921 16.489 2.82797 17.0041 3.21993C17.2589 3.41871 17.5025 3.63148 17.7376 3.85266C17.8664 3.97304 17.9896 4.09623 18.1128 4.22221C18.18 4.29221 18.2472 4.3622 18.3144 4.43499C18.3928 4.51898 18.474 4.59457 18.5552 4.67576C18.6587 4.77655 18.8043 4.81575 18.9387 4.78775C19.1823 5.12651 19.4147 5.47087 19.6358 5.82643C19.9382 6.31638 20.2098 6.82312 20.4365 7.35226C20.6773 7.93179 20.8705 8.52813 21.0301 9.13566C21.1953 9.77119 21.31 10.4179 21.3968 11.0674C21.5788 12.4505 21.6264 13.8503 21.6236 15.2446C21.6208 15.8325 21.6096 16.4232 21.5732 17.0112C21.5396 17.5655 21.4864 18.117 21.4136 18.6658C21.2121 20.1244 20.8565 21.5635 20.2882 22.9269C19.9018 23.8396 19.4147 24.7131 18.8127 25.4998C18.3424 26.1045 17.802 26.6505 17.2001 27.1208C16.6122 27.5688 15.9738 27.9383 15.2963 28.2295C14.532 28.5487 13.7229 28.7726 12.8998 28.8874C12.2559 28.9686 11.6035 28.9798 10.9596 28.8958C10.3857 28.8146 9.82294 28.6607 9.2882 28.4395C8.72266 28.1959 8.19352 27.8795 7.70638 27.5072C7.11844 27.048 6.59211 26.5105 6.13296 25.9226C5.51703 25.1191 5.02148 24.2288 4.62393 23.2965C4.33556 22.6077 4.10319 21.8966 3.92681 21.1715C3.75043 20.452 3.60764 19.7213 3.50685 18.9877C3.43126 18.4082 3.38087 17.8259 3.33607 17.2435C3.28848 16.6136 3.25768 15.9809 3.24368 15.351C3.21569 14.1079 3.26608 12.8648 3.42566 11.633C3.60764 10.3171 3.91281 9.01527 4.42515 7.78621C4.60433 7.37186 4.80031 6.9659 5.02428 6.57115C5.25106 6.17359 5.50303 5.79284 5.7802 5.43168C6.26174 4.81575 6.81608 4.26141 7.43201 3.77986C8.14313 3.23953 8.91864 2.79438 9.73895 2.44442C10.0973 2.29603 10.4613 2.16165 10.8336 2.05246C11.22 1.93767 11.6147 1.85088 12.0151 1.79489C12.5918 1.7221 13.1714 1.7165 13.7453 1.78929ZM21.4024 11.087C21.4024 11.0954 21.4052 11.1038 21.4052 11.1122C21.4052 11.1038 21.4024 11.0954 21.4024 11.087Z" fill="#2C2C2C"/>
<path d="M16.3853 2.21769C16.3741 2.23728 16.3797 2.26808 16.4021 2.27928C16.6401 2.40246 16.864 2.54805 17.0768 2.71043C17.2728 2.86441 17.4576 3.02959 17.634 3.20317C17.578 3.25077 17.5584 3.33756 17.6004 3.40195C17.6144 3.42435 17.6312 3.44395 17.6452 3.46634C17.6508 3.47474 17.6592 3.48314 17.6648 3.49434C17.6956 3.53914 17.7291 3.58113 17.7599 3.62593C17.8243 3.71272 17.8887 3.79951 17.9503 3.8863C18.0735 4.05148 18.1939 4.21946 18.3171 4.38464C18.5607 4.715 18.8042 5.04817 19.0478 5.37853C19.143 5.50451 19.2354 5.6333 19.3306 5.75929C19.4034 5.87127 19.4734 5.98326 19.5433 6.09805C19.7477 6.43121 19.9437 6.76717 20.1257 7.11153C20.3105 7.45869 20.4812 7.81145 20.6436 8.16701C20.6884 8.2622 20.7304 8.35739 20.7724 8.45538C20.8592 8.66536 20.9404 8.87813 21.0216 9.08811C21.0664 9.2029 21.1112 9.31488 21.1588 9.42687C21.184 9.48846 21.2092 9.54726 21.2344 9.60885C21.2512 9.64805 21.2651 9.68444 21.2819 9.72364C21.2959 9.75443 21.3127 9.78523 21.3267 9.81603C21.3435 9.84402 21.3631 9.86362 21.3911 9.88042C21.4331 9.90562 21.4835 9.91122 21.5311 9.90002C21.6263 9.87482 21.6823 9.77123 21.6571 9.67604C21.6431 9.62565 21.6263 9.57805 21.6123 9.52766C21.5983 9.48006 21.5871 9.43247 21.5731 9.38768C21.5423 9.28689 21.5115 9.1861 21.4779 9.08811C21.4079 8.88933 21.3239 8.69615 21.24 8.50298C21.086 8.14462 20.9208 7.79186 20.7444 7.44469C20.8228 7.3971 20.8592 7.28511 20.806 7.20392C20.6212 6.92395 20.4364 6.64399 20.2489 6.36682C20.2769 6.33882 20.2993 6.30522 20.3077 6.26883C20.3217 6.21843 20.3189 6.14844 20.2853 6.10365C20.2657 6.06725 20.2433 6.03365 20.2237 6.00006C20.2153 5.98606 20.2097 5.97206 20.2013 5.96086C20.2209 5.89927 20.2181 5.83208 20.1817 5.77608C20.0529 5.57171 19.9157 5.37573 19.7701 5.18535C19.6413 5.01737 19.5069 4.85499 19.3698 4.69541C19.2186 4.49663 19.0562 4.30345 18.8854 4.12147C18.7986 4.02908 18.709 3.93669 18.6166 3.8527C18.5691 3.80791 18.5187 3.76591 18.4683 3.72392C18.4655 3.72112 18.4599 3.71832 18.4571 3.71272C18.4459 3.70152 18.4319 3.68752 18.4207 3.67632C18.3759 3.62873 18.3311 3.58113 18.2863 3.53914C18.2583 3.51394 18.2275 3.49434 18.1939 3.48594C18.1127 3.41315 18.0343 3.33756 17.9531 3.26477C17.6816 3.01839 17.3904 2.79162 17.0852 2.58724C16.8808 2.44726 16.6653 2.32127 16.4441 2.20929C16.4357 2.20649 16.4301 2.20369 16.4217 2.20369C16.4077 2.19529 16.3937 2.20089 16.3853 2.21769ZM20.7612 8.41899C20.764 8.42459 20.764 8.42738 20.7668 8.43298C20.7668 8.42738 20.764 8.42179 20.7612 8.41899Z" fill="#2C2C2C"/>
<path d="M1.25868 12.2461C1.18588 12.2517 1.11029 12.2601 1.0403 12.2797C0.970309 12.2965 0.905917 12.3245 0.841524 12.3553C0.799529 12.3749 0.757533 12.4001 0.721137 12.4253C0.662343 12.4673 0.606351 12.5093 0.555956 12.5597C0.368378 12.7444 0.24799 12.9908 0.1668 13.2372C0.0744101 13.5143 0.0324148 13.8111 0.0128171 14.1023C-0.00958041 14.413 -0.00118135 14.7266 0.0268155 15.0402C0.0856088 15.7177 0.225593 16.3952 0.460766 17.0335C0.569954 17.3303 0.69874 17.6243 0.863922 17.8958C0.942313 18.0274 1.0319 18.1506 1.12709 18.2682C1.19988 18.3578 1.27827 18.4418 1.36506 18.5146C1.45745 18.593 1.55544 18.6658 1.66743 18.719C1.73182 18.7498 1.79622 18.7777 1.86341 18.7973C1.9306 18.8169 2.00059 18.8253 2.07058 18.8337C2.18537 18.8477 2.30576 18.8337 2.41495 18.8057C2.48774 18.7889 2.55493 18.7581 2.62212 18.7302C2.65572 18.7162 2.68931 18.6994 2.72011 18.6798C2.75931 18.6574 2.7985 18.6294 2.8349 18.6014C2.89369 18.5594 2.95248 18.5146 3.00288 18.4642C3.12327 18.3438 3.12327 18.1394 3.00288 18.019C2.94409 17.9602 2.86289 17.9266 2.7789 17.9266C2.69211 17.9266 2.61652 17.9602 2.55493 18.019C2.52413 18.047 2.49614 18.075 2.46534 18.1002C2.42055 18.131 2.37295 18.159 2.32256 18.1842C2.28336 18.1982 2.24137 18.2122 2.19937 18.2178C2.16298 18.2206 2.12658 18.2206 2.09018 18.2178C2.04819 18.2094 2.00619 18.1982 1.967 18.1842C1.9082 18.1562 1.85221 18.1226 1.80182 18.0834C1.70663 18.005 1.61984 17.9126 1.54424 17.8175C1.37066 17.5851 1.23348 17.3247 1.11869 17.0587C0.889118 16.5044 0.740735 15.9109 0.656744 15.3173C0.595151 14.8414 0.575554 14.3542 0.634347 13.8755C0.662344 13.6739 0.709938 13.4723 0.78273 13.2848C0.821926 13.2008 0.866721 13.1196 0.919915 13.044C0.953511 13.0048 0.989906 12.9656 1.0291 12.932C1.0627 12.9096 1.09629 12.89 1.13269 12.8704C1.17189 12.8564 1.21108 12.8452 1.25028 12.8396C1.30627 12.834 1.36226 12.8368 1.41826 12.8424C1.51905 12.8592 1.61984 12.89 1.71502 12.9292C1.9334 13.0272 2.13778 13.1588 2.32816 13.3044C2.45414 13.4024 2.57733 13.5087 2.69491 13.6179C2.75371 13.6711 2.8237 13.7047 2.90489 13.7047C2.98328 13.7047 3.05887 13.6739 3.11487 13.6179C3.22405 13.5087 3.23525 13.3072 3.11487 13.198C2.93849 13.0356 2.75371 12.8844 2.56053 12.7416C2.42054 12.638 2.27216 12.5429 2.11538 12.4645C1.9726 12.3917 1.82141 12.3273 1.66463 12.2881C1.55544 12.2601 1.44066 12.2433 1.32587 12.2433C1.30347 12.2433 1.28107 12.2461 1.25868 12.2461Z" fill="#2C2C2C"/>
<path d="M23.1998 12.2937C23.0682 12.3189 22.9422 12.3637 22.8162 12.4169C22.7043 12.4645 22.5979 12.5233 22.4971 12.5933C22.2843 12.7417 22.1023 12.932 21.9623 13.1504C21.8224 13.3716 21.744 13.6264 21.7188 13.8839C21.716 13.9231 21.7384 13.9651 21.7636 13.9931C21.7916 14.0211 21.8308 14.0379 21.8727 14.0379C21.9119 14.0379 21.9511 14.0211 21.9819 13.9931C22.0127 13.9623 22.0239 13.9259 22.0267 13.8839C22.0267 13.8699 22.0295 13.8587 22.0295 13.8447C22.0435 13.7523 22.0687 13.6627 22.1023 13.576C22.1443 13.4808 22.1975 13.394 22.2591 13.3128C22.3347 13.2204 22.4187 13.1392 22.5111 13.0636C22.6259 12.9796 22.7462 12.9096 22.8778 12.8536C23.0122 12.8004 23.1494 12.7613 23.2922 12.7389C23.4266 12.7249 23.5638 12.7221 23.6981 12.7361C23.7849 12.7501 23.8717 12.7725 23.9557 12.8032C24.0173 12.8312 24.0761 12.8648 24.1293 12.904C24.1825 12.9488 24.2301 12.9964 24.2749 13.0496C24.3281 13.1252 24.3757 13.2064 24.4121 13.2904C24.4737 13.4444 24.51 13.604 24.5352 13.7663C24.58 14.1471 24.5604 14.5307 24.5101 14.9086C24.4709 15.1886 24.4205 15.4685 24.3477 15.7401C24.2693 16.0397 24.1685 16.3336 24.0481 16.6192C23.8941 16.9804 23.7121 17.3331 23.4742 17.6467C23.379 17.7671 23.2726 17.8819 23.1522 17.9799C23.0906 18.0247 23.0234 18.0667 22.9534 18.1002C22.9086 18.117 22.8638 18.1282 22.819 18.1394C22.7798 18.1422 22.7435 18.1422 22.7043 18.1394C22.6595 18.131 22.6175 18.1198 22.5755 18.103C22.5251 18.0779 22.4775 18.0499 22.4327 18.0163C22.2283 17.8483 22.0827 17.6271 21.9063 17.4339C21.8476 17.3695 21.7412 17.3611 21.6684 17.4031C21.6376 17.4199 21.6152 17.4451 21.5984 17.4731C21.5732 17.5151 21.5592 17.5767 21.5788 17.6243C21.6124 17.7139 21.6544 17.8007 21.7048 17.8847C21.7552 17.9659 21.814 18.0443 21.8755 18.117C21.9707 18.229 22.0827 18.327 22.2031 18.411C22.3907 18.5426 22.6203 18.6266 22.8498 18.6154C23.3566 18.5874 23.7261 18.1786 23.9865 17.7839C24.1293 17.5683 24.2497 17.3331 24.3561 17.0952C24.4681 16.8432 24.566 16.5828 24.65 16.3196C24.7172 16.1041 24.7788 15.8885 24.8236 15.6673C24.874 15.4238 24.9132 15.1774 24.9468 14.931C24.9804 14.6762 25 14.4187 25 14.1611C25 13.8979 24.9748 13.6348 24.9104 13.38C24.8796 13.254 24.8348 13.1336 24.7788 13.016C24.7256 12.904 24.6584 12.8032 24.58 12.7053C24.5017 12.6101 24.4065 12.5317 24.3057 12.4645C24.1965 12.3945 24.0733 12.3413 23.9473 12.3077C23.8353 12.2769 23.7177 12.2629 23.6002 12.2545C23.5778 12.2545 23.5526 12.2517 23.5302 12.2517C23.421 12.2573 23.309 12.2741 23.1998 12.2937ZM24.5129 14.9226C24.5129 14.931 24.5101 14.9422 24.5101 14.9506C24.5101 14.9422 24.5101 14.9338 24.5129 14.9226Z" fill="#2C2C2C"/>
<path d="M1.4211 14.5419C1.37911 14.5839 1.35391 14.6426 1.35391 14.7014C1.35391 14.7658 1.37911 14.8162 1.4211 14.861C1.51069 14.9646 1.60868 15.0626 1.70387 15.1634C1.79626 15.2614 1.88865 15.3622 1.98104 15.4602C2.16862 15.6617 2.3534 15.8605 2.52698 16.0761C2.57177 16.1321 2.65856 16.1573 2.72576 16.1573C2.79855 16.1573 2.87134 16.1265 2.92453 16.0761C2.97773 16.0229 3.00573 15.9529 3.00573 15.8773C3.00293 15.8521 3.00013 15.8269 2.99453 15.8017C2.98053 15.7541 2.95813 15.7121 2.92174 15.6785C2.75095 15.463 2.56338 15.2642 2.3618 15.0794C2.26101 14.987 2.15742 14.8974 2.05383 14.8106C1.94745 14.721 1.84666 14.6286 1.74027 14.5391C1.72627 14.5279 1.70947 14.5167 1.69547 14.5027C1.65908 14.4831 1.62268 14.4719 1.58069 14.4719C1.52189 14.4747 1.4659 14.4999 1.4211 14.5419Z" fill="#2C2C2C"/>
<path d="M22.6119 14.1471C22.3935 14.2759 22.2227 14.4691 22.0883 14.6818C21.9651 14.875 21.8811 15.0906 21.7943 15.3006C21.7859 15.3174 21.7803 15.3342 21.772 15.351C21.7524 15.3986 21.73 15.4489 21.7104 15.4965C21.6964 15.5469 21.6964 15.5945 21.7104 15.6449C21.73 15.7149 21.7748 15.7737 21.8391 15.8101C21.9035 15.8465 21.9819 15.8577 22.0519 15.8381C22.0743 15.8297 22.0967 15.8185 22.1191 15.8101C22.1611 15.7849 22.1947 15.7513 22.2199 15.7093C22.2927 15.5385 22.3879 15.3846 22.4971 15.2362C22.6734 15.0122 22.8722 14.805 23.0374 14.5727C23.0654 14.5251 23.0794 14.4719 23.0794 14.4159C23.0794 14.3347 23.0458 14.2535 22.987 14.1947C22.9282 14.1359 22.847 14.1051 22.7658 14.1051C22.7126 14.1051 22.6594 14.1191 22.6119 14.1471ZM21.7887 15.3062C21.7859 15.3118 21.7831 15.3174 21.7831 15.3202C21.7859 15.3174 21.7887 15.3118 21.7887 15.3062Z" fill="#2C2C2C"/>
<path d="M6.63131 8.67926C6.62012 8.67926 6.60892 8.69046 6.60892 8.70166C6.60892 8.71286 6.62012 8.72405 6.63131 8.72405H6.7209C6.7321 8.72405 6.7433 8.71286 6.7433 8.70166C6.7433 8.69046 6.7321 8.67926 6.7209 8.67926H6.63131Z" fill="#2C2C2C"/>
<path d="M11.3683 14.2507C11.3207 14.2983 11.2815 14.3767 11.2871 14.4495C11.3571 15.323 11.1751 16.1853 11.0883 17.0504C11.0463 17.4843 11.0295 17.9211 11.0743 18.3551C11.0939 18.5454 11.1219 18.7358 11.1695 18.9234C11.2087 19.0774 11.2675 19.223 11.3319 19.3685C11.3711 19.4553 11.4187 19.5393 11.4747 19.6177C11.5391 19.7073 11.6062 19.7941 11.6902 19.8641C11.7378 19.9061 11.791 19.9453 11.8442 19.9789C11.8974 20.0125 11.959 20.0349 12.015 20.0573C12.0486 20.0713 12.0822 20.0797 12.1158 20.0853C12.183 20.0965 12.2474 20.1049 12.3146 20.1021C12.379 20.0965 12.4434 20.0881 12.5049 20.0713C12.5665 20.0545 12.6281 20.0265 12.6869 19.9957C12.7261 19.9761 12.7625 19.9509 12.7961 19.9257C12.8605 19.8781 12.9221 19.8277 12.9781 19.7717C13.0341 19.7129 13.0845 19.6485 13.1321 19.5841C13.1713 19.5337 13.2077 19.4777 13.2413 19.4245C13.3421 19.2649 13.4176 19.0914 13.4904 18.9178C13.5072 18.8562 13.5072 18.7946 13.4904 18.733C13.4652 18.6462 13.4092 18.5706 13.3309 18.5258C13.2497 18.4782 13.1517 18.467 13.0621 18.4894C13.0341 18.5006 13.0061 18.5118 12.9781 18.5258C12.9249 18.5566 12.8829 18.5986 12.8521 18.6518C12.7681 18.8422 12.6729 19.0298 12.5525 19.1978C12.5077 19.251 12.4601 19.3013 12.4098 19.3461C12.3846 19.3629 12.3594 19.3769 12.3342 19.3909C12.3202 19.3965 12.3062 19.3993 12.2922 19.4021C12.2838 19.4021 12.2726 19.4021 12.2642 19.4021C12.2502 19.3993 12.239 19.3965 12.225 19.3909C12.1998 19.3769 12.1774 19.3629 12.155 19.3489C12.113 19.3125 12.0766 19.2733 12.0402 19.2314C11.973 19.1362 11.917 19.0354 11.8694 18.929C11.7854 18.7162 11.735 18.495 11.7014 18.2683C11.6258 17.6411 11.6874 17.0056 11.7546 16.3813C11.8246 15.7429 11.9002 15.099 11.847 14.4579C11.8414 14.3823 11.8218 14.3151 11.7658 14.2591C11.7126 14.2059 11.6426 14.1779 11.5671 14.1779C11.4915 14.1695 11.4187 14.1975 11.3683 14.2507Z" fill="#2C2C2C"/>
<path d="M9.66892 20.676C9.59613 20.6956 9.53174 20.746 9.49254 20.8132C9.41415 20.9475 9.45614 21.1435 9.59893 21.2163C9.94889 21.4011 10.3072 21.5719 10.6684 21.7343C10.8616 21.821 11.0548 21.905 11.2535 21.9778C11.4327 22.0422 11.6147 22.087 11.8023 22.1234C12.0235 22.1654 12.2474 22.1906 12.4714 22.2018C12.673 22.2102 12.8746 22.2018 13.0761 22.1906C13.2805 22.1794 13.4821 22.1598 13.6865 22.1346C13.8069 22.1178 13.93 22.1038 14.0504 22.0786C14.154 22.059 14.2548 22.0338 14.3584 22.0086C14.4424 21.989 14.5264 21.9638 14.6076 21.9358C14.6888 21.9078 14.7643 21.8714 14.8427 21.835C14.8959 21.8126 14.9519 21.7903 15.0023 21.7651C15.0247 21.7539 15.0471 21.7427 15.0667 21.7287C15.0947 21.7119 15.1171 21.6923 15.1367 21.6699C15.1563 21.6531 15.1759 21.6363 15.1899 21.6083C15.2431 21.5187 15.2263 21.4067 15.1563 21.3339C15.0779 21.2527 14.9575 21.2583 14.8539 21.2583C14.8007 21.2583 14.7503 21.2779 14.7112 21.3115C14.672 21.3171 14.6328 21.3227 14.5908 21.3283C14.5208 21.3367 14.4536 21.3479 14.3836 21.3563C14.3052 21.3675 14.2268 21.3759 14.1512 21.3815C14.0448 21.3899 13.9412 21.3927 13.8348 21.3955C13.6221 21.4039 13.4093 21.4039 13.1965 21.4011C12.9949 21.4011 12.7962 21.3983 12.5946 21.3899C12.4098 21.3815 12.225 21.3647 12.0403 21.3423C11.7491 21.3003 11.4579 21.2387 11.1696 21.1715C10.8672 21.0987 10.5704 20.9895 10.2849 20.872C10.1561 20.816 10.0245 20.76 9.89569 20.7012C9.8733 20.69 9.8481 20.6816 9.8257 20.6704C9.80051 20.662 9.77251 20.6592 9.74731 20.6592C9.71931 20.6648 9.69412 20.6704 9.66892 20.676Z" fill="#2C2C2C"/>
<path d="M11.1919 22.5798C11.1387 22.6106 11.1024 22.6609 11.0856 22.7197C11.052 22.8373 11.1247 22.9773 11.2479 23.0053C11.4999 23.0921 11.7631 23.1481 12.029 23.1817C12.197 23.2041 12.3678 23.2041 12.533 23.1845C12.6226 23.1873 12.715 23.1873 12.8046 23.1873C12.9249 23.1873 13.0229 23.0893 13.0229 22.9689C13.0229 22.9633 13.0229 22.9577 13.0229 22.9521C13.0369 22.9073 13.0397 22.8569 13.0257 22.8065C12.9893 22.6749 12.8438 22.5854 12.7094 22.6274C12.6338 22.6497 12.561 22.6665 12.4826 22.6805C12.3034 22.7001 12.1242 22.6945 11.9479 22.6721C11.8583 22.6581 11.7687 22.6442 11.6791 22.6246C11.5755 22.605 11.4747 22.577 11.3711 22.5574C11.3487 22.5518 11.3263 22.5518 11.3067 22.5518C11.2675 22.5518 11.2311 22.5602 11.1919 22.5798Z" fill="#2C2C2C"/>
<path d="M2.91891 12.3189C2.84611 12.6465 2.78732 12.9768 2.74253 13.3072C2.69493 13.6712 2.66694 14.0379 2.64734 14.4047C2.60814 15.211 2.63054 16.0229 2.69213 16.8292C2.75652 17.7083 2.86851 18.5818 3.0085 19.4525C3.07849 19.8948 3.16248 20.3316 3.26607 20.7656C3.36966 21.1967 3.48724 21.6251 3.62443 22.0478C3.896 22.8933 4.22916 23.7192 4.62951 24.5115C4.81429 24.8755 5.01587 25.231 5.23424 25.5754C5.45822 25.9282 5.70179 26.2669 5.96216 26.5945C6.18894 26.8801 6.43531 27.1544 6.69848 27.4064C6.98125 27.6808 7.29201 27.9299 7.61678 28.1539C7.96674 28.3975 8.34189 28.5991 8.73385 28.7698C8.95502 28.865 9.179 28.9518 9.40857 29.0274C9.61015 29.0946 9.81453 29.1506 10.0217 29.1982C10.2289 29.2458 10.4389 29.285 10.6488 29.3158C10.8896 29.3522 11.1332 29.3774 11.3768 29.3942C11.8079 29.4222 12.2419 29.4166 12.6702 29.3774C13.5717 29.299 14.4592 29.1002 15.3047 28.7782C16.1446 28.4563 16.9425 28.0307 17.6592 27.4876C18.0232 27.2104 18.3676 26.9137 18.6839 26.5833C19.0003 26.2557 19.2831 25.8946 19.5378 25.5194C19.7926 25.1443 20.0138 24.7467 20.2098 24.3379C20.4253 23.8844 20.6129 23.4196 20.7781 22.9437C21.1057 22.0058 21.338 21.0371 21.52 20.06C21.7104 19.0409 21.8392 18.0107 21.9428 16.9776C22.0351 16.0425 22.1051 15.1074 22.1667 14.1695C22.1751 14.0379 22.1863 13.9035 22.1919 13.7719C22.1947 13.6879 22.1919 13.604 22.1835 13.52C22.1807 13.4724 22.1751 13.4248 22.1695 13.3772C22.1639 13.3296 22.1583 13.282 22.1583 13.2344C22.1639 13.0692 22.0407 12.918 21.884 12.8732C21.7888 12.8452 21.6824 12.8592 21.5956 12.9096C21.5704 12.9292 21.5452 12.9488 21.52 12.9684C21.4724 13.016 21.4416 13.0692 21.4248 13.1336C21.4164 13.1896 21.3996 13.2456 21.3884 13.3044C21.3716 13.3996 21.3604 13.4948 21.352 13.59C21.3408 13.7047 21.3296 13.8195 21.3184 13.9343C21.296 14.1359 21.2764 14.3375 21.2568 14.5391C21.2148 14.9646 21.1756 15.3902 21.1364 15.8129C21.0525 16.7004 20.9629 17.5851 20.8453 18.467C20.7249 19.3461 20.5793 20.2196 20.3805 21.0847C20.1874 21.919 19.941 22.7449 19.6134 23.5344C19.3279 24.2008 18.9779 24.8419 18.5411 25.4214C18.1548 25.9114 17.7096 26.3481 17.2197 26.7345C16.6318 27.1824 15.9906 27.552 15.3103 27.8431C14.5796 28.1455 13.8097 28.3583 13.0258 28.4675C12.3146 28.5571 11.5951 28.5655 10.884 28.4759C10.2877 28.3891 9.70254 28.2351 9.1454 28.0083C8.67506 27.804 8.22711 27.5464 7.81835 27.2356C7.33401 26.8521 6.90846 26.3985 6.5277 25.9114C5.74099 24.8811 5.13906 23.7164 4.63511 22.5266C4.29915 21.7258 4.01078 20.9055 3.74761 20.0768C3.61323 19.6541 3.48444 19.2285 3.37245 18.8002C3.26327 18.3774 3.17368 17.9519 3.09529 17.5207C3.05049 17.2715 3.0113 17.0196 2.9749 16.7676C2.80692 15.5049 2.75373 14.2171 2.92171 12.9516C2.9497 12.7473 2.9861 12.5457 3.02809 12.3469C3.03369 12.3161 3.01969 12.2853 2.9889 12.2769C2.9833 12.2769 2.9805 12.2741 2.9749 12.2741C2.9497 12.2769 2.92451 12.2937 2.91891 12.3189ZM20.8537 18.4026L20.8481 18.453C20.8481 18.4362 20.8509 18.4194 20.8537 18.4026ZM10.9372 28.4871C10.9428 28.4871 10.9484 28.4871 10.9512 28.4899C10.9456 28.4871 10.9428 28.4871 10.9372 28.4871Z" fill="#2C2C2C"/>
<path d="M20.1734 6.67758C20.1482 6.69158 20.1314 6.71397 20.123 6.74197C20.1146 6.77277 20.1202 6.79796 20.1342 6.82596C20.305 7.17872 20.4674 7.53428 20.6213 7.89264L20.6101 7.86744C20.8005 8.31819 20.9713 8.77454 21.1253 9.23929C21.1169 9.23929 21.1057 9.24209 21.0973 9.24489C21.0469 9.25889 21.0021 9.29248 20.9741 9.34008C20.9685 9.35687 20.9601 9.37367 20.9545 9.39047C20.9461 9.42687 20.9461 9.46326 20.9545 9.49966C20.9629 9.55285 20.9685 9.60605 20.9769 9.65924C20.9769 9.65084 20.9741 9.64524 20.9741 9.63684C20.9769 9.64804 20.9769 9.65924 20.9797 9.67044C20.9797 9.67884 20.9825 9.68444 20.9825 9.69284C20.9825 9.68724 20.9825 9.68444 20.9797 9.67884C21.0889 10.5047 21.1645 11.3363 21.2261 12.165C21.2569 12.5821 21.2821 12.9993 21.3101 13.4164C21.3381 13.8476 21.3689 14.2787 21.4053 14.7071C21.4081 14.7547 21.422 14.7939 21.4556 14.8275C21.4864 14.8583 21.5312 14.8778 21.576 14.8778C21.6068 14.8778 21.6376 14.8695 21.6656 14.8527C21.6712 14.9086 21.6768 14.9646 21.6852 15.0206C21.688 15.0318 21.688 15.0458 21.6908 15.057C21.6992 15.085 21.7132 15.1102 21.7356 15.1326C21.7692 15.1634 21.8112 15.183 21.8588 15.183C21.9036 15.183 21.9484 15.1634 21.982 15.1326C22.0156 15.099 22.0296 15.057 22.0324 15.0094C22.052 14.7967 22.0716 14.5867 22.0856 14.3739C22.0996 14.1667 22.108 13.9596 22.1108 13.7524C22.1192 13.3464 22.1052 12.9433 22.0716 12.5373C22.01 11.745 21.8672 10.9583 21.6656 10.1912C21.3493 8.99012 20.8705 7.83385 20.3274 6.71957C20.3106 6.68598 20.2714 6.66638 20.235 6.66638C20.2098 6.66358 20.1902 6.66918 20.1734 6.67758ZM20.9769 9.67604C20.9769 9.67324 20.9769 9.67044 20.9769 9.66764C20.9769 9.66484 20.9769 9.66204 20.9741 9.65644C20.9769 9.66484 20.9769 9.67044 20.9769 9.67604Z" fill="#2C2C2C"/>
<path d="M14.7308 11.1039C14.644 11.1542 14.5796 11.2382 14.5544 11.3334C14.5264 11.4314 14.5404 11.5406 14.5936 11.6302C14.6132 11.6554 14.6328 11.6834 14.6524 11.7086C14.7 11.7562 14.756 11.7898 14.8232 11.8066C15.1423 11.8598 15.4615 11.9074 15.7779 11.969C16.0942 12.0305 16.4078 12.0977 16.7213 12.1677C17.3513 12.3105 17.9756 12.4729 18.5999 12.6297C18.7903 12.6773 18.9891 12.5709 19.0423 12.3805C19.0927 12.1957 18.9807 11.9858 18.7903 11.9382C18.166 11.7814 17.5444 11.6078 16.9201 11.4482C16.2622 11.2802 15.5987 11.1291 14.9239 11.0507C14.8568 11.0535 14.7924 11.0703 14.7308 11.1039Z" fill="#2C2C2C"/>
<path d="M6.28969 10.6699C6.2309 10.6867 6.1805 10.7147 6.13851 10.7595C6.07411 10.8239 6.03772 10.9135 6.03772 11.003C6.03772 11.0954 6.07411 11.1822 6.13851 11.2466C6.16091 11.2634 6.1861 11.283 6.2085 11.2998C6.26169 11.3306 6.32049 11.3474 6.38208 11.3474C6.51926 11.3642 6.65925 11.367 6.79643 11.3726C6.94202 11.3782 7.0904 11.381 7.23598 11.3894C7.52995 11.4006 7.82112 11.4202 8.11509 11.437C8.70022 11.4734 9.28815 11.5098 9.87609 11.5154C10.0721 11.5182 10.2344 11.3502 10.2344 11.157C10.2344 10.9611 10.0721 10.7987 9.87609 10.7987C9.28815 10.7931 8.70302 10.7511 8.11509 10.7119C7.82112 10.6923 7.52995 10.6727 7.23598 10.6587C7.0904 10.6531 6.94202 10.6475 6.79643 10.6447C6.77964 10.6447 6.76284 10.6447 6.74604 10.6447C6.59206 10.6419 6.44087 10.6503 6.28969 10.6699Z" fill="#2C2C2C"/>
<path d="M7.31439 10.194C7.00922 10.2275 6.71246 10.2807 6.42129 10.3731C6.3121 10.4067 6.21971 10.4711 6.16092 10.5719C6.10213 10.6727 6.08533 10.7931 6.11612 10.9051C6.17772 11.1262 6.42409 11.2802 6.65086 11.2074C6.87204 11.1374 7.09881 11.0843 7.32559 11.0479C7.66155 11.0087 8.00311 11.0087 8.33907 11.0479C8.71703 11.1038 9.08659 11.2102 9.43935 11.3558C9.46175 11.3642 9.48414 11.3754 9.50654 11.3838C9.57933 11.4034 9.65212 11.4034 9.72772 11.3838C9.8313 11.3558 9.92089 11.2858 9.97409 11.1934C10.0301 11.0982 10.0441 10.9807 10.0161 10.8743C9.99089 10.7791 9.91809 10.6699 9.8257 10.6279C9.55693 10.5047 9.28257 10.4011 8.997 10.3255C8.70583 10.2471 8.40347 10.2024 8.1011 10.18C7.99191 10.1716 7.87992 10.166 7.77074 10.166C7.62235 10.1688 7.46837 10.1772 7.31439 10.194ZM9.36376 11.3278C9.37216 11.3306 9.38055 11.3334 9.38615 11.339C9.38055 11.3362 9.37216 11.3306 9.36376 11.3278Z" fill="#2C2C2C"/>
<path d="M14.8651 10.6055C14.7587 10.6279 14.6607 10.7119 14.6047 10.8043C14.5459 10.9051 14.5291 11.0255 14.5599 11.1375C14.5907 11.2467 14.6635 11.339 14.7587 11.3978C14.8651 11.4594 14.9771 11.465 15.0919 11.4426C15.1619 11.4286 15.2291 11.4146 15.2991 11.4062C15.5818 11.3726 15.8674 11.3754 16.1502 11.4062C16.4945 11.4594 16.8277 11.5574 17.1496 11.689C17.6116 11.8906 18.0455 12.151 18.4627 12.4365C18.5495 12.4953 18.6783 12.5037 18.7763 12.4785C18.8771 12.4505 18.9666 12.3833 19.0198 12.2909C19.0758 12.1957 19.0898 12.081 19.0618 11.9774C19.0478 11.9438 19.0338 11.913 19.0198 11.8794C18.9834 11.8178 18.9358 11.7702 18.8743 11.7338C18.3031 11.325 17.69 10.9723 17.0209 10.7483C16.6793 10.6335 16.3265 10.5635 15.9654 10.5327C15.8702 10.5243 15.7722 10.5187 15.6742 10.5187C15.4082 10.5187 15.1339 10.5523 14.8651 10.6055Z" fill="#2C2C2C"/>
<path d="M14.6888 14.959C14.6888 14.9646 14.6888 14.9674 14.6888 14.973C14.6916 14.9366 14.6972 14.903 14.7056 14.8666C14.6944 14.8974 14.6888 14.9282 14.6888 14.959Z" fill="#2C2C2C"/>
<path d="M8.00595 13.3688C7.94435 13.3772 7.88556 13.3884 7.82677 13.4024C7.78757 13.4724 7.75117 13.5452 7.72038 13.6208C7.60279 13.9091 7.5272 14.2143 7.4824 14.5195C7.44321 14.8302 7.43761 15.1466 7.47401 15.4602C7.4796 15.4966 7.4852 15.5329 7.4936 15.5693C7.5412 15.6673 7.59159 15.7653 7.64479 15.8605C7.73718 16.0257 7.93595 16.1041 8.11513 16.0621C8.16273 16.1181 8.21312 16.1713 8.26912 16.2217C8.35311 16.2973 8.4511 16.3449 8.56868 16.3449C8.64427 16.3449 8.71706 16.3253 8.78146 16.2861C8.84585 16.2497 8.89625 16.1993 8.93264 16.1349C9.06143 15.8437 9.17621 15.5469 9.23501 15.2334C9.2574 15.1102 9.277 14.9842 9.2854 14.8554C9.24621 14.679 9.19301 14.5027 9.12302 14.3347C9.02503 14.1163 8.90744 13.9063 8.76186 13.7132C8.66107 13.59 8.55188 13.4724 8.4287 13.3716C8.4091 13.3576 8.3923 13.3464 8.3727 13.3324C8.24952 13.3464 8.12633 13.3548 8.00595 13.3688Z" fill="#2C2C2C"/>
<path d="M14.9603 13.3212C14.9295 13.3464 14.9043 13.3744 14.8819 13.4052C14.8287 13.4696 14.7811 13.534 14.7391 13.6068C14.6579 13.7468 14.5991 13.8979 14.5487 14.0491C14.5011 14.1863 14.4647 14.3291 14.4395 14.4719C14.4115 14.6231 14.3947 14.7798 14.3947 14.9338C14.3947 15.071 14.4115 15.2082 14.4395 15.3398C14.4647 15.4574 14.5095 15.5694 14.5599 15.6785C14.6047 15.7765 14.6719 15.8633 14.7419 15.9473C14.8063 16.0229 14.8903 16.0873 14.9743 16.1377C14.9995 16.1545 15.0275 16.1685 15.0555 16.1797C15.1003 16.1993 15.1451 16.2189 15.1899 16.2357C15.271 16.1965 15.3494 16.1489 15.4222 16.0957C15.5398 16.0005 15.6434 15.8913 15.7386 15.7737C15.8646 15.603 15.971 15.421 16.055 15.225C16.1333 15.0318 16.1921 14.8302 16.2229 14.6231C16.2397 14.4747 16.2425 14.3263 16.2257 14.1779C16.2089 14.0771 16.1837 13.9763 16.1473 13.8811C16.1138 13.8084 16.0746 13.7412 16.0298 13.6768C15.9822 13.618 15.9262 13.5648 15.8702 13.5172C15.7946 13.464 15.7134 13.4164 15.6294 13.3772C15.4922 13.324 15.3494 13.2876 15.2039 13.2652C15.1535 13.2596 15.1003 13.254 15.0499 13.2512C15.0163 13.2736 14.9855 13.2988 14.9603 13.3212Z" fill="#2C2C2C"/>
<path d="M7.4796 14.5194C7.4404 14.8302 7.4348 15.1466 7.4712 15.4601C7.49919 15.6393 7.54119 15.8157 7.60558 15.9837C7.64478 16.0705 7.69237 16.1545 7.74557 16.2329C7.78476 16.2776 7.82676 16.3196 7.87155 16.3588C7.91075 16.3868 7.95274 16.4092 7.99474 16.4316C8.04233 16.4484 8.09273 16.4624 8.14592 16.4708C8.21871 16.4764 8.2915 16.4764 8.3643 16.468C8.47908 16.4484 8.59387 16.4176 8.70306 16.3728C8.72826 16.3616 8.75065 16.3504 8.77585 16.3364C8.83744 16.2301 8.88504 16.1153 8.92143 16.0005C8.96623 15.8577 8.98303 15.7037 8.99143 15.5525C8.99982 15.4293 8.99142 15.309 8.98023 15.1858C8.96343 15.0234 8.93823 14.861 8.90743 14.7014C8.89064 14.609 8.81225 14.5222 8.73385 14.4775C8.68346 14.4495 8.62747 14.4327 8.57147 14.4271C8.54628 14.3599 8.50708 14.3067 8.44269 14.2675C8.3755 14.2283 8.2943 14.2171 8.21871 14.2395C8.14592 14.2591 8.08433 14.3067 8.04513 14.3739C8.00874 14.4355 7.99194 14.5278 8.01714 14.5978C8.08713 14.7966 8.15152 15.001 8.18512 15.211C8.19352 15.2922 8.19632 15.3762 8.19352 15.4573C8.14872 15.3873 8.10953 15.3118 8.07313 15.2362C8.02553 15.113 7.99194 14.9898 7.96954 14.861C7.96394 14.7798 7.95834 14.6958 7.95554 14.6146C7.95274 14.539 7.95554 14.4635 7.95834 14.3851C7.96114 14.3095 7.97234 14.2339 7.97234 14.1583C7.97514 13.9987 7.86035 13.8531 7.70917 13.8111C7.68957 13.8055 7.66997 13.8027 7.65038 13.7999C7.56919 14.0379 7.51599 14.2787 7.4796 14.5194Z" fill="#2C2C2C"/>
<path d="M14.7559 14.2759C14.6859 14.5195 14.6467 14.7743 14.6439 15.0262C14.6439 15.155 14.6579 15.281 14.6775 15.407C14.6915 15.5078 14.7167 15.6058 14.7531 15.7009C14.7923 15.8073 14.8399 15.9109 14.9043 16.0033C14.9407 16.0565 14.9827 16.1069 15.0275 16.1545C15.0611 16.1909 15.0975 16.2217 15.1367 16.2525C15.1507 16.2469 15.1647 16.2441 15.1787 16.2385C15.2654 16.1993 15.3466 16.1489 15.4222 16.0929C15.5398 15.9977 15.6434 15.8885 15.7386 15.7709C15.7386 15.7681 15.7414 15.7681 15.7414 15.7653C15.7246 15.7541 15.7106 15.7457 15.6938 15.7345C15.6518 15.6981 15.6126 15.659 15.5762 15.617C15.5482 15.5778 15.523 15.533 15.5006 15.4882C15.481 15.4322 15.4642 15.3762 15.4558 15.3174C15.4474 15.2278 15.4502 15.1382 15.4586 15.0458C15.4866 14.8694 15.5426 14.6987 15.6098 14.5335C15.6098 14.5307 15.6126 14.5279 15.6126 14.5279C15.621 14.5083 15.6266 14.4915 15.635 14.4747C15.6462 14.4355 15.6462 14.3935 15.635 14.3543C15.6182 14.2983 15.5818 14.2479 15.5286 14.2171C15.4754 14.1863 15.411 14.1779 15.3522 14.1947C15.3158 14.2059 15.2738 14.2283 15.2459 14.2591C15.2179 14.1807 15.1563 14.1191 15.0723 14.0967C15.0499 14.0911 15.0275 14.0883 15.0051 14.0883C14.8931 14.0855 14.7895 14.1639 14.7559 14.2759ZM15.6014 14.5559C15.5986 14.5615 15.5986 14.5671 15.5958 14.5699C15.5986 14.5671 15.5986 14.5615 15.6014 14.5559Z" fill="#2C2C2C"/>
</svg>
