<svg width="28" height="30" viewBox="0 0 28 30" fill="none" xmlns="http://www.w3.org/2000/svg">
<path d="M11.6382 5.49636C11.2111 5.6082 10.7841 5.74037 10.3673 5.91321C9.81824 6.23856 9.28955 6.58424 8.78119 6.9706C7.74414 7.78397 6.78843 8.69902 5.98522 9.73607C5.80221 9.98008 5.6192 10.2343 5.45653 10.4986C5.33452 10.7019 5.22268 10.9256 5.12101 11.1391C5.06001 11.2815 5.00917 11.4238 4.95834 11.5763C4.74483 12.1965 4.62282 12.837 4.53132 13.4877C4.50082 13.7216 4.46015 13.9554 4.42964 14.1893C4.41948 14.3011 4.41948 14.4231 4.41948 14.535V14.5451V14.6061C4.41948 14.84 4.41948 15.0738 4.42964 15.2975C4.42964 15.3077 4.42964 15.3178 4.42964 15.328V15.3483V15.3687C4.42964 15.3788 4.42964 15.389 4.42964 15.389V15.4297V15.4398C4.43981 15.6025 4.46015 15.7754 4.48048 15.938V15.9482V15.9584V15.9889V16.0194L4.49065 16.06V16.0905V16.1109V16.1312V16.1515V16.1719C4.52115 16.3549 4.55165 16.5176 4.58215 16.6904V16.7006C4.59232 16.7514 4.60249 16.8022 4.61265 16.8531C4.61265 16.8734 4.62282 16.8836 4.62282 16.9039V16.9141C4.64315 17.0056 4.66349 17.0869 4.68382 17.1683C4.55165 17.1276 4.40931 17.1174 4.26697 17.1174C3.99246 17.1174 3.71794 17.1988 3.49426 17.3309C3.25025 17.4834 3.05708 17.7071 2.92491 17.9816C2.85374 18.1341 2.8029 18.2765 2.7724 18.429C2.7419 18.5917 2.72156 18.7543 2.71139 18.9374C2.70123 19.2424 2.74189 19.5779 2.8334 19.9541C2.90457 20.2693 3.01641 20.6048 3.17908 20.981C3.31126 21.286 3.46376 21.591 3.64677 21.8858C3.87045 22.2518 4.09413 22.5264 4.32797 22.7399C4.61265 22.994 4.9075 23.1872 5.21252 23.2991C5.35486 23.3499 5.50736 23.3804 5.6497 23.3906C5.65987 23.3906 5.67004 23.3906 5.69037 23.3906C5.83271 23.3906 5.98522 23.3499 6.12756 23.2889C6.19873 23.2584 6.25974 23.2076 6.32074 23.1466C6.37157 23.2991 6.42241 23.4516 6.47325 23.6142C6.59525 23.9498 6.71726 24.3158 6.87993 24.6716C7.12394 25.2105 7.47979 25.7392 7.97798 26.2984C8.41517 26.7864 8.9337 27.2439 9.56406 27.7014C10.1131 28.098 10.7028 28.4436 11.323 28.7385C11.689 28.9113 11.994 29.0333 12.2685 29.135C12.6752 29.2774 13.1124 29.3689 13.4378 29.4299C13.4683 29.4299 13.4988 29.44 13.5293 29.44C13.5699 29.44 13.6106 29.4299 13.6513 29.4095C13.6614 29.3994 13.6716 29.3994 13.6818 29.3892C13.7326 29.3892 13.7733 29.3892 13.8241 29.3892C14.0478 29.3892 14.2816 29.3689 14.546 29.3384C14.9018 29.2875 15.2983 29.2062 15.7355 29.0638C16.4676 28.8402 17.1488 28.525 17.7486 28.1488C18.9484 27.4066 19.9447 26.3492 20.6564 25.0987C20.9615 24.5496 21.2258 23.9396 21.419 23.2787C21.5003 23.3092 21.5918 23.3296 21.6935 23.3296C21.7748 23.3296 21.8562 23.3194 21.9375 23.2991C22.1307 23.2584 22.334 23.1567 22.578 22.994C22.7814 22.8517 22.9847 22.689 23.1779 22.506C23.3406 22.3535 23.4829 22.1908 23.6151 22.018C23.7574 21.8248 23.8794 21.6113 23.9913 21.4283C24.1336 21.1741 24.276 20.8894 24.4285 20.5743C24.5708 20.2692 24.6826 19.9541 24.7741 19.6592C24.8656 19.3542 24.9267 19.039 24.9572 18.7442C24.9877 18.4493 24.9673 18.1646 24.8961 17.9308C24.8148 17.6461 24.6623 17.3716 24.4488 17.1581C24.3573 17.0564 24.2454 16.9853 24.1336 16.9242C24.0624 16.8937 24.0014 16.8632 23.9404 16.8429C23.8591 16.8226 23.7778 16.8124 23.7066 16.8022C23.6761 16.8022 23.6354 16.7921 23.5948 16.7921C23.5134 16.7921 23.4321 16.8022 23.3304 16.8226C23.2999 16.8226 23.2796 16.8327 23.2491 16.8429C23.2592 16.7921 23.2694 16.7311 23.2796 16.6802V16.6701L23.2897 16.6294V16.6192C23.2897 16.5989 23.2999 16.5786 23.2999 16.5481V16.5379L23.3202 16.4057V16.3956C23.3507 16.2024 23.3812 16.0295 23.3914 15.877C23.3914 15.8669 23.3914 15.8567 23.3914 15.8567V15.8465C23.4219 15.5619 23.4422 15.2873 23.4422 15.0027C23.4422 14.8196 23.4422 14.6265 23.4422 14.4435C23.4321 14.0469 23.3914 13.6403 23.3202 13.2539C23.3101 13.1726 23.2999 13.1014 23.2796 13.0302C23.2592 12.8981 23.2287 12.7659 23.1982 12.6337C23.1779 12.5829 23.1576 12.5219 23.1271 12.471C22.9034 11.9525 22.6594 11.434 22.3747 10.946C22.1205 10.4986 21.8358 10.0817 21.5308 9.6649C20.7378 8.64818 19.7922 7.78397 18.7857 6.99093C18.2773 6.59441 17.7486 6.22839 17.2199 5.86237C16.9149 5.75053 16.5997 5.64887 16.2744 5.56753C15.5017 5.37435 14.7086 5.27268 13.8953 5.27268C13.1836 5.21168 12.4007 5.31335 11.6382 5.49636ZM5.82255 17.2801C6.21907 16.8226 6.59525 16.2837 6.91043 15.6839C7.22561 15.084 7.48996 14.4231 7.70347 13.7114C7.89665 13.0709 8.03899 12.3795 8.15083 11.617C8.1915 11.3628 8.21183 11.0985 8.24233 10.8443C8.39484 11.0883 8.58802 11.3221 8.82186 11.556C9.25905 11.983 9.80808 12.3592 10.4486 12.6845C11.0993 13.0099 11.7907 13.2234 12.3295 13.3759C13.0006 13.5691 13.7428 13.7216 14.5968 13.8741C15.8575 14.0876 17.1793 14.2096 18.501 14.2299C18.6332 14.2299 18.7755 14.2299 18.9077 14.2299C19.0805 14.2299 19.2534 14.23 19.4262 14.2198C19.7516 14.2096 20.0362 14.1994 20.3108 14.1791C20.6768 14.1486 21.053 14.0876 21.4088 14.0266L21.602 13.9961C21.5308 14.9823 21.5308 15.999 21.5206 16.9751C21.5105 18.5205 21.5105 20.1167 21.2461 21.6622C21.0631 22.689 20.8089 23.5532 20.4531 24.3056C20.1582 24.9258 19.7821 25.5053 19.3449 26.034C18.9077 26.5424 18.4095 26.9999 17.8706 27.3964C17.6063 27.5896 17.3216 27.7625 17.0369 27.915C16.7522 28.0675 16.4371 28.2098 16.071 28.3521C15.4204 28.5962 14.8205 28.7385 14.2511 28.7995C14.119 28.8097 13.9868 28.8198 13.8749 28.8198C13.7123 28.8198 13.5496 28.8097 13.3971 28.7893C13.3869 28.7893 13.3869 28.7893 13.3768 28.7893C13.3462 28.7893 13.3157 28.7995 13.2751 28.8097C12.9904 28.7487 12.7362 28.6775 12.5024 28.6063C12.1872 28.5047 11.8923 28.3725 11.6687 28.2708C10.8045 27.8641 10.0013 27.3558 9.27938 26.7559C8.73036 26.2882 8.27283 25.8104 7.90682 25.2918C7.75431 25.0682 7.61197 24.8445 7.50013 24.6208C7.37812 24.3768 7.27645 24.1328 7.17478 23.8583C6.83926 22.9635 6.56475 21.9875 6.33091 20.8894C6.1174 19.8727 5.95472 18.7848 5.84288 17.6461C5.84288 17.5139 5.83272 17.4021 5.82255 17.2801ZM21.6935 22.75C21.6732 22.75 21.663 22.7399 21.6427 22.7399C21.6325 22.7297 21.6223 22.7297 21.6122 22.7195C21.785 22.0078 21.907 21.2351 21.9883 20.3404C22.0392 19.7711 22.0697 19.1712 22.0798 18.429C22.1408 18.3477 22.2019 18.2663 22.2629 18.185C22.4459 17.9715 22.6492 17.7885 22.8526 17.6258C23.0051 17.5241 23.1474 17.4428 23.2897 17.3919C23.3812 17.3614 23.4727 17.3411 23.5643 17.3309C23.5846 17.3309 23.6049 17.3309 23.6253 17.3309C23.6659 17.3309 23.7066 17.3309 23.7473 17.3411C23.7981 17.3513 23.8489 17.3716 23.8998 17.3919C23.9506 17.4224 23.9913 17.4529 24.0421 17.4834C24.1031 17.5343 24.1539 17.5953 24.2048 17.6665C24.2658 17.7681 24.3268 17.8698 24.3675 17.9715C24.4081 18.0731 24.4285 18.185 24.4386 18.307C24.4488 18.5103 24.4386 18.7238 24.398 18.9577C24.3166 19.4254 24.1539 19.9032 23.8896 20.4624C23.7574 20.7369 23.6151 21.0013 23.4626 21.2656C23.3609 21.4385 23.2389 21.6316 23.1067 21.7943C22.8831 22.0587 22.6289 22.2925 22.3544 22.4959C22.2018 22.5975 22.0697 22.6789 21.9375 22.7297C21.8765 22.75 21.8155 22.7704 21.7647 22.7704C21.7545 22.7704 21.7443 22.7704 21.7443 22.7704C21.7342 22.75 21.7138 22.75 21.6935 22.75ZM5.59887 22.8212C5.50736 22.8009 5.40569 22.7704 5.30402 22.7297C5.14135 22.6484 4.97867 22.5467 4.816 22.4145C4.64315 22.262 4.48048 22.079 4.31781 21.8655C4.03312 21.4486 3.77895 20.981 3.58577 20.4726C3.43326 20.0456 3.33159 19.6592 3.29092 19.283C3.27059 19.0492 3.28076 18.8357 3.31126 18.6323C3.34176 18.5002 3.38243 18.368 3.43326 18.246C3.47393 18.1545 3.52477 18.0731 3.58577 18.002C3.63661 17.9511 3.68744 17.8901 3.74844 17.8495C3.80945 17.8088 3.88062 17.7681 3.95179 17.7376C4.02296 17.7173 4.1043 17.697 4.18563 17.6868C4.21614 17.6868 4.23647 17.6868 4.26697 17.6868C4.32797 17.6868 4.39914 17.6868 4.47031 17.697C4.57198 17.7173 4.68382 17.7478 4.7855 17.7986C4.89733 17.8596 5.00917 17.9308 5.11085 18.0121C5.19218 18.0833 5.27352 18.1646 5.34469 18.2562C5.41586 18.8967 5.50737 19.5372 5.6192 20.1574C5.76154 20.9403 5.93439 21.713 6.12756 22.445C6.1174 22.4857 6.09706 22.5264 6.08689 22.567C6.05639 22.6179 6.03606 22.6585 6.00556 22.6992C5.98522 22.7195 5.95472 22.75 5.93438 22.7704C5.91405 22.7805 5.88355 22.8009 5.85305 22.811C5.82255 22.8212 5.78188 22.8314 5.75138 22.8314C5.74121 22.8314 5.73104 22.8314 5.72088 22.8314C5.69037 22.8212 5.6497 22.8212 5.59887 22.8212Z" fill="#2C2C2C"/>
<path d="M4.22615 19.1507C4.17531 19.2422 4.20582 19.3439 4.29732 19.4049C4.5515 19.5777 4.80568 19.7404 5.04969 19.9234C5.1717 20.0149 5.2937 20.1064 5.41571 20.1979C5.54788 20.2996 5.69022 20.3911 5.83256 20.4826C5.96473 20.5639 6.13758 20.5131 6.20875 20.3809C6.21891 20.3707 6.21891 20.3606 6.21891 20.3504C6.18841 20.2386 6.16808 20.1369 6.13757 20.0251C6.12741 20.0149 6.11724 20.0047 6.10707 19.9946C5.9749 19.9132 5.84273 19.842 5.71056 19.7709C5.57838 19.6997 5.43604 19.6387 5.30387 19.5675C5.01919 19.415 4.74467 19.2524 4.47016 19.0897C4.43966 19.0693 4.40916 19.0592 4.37866 19.0592C4.31765 19.049 4.25665 19.0897 4.22615 19.1507Z" fill="#2C2C2C"/>
<path d="M23.2184 18.4594C22.9337 18.6526 22.6694 18.8661 22.3847 19.0593C22.2424 19.1508 22.1 19.2423 21.9577 19.3338C21.8255 19.4151 21.7035 19.5168 21.5917 19.6185C21.6018 19.6896 21.612 19.7608 21.6018 19.8422C21.6018 19.8727 21.6018 19.9032 21.612 19.9337C21.612 20.0353 21.5917 20.137 21.551 20.2183C21.6933 20.3403 21.917 20.3302 22.0492 20.198C22.161 20.0963 22.2729 19.9845 22.3745 19.8727C22.4864 19.7507 22.6084 19.6286 22.7304 19.5066C22.9744 19.2728 23.2591 19.0796 23.5234 18.8559C23.6048 18.7848 23.6149 18.6424 23.5641 18.5509C23.5234 18.4798 23.4319 18.4289 23.3404 18.4289C23.2896 18.4188 23.2489 18.4289 23.2184 18.4594Z" fill="#2C2C2C"/>
<path d="M17.1282 14.7992C17.0571 14.7992 16.9859 14.8094 16.9147 14.8196C16.7521 14.8399 16.5894 14.8806 16.4369 14.9212C16.2742 14.9619 16.1014 15.0229 15.9387 15.0636C15.7658 15.1144 15.593 15.1449 15.41 15.1754C15.1863 15.2059 15.0338 15.4398 15.0745 15.6533C15.1151 15.877 15.3287 16.0295 15.5523 15.9888C15.7658 15.9583 15.9793 15.9278 16.203 15.9176C16.4267 15.8973 16.6504 15.8871 16.8842 15.877C17.0977 15.8668 17.3112 15.8566 17.5248 15.8261C17.7078 15.8058 17.8908 15.7448 18.0738 15.7244C18.1755 15.7244 18.2771 15.7346 18.3788 15.7549C18.4906 15.7854 18.6025 15.8261 18.7041 15.877C18.7855 15.9176 18.8668 15.9685 18.9482 16.0193C19.0397 16.0803 19.1515 16.06 19.2125 15.9685C19.2735 15.877 19.243 15.7651 19.1617 15.7041C18.9075 15.5008 18.633 15.3178 18.3381 15.1551C18.206 15.0839 18.0738 15.0127 17.9314 14.9416C17.7688 14.8602 17.5959 14.8196 17.4129 14.7992C17.3824 14.7992 17.3417 14.7891 17.3011 14.7891C17.2502 14.7992 17.1892 14.7992 17.1282 14.7992Z" fill="#2C2C2C"/>
<path d="M9.65557 14.7079C9.72674 14.7079 9.79791 14.7181 9.86908 14.7283C10.0318 14.7486 10.1944 14.7893 10.3469 14.8299C10.5096 14.8706 10.6825 14.9316 10.8451 14.9723C11.018 15.0231 11.1908 15.0536 11.3738 15.0841C11.5975 15.1146 11.75 15.3485 11.7093 15.562C11.6687 15.7856 11.4552 15.9381 11.2315 15.8975C11.018 15.867 10.8045 15.8365 10.5808 15.8263C10.3571 15.806 10.1334 15.7958 9.89958 15.7856C9.68607 15.7755 9.47256 15.7653 9.25905 15.7348C9.07604 15.7145 8.89303 15.6535 8.71002 15.6331C8.60835 15.6331 8.50668 15.6433 8.40501 15.6636C8.29317 15.6941 8.18133 15.7348 8.07966 15.7856C7.99832 15.8263 7.91698 15.8771 7.83565 15.928C7.74414 15.989 7.6323 15.9686 7.5713 15.8771C7.5103 15.7856 7.5408 15.6738 7.62213 15.6128C7.87631 15.4095 8.15083 15.2264 8.44568 15.0638C8.57785 14.9926 8.71002 14.9214 8.85236 14.8503C9.01504 14.7689 9.18788 14.7283 9.37089 14.7079C9.40139 14.7079 9.44206 14.6978 9.48273 14.6978C9.53356 14.7079 9.59456 14.7079 9.65557 14.7079Z" fill="#2C2C2C"/>
<path d="M6.20888 1.24645C5.9547 1.25662 5.68019 1.29728 5.35484 1.37862C5.11082 1.43962 4.86681 1.53113 4.6228 1.64296C4.48046 1.71414 4.33812 1.78531 4.20595 1.86664C4.08394 1.90731 3.9721 1.95815 3.86026 2.00899C3.65692 2.11066 3.49424 2.21233 3.3519 2.32417C3.1994 2.44617 3.05706 2.58851 2.92488 2.73085C2.81305 2.86303 2.7012 3.01553 2.5792 3.21888C2.49786 3.35105 2.42669 3.50356 2.36569 3.65606C2.07084 4.03225 1.85733 4.4491 1.71499 4.87612C1.62349 5.15064 1.57265 5.41499 1.56248 5.70983C1.55232 5.98435 1.57265 6.25886 1.64382 6.54354C1.77599 7.09257 2.12168 7.6416 2.63003 8.10929C2.99605 8.44481 3.46374 8.69898 4.01277 8.86166C4.35845 8.96333 4.73464 9.01417 5.12099 9.02434C5.19216 9.04467 5.26333 9.05484 5.3345 9.07517C5.60901 8.71932 5.90386 8.3838 6.21905 8.04828C7.16459 7.0519 8.23214 6.14703 9.3912 5.41499C9.66571 5.24215 9.94023 5.07947 10.2147 4.92696C10.2046 4.72362 10.1741 4.49994 10.1131 4.25593C10.0521 4.00175 9.97073 3.74757 9.85889 3.50356C9.58437 2.93419 9.18786 2.42584 8.68966 2.02932C8.22197 1.65313 7.66278 1.39896 7.07309 1.27695C6.84941 1.23628 6.61556 1.21594 6.36138 1.21594C6.31055 1.24644 6.25971 1.24645 6.20888 1.24645ZM2.76221 7.66193C2.5792 7.45859 2.43686 7.24508 2.31486 7.0214C2.22335 6.82823 2.15218 6.63505 2.10134 6.43171C2.06068 6.2182 2.04034 6.00468 2.05051 5.79117C2.06068 5.66916 2.07084 5.55732 2.10134 5.43532C2.11151 5.62849 2.14201 5.8115 2.17251 5.99451C2.19285 6.10635 2.22335 6.21819 2.25385 6.3097C2.29452 6.48254 2.33519 6.65538 2.39619 6.81806C2.5487 7.25525 2.80288 7.65176 3.13839 7.99745C2.99605 7.89578 2.87405 7.78394 2.76221 7.66193Z" fill="#2C2C2C"/>
<path d="M8.79121 6.97061C7.94733 7.63148 7.15429 8.36352 6.45276 9.17689C6.84928 9.15656 7.23563 9.07521 7.60165 8.94304C7.84566 8.85154 8.09984 8.72953 8.35402 8.56686C8.55736 8.43469 8.76071 8.27201 9.00472 8.04833C9.17756 7.87549 9.34023 7.68231 9.49274 7.4688C9.66558 7.22479 9.79776 6.99095 9.89943 6.74694C9.99093 6.53343 10.0723 6.29958 10.1231 6.06573C9.65542 6.34025 9.21823 6.64527 8.79121 6.97061Z" fill="#2C2C2C"/>
<path d="M2.66054 4.36777C2.49787 4.46945 2.34536 4.58129 2.21319 4.71346C2.09118 4.83547 1.98951 4.96764 1.898 5.10998C1.81667 5.24216 1.75566 5.38449 1.70483 5.537C1.65399 5.67934 1.64382 5.83185 1.63366 5.98436C1.61332 6.2792 1.67432 6.57405 1.776 6.8384C1.837 6.99091 1.90817 7.14341 1.98951 7.28575C2.06068 7.41793 2.15218 7.5501 2.24369 7.6721C2.44703 7.94662 2.69104 8.19063 2.94522 8.41431C3.20957 8.63799 3.50441 8.84133 3.80943 9.00401C4.10428 9.16668 4.41946 9.29885 4.74481 9.40052C4.79565 9.42086 4.84648 9.43103 4.90749 9.44119C4.93799 9.45136 4.97866 9.4717 5.00916 9.48186C5.01932 9.48186 5.02949 9.49203 5.03966 9.49203C5.1515 9.33952 5.26333 9.18701 5.38534 9.03451C5.2125 9.00401 5.04982 8.96334 4.87698 8.9125C4.83631 8.90233 4.79565 8.882 4.75498 8.87183C4.73464 8.86167 4.70414 8.84133 4.68381 8.821C4.42963 8.65832 4.20595 8.45498 4.00261 8.2313C3.9111 8.12963 3.8196 8.01779 3.73826 7.90595C3.87043 8.05846 4.02294 8.19063 4.18562 8.31264C4.4703 8.51598 4.79564 8.65832 5.13116 8.75999C5.25317 8.80066 5.38534 8.83116 5.50735 8.8515C5.57852 8.75999 5.65985 8.66849 5.73102 8.57698C5.48701 8.54648 5.243 8.49565 4.99899 8.41431C4.76514 8.33297 4.55163 8.2313 4.34829 8.1093C4.18562 7.99746 4.03311 7.86528 3.89077 7.72294C3.74843 7.56026 3.61625 7.37726 3.51458 7.18408C3.39258 6.95024 3.31124 6.69606 3.2604 6.44188C3.20957 6.20803 3.18923 5.96402 3.1994 5.73018C3.20957 5.598 3.2299 5.476 3.2604 5.35399C3.28074 5.29299 3.31124 5.23199 3.35191 5.17098C3.38241 5.13031 3.40274 5.09981 3.44341 5.06931C3.47391 5.04898 3.50442 5.01847 3.53492 4.99814C3.57559 4.97781 3.60609 4.96764 3.64675 4.95747C3.69759 4.94731 3.74843 4.9473 3.79926 4.9473C3.89077 4.95747 3.9721 4.96764 4.06361 4.99814C4.10428 5.00831 4.15511 4.9778 4.16528 4.92697C4.17545 4.87613 4.14495 4.84563 4.09411 4.8253C3.95177 4.78463 3.79926 4.75413 3.65692 4.77446C3.53492 4.7948 3.42308 4.83547 3.33157 4.9168C3.12823 5.08965 3.05706 5.36416 3.02656 5.61834C2.98589 5.93352 3.02656 6.26904 3.08756 6.57405C3.11806 6.69606 3.14856 6.81807 3.18923 6.94007C3.09773 6.71639 3.02656 6.48255 2.96556 6.23854C2.91472 5.96402 2.88422 5.67934 2.89438 5.40483C2.90455 5.20148 2.94522 5.00831 3.00622 4.81513C3.01639 4.77446 3.03673 4.7338 3.05706 4.68296C3.07739 4.64229 3.08756 4.59145 3.08756 4.54062C3.07739 4.46945 3.04689 4.39828 2.99606 4.34744C2.94522 4.30678 2.88422 4.28644 2.82322 4.28644C2.77238 4.31694 2.71138 4.33727 2.66054 4.36777ZM3.54508 5.01848C3.53492 5.01848 3.53492 5.01848 3.54508 5.01848C3.53492 5.01848 3.53492 5.01848 3.54508 5.01848ZM3.36208 5.18115C3.36208 5.18115 3.36207 5.19132 3.35191 5.19132C3.36207 5.19132 3.36208 5.19131 3.36208 5.18115ZM2.95539 7.65177C2.76221 7.4281 2.58937 7.19425 2.44703 6.9299C2.36569 6.75706 2.29452 6.58422 2.24369 6.39104C2.21319 6.25887 2.20302 6.1267 2.21319 5.98436C2.22335 5.87252 2.24369 5.77084 2.27419 5.65901C2.30469 5.57767 2.34536 5.49633 2.38603 5.415C2.38603 5.43533 2.38603 5.45567 2.38603 5.46583C2.37586 5.80135 2.4267 6.14703 2.5182 6.47238C2.59954 6.79773 2.72154 7.11291 2.87405 7.41792C2.92489 7.52976 2.98589 7.63144 3.04689 7.73311C3.01639 7.71278 2.98589 7.68228 2.95539 7.65177ZM3.21974 5.72001C3.21974 5.73018 3.21974 5.74034 3.21974 5.74034C3.21974 5.74034 3.21974 5.73018 3.21974 5.72001ZM4.36862 8.12963C4.37879 8.12963 4.37879 8.1398 4.38896 8.1398C4.37879 8.1398 4.36862 8.13979 4.36862 8.12963Z" fill="#2C2C2C"/>
<path d="M7.24563 8.59735C7.15412 8.60752 7.05245 8.61769 6.96094 8.61769C6.8491 8.72953 6.74743 8.84136 6.64576 8.9532C6.6661 8.9532 6.68643 8.9532 6.70676 8.9532C6.68643 8.96337 6.6661 8.97353 6.64576 8.99387C6.62543 9.00403 6.61526 9.0142 6.59493 9.0142C6.42208 9.20738 6.25941 9.40056 6.1069 9.59373C6.37125 9.55306 6.62543 9.45139 6.85927 9.31922C7.06262 9.19721 7.23546 9.0447 7.39813 8.88203C7.4388 8.84136 7.44897 8.77019 7.42863 8.70919C7.4083 8.63802 7.33713 8.59735 7.26596 8.59735C7.25579 8.59735 7.24563 8.59735 7.24563 8.59735Z" fill="#2C2C2C"/>
<path d="M21.7745 2.44617C21.4085 2.53767 21.0323 2.70035 20.6256 2.93419C20.3003 3.1172 19.9851 3.37138 19.6496 3.68656C19.131 4.19492 18.7345 4.82528 18.5007 5.53698C18.7752 5.73016 19.0395 5.93351 19.3039 6.13685C20.0664 6.72654 20.7984 7.34674 21.4593 8.04827C22.1303 8.77014 22.7404 9.56318 23.2284 10.4172C23.3199 10.5901 23.4114 10.7527 23.5029 10.9256C23.5436 10.9154 23.5741 10.8951 23.6148 10.8849C24.0519 10.8036 24.4688 10.6714 24.8755 10.4884C25.4245 10.2342 25.9125 9.88853 26.3192 9.46151C26.5124 9.25817 26.6751 9.03449 26.8377 8.75998C26.9801 8.52613 27.0919 8.26179 27.1834 7.9466C27.3054 7.55008 27.3563 7.1129 27.3258 6.64521C27.3969 6.21819 27.3969 5.8115 27.3258 5.41498C27.2953 5.24214 27.2546 5.08963 27.2038 4.93712C27.1428 4.76428 27.0716 4.60161 26.9903 4.45927C26.8479 4.19492 26.6649 3.94074 26.4006 3.66623C26.1769 3.43238 25.9024 3.21887 25.5262 2.99519C25.2008 2.79185 24.8145 2.61901 24.3468 2.4665C24.1434 2.4055 23.9401 2.35467 23.7368 2.314C23.5334 2.27333 23.3097 2.25299 23.0251 2.25299C22.9946 2.25299 22.9539 2.25299 22.9234 2.25299C22.5777 2.28349 22.2015 2.3445 21.7745 2.44617ZM19.5987 4.97779C19.7919 4.69311 20.0156 4.42876 20.2799 4.18475C20.5544 3.95091 20.8493 3.7374 21.1746 3.56456C21.4898 3.41205 21.8253 3.29004 22.1609 3.20871C22.4354 3.15787 22.7099 3.12737 22.9946 3.12737C23.0454 3.12737 23.1064 3.12737 23.1572 3.12737C23.2386 3.13754 23.3097 3.13753 23.3911 3.1477C23.3606 3.1477 23.3402 3.1477 23.3097 3.15787C22.7505 3.22904 22.1914 3.39171 21.6322 3.65606C21.073 3.9204 20.5646 4.24576 20.1172 4.65245C19.8224 4.90662 19.5682 5.18114 19.3344 5.47598C19.4055 5.31331 19.4971 5.14046 19.5987 4.97779Z" fill="#2C2C2C"/>
<path d="M18.318 7.22491L18.2672 7.18424L18.2163 7.14358C18.2163 7.17408 18.2163 7.20458 18.2265 7.23508C18.2468 7.28591 18.2773 7.32658 18.3282 7.36725C18.3383 7.43842 18.3485 7.50959 18.3587 7.57059C18.3485 7.6316 18.3383 7.68243 18.3282 7.74344C18.3078 7.87561 18.3689 7.99762 18.4807 8.05862C18.4909 8.10946 18.5112 8.15012 18.5315 8.20096C18.6637 8.55681 18.8467 8.90249 19.0907 9.23801C19.2737 9.49219 19.4974 9.7362 19.7516 9.94971C20.1989 10.3361 20.7378 10.6207 21.3682 10.8038C21.6325 10.8851 21.9172 10.9359 22.212 10.9563C22.2527 11.0478 22.3137 11.1189 22.4052 11.1596L22.5069 11.1901C22.5374 11.1901 22.5577 11.2003 22.5882 11.2003C22.5984 11.2003 22.6086 11.2003 22.6187 11.2003C22.5577 11.0986 22.5069 10.9868 22.4459 10.8851C22.1917 10.4377 21.907 10.0209 21.602 9.60403C20.809 8.59748 19.8634 7.7231 18.8569 6.93006C18.6739 6.78772 18.4909 6.65555 18.3078 6.52338C18.2875 6.75722 18.2875 6.99107 18.318 7.22491Z" fill="#2C2C2C"/>
<path d="M21.8969 3.14767C21.6427 3.18834 21.3987 3.24935 21.1648 3.33068C20.931 3.42219 20.6971 3.53402 20.4836 3.65603C20.2803 3.76787 20.0973 3.91021 19.9143 4.05255C19.3957 4.48974 18.9687 5.06927 18.8366 5.75047C18.8366 5.76064 18.8366 5.7708 18.8264 5.78097C18.9891 5.90297 19.1517 6.02498 19.3144 6.14698C19.3347 6.16732 19.3551 6.17749 19.3754 6.19782C19.3754 6.17749 19.3754 6.14699 19.3754 6.12665C19.3856 5.98431 19.4161 5.8318 19.4568 5.68946C19.5178 5.52679 19.5991 5.36412 19.6906 5.21161C19.8126 5.0286 19.9549 4.86592 20.1075 4.72358C19.9448 5.0286 19.8126 5.35395 19.7008 5.6793C19.6296 5.89281 19.5686 6.10632 19.5279 6.31983C19.6906 6.44183 19.8533 6.574 20.0058 6.70618C20.0566 6.40116 20.138 6.09615 20.2295 5.8013C20.3616 5.42512 20.5243 5.0591 20.7378 4.72358C20.87 4.52024 21.0327 4.32706 21.2055 4.16439C21.2868 4.09322 21.3783 4.02205 21.4698 3.96104C21.5715 3.93054 21.6732 3.90004 21.7749 3.87971C21.846 3.86954 21.9274 3.84921 21.9985 3.83904C21.9579 3.86954 21.9172 3.91021 21.8765 3.94071C21.6935 4.11356 21.5614 4.3474 21.4597 4.58124C21.3377 4.84559 21.236 5.1201 21.1242 5.38445C21.0632 5.52679 21.114 5.6793 21.2563 5.75047C21.3885 5.81147 21.5614 5.76064 21.6224 5.6183C21.7139 5.41495 21.785 5.21161 21.8765 5.00827C21.9477 4.83542 22.029 4.67275 22.1206 4.51007C22.1714 4.42874 22.2324 4.35756 22.3036 4.28639C22.3646 4.23556 22.4256 4.19489 22.4967 4.15422C22.5882 4.11355 22.6899 4.07288 22.7916 4.05255C22.9848 4.01188 23.1779 4.00171 23.3711 4.01188C23.4524 4.05255 23.5338 4.09322 23.6151 4.14406C23.7575 4.23556 23.8795 4.3474 24.0015 4.4694C24.1336 4.62191 24.2557 4.79475 24.3472 4.97776C24.3675 5.00826 24.3777 5.04893 24.398 5.0896C24.4285 5.16077 24.4793 5.22178 24.5505 5.26245C24.6217 5.30311 24.7132 5.30311 24.7843 5.27261C24.9369 5.22177 25.0385 5.0286 24.9674 4.87609C24.7538 4.3779 24.4387 3.93055 23.9913 3.61536C23.5846 3.33068 23.1169 3.16801 22.6289 3.13751C22.5374 3.12734 22.4459 3.12734 22.3544 3.12734C22.2121 3.10701 22.0494 3.11717 21.8969 3.14767Z" fill="#2C2C2C"/>
<path d="M19.3955 7.72293C19.426 7.7636 19.4565 7.7941 19.5074 7.81444C19.5785 7.84494 19.6497 7.8551 19.7209 7.8246C19.7616 7.80427 19.8022 7.78394 19.8327 7.74327C19.548 7.48909 19.2532 7.24508 18.9482 7.01123C19.06 7.27558 19.2227 7.51959 19.3955 7.72293Z" fill="#2C2C2C"/>
<path d="M22.4254 19.6389C22.3034 19.6592 22.1915 19.6897 22.0695 19.7304C21.978 19.7609 21.9272 19.8524 21.9577 19.9439C21.978 20.0354 22.0797 20.0862 22.1712 20.0557C22.283 20.015 22.405 19.9845 22.5271 19.9642C22.6186 19.9439 22.6694 19.8422 22.6389 19.7609C22.6287 19.7202 22.5982 19.6795 22.5576 19.6592C22.5271 19.649 22.5067 19.6389 22.4762 19.6389C22.466 19.6389 22.4457 19.6389 22.4254 19.6389Z" fill="#2C2C2C"/>
<path d="M22.2627 19.639C22.1508 19.6695 22.0797 19.8017 22.1102 19.9135C22.1407 20.0253 22.2627 20.0965 22.3847 20.066C22.405 20.0558 22.4254 20.0558 22.4559 20.0558C22.5067 20.0558 22.5474 20.0558 22.5982 20.0558C22.6592 20.066 22.71 20.0762 22.771 20.1067C22.8117 20.1168 22.8422 20.1168 22.8727 20.1067C22.9235 20.0965 22.9642 20.0558 22.9947 20.005C23.0455 19.9033 23.015 19.7813 22.9134 19.7305C22.8117 19.6695 22.71 19.639 22.588 19.6288C22.5575 19.6288 22.5372 19.6288 22.5067 19.6288C22.4254 19.6085 22.344 19.6187 22.2627 19.639Z" fill="#2C2C2C"/>
<path d="M4.77536 20.0356C4.77536 20.0762 4.79569 20.1169 4.8262 20.1474C4.8567 20.1779 4.89737 20.1881 4.93804 20.1881C4.9482 20.1881 4.95837 20.1881 4.96854 20.1881C5.12104 20.2084 5.26339 20.2287 5.40573 20.2491C5.45656 20.2592 5.49723 20.2592 5.5379 20.2287C5.57857 20.2084 5.60907 20.1677 5.61924 20.1271C5.6294 20.0864 5.61924 20.0356 5.5989 19.9949C5.57857 19.9644 5.5379 19.9237 5.49723 19.9136C5.31422 19.8932 5.12104 19.8729 4.93804 19.8627C4.93804 19.8627 4.93803 19.8627 4.92787 19.8627C4.83636 19.8729 4.77536 19.9542 4.77536 20.0356Z" fill="#2C2C2C"/>
<path d="M15.7863 24.6714C15.7558 24.6816 15.7151 24.7019 15.6846 24.7121C15.6541 24.7223 15.6134 24.7426 15.5829 24.7528C15.5118 24.7833 15.4304 24.8036 15.3593 24.8341C15.2169 24.8849 15.0644 24.9154 14.9221 24.9459C14.5357 25.0171 14.129 25.0273 13.7427 25.0069C13.6003 24.9968 13.458 24.9764 13.3157 24.9459C13.1631 24.9154 13.0106 24.8951 12.8581 24.8646C12.7056 24.8341 12.5531 24.8036 12.4006 24.7731C12.2379 24.7426 12.0651 24.7019 11.8922 24.7019H11.8821C11.8516 24.7324 11.8211 24.7629 11.8007 24.7833C11.7804 24.8036 11.7601 24.8138 11.7499 24.8341C11.7499 24.8646 11.7499 24.8849 11.7601 24.9154C11.7702 24.9561 11.8007 24.9866 11.8414 25.0069C11.9024 25.0476 11.9634 25.0679 12.0346 25.0984C12.1159 25.1289 12.2074 25.1594 12.2888 25.1798C12.4311 25.2205 12.5836 25.251 12.726 25.2815C12.8886 25.312 13.0513 25.3221 13.214 25.3323C13.3665 25.3425 13.5088 25.3425 13.6613 25.3323C13.8138 25.3323 13.9562 25.3221 14.1087 25.3018C14.2612 25.2815 14.4137 25.2611 14.5662 25.2306C14.8611 25.1696 15.1457 25.0883 15.4203 24.9663C15.4914 24.9358 15.5626 24.9053 15.6338 24.8646C15.6744 24.8443 15.7049 24.8239 15.7456 24.8036C15.7863 24.7833 15.8168 24.7629 15.8574 24.7324C15.8879 24.7121 15.8676 24.6613 15.8371 24.6613C15.7964 24.6714 15.7863 24.6714 15.7863 24.6714Z" fill="black"/>
<path d="M14.4747 24.2753C14.251 24.2956 14.0476 24.3668 13.8443 24.4684C13.7528 24.5193 13.6613 24.5701 13.5698 24.6311C13.5189 24.6616 13.4783 24.7023 13.4274 24.743C13.3766 24.7938 13.3156 24.8345 13.2749 24.8955C13.2648 24.9056 13.2546 24.926 13.2444 24.9361C13.2343 24.9666 13.2241 24.9971 13.2241 25.0276H13.1529C12.8072 24.9971 12.4616 24.9361 12.126 24.8345C12.065 24.8141 12.004 24.865 11.9939 24.926C11.9837 24.987 12.0244 25.048 12.0854 25.0581C12.6751 25.2411 13.3054 25.3022 13.9155 25.2716C14.2306 25.2513 14.5458 25.2106 14.8508 25.1395C15.0033 25.109 15.1457 25.0683 15.288 25.0175C15.3592 24.9971 15.4304 24.9666 15.5015 24.9361C15.5727 24.9056 15.654 24.8751 15.7252 24.8446C15.776 24.8243 15.8167 24.7836 15.8269 24.7328C15.8371 24.6616 15.8066 24.6006 15.7455 24.5701C15.7354 24.5701 15.7252 24.5599 15.7252 24.5599C15.6642 24.5294 15.593 24.4989 15.532 24.4684C15.5015 24.4583 15.471 24.4481 15.4405 24.4278C15.3389 24.3871 15.227 24.3566 15.1152 24.3261C14.9728 24.2956 14.8203 24.2753 14.6678 24.2753C14.617 24.2651 14.5458 24.2651 14.4747 24.2753ZM13.7935 24.9768C13.8951 24.8955 14.007 24.8141 14.129 24.7531C14.2408 24.7023 14.3526 24.6616 14.4747 24.6413C14.617 24.6209 14.7492 24.6108 14.8915 24.6209C15.044 24.6413 15.1965 24.6718 15.3389 24.7226C15.0847 24.8345 14.8203 24.9056 14.5458 24.9565C14.2815 25.0073 14.007 25.0378 13.7325 25.048C13.7528 25.0175 13.7731 24.9971 13.7935 24.9768Z" fill="black"/>
<path d="M13.5088 25.1086C13.5088 25.1696 13.5596 25.2103 13.6206 25.2103C13.6816 25.2103 13.7223 25.1594 13.7223 25.0984C13.7223 25.0374 13.6715 24.9968 13.6105 24.9968C13.5495 24.9968 13.5088 25.0578 13.5088 25.1086Z" fill="black"/>
<path d="M13.4581 25.0275C13.4581 25.0885 13.5089 25.1292 13.5699 25.1292C13.6309 25.1292 13.6716 25.0783 13.6716 25.0173C13.6716 24.9563 13.6208 24.9156 13.5598 24.9156C13.4988 24.9156 13.4581 24.9766 13.4581 25.0275Z" fill="black"/>
<path d="M12.5122 24.3972C12.3191 24.4582 12.1259 24.5497 11.953 24.6615C11.8717 24.7124 11.8412 24.8344 11.9022 24.9157C11.9632 25.0072 12.075 25.0174 12.1564 24.9665C12.197 24.936 12.2479 24.9157 12.2987 24.8852C12.3902 24.8445 12.4919 24.814 12.5936 24.7835C12.6952 24.7632 12.7969 24.7632 12.9088 24.7632C13.0003 24.7734 13.0918 24.7937 13.1731 24.8242C13.2849 24.8649 13.3968 24.9157 13.4984 24.9767C13.5594 25.0072 13.6205 25.0479 13.6815 25.0784C13.712 25.0885 13.7323 25.1089 13.7628 25.119C13.7933 25.1292 13.8238 25.1394 13.8441 25.1495C13.8746 25.1495 13.895 25.1597 13.9255 25.1495C13.9763 25.1495 14.0271 25.119 14.0678 25.0784C14.1085 25.0377 14.1186 24.9869 14.1186 24.936C14.1186 24.814 14.0373 24.7124 13.956 24.6209C13.9255 24.5802 13.8848 24.5497 13.8441 24.5192C13.7933 24.4785 13.7425 24.448 13.6815 24.4175C13.5899 24.3768 13.4984 24.3362 13.3968 24.3158C13.2951 24.2955 13.1833 24.2853 13.0714 24.2853H13.0613C12.8783 24.2955 12.6851 24.3362 12.5122 24.3972Z" fill="black"/>
<path d="M14.9728 24.4888C14.8813 24.4888 14.7796 24.4989 14.6881 24.5091C14.6271 24.5091 14.5763 24.5091 14.5254 24.5193C14.3424 24.5294 14.1594 24.5599 13.9866 24.6006C13.9358 24.6209 13.8951 24.6413 13.8646 24.6819C13.8544 24.7023 13.8341 24.7125 13.8239 24.7328C13.6409 24.7328 13.4579 24.7226 13.2749 24.7124C13.0919 24.7023 12.919 24.6819 12.736 24.6616C12.6852 24.6514 12.6445 24.6616 12.6039 24.6921C12.5632 24.7124 12.5428 24.7531 12.5327 24.804C12.5225 24.8548 12.5327 24.8955 12.5632 24.9361C12.5835 24.9666 12.6344 25.0073 12.675 25.0073C13.0614 25.048 13.4477 25.0988 13.8442 25.1293C13.8747 25.1293 13.9154 25.1293 13.9459 25.1395C13.9968 25.17 14.0578 25.1903 14.1086 25.1801C14.1594 25.17 14.2103 25.1598 14.2611 25.1496C14.2306 25.1598 14.2103 25.1598 14.1798 25.1598C14.2306 25.1496 14.2713 25.1395 14.3221 25.1395C14.3526 25.1395 14.3831 25.1395 14.4136 25.1395C14.5966 25.1293 14.7796 25.0988 14.9728 25.0683C14.9931 25.0683 15.0033 25.0683 15.0236 25.0581C15.0745 25.0581 15.1151 25.0378 15.1558 25.0175C15.166 25.0073 15.1761 25.0073 15.1761 24.9971C15.2473 24.987 15.3185 24.9666 15.3795 24.9463C15.471 24.9056 15.5422 24.8243 15.532 24.7124C15.532 24.6514 15.5015 24.5904 15.4507 24.5498L15.3998 24.5193C15.3592 24.4989 15.3287 24.4888 15.2778 24.4989C15.2473 24.4989 15.2168 24.4989 15.1761 24.4989C15.105 24.4888 15.044 24.4888 14.9728 24.4888Z" fill="black"/>
<path d="M13.2243 25.8813C13.1938 25.8813 13.1531 25.8915 13.1226 25.9118C13.0819 25.9423 13.0514 25.983 13.0412 26.0338C13.0209 26.1355 13.0819 26.2372 13.1836 26.2575C13.4174 26.3084 13.6614 26.3389 13.9055 26.3389C14.1393 26.3389 14.3731 26.3185 14.607 26.2677C14.6273 26.2677 14.6375 26.2575 14.6578 26.2575C14.6883 26.2474 14.7188 26.227 14.7392 26.2067C14.7697 26.166 14.79 26.1152 14.79 26.0643C14.7798 25.9627 14.6883 25.8712 14.5867 25.8813C14.3732 25.8915 14.1596 25.8915 13.9461 25.8915C13.7529 25.8813 13.5496 25.8712 13.3564 25.8508C13.3463 25.8508 13.3361 25.8508 13.3259 25.8508C13.2954 25.8508 13.2548 25.861 13.2243 25.8813Z" fill="black"/>
<path d="M15.288 24.5803C14.9932 24.6514 14.6983 24.7429 14.4035 24.8039C14.2612 24.8345 14.1188 24.8548 13.9765 24.865C13.8646 24.8751 13.7731 24.9666 13.7833 25.0785C13.7935 25.1903 13.885 25.2818 13.9968 25.2716C14.3832 25.231 14.7797 25.17 15.166 25.109C15.3694 25.0785 15.5727 25.0378 15.7659 24.987C15.9591 24.9361 16.1421 24.8853 16.3353 24.8243C16.3963 24.804 16.4471 24.7531 16.4674 24.6921C16.4369 24.6921 16.4064 24.6921 16.3759 24.6819C16.2133 24.6718 16.0608 24.6413 15.9082 24.6006C15.8167 24.5701 15.7151 24.5396 15.6337 24.4888C15.5117 24.5193 15.3999 24.5498 15.288 24.5803Z" fill="black"/>
<path d="M16.1013 24.6108C16.0911 24.6108 16.0911 24.6108 16.0809 24.6006C16.0606 24.6006 16.0504 24.6006 16.0301 24.5905C16.0504 24.6006 16.0708 24.6006 16.1013 24.6108Z" fill="black"/>
<path d="M15.2677 17.7073C15.2168 17.7582 15.1965 17.8497 15.227 17.9209C15.2372 17.9615 15.2575 17.992 15.288 18.0124C15.3287 18.053 15.3897 18.0632 15.4405 18.0632C15.6947 18.0734 15.9489 18.0937 16.2031 18.1039C16.4674 18.114 16.7216 18.1242 16.9859 18.1344C17.5146 18.1445 18.0433 18.1344 18.5618 18.0937C18.6025 18.0937 18.633 18.0734 18.6635 18.053C18.5415 17.9412 18.4195 17.8293 18.2873 17.7277C18.023 17.5243 17.7485 17.3515 17.4536 17.2193C17.4129 17.199 17.3723 17.1888 17.3418 17.1786C17.1893 17.1481 17.0368 17.138 16.8843 17.1278C16.8538 17.1278 16.8334 17.1278 16.8029 17.1278C16.2336 17.138 15.6642 17.321 15.2677 17.7073Z" fill="black"/>
<path d="M10.1432 16.8734C9.81789 16.8836 9.51287 16.9751 9.22819 17.1073C9.08585 17.1683 8.96384 17.2496 8.83167 17.3309C8.68933 17.4326 8.54699 17.5444 8.42498 17.6766C8.39448 17.7071 8.37415 17.7478 8.36398 17.7885C9.36037 17.819 10.3567 17.9918 11.3633 18.0121C11.3836 18.0121 11.4141 18.0121 11.4345 18.0223C11.4548 18.0121 11.4751 18.0121 11.4955 18.002C11.5056 17.9918 11.5158 17.9918 11.526 17.9816C11.5361 17.9511 11.5463 17.9206 11.5565 17.9003C11.5666 17.88 11.5666 17.8698 11.5768 17.8495L11.587 17.8393C11.587 17.8291 11.587 17.819 11.587 17.819C11.587 17.7783 11.5971 17.7478 11.5971 17.7071C11.4548 17.4631 11.2616 17.2496 11.0176 17.0971C10.8854 17.0158 10.7431 16.9649 10.6008 16.9242C10.4686 16.8937 10.3262 16.8734 10.1941 16.8734C10.1737 16.8734 10.1534 16.8734 10.1432 16.8734ZM10.0212 17.4733C10.1127 17.4631 10.2042 17.4631 10.2957 17.4733C10.3364 17.4834 10.3872 17.4936 10.4279 17.5038C10.2957 17.4936 10.1636 17.4834 10.0212 17.4733Z" fill="black"/>
<path d="M11.6482 17.8289C11.6482 17.8492 11.6482 17.8695 11.6482 17.8797C11.6584 17.8797 11.6584 17.8695 11.6686 17.8594C11.6686 17.839 11.6584 17.8187 11.6584 17.8085C11.6482 17.8187 11.6482 17.8289 11.6482 17.8289Z" fill="black"/>
<path d="M11.6279 18.0019C11.6177 18.0222 11.6177 18.0426 11.6075 18.0528C11.5974 18.0629 11.5974 18.0629 11.5872 18.0731C11.5872 18.0731 11.5872 18.0731 11.5974 18.0731C11.6075 18.0629 11.6177 18.0527 11.6279 18.0426C11.638 18.0324 11.6482 18.0121 11.6482 18.0019C11.6584 17.9917 11.6584 17.9714 11.6584 17.9612C11.6482 17.9816 11.638 17.9917 11.6279 18.0019Z" fill="black"/>
<path d="M11.699 18.0221C11.6889 18.0323 11.6889 18.0424 11.6787 18.0628C11.6685 18.0729 11.6685 18.0831 11.6584 18.0933C11.6685 18.0831 11.6889 18.0831 11.699 18.073C11.7092 18.0424 11.7092 18.0119 11.699 17.9814C11.7092 17.9814 11.7092 18.0018 11.699 18.0221Z" fill="black"/>
<path d="M12.431 21.408C12.4412 21.408 12.4513 21.408 12.4717 21.408C12.4717 21.3978 12.4717 21.3877 12.4717 21.3775C12.4513 21.3775 12.4412 21.3978 12.431 21.408Z" fill="black"/>
<path d="M16.0099 18.4999C16.0099 18.9473 16.3861 19.3235 16.8335 19.3235C17.2808 19.3235 17.657 18.9473 17.657 18.4999C17.657 18.0526 17.2808 17.6764 16.8335 17.6764C16.3861 17.6764 16.0099 18.0526 16.0099 18.4999Z" fill="black"/>
<path d="M9.5639 18.622C9.5639 19.049 9.91976 19.4048 10.3468 19.4048C10.7738 19.4048 11.1296 19.049 11.1296 18.622C11.1296 18.195 10.7738 17.8391 10.3468 17.8391C9.91976 17.8493 9.5639 18.2051 9.5639 18.622Z" fill="black"/>
<path d="M14.9017 21.7233C14.8508 21.7538 14.8 21.7741 14.7492 21.7945C14.5763 21.8656 14.4035 21.9165 14.2205 21.9368C14.068 21.9571 13.9155 21.9571 13.7528 21.9368C13.6206 21.9165 13.4986 21.886 13.3766 21.8351C13.3461 21.825 13.3258 21.8148 13.2953 21.7945C13.1936 21.7436 13.0716 21.764 13.0106 21.8656C12.9597 21.9571 12.9902 22.0995 13.0817 22.1503C13.2241 22.2215 13.3766 22.2926 13.5393 22.3333C13.7121 22.3841 13.8849 22.4045 14.068 22.4045C14.4441 22.4045 14.8 22.2926 15.1355 22.13C15.2473 22.069 15.288 21.9165 15.2168 21.8046C15.1863 21.7538 15.1355 21.7131 15.0745 21.6928C15.0542 21.6826 15.0338 21.6826 15.0135 21.6826C14.983 21.6928 14.9423 21.7029 14.9017 21.7233ZM14.2611 21.9368C14.251 21.9368 14.251 21.9368 14.2408 21.9368C14.2408 21.947 14.251 21.947 14.2611 21.9368Z" fill="#2C2C2C"/>
<path d="M7.88632 10.3053C7.74398 10.3866 7.63214 10.5289 7.59147 10.6916C7.54064 10.8644 7.57114 11.0373 7.65248 11.1898C7.86599 11.5965 8.16083 11.9727 8.48618 12.298C8.84203 12.6437 9.24872 12.9182 9.68591 13.1521C10.1129 13.3859 10.5806 13.5689 11.0381 13.7418C11.4652 13.9044 11.9023 14.0366 12.3497 14.1484C12.5734 14.2094 12.8174 14.0773 12.8784 13.8434C12.9394 13.6096 12.7971 13.3859 12.5734 13.3147C12.2684 13.2232 11.9735 13.1216 11.6888 12.9996C11.1296 12.7555 10.6111 12.4505 10.1231 12.0845C9.76724 11.7998 9.4419 11.4846 9.15721 11.1288C9.01487 10.9356 8.89287 10.7323 8.78103 10.5289C8.66919 10.3154 8.44551 10.2137 8.22183 10.2137C8.09983 10.2137 7.98799 10.2442 7.88632 10.3053Z" fill="#2C2C2C"/>
<path d="M21.3476 12.9386C21.3273 12.9589 21.3171 12.9793 21.2968 12.9996C21.2663 13.0505 21.2561 13.1013 21.2561 13.1623C21.1443 14.0367 21.0324 14.9212 21.0121 15.8058C21.0121 15.9684 21.1545 16.1108 21.3171 16.1108C21.49 16.1108 21.612 15.9684 21.6221 15.8058C21.6526 14.9212 21.7747 14.0367 21.8865 13.1623C21.8967 13.0809 21.8458 12.9894 21.795 12.9386C21.734 12.8776 21.6526 12.8471 21.5713 12.8471C21.49 12.8471 21.4086 12.8776 21.3476 12.9386Z" fill="#2C2C2C"/>
<path d="M5.1616 0.870239C4.05338 0.910908 2.98583 1.39893 2.24362 2.22247C2.09111 2.39531 1.94877 2.57832 1.8166 2.7715C1.68443 2.97484 1.58276 3.19852 1.49125 3.4222C1.31841 3.82888 1.23707 4.26607 1.19641 4.70326C1.15574 5.12012 1.1964 5.54713 1.27774 5.96399C1.35908 6.39101 1.51159 6.80787 1.6946 7.19422C2.06061 7.94659 2.64014 8.59728 3.35184 9.04464C3.69753 9.25815 4.09405 9.42083 4.49057 9.51233C4.65324 9.54283 4.81591 9.57334 4.97859 9.5835C5.20227 9.26832 5.44628 8.95314 5.70046 8.65829C5.48695 8.58712 5.2836 8.50578 5.08026 8.42444C4.59224 8.21093 4.11438 7.95675 3.68736 7.64157C3.45352 7.45856 3.24 7.25522 3.057 7.02138C2.92482 6.84853 2.82315 6.66552 2.73164 6.47235C2.66047 6.2995 2.60964 6.1165 2.58931 5.93349C2.56897 5.74031 2.56897 5.54713 2.58931 5.35396C2.62997 5.12011 2.69098 4.89644 2.77232 4.68293C2.89432 4.40841 3.04683 4.15423 3.22984 3.92039C3.46368 3.63571 3.71786 3.37136 4.01271 3.14768C4.30756 2.924 4.63291 2.73083 4.97859 2.57832C5.21243 2.48682 5.45645 2.41565 5.70046 2.36481C5.98514 2.41565 6.25965 2.49698 6.53417 2.60882C6.83918 2.75116 7.12386 2.91384 7.39838 3.11718C7.57122 3.25952 7.73389 3.41203 7.8864 3.5747C7.98807 3.85938 8.05924 4.15423 8.09991 4.45925C8.15075 4.8456 8.16091 5.23196 8.14058 5.61831C8.13041 5.83182 8.31342 6.01482 8.51676 6.03516V6.04532C8.80145 5.83181 9.10646 5.62847 9.40131 5.43529C9.63515 5.29295 9.85883 5.15062 10.1028 5.01844C10.0927 4.7846 10.0622 4.54058 10.0113 4.31691C9.9605 4.05256 9.84866 3.80855 9.74699 3.56454C9.65548 3.34086 9.52331 3.13751 9.38097 2.94434C9.2183 2.72066 9.04546 2.51732 8.85228 2.32414C8.63877 2.1208 8.40492 1.93779 8.17108 1.76495C7.74406 1.45993 7.24587 1.23625 6.74768 1.08375C6.524 1.01258 6.30032 0.971908 6.06648 0.93124C5.8123 0.890571 5.56829 0.870239 5.31411 0.870239C5.2531 0.870239 5.20227 0.870239 5.1616 0.870239Z" fill="#2C2C2C"/>
<path d="M8.79126 6.97057C8.56758 7.14341 8.35407 7.31625 8.14056 7.49926C8.1609 7.52976 8.18123 7.56026 8.21174 7.5806C8.44558 7.81444 8.8726 7.83478 9.10644 7.5806C9.22845 7.43826 9.35046 7.29592 9.47246 7.14341C9.5538 7.04174 9.6148 6.91973 9.66564 6.80789C9.77748 6.60455 9.85881 6.39104 9.92998 6.16736C9.54363 6.42154 9.15728 6.68589 8.79126 6.97057Z" fill="#2C2C2C"/>
<path d="M22.6491 3.63555C22.5982 3.68639 22.5677 3.76772 22.5677 3.83889C22.5372 3.84906 22.5067 3.86939 22.4762 3.87956C22.4355 3.89989 22.3949 3.91006 22.3542 3.9304C22.2729 3.9609 22.2017 4.00157 22.161 4.0829C22.1204 4.15407 22.1 4.24558 22.1305 4.33708C22.1509 4.41842 22.2119 4.48959 22.283 4.53026C22.3542 4.57093 22.4559 4.59126 22.5372 4.56076C22.6491 4.52009 22.7609 4.46925 22.8626 4.41842C22.9642 4.35741 23.0557 4.28625 23.1269 4.19475C23.1574 4.15408 23.1777 4.10324 23.1879 4.06257C23.2083 4.01173 23.2083 3.92023 23.1879 3.85922C23.1676 3.79822 23.1371 3.73722 23.0964 3.69655C23.0557 3.66605 23.0151 3.63555 22.9642 3.60505C22.9236 3.58471 22.8727 3.57455 22.8219 3.57455C22.7609 3.55421 22.6999 3.58472 22.6491 3.63555Z" fill="#2C2C2C"/>
<path d="M23.4421 3.21878C23.3913 3.22895 23.3506 3.23912 23.2997 3.24928C23.2489 3.24928 23.2082 3.23912 23.1574 3.23912C23.1167 3.21878 23.0761 3.20862 23.0354 3.21878C22.9846 3.21878 22.9337 3.22895 22.8829 3.25945C22.8422 3.27979 22.8117 3.31029 22.7812 3.35095C22.6084 3.38146 22.4355 3.4018 22.2627 3.4323C22.1814 3.44246 22.0899 3.5238 22.0492 3.59497C21.9983 3.67631 21.9882 3.77798 22.0187 3.86948C22.039 3.96099 22.1 4.03216 22.1814 4.08299C22.2119 4.09316 22.2424 4.10333 22.2627 4.11349C22.3237 4.13383 22.3847 4.13383 22.4457 4.11349C22.8016 4.06266 23.1472 4.01182 23.4929 3.91015C23.5539 3.91015 23.6454 3.88981 23.6963 3.85931C23.7166 3.83898 23.7471 3.81865 23.7674 3.79831C23.8183 3.74748 23.8284 3.71698 23.8589 3.64581C23.8894 3.56447 23.8691 3.44246 23.8183 3.37129C23.7878 3.32045 23.7471 3.27978 23.6963 3.24928C23.6454 3.21878 23.5844 3.20862 23.5336 3.20862C23.5031 3.20862 23.4726 3.20862 23.4421 3.21878ZM23.1676 3.23912C23.1879 3.23912 23.2082 3.24928 23.2286 3.24928C23.2082 3.23912 23.1879 3.23912 23.1676 3.23912Z" fill="#2C2C2C"/>
<path d="M17.4943 22.9228C17.4943 23.0753 17.6163 23.1973 17.7688 23.1973C17.9213 23.1973 18.0434 23.0753 18.0434 22.9228C18.0434 22.7703 17.9213 22.6483 17.7688 22.6483C17.6265 22.6483 17.4943 22.7805 17.4943 22.9228Z" fill="#2C2C2C"/>
<path d="M4.76502 0.656733C4.08382 0.788906 3.43312 1.07359 2.84342 1.43961C1.7047 2.15131 0.708316 3.29003 0.494806 4.65243C0.464304 4.82528 0.44397 5.00828 0.44397 5.19129C0.44397 5.38447 0.464307 5.58781 0.484641 5.78099C0.535477 6.15717 0.657481 6.50286 0.820156 6.84854C0.891326 7.01122 0.982831 7.17389 1.0845 7.3264C1.20651 7.51957 1.33868 7.71275 1.49119 7.88559C1.62336 8.0381 1.79621 8.17027 1.95888 8.29228C2.20289 8.48546 2.4469 8.6583 2.70108 8.83114C2.86376 8.94298 3.0366 9.04465 3.20944 9.12599L3.35178 9.18699C3.46362 9.21749 3.56529 9.21749 3.67713 9.18699C3.82964 9.14632 3.96181 9.04465 4.04315 8.90231C4.20582 8.61763 4.11432 8.22111 3.81947 8.05844C3.57546 7.92626 3.33144 7.79409 3.08743 7.65175C2.82309 7.50941 2.54858 7.34673 2.30456 7.17389C2.18256 7.07222 2.08088 6.95021 1.98938 6.82821C1.82671 6.60453 1.68436 6.37069 1.57253 6.12667C1.48102 5.903 1.42002 5.66915 1.37935 5.42514C1.34885 5.19129 1.34885 4.95745 1.37935 4.73377C1.42002 4.47959 1.49119 4.22541 1.59286 3.9814C1.72503 3.69672 1.88771 3.4222 2.07072 3.16802C2.31473 2.86301 2.59941 2.5885 2.90443 2.34449C3.26028 2.08014 3.63646 1.85646 4.04315 1.68362C4.4295 1.53111 4.82602 1.40911 5.24287 1.34811C5.57839 1.30744 5.92407 1.30743 6.25959 1.33793C6.52394 1.3786 6.78828 1.44978 7.04246 1.55145C7.26614 1.65312 7.46948 1.77512 7.66266 1.91746C7.85583 2.08014 8.03884 2.25298 8.19135 2.44616C8.38453 2.70034 8.53704 2.98502 8.66921 3.27987C8.78105 3.56455 8.87255 3.84923 8.94372 4.15424C8.99456 4.35758 9.21824 4.47959 9.41141 4.41859C9.61476 4.35758 9.72659 4.15424 9.67576 3.9509C9.48258 3.12736 9.1369 2.35465 8.56754 1.72429C8.09985 1.21593 7.47965 0.860081 6.80862 0.68724C6.4731 0.595735 6.12742 0.565232 5.7919 0.565232C5.44622 0.544898 5.10053 0.585563 4.76502 0.656733ZM3.99231 1.68362C3.98215 1.68362 3.97198 1.69379 3.97198 1.69379C3.97198 1.69379 3.98215 1.69379 3.99231 1.68362Z" fill="#2C2C2C"/>
<path d="M5.00897 22.1501C5.00897 22.3738 5.20215 22.567 5.42582 22.567C5.6495 22.567 5.84268 22.3738 5.84268 22.1501C5.84268 21.9264 5.6495 21.7333 5.42582 21.7333C5.20215 21.7333 5.00897 21.9163 5.00897 22.1501Z" fill="#2C2C2C"/>
<path d="M21.9372 21.6926C21.9372 21.9163 22.1304 22.1095 22.354 22.1095C22.5777 22.1095 22.7709 21.9163 22.7709 21.6926C22.7709 21.4689 22.5777 21.2758 22.354 21.2758C22.1304 21.2656 21.9372 21.4588 21.9372 21.6926Z" fill="#2C2C2C"/>
<path d="M23.015 2.78182C23.0049 2.78182 22.9845 2.79199 22.9744 2.79199C22.8727 2.81232 22.771 2.85299 22.6693 2.89366C22.5168 2.95466 22.3847 3.01567 22.2728 3.13767C22.1407 3.28001 22.1102 3.48336 22.2118 3.64603C22.2525 3.70703 22.3033 3.75787 22.3643 3.79854C22.3948 3.80871 22.4355 3.82904 22.466 3.83921H22.4762C22.4762 3.85954 22.4762 3.89004 22.4863 3.91037C22.5168 4.02221 22.6287 4.12389 22.7507 4.11372C22.7609 4.11372 22.7812 4.11372 22.7913 4.11372C22.8524 4.12389 22.9032 4.14422 22.9642 4.15439C23.1065 4.19506 23.2489 4.10355 23.2895 3.97138C23.2997 3.94088 23.2997 3.91038 23.2997 3.87987C23.381 3.93071 23.4827 3.94088 23.5742 3.91037C23.7064 3.86971 23.8386 3.82904 23.9606 3.7477C24.0216 3.70703 24.0724 3.66636 24.1131 3.59519C24.1537 3.53419 24.1741 3.46302 24.1741 3.38169C24.1741 3.23935 24.0927 3.09701 23.9707 3.02584C23.8487 2.95467 23.7166 2.90383 23.5844 2.86316C23.5234 2.84282 23.4726 2.83266 23.4115 2.82249C23.4014 2.82249 23.4014 2.81232 23.3912 2.81232C23.3505 2.79199 23.32 2.78182 23.2794 2.76149C23.2387 2.75132 23.198 2.74115 23.1574 2.74115C23.0964 2.77165 23.0557 2.77165 23.015 2.78182Z" fill="#2C2C2C"/>
<path d="M13.458 18.1445C13.4682 18.6426 13.4478 19.151 13.4071 19.6492C13.397 19.7407 13.4885 19.822 13.58 19.822C13.6207 19.822 13.6715 19.8017 13.702 19.7712C13.7325 19.7407 13.7528 19.7 13.7528 19.6492C13.7935 19.151 13.8138 18.6426 13.8037 18.1445C13.8037 18.053 13.7223 17.9716 13.6308 17.9716C13.5393 17.9818 13.458 18.053 13.458 18.1445Z" fill="#2C2C2C"/>
</svg>
