<svg width="24" height="30" viewBox="0 0 24 30" fill="none" xmlns="http://www.w3.org/2000/svg">
<path d="M20.5 7.5L14.5 4L7.99998 5L3.49994 9L3.99998 16.5C3.99998 16.5 1.49998 15.5 0.999981 16C0.5 16.5 1.49989 19.4998 1.99989 20.9998L1.99995 21C2.49993 22.5 3.99998 21 3.99998 21C3.99998 23.6667 5.49998 29 11.5 29C17.5 29 19.6666 24.5 19.9999 22C22.9999 22 23.4999 17.5 22.9999 16.5C22.5999 15.7 21 16.5 20.5 17V7.5Z" fill="#7B442B"/>
<path d="M11.5406 0.637641C11.2628 0.677316 11.0149 0.716993 10.7867 0.776506C10.5586 0.836019 10.3305 0.91537 10.0825 1.02448C9.64605 1.22286 9.26914 1.49066 8.99141 1.82791C8.91206 1.91718 8.84263 2.01636 8.78311 2.11555C8.70376 2.23458 8.65417 2.36353 8.61449 2.46271C8.57481 2.55198 8.54506 2.65118 8.5153 2.75036C8.46571 2.7702 8.43595 2.80988 8.4062 2.84955C8.27725 3.09752 8.17806 3.35541 8.10863 3.6133C7.02747 4.12909 5.79753 4.80357 4.80564 5.8153C4.31962 6.31124 3.92286 6.87662 3.62529 7.49159C3.34757 8.05696 3.14919 8.70169 3.02025 9.44561C2.85162 10.378 2.79211 11.3996 2.86154 12.4709C2.8913 12.9569 2.95081 13.4727 3.03016 13.9984C3.10951 14.4745 3.2087 14.9307 3.33765 15.3672C3.35748 15.4465 3.417 15.516 3.49635 15.5457C3.49635 15.7937 3.49635 16.0516 3.50627 16.2996C3.47651 16.2698 3.44676 16.2301 3.417 16.2004C3.29797 16.0813 3.14919 15.9722 2.99048 15.883C2.8913 15.8334 2.79211 15.7937 2.69292 15.754L2.66316 15.7441C2.51438 15.6846 2.35568 15.635 2.21681 15.6052C2.08787 15.5854 1.97876 15.5656 1.86965 15.5656C1.8399 15.5656 1.81014 15.5656 1.78039 15.5656C1.64152 15.5755 1.52249 15.6052 1.41339 15.6449C1.35387 15.6747 1.29436 15.6945 1.23485 15.7342C1.18525 15.7639 1.12574 15.8135 1.06623 15.8631C0.907523 16.0119 0.778576 16.2202 0.699225 16.488C0.629793 16.7161 0.600037 16.984 0.600037 17.3014C0.600037 17.589 0.629793 17.8866 0.699225 18.2437C0.818252 18.8785 1.03647 19.5133 1.34395 20.1382C1.48282 20.4258 1.64152 20.6837 1.80022 20.9118C1.91925 21.0805 2.1077 21.3284 2.34576 21.5169C2.57389 21.7053 2.78219 21.8045 2.99048 21.8442C3.05992 21.8541 3.11943 21.864 3.17895 21.864C3.24838 21.864 3.30789 21.8541 3.38724 21.8442C3.48643 21.8244 3.59554 21.7847 3.70464 21.7153C3.75424 21.6855 3.80383 21.6458 3.85343 21.6062C3.97245 22.3302 4.14108 22.9948 4.35929 23.6098C4.59735 24.2843 4.90483 24.929 5.26191 25.5142C5.62891 26.1093 6.08518 26.6747 6.60096 27.1806C6.84893 27.4186 7.12666 27.6567 7.43415 27.9046C7.75155 28.1526 8.04912 28.3609 8.3566 28.5395C8.99141 28.9164 9.6659 29.1842 10.3602 29.333C10.7768 29.4222 11.2132 29.4619 11.6695 29.4619C11.9968 29.4619 12.3341 29.4421 12.6713 29.3925C13.078 29.3429 13.4847 29.2536 13.8616 29.1445C14.2286 29.0354 14.5956 28.8965 15.0023 28.7081C15.6371 28.4105 16.2719 28.0137 16.8968 27.5079C17.4324 27.0814 17.9382 26.5557 18.4044 25.9506C18.8309 25.3952 19.1979 24.7802 19.4856 24.1355C19.7534 23.5205 19.9815 22.846 20.1898 22.0525L20.1997 22.0227L20.2097 21.993C20.289 22.0327 20.3783 22.0525 20.4775 22.0525H20.4874C20.6758 22.0525 20.8544 21.9831 21.023 21.9037C21.2214 21.8144 21.3999 21.6954 21.5388 21.5863C21.8959 21.3284 22.2133 21.0507 22.491 20.7531C22.5902 20.644 22.6894 20.5349 22.7489 20.406C22.858 20.1977 22.9473 19.9695 23.0068 19.791C23.1952 19.2851 23.3143 18.7495 23.3639 18.1941C23.4234 17.5791 23.344 17.0534 23.1456 16.6368C23.0365 16.4186 22.8679 16.24 22.6497 16.0913C22.5208 16.002 22.372 15.9425 22.2133 15.9127C22.1438 15.9028 22.0843 15.8929 22.0149 15.8929C21.9256 15.8929 21.8264 15.9028 21.7273 15.9326C21.6082 15.9623 21.4793 16.0218 21.3404 16.1111C21.2214 16.1904 21.1024 16.2896 20.9933 16.4186C20.9833 16.25 20.9734 16.0714 20.9635 15.883C20.9933 15.8631 21.0131 15.8433 21.023 15.8135C21.1123 15.6449 21.1718 15.4564 21.2016 15.268C21.2115 15.2085 21.2214 15.139 21.2313 15.0696C21.3603 14.772 21.4694 14.4546 21.5586 14.1472C21.6479 13.8198 21.7273 13.4628 21.7768 13.066C21.886 12.3518 21.9157 11.5782 21.8959 10.7747C21.876 10.0606 21.7967 9.32658 21.6677 8.58266C21.5586 7.93794 21.3206 7.33288 20.9933 6.82702C20.785 6.50962 20.5171 6.21205 20.2097 5.93432C19.9419 5.70619 19.6443 5.47806 19.2277 5.21025C19.0095 5.07138 18.7913 4.93252 18.573 4.80357C18.4441 4.72422 18.3251 4.65479 18.1961 4.57544C18.0473 4.48617 17.9085 4.3969 17.7795 4.31755C17.6109 3.95055 17.4423 3.6133 17.2538 3.30582C16.8571 2.66109 16.3909 2.12547 15.8751 1.68904C15.3891 1.29229 14.8733 1.00464 14.3377 0.826101C13.9508 0.697155 13.5045 0.617803 12.9887 0.568209C12.7903 0.548371 12.592 0.538452 12.3936 0.538452C12.1159 0.588047 11.8282 0.607884 11.5406 0.637641ZM3.48643 10.011C3.59554 9.23731 3.76416 8.56283 4.01213 7.97761C4.20059 7.54118 4.44856 7.11467 4.73621 6.73775C5.07345 6.31124 5.49004 5.90457 5.96615 5.52765C6.53152 5.10114 7.17626 4.70438 8.00944 4.28779C7.99952 4.48617 7.99952 4.69446 8.01936 4.89284C8.02928 4.99203 8.0392 5.10114 8.05904 5.20033C7.81106 5.24992 7.58293 5.33919 7.36471 5.45822C7.02747 5.64668 6.7299 5.95416 6.46209 6.36084C6.24388 6.68816 6.06534 7.08491 5.89672 7.6007C5.76778 7.98753 5.65867 8.43388 5.54956 8.97942C5.47021 9.37617 5.4107 9.77293 5.35118 10.1598C5.31151 10.4375 5.26191 10.7251 5.21232 11.0029C5.17264 11.2409 5.11313 11.5187 5.03378 11.7964C4.87507 12.3221 4.69654 12.8478 4.48824 13.3437C4.32954 13.7306 4.18075 14.0281 4.02205 14.2959C4.02205 14.038 4.01213 13.7702 4.00221 13.5123C4.00221 13.3536 3.87327 13.2346 3.72448 13.2346C3.62529 13.2346 3.52611 13.2941 3.47651 13.3933C3.35749 12.2328 3.34756 11.0921 3.48643 10.011ZM21.1718 10.9334C21.1024 10.5466 21.0131 10.1399 20.9139 9.72334C20.8346 9.40593 20.7155 8.98934 20.5568 8.6025C20.418 8.26526 20.2593 7.94786 20.0708 7.66021C19.9121 7.41224 19.7137 7.15435 19.4657 6.8667C19.188 6.54929 18.8805 6.24181 18.583 5.95416L18.4739 5.84505L18.3052 5.67643C18.2556 5.52765 18.2061 5.37887 18.1465 5.21025L18.3449 5.33919C18.7615 5.58716 19.1979 5.85497 19.5848 6.15254C19.9022 6.40051 20.17 6.6584 20.3882 6.93613C20.5767 7.1841 20.7354 7.45191 20.8643 7.73956C20.9536 7.96769 21.0329 8.20575 21.0924 8.46364C21.152 8.73145 21.1916 9.00918 21.2313 9.26707V9.27699V9.28691V9.29682V9.30674V9.32658V9.31666C21.3603 10.3581 21.3999 11.36 21.3305 12.2725C21.3107 11.846 21.2511 11.3996 21.1718 10.9334ZM4.3097 20.8722V20.8523V20.8325C4.23035 20.2076 4.17083 19.5827 4.14108 18.9479C4.14108 18.9181 4.13116 18.8785 4.13116 18.8487C4.07164 17.8072 4.07165 16.7757 4.06173 15.754V15.2382C4.53783 14.6332 4.84532 13.9488 5.09329 13.3536C5.22223 13.0362 5.34126 12.699 5.4702 12.3221C5.53964 12.1039 5.60907 11.8757 5.66858 11.6476C5.74793 11.3004 5.80745 10.9533 5.85704 10.6061L5.86696 10.5069L5.87688 10.4177C5.94631 10.0011 6.00583 9.56463 6.08518 9.14804C6.18436 8.62234 6.33315 7.93794 6.60096 7.28329C6.73982 6.95597 6.89852 6.67824 7.07706 6.45011C7.16633 6.33108 7.26552 6.23189 7.37463 6.1327C7.40439 5.974 7.50358 5.82521 7.64244 5.74586C7.73171 5.69627 7.8309 5.66651 7.93009 5.66651C8.01936 5.66651 8.10863 5.68635 8.18798 5.72603C8.18798 5.72603 8.1979 5.72603 8.20782 5.72603V5.73594C8.29709 5.78554 8.37644 5.85497 8.42603 5.94424C8.55498 6.16246 8.69384 6.37075 8.85255 6.57905C9.21954 7.04524 9.64606 7.46183 10.1122 7.82883C10.628 8.21566 11.1835 8.54299 11.7786 8.8108C12.0663 8.92982 12.3638 9.02901 12.6614 9.10836C12.7606 9.13812 12.8598 9.15796 12.959 9.1778C12.6019 9.00918 12.2547 8.80088 11.9373 8.56283C11.61 8.30493 11.3223 8.01729 11.0645 7.68997C10.8363 7.3924 10.6479 7.06507 10.4991 6.73775C10.3999 6.48978 10.3205 6.23189 10.2709 5.974C10.4197 6.15254 10.5883 6.33108 10.7669 6.4997C10.995 6.71792 11.2727 6.92621 11.6199 7.1841C11.858 7.35272 12.096 7.51143 12.3242 7.65029C12.6614 7.85859 13.0086 8.03713 13.3061 8.19583C13.7525 8.42396 14.2087 8.64218 14.6749 8.84056C15.2403 9.07861 15.7164 9.25715 16.1727 9.39601C16.6984 9.55472 17.1051 9.62415 17.482 9.63407H17.5216C17.7994 9.63407 18.1862 9.57455 18.4243 9.31666C18.5532 9.1778 18.6524 8.97942 18.7119 8.74137C18.7615 8.53307 18.7913 8.30493 18.7813 8.01729C18.7813 7.80899 18.7516 7.59078 18.7119 7.32297C18.8309 7.51142 18.9301 7.7098 19.0194 7.89826C19.2674 8.49339 19.3765 9.13812 19.4459 9.68366V9.7035V9.72334C19.4459 9.71342 19.4459 9.71342 19.4459 9.7035C19.4955 10.13 19.5352 10.5764 19.5749 11.0029C19.6145 11.479 19.6641 11.965 19.7236 12.451C19.8327 13.2545 20.0113 13.9389 20.2692 14.5439C20.2989 14.7026 20.3188 14.8712 20.3386 15.0299C20.4576 15.9226 20.4973 16.6467 20.4576 17.3212C20.4676 17.3609 20.4676 17.4005 20.4676 17.4402C20.4676 17.4601 20.4676 17.4898 20.4676 17.5097C20.4676 17.5692 20.4477 17.6386 20.4279 17.6882C20.4279 17.6981 20.4279 17.708 20.418 17.718V17.7279C20.408 17.7874 20.408 17.8469 20.3981 17.9064C20.3485 18.2833 20.289 18.6602 20.2295 19.0074C20.2196 19.305 20.1799 19.5926 20.1006 19.8803C20.0906 19.9001 20.0807 19.9299 20.0708 19.9497C20.0113 20.2572 19.9617 20.5548 19.9022 20.8424C19.6542 22.0327 19.3864 22.975 19.0392 23.8081C18.8905 24.1553 18.7317 24.4727 18.5631 24.7604C18.3747 25.0778 18.1664 25.3852 17.9382 25.6927C17.482 26.2779 16.9563 26.8036 16.381 27.2599C15.7759 27.7162 15.151 28.0931 14.5063 28.3708C13.9211 28.6089 13.3061 28.7775 12.6812 28.8668C12.344 28.9064 12.0067 28.9362 11.6893 28.9362C11.4215 28.9362 11.1537 28.9164 10.9058 28.8866C10.3999 28.8172 9.90395 28.6783 9.42784 28.4799C8.8823 28.2419 8.32684 27.9146 7.79122 27.498C7.18617 27.0219 6.66047 26.4962 6.22404 25.9407C5.77769 25.3555 5.4107 24.7108 5.10321 24.0164C4.91475 23.5602 4.74613 23.0642 4.61718 22.5584C4.48824 22.0723 4.38905 21.5367 4.29978 20.892V20.9019V20.8821L4.3097 20.8722ZM20.6759 13.6115C20.6659 13.5421 20.6064 13.4826 20.5469 13.4429C20.5271 13.433 20.4973 13.4231 20.4775 13.4132C20.3882 13.066 20.3188 12.6891 20.2593 12.2725C20.1997 11.8361 20.1601 11.3897 20.1204 10.9533C20.1006 10.6855 20.0708 10.4177 20.041 10.1498C19.9716 9.45552 19.8724 8.72153 19.6443 8.02721L19.6344 8.00737L19.6244 7.97761C19.7732 8.21566 19.9022 8.46364 20.0113 8.72153C20.1997 9.1778 20.3287 9.6539 20.4378 10.1003C20.5568 10.5664 20.6461 11.0624 20.7155 11.5782C20.7949 12.1733 20.8346 12.7585 20.8346 13.3239C20.8346 13.6115 20.8246 13.9091 20.7949 14.2067C20.7949 14.2463 20.785 14.286 20.785 14.3158C20.7552 14.0876 20.7155 13.8496 20.6759 13.6115ZM3.13927 21.3383C3.08967 21.3284 3.04008 21.3185 2.98057 21.2987C2.90122 21.259 2.82187 21.2193 2.75243 21.1598C2.61357 21.0507 2.4747 20.9118 2.33584 20.7333C2.08787 20.406 1.86965 20.0191 1.67127 19.5529C1.43322 18.9876 1.27452 18.4222 1.19517 17.8667C1.14557 17.5097 1.14557 17.2121 1.17533 16.9344C1.19517 16.7856 1.23484 16.6566 1.27452 16.5376C1.30428 16.4682 1.34396 16.4087 1.38363 16.3491C1.41339 16.3095 1.45306 16.2797 1.48282 16.24C1.52249 16.2103 1.56217 16.1904 1.60184 16.1706C1.65144 16.1508 1.70103 16.1409 1.76055 16.1309C1.80022 16.1309 1.8399 16.121 1.86965 16.121C1.91925 16.121 1.96884 16.121 2.01844 16.1309C2.17714 16.1607 2.34576 16.2103 2.53422 16.2797C2.683 16.3491 2.80203 16.4087 2.91113 16.488C3.01032 16.5674 3.09959 16.6566 3.17895 16.7558C3.27813 16.8947 3.3674 17.0435 3.43683 17.2121C3.44675 17.2418 3.45668 17.2617 3.4666 17.2914C3.48643 17.3311 3.49635 17.3609 3.51619 17.3906C3.52611 17.9362 3.54595 18.4024 3.56578 18.8388C3.60546 19.5629 3.66497 20.2572 3.75424 20.9118C3.72448 20.9614 3.69473 21.0011 3.66497 21.0507C3.60546 21.1201 3.54594 21.1796 3.48643 21.2392C3.44675 21.2689 3.40708 21.2987 3.35748 21.3185C3.31781 21.3284 3.28805 21.3383 3.24838 21.3483C3.22854 21.3483 3.2087 21.3483 3.18886 21.3483C3.17894 21.3483 3.15911 21.3383 3.13927 21.3383ZM20.4576 21.5268H20.4378L20.4279 21.5169C20.4279 21.507 20.418 21.497 20.418 21.497C20.408 21.4673 20.3981 21.4375 20.3981 21.4078C20.3981 21.3582 20.3882 21.3086 20.3981 21.259C20.4874 20.8523 20.5667 20.4159 20.656 19.9199C20.7254 19.5331 20.785 19.1562 20.8246 18.8685L20.8544 18.6602C20.904 18.3726 20.9437 18.075 20.9833 17.7775C20.9933 17.718 20.9933 17.6485 21.0032 17.589C21.023 17.5295 21.0428 17.4799 21.0627 17.4105C21.142 17.2319 21.2412 17.0732 21.3404 16.9244C21.4297 16.8153 21.509 16.7261 21.6082 16.6566C21.6777 16.607 21.7372 16.5674 21.8066 16.5376C21.8661 16.5178 21.9157 16.5079 21.9653 16.488C21.9851 16.488 22.005 16.488 22.0347 16.488C22.0546 16.488 22.0843 16.488 22.1042 16.488C22.1538 16.4979 22.2034 16.5078 22.2629 16.5277C22.3323 16.5574 22.3918 16.5971 22.4513 16.6368C22.5009 16.6765 22.5505 16.7261 22.5902 16.7757C22.6398 16.8451 22.6894 16.9244 22.7191 17.0038C22.7687 17.1427 22.8084 17.2815 22.8282 17.4402C22.858 17.7279 22.858 18.0354 22.8084 18.3825C22.7291 18.9082 22.6001 19.424 22.4017 19.9001C22.3521 20.0191 22.2926 20.158 22.2034 20.2671C22.0942 20.406 21.9752 20.525 21.876 20.6143C21.7273 20.763 21.5586 20.9019 21.39 21.0408C21.142 21.2292 20.9238 21.3681 20.7254 21.4574C20.656 21.4871 20.5866 21.507 20.5171 21.5169C20.5072 21.5169 20.4874 21.5169 20.4775 21.5169L20.4576 21.5268Z" fill="#2C2C2C"/>
<path d="M9.99308 5.48791C9.92365 5.50775 9.86413 5.55735 9.83437 5.61686C9.80462 5.67638 9.78478 5.76565 9.80462 5.82516C9.9534 6.23183 10.1319 6.62859 10.3402 7.00551C10.5386 7.3725 10.7767 7.70975 11.0346 8.02715C11.2627 8.3148 11.5206 8.57269 11.7983 8.82066C12.076 8.93969 12.3736 9.03888 12.6612 9.10831C12.8596 9.1579 13.0481 9.19758 13.2465 9.23726C13.2365 9.22734 13.2266 9.21742 13.2068 9.2075C12.9886 9.06863 12.7803 8.91985 12.5819 8.76115C12.1256 8.40407 11.6991 7.99739 11.342 7.54113C10.985 7.07494 10.6973 6.55916 10.4692 6.02354C10.4196 5.90451 10.37 5.78548 10.3303 5.66646C10.3006 5.59702 10.2708 5.53751 10.2014 5.50775C10.1617 5.48792 10.1121 5.46808 10.0625 5.46808C10.0328 5.478 10.0129 5.478 9.99308 5.48791Z" fill="#2C2C2C"/>
<path d="M17.2539 5.11096C17.2142 5.24982 17.3034 5.41844 17.4423 5.4482C17.6903 5.50771 17.9283 5.57715 18.1664 5.67634C18.464 5.80528 18.7417 5.96398 18.9996 6.16236C19.2575 6.37066 19.4955 6.60871 19.7038 6.8666C19.9518 7.19393 20.1502 7.56092 20.3188 7.93784C20.5469 8.50322 20.6957 9.09835 20.785 9.69348C20.8941 10.5068 20.8842 11.3301 20.7751 12.1434C20.7255 12.5402 20.6461 12.927 20.5271 13.3139C20.4775 13.4527 20.5767 13.6114 20.7155 13.6511C20.8643 13.6908 21.0032 13.6015 21.0528 13.4627C21.152 13.1453 21.2214 12.8278 21.271 12.5005C21.3107 12.2327 21.3504 11.955 21.3702 11.6872C21.4198 11.1516 21.4099 10.6159 21.3702 10.0803C21.2809 8.99916 21.0032 7.90808 20.4279 6.97571C20.2791 6.72774 20.1006 6.4996 19.9121 6.28139C19.7237 6.06317 19.4955 5.87471 19.2674 5.69617C18.7714 5.31925 18.1961 5.07128 17.5911 4.94234C17.5713 4.93242 17.5415 4.93242 17.5217 4.93242C17.4026 4.91258 17.2935 4.99193 17.2539 5.11096ZM19.684 6.83684C19.684 6.84676 19.6939 6.84676 19.6939 6.85668C19.684 6.84676 19.684 6.83684 19.684 6.83684ZM20.7751 9.64389C20.7751 9.66373 20.7751 9.67365 20.785 9.69348C20.785 9.68356 20.785 9.66373 20.7751 9.64389ZM20.785 9.69348C20.785 9.7034 20.785 9.7034 20.785 9.71332C20.785 9.71332 20.785 9.7034 20.785 9.69348Z" fill="#2C2C2C"/>
<path d="M18.0871 5.68632C17.9879 5.78551 17.978 5.97397 18.0871 6.07316C18.5632 6.48975 18.9996 6.94602 19.3964 7.45188C19.6741 7.81888 19.932 8.20572 20.1601 8.61239C20.2295 8.74134 20.4081 8.78101 20.537 8.71158C20.666 8.63223 20.7057 8.46361 20.6362 8.33466C20.3486 7.83872 20.0312 7.36261 19.6642 6.91626C19.3071 6.47983 18.9103 6.07316 18.4838 5.69624C18.4243 5.64665 18.3648 5.61689 18.2954 5.61689C18.2061 5.60697 18.1367 5.63673 18.0871 5.68632Z" fill="#2C2C2C"/>
<path d="M18.4741 5.55719C18.4245 5.60679 18.3947 5.67622 18.3947 5.74565C18.3947 5.825 18.4245 5.88452 18.4741 5.93411C18.6824 6.17216 18.8907 6.42014 19.089 6.67803C19.5155 7.2434 19.9123 7.83854 20.19 8.49318C20.2198 8.5527 20.2892 8.60229 20.3487 8.62213C20.4182 8.64197 20.4975 8.63205 20.557 8.59237C20.6165 8.5527 20.6661 8.49318 20.686 8.43367C20.686 8.41383 20.6959 8.38407 20.6959 8.36424C20.6959 8.31464 20.686 8.26505 20.6562 8.22537C20.2396 7.23348 19.5651 6.37054 18.8609 5.55719C18.8113 5.5076 18.7419 5.47784 18.6724 5.47784C18.603 5.47784 18.5237 5.5076 18.4741 5.55719ZM19.1089 6.7177C19.1089 6.72762 19.1188 6.72762 19.1188 6.73754C19.1188 6.72762 19.1089 6.7177 19.1089 6.7177Z" fill="#2C2C2C"/>
<path d="M19.3961 6.24182C19.3366 6.2815 19.287 6.34101 19.2672 6.40053C19.2473 6.46996 19.2573 6.54931 19.2969 6.60882C19.3069 6.62866 19.3267 6.6485 19.3366 6.66834C19.3664 6.69809 19.406 6.72785 19.4556 6.73777C19.5548 6.78736 19.654 6.84688 19.7433 6.90639C19.8623 7.00558 19.9714 7.1246 20.0805 7.24363C20.2392 7.45193 20.3583 7.68006 20.4574 7.91811C20.5666 8.19584 20.6558 8.48349 20.7054 8.77114C20.7352 8.91992 20.9038 8.99927 21.0427 8.95959C21.1121 8.93976 21.1716 8.90008 21.2014 8.83065C21.241 8.76122 21.241 8.69178 21.2311 8.62235C21.1418 8.13633 20.9732 7.6503 20.7153 7.22379C20.5864 7.00558 20.4376 6.8072 20.2591 6.63858C20.1698 6.54931 20.0607 6.46004 19.9516 6.39061C19.8425 6.31126 19.7234 6.26166 19.6044 6.21207C19.5846 6.20215 19.5647 6.20215 19.535 6.20215C19.4854 6.20215 19.4358 6.22199 19.3961 6.24182Z" fill="#2C2C2C"/>
<path d="M20.3682 7.3227C20.3186 7.37229 20.2888 7.44173 20.2888 7.51116C20.2888 7.59051 20.3186 7.65002 20.3682 7.69962C20.388 7.72937 20.4178 7.74921 20.4376 7.77897C20.5269 7.89799 20.5963 8.02694 20.6657 8.1658C20.755 8.38402 20.8145 8.61215 20.8443 8.85021C20.874 9.13785 20.874 9.4255 20.8443 9.72307C20.8344 9.7925 20.8244 9.85201 20.8046 9.92144C20.7848 9.99088 20.7947 10.0603 20.8344 10.1297C20.874 10.1893 20.9335 10.2388 20.9931 10.2587C21.1319 10.2984 21.3005 10.2091 21.3303 10.0702C21.3799 9.84209 21.3997 9.62388 21.4097 9.39575C21.4196 9.14777 21.3898 8.88988 21.3501 8.64191C21.2708 8.15588 21.0724 7.6897 20.7451 7.3227C20.6955 7.2731 20.6261 7.24335 20.5566 7.24335C20.4971 7.24335 20.4178 7.2731 20.3682 7.3227ZM20.6459 8.13605C20.6459 8.14597 20.6558 8.14597 20.6558 8.15589C20.6459 8.14597 20.6459 8.13605 20.6459 8.13605ZM20.8344 9.74291C20.8344 9.75282 20.8344 9.76274 20.8344 9.77266C20.8344 9.76274 20.8344 9.75282 20.8344 9.74291Z" fill="#2C2C2C"/>
<path d="M19.5747 7.13449C19.4259 7.17417 19.3466 7.32295 19.3863 7.47173C19.5946 8.24541 19.8128 9.00916 19.9318 9.80267C19.9913 10.2689 20.0111 10.745 19.9616 11.2112C19.9516 11.2806 19.9913 11.3599 20.0409 11.3996C20.0905 11.4492 20.1599 11.479 20.2294 11.479C20.2988 11.479 20.3682 11.4492 20.4178 11.3996C20.4773 11.3401 20.4872 11.2806 20.4972 11.2112C20.5765 10.5565 20.5071 9.89194 20.3881 9.24721C20.269 8.59257 20.0806 7.95776 19.912 7.32295C19.8822 7.20392 19.7632 7.12457 19.6441 7.12457C19.6243 7.12457 19.6045 7.13449 19.5747 7.13449Z" fill="#2C2C2C"/>
<path d="M19.4461 7.72967C19.3767 7.74951 19.3172 7.78918 19.2874 7.85862C19.2577 7.91813 19.2378 8.0074 19.2577 8.06691C19.4759 8.58269 19.6346 9.11831 19.7635 9.65393C19.8826 10.1697 19.9718 10.6954 20.0413 11.231C20.0413 11.2211 20.0413 11.2112 20.0413 11.2013C20.0413 11.2211 20.0512 11.2409 20.0512 11.2608C20.0512 11.2707 20.0512 11.2707 20.0512 11.2806C20.0512 11.2806 20.0512 11.2806 20.0512 11.2707C20.1504 12.0146 20.2198 12.7585 20.319 13.5025C20.319 13.5223 20.3289 13.552 20.3289 13.5719C20.3388 13.6215 20.3686 13.6612 20.3984 13.6909C20.4479 13.7405 20.5174 13.7703 20.5868 13.7703C20.6562 13.7703 20.7257 13.7405 20.7753 13.6909C20.8249 13.6413 20.8645 13.562 20.8546 13.5025C20.7257 12.5701 20.6463 11.6278 20.4975 10.6954C20.3488 9.75312 20.1305 8.82074 19.7635 7.92805C19.7338 7.85861 19.704 7.80902 19.6346 7.76934C19.5949 7.74951 19.5453 7.72967 19.4957 7.72967C19.4957 7.71975 19.4759 7.71975 19.4461 7.72967ZM20.0512 11.2608C20.0512 11.2509 20.0512 11.2608 20.0512 11.2608C20.0512 11.2409 20.0512 11.231 20.0512 11.2211C20.0512 11.2409 20.0512 11.2509 20.0512 11.2608Z" fill="#2C2C2C"/>
<path d="M20.1204 10.15C19.9915 10.2294 19.9518 10.3881 20.0212 10.5269C20.051 10.5964 20.0907 10.6658 20.1204 10.7253C20.3089 11.1816 20.418 11.6676 20.4874 12.1536C20.5469 12.6 20.5767 13.0662 20.5172 13.5125C20.5073 13.572 20.4973 13.6316 20.4874 13.6811C20.4577 13.8299 20.5271 13.9787 20.6759 14.0184C20.8148 14.0581 20.9834 13.9688 21.0131 13.8299C21.1421 13.2348 21.0925 12.6198 21.0131 12.0247C20.9735 11.7073 20.904 11.3998 20.8247 11.0923C20.7453 10.8047 20.6362 10.517 20.4973 10.2393C20.4477 10.15 20.3585 10.1104 20.2593 10.1104C20.2097 10.1203 20.1601 10.1302 20.1204 10.15ZM20.1105 10.6956C20.1105 10.7055 20.1204 10.7055 20.1204 10.7154C20.1105 10.7055 20.1105 10.7055 20.1105 10.6956ZM20.4874 12.1933C20.4874 12.2032 20.4874 12.2132 20.4874 12.2231C20.4973 12.2132 20.4973 12.2032 20.4874 12.1933Z" fill="#2C2C2C"/>
<path d="M20.7153 10.6456C20.5765 10.6852 20.4872 10.834 20.5269 10.9828C20.6062 11.2605 20.6657 11.5482 20.7054 11.8358C20.7748 12.3615 20.7947 12.8972 20.7252 13.4328C20.7054 13.6014 20.6657 13.77 20.6161 13.9386C20.5765 14.0775 20.6657 14.2362 20.8046 14.2759C20.9534 14.3156 21.1022 14.2263 21.1418 14.0874C21.2906 13.5716 21.3204 13.0162 21.3005 12.4806C21.2906 12.1929 21.2509 11.9053 21.2113 11.6275C21.1716 11.3696 21.1121 11.1018 21.0426 10.8439C21.0129 10.7249 20.8939 10.6456 20.7748 10.6456C20.755 10.6456 20.7352 10.6456 20.7153 10.6456ZM20.7054 11.8755C20.7054 11.8854 20.7054 11.8854 20.7054 11.8953C20.7054 11.8854 20.7054 11.8755 20.7054 11.8755ZM20.7252 13.3931C20.7252 13.403 20.7252 13.403 20.7252 13.4129C20.7252 13.4129 20.7252 13.403 20.7252 13.3931Z" fill="#2C2C2C"/>
<path d="M21.1022 10.4574C21.0327 10.4772 20.9732 10.5169 20.9435 10.5863C20.9038 10.6557 20.9038 10.7252 20.9137 10.7946C20.9336 10.9236 20.9534 11.0426 20.9732 11.1715C21.0526 11.7667 21.0724 12.3717 21.003 12.9668C20.9633 13.2644 20.8939 13.5521 20.7947 13.8298C20.7451 13.9686 20.8542 14.1274 20.9831 14.167C21.0526 14.1869 21.1319 14.1769 21.1914 14.1373C21.2609 14.0976 21.2906 14.048 21.3204 13.9786C21.5089 13.4529 21.5783 12.8875 21.5882 12.3221C21.5981 11.7567 21.5386 11.2013 21.4394 10.6458C21.4295 10.5764 21.37 10.5169 21.3105 10.4871C21.2708 10.4673 21.2212 10.4474 21.1716 10.4474C21.1518 10.4474 21.1319 10.4474 21.1022 10.4574Z" fill="#2C2C2C"/>
<path d="M19.5055 6.35106C19.4063 6.45024 19.3964 6.6387 19.5055 6.73789C19.6939 6.91643 19.8725 7.10489 20.0312 7.30327C20.3089 7.67027 20.537 8.06702 20.7156 8.49353C20.9735 9.11842 21.1322 9.77307 21.2214 10.4376C21.3504 11.4394 21.3305 12.4512 21.2016 13.453C21.1421 13.8596 21.0727 14.2663 20.9735 14.673C20.8544 15.1689 20.7057 15.655 20.5073 16.1211C20.4775 16.1807 20.4974 16.2699 20.537 16.3294C20.5767 16.389 20.6362 16.4386 20.6957 16.4584C20.7652 16.4782 20.8445 16.4683 20.904 16.4286C20.9735 16.389 21.0032 16.3294 21.033 16.2699C21.1818 15.9129 21.3107 15.5558 21.4099 15.1888C21.4892 14.911 21.5488 14.6234 21.6083 14.3457C21.7273 13.7307 21.8066 13.1058 21.8463 12.471C21.8761 11.8362 21.8662 11.2014 21.7967 10.5666C21.7273 9.93177 21.5983 9.30688 21.3901 8.71175C21.0826 7.82897 20.5965 7.0057 19.9121 6.37089C19.8526 6.3213 19.7832 6.29154 19.7138 6.29154C19.6344 6.28162 19.565 6.30146 19.5055 6.35106ZM21.2314 10.4376C21.2314 10.4476 21.2314 10.4575 21.2314 10.4773C21.2314 10.4575 21.2314 10.4476 21.2314 10.4376Z" fill="#2C2C2C"/>
<path d="M16.8172 4.26783C16.7974 4.33726 16.8073 4.41661 16.847 4.47612C16.8867 4.53564 16.9462 4.57531 17.0057 4.60507C17.1842 4.66458 17.3628 4.73401 17.5314 4.80344C18.2753 5.12085 18.9795 5.52752 19.6243 6.02347C20.0508 6.35079 20.4376 6.72771 20.7749 7.1443C20.9832 7.42203 21.1617 7.71959 21.3006 8.037C21.4692 8.44367 21.5783 8.8801 21.6378 9.31653C21.737 10.0902 21.6973 10.8639 21.5981 11.6376C21.5188 12.2029 21.4097 12.7584 21.2807 13.3138C21.2113 13.5817 21.1419 13.8594 21.0724 14.1272C20.9832 14.4545 20.8939 14.7818 20.7749 15.0992C20.7451 15.1687 20.7649 15.248 20.8046 15.3075C20.8443 15.367 20.9038 15.4166 20.9633 15.4365C21.0328 15.4563 21.1121 15.4464 21.1716 15.4067C21.2411 15.367 21.2708 15.3075 21.3006 15.248C21.4394 14.881 21.5386 14.5041 21.6378 14.1272C21.7271 13.7999 21.8064 13.4725 21.8759 13.1452C22.0346 12.441 22.1536 11.7268 22.2131 11.0127C22.3222 9.63394 22.1536 8.16595 21.3402 7.01536C20.8344 6.3012 20.15 5.71598 19.4358 5.22996C18.7316 4.75385 17.9579 4.36702 17.1545 4.08929C17.1346 4.07937 17.1049 4.07937 17.085 4.07937C16.9561 4.05953 16.847 4.1488 16.8172 4.26783ZM19.5945 5.99371C19.6044 6.00363 19.6144 6.01355 19.6243 6.01355C19.6144 6.00363 19.6044 5.99371 19.5945 5.99371ZM21.6378 9.25702C21.6378 9.26694 21.6378 9.28678 21.6477 9.2967C21.6378 9.28678 21.6378 9.27686 21.6378 9.25702Z" fill="#2C2C2C"/>
<path d="M7.98944 5.15079C7.8109 5.16071 7.62244 5.20039 7.45381 5.2599C7.38438 5.27974 7.32487 5.31941 7.29512 5.38884C7.25544 5.44836 7.24552 5.52771 7.26536 5.59714C7.2852 5.65665 7.32487 5.70625 7.36455 5.74592C7.33479 5.76576 7.31496 5.77568 7.2852 5.79552C6.92812 6.03357 6.60079 6.32122 6.31314 6.64854C6.00566 6.9957 5.74777 7.37262 5.50972 7.76937C5.37085 8.00743 5.24191 8.24548 5.11296 8.48353C4.9741 8.74143 4.84515 9.00924 4.71621 9.27705C4.68645 9.34648 4.66661 9.41591 4.68645 9.48534C4.70629 9.55477 4.74596 9.61429 4.8154 9.64404C4.87491 9.68372 4.95426 9.69364 5.02369 9.6738C5.0832 9.65396 5.16256 9.61429 5.1824 9.54486C5.38077 9.10843 5.60891 8.68191 5.84696 8.2554C6.03542 7.91816 6.2338 7.60075 6.47185 7.29327C6.72974 6.96595 7.00747 6.6783 7.33479 6.42041C7.64228 6.18236 7.97952 5.9939 8.3366 5.84511C8.42587 5.80544 8.52505 5.77568 8.61432 5.736C8.68376 5.70625 8.75319 5.66657 8.78295 5.59714C8.85238 5.54755 8.89205 5.4682 8.89205 5.37893C8.89205 5.23014 8.76311 5.11112 8.61432 5.1012C8.58457 5.1012 8.55481 5.1012 8.52506 5.1012C8.35644 5.11112 8.16798 5.13095 7.98944 5.15079Z" fill="#2C2C2C"/>
<path d="M8.28713 4.50613C7.49362 4.93264 6.75962 5.47818 6.10498 6.10307C5.48009 6.6982 4.92463 7.3826 4.47828 8.12652C4.39893 8.25547 4.44852 8.42409 4.57747 8.50344C4.70641 8.58279 4.87504 8.5332 4.95439 8.40425C5.12301 8.1166 5.31147 7.84879 5.50984 7.58098C6.02563 6.92634 6.61084 6.34112 7.26549 5.82534C7.67216 5.50794 8.10859 5.23021 8.56486 4.98224C8.6938 4.91281 8.73348 4.73427 8.66405 4.60532C8.61445 4.51605 8.52519 4.47638 8.426 4.47638C8.3764 4.46646 8.33672 4.47637 8.28713 4.50613ZM7.29524 5.78567L7.28533 5.79558L7.29524 5.78567ZM5.52968 7.53139C5.51976 7.54131 5.51976 7.55123 5.50984 7.56115C5.51976 7.55123 5.51976 7.54131 5.52968 7.53139Z" fill="#2C2C2C"/>
<path d="M8.25745 4.08951C7.6028 4.27797 7.02751 4.68464 6.50181 5.12107C5.96619 5.5575 5.49009 6.06337 5.03382 6.57915C4.98422 6.63866 4.95447 6.69818 4.95447 6.76761C4.95447 6.83704 4.98422 6.90647 5.03382 6.95607C5.08341 7.00566 5.15284 7.03542 5.22227 7.03542C5.24211 7.03542 5.27187 7.0255 5.29171 7.0255C5.3413 7.01558 5.38098 6.98582 5.41073 6.95607C5.46033 6.91639 5.50992 6.87671 5.55952 6.83704C5.61903 6.79736 5.66862 6.74777 5.68846 6.67834C5.68846 6.66842 5.68846 6.6585 5.69838 6.64858C6.12489 6.18239 6.59108 5.73604 7.08702 5.33929C7.40443 5.09131 7.74167 4.8731 8.10867 4.7144C8.19794 4.67472 8.29712 4.64497 8.39631 4.61521C8.53517 4.57553 8.62445 4.42675 8.58477 4.27797C8.55501 4.15894 8.43599 4.07959 8.31696 4.07959C8.29712 4.07959 8.27729 4.08951 8.25745 4.08951ZM7.11678 5.31945L7.10686 5.32937C7.10686 5.31945 7.11678 5.31945 7.11678 5.31945Z" fill="#2C2C2C"/>
<path d="M7.64263 4.22821C7.34507 4.3274 7.05742 4.45635 6.78961 4.61505C6.50196 4.77375 6.23415 4.97213 5.97626 5.17051C5.45056 5.5871 4.99429 6.10288 4.60746 6.65834C4.23054 7.20388 3.93297 7.80893 3.74451 8.45366C3.65524 8.76114 3.60565 9.08846 3.58581 9.40587C3.56597 9.72327 3.58581 10.0308 3.64532 10.3382C3.64532 10.3581 3.65524 10.3878 3.65524 10.4077C3.685 10.5565 3.85362 10.6358 3.99249 10.5961C4.14127 10.5565 4.2107 10.4077 4.18094 10.2589C4.1611 10.1895 4.15119 10.1101 4.14127 10.0407C4.10159 9.74311 4.11151 9.44554 4.15119 9.14798C4.2107 8.75122 4.31981 8.3743 4.47851 8.00731C4.6868 7.5312 4.95462 7.08485 5.2621 6.67817C5.60926 6.24174 5.9961 5.84499 6.43253 5.49783C6.76977 5.23994 7.13677 5.0118 7.53353 4.84318C7.61288 4.81343 7.70215 4.77375 7.79142 4.74399C7.86085 4.72416 7.92036 4.68448 7.95012 4.61505C7.98979 4.55554 7.99972 4.47618 7.97988 4.40675C7.95012 4.29764 7.83109 4.20837 7.72198 4.20837C7.69223 4.21829 7.67239 4.22821 7.64263 4.22821ZM4.48843 7.97755C4.48843 7.98747 4.47851 7.98747 4.47851 7.99739C4.48843 7.99739 4.48843 7.98747 4.48843 7.97755ZM4.16111 9.1083V9.12814V9.1083Z" fill="#2C2C2C"/>
<path d="M5.5398 5.95417C5.04386 6.70801 4.52808 7.44201 4.15116 8.24544C3.77424 9.04887 3.50644 9.98124 3.76433 10.864C3.804 11.0029 3.95278 11.0922 4.10157 11.0525C4.24043 11.0128 4.33962 10.864 4.29003 10.7152C4.26027 10.6061 4.23051 10.497 4.22059 10.3879C4.20076 10.1796 4.20075 9.97132 4.23051 9.76303C4.2801 9.40595 4.39913 9.04887 4.538 8.71162C4.92484 7.81892 5.49021 7.02541 6.02583 6.21207C6.10518 6.08312 6.05559 5.9145 5.92664 5.83515C5.88697 5.80539 5.83737 5.79547 5.78778 5.79547C5.68859 5.81531 5.59932 5.8649 5.5398 5.95417Z" fill="#2C2C2C"/>
<path d="M5.83734 6.3805C5.62904 6.70783 5.44058 7.04507 5.26204 7.39223C5.00415 7.86834 4.77602 8.36428 4.5578 8.86022C4.36935 9.30657 4.1908 9.77276 4.10153 10.2489C4.06186 10.4373 4.04202 10.6357 4.06186 10.8341C4.07178 10.9234 4.0817 11.0027 4.11145 11.092C4.15113 11.1912 4.19081 11.2705 4.26024 11.3499C4.29991 11.3995 4.38918 11.4292 4.44869 11.4292C4.51813 11.4292 4.58756 11.3995 4.63715 11.3499C4.68675 11.3003 4.7165 11.2308 4.7165 11.1614C4.7165 11.1019 4.69667 11.0523 4.66691 11.0027C4.66691 11.0027 4.66691 11.0027 4.67683 11.0126C4.65699 10.9928 4.64707 10.963 4.62723 10.9432C4.61731 10.9035 4.6074 10.8738 4.59748 10.8341C4.58756 10.725 4.59748 10.6059 4.6074 10.4968C4.63716 10.2687 4.70658 10.0406 4.77601 9.82236C4.86528 9.55455 4.96447 9.28674 5.07358 9.01893C5.07358 9.02884 5.06367 9.03876 5.06367 9.03876C5.06367 9.02885 5.07358 9.01893 5.07358 9.01893C5.0835 9.00901 5.0835 8.98917 5.09342 8.97925C5.09342 8.98917 5.0835 8.99909 5.0835 9.00901C5.28188 8.54282 5.51001 8.08655 5.73815 7.6402C5.91669 7.30296 6.09523 6.97564 6.30353 6.65823C6.38288 6.52929 6.33328 6.36066 6.20434 6.28131C6.16466 6.25156 6.11506 6.24164 6.06547 6.24164C5.9762 6.25156 5.88693 6.30115 5.83734 6.3805ZM5.07358 9.01893C5.07358 9.00901 5.07358 9.01893 5.07358 9.01893C5.07358 9.01893 5.0835 9.00901 5.07358 9.01893Z" fill="#2C2C2C"/>
<path d="M5.49983 7.31309C5.26178 8.32482 5.02372 9.34646 4.74599 10.3483C4.70631 10.3483 4.65672 10.3582 4.61705 10.3879C4.55753 10.4177 4.49802 10.4871 4.4881 10.5466C4.40875 11.0327 4.31948 11.5286 4.24013 12.0146C4.23021 12.094 4.23021 12.1535 4.26989 12.2229C4.30956 12.2825 4.36907 12.332 4.42858 12.3519C4.57737 12.3916 4.71623 12.3023 4.76583 12.1634C5.28161 10.626 5.64861 9.03898 6.02553 7.45196C6.05528 7.30317 5.98585 7.15439 5.83707 7.11472C5.81723 7.1048 5.78747 7.1048 5.76763 7.1048C5.64861 7.11472 5.52959 7.19407 5.49983 7.31309Z" fill="#2C2C2C"/>
<path d="M5.26185 8.14607C5.24201 8.19566 5.22217 8.23534 5.21225 8.28493C5.20233 8.29485 5.20233 8.30477 5.19241 8.30477C5.15274 8.36428 5.14282 8.45355 5.16266 8.51306C5.1825 8.57258 5.21225 8.62217 5.26185 8.66185C5.21225 8.98917 5.1329 9.31649 5.05355 9.6339C4.94444 10.1001 4.8155 10.5564 4.69647 11.0126C4.59728 11.3895 4.48817 11.7665 4.37906 12.1434C4.34931 12.2624 4.30963 12.3715 4.27987 12.4905C4.26996 12.5203 4.26004 12.55 4.26004 12.5798C4.2402 12.6691 4.2402 12.7286 4.27987 12.8179C4.34931 12.9468 4.52785 12.9865 4.6568 12.917C4.72623 12.8774 4.7659 12.8179 4.78574 12.7484C4.78574 12.7385 4.78574 12.7286 4.78574 12.7187C4.79566 12.6592 4.8155 12.5996 4.83534 12.5401C4.87501 12.3913 4.91469 12.2525 4.95436 12.1037C5.07339 11.6673 5.20233 11.2408 5.31144 10.8043C5.44039 10.3381 5.55941 9.86203 5.66852 9.38593C5.70819 9.19747 5.74787 8.99909 5.78755 8.80071C5.8173 8.64201 5.83714 8.49323 5.83714 8.33452C5.83714 8.27501 5.82722 8.2155 5.79747 8.1659C5.73795 8.07663 5.61892 8.0072 5.51973 8.0072C5.43046 8.0072 5.31144 8.0568 5.26185 8.14607ZM4.77582 12.5897C4.77582 12.5996 4.78574 12.5996 4.78574 12.6096C4.78574 12.6294 4.79566 12.6592 4.79566 12.679C4.79566 12.6889 4.79566 12.6889 4.79566 12.6988C4.79566 12.6592 4.79566 12.6294 4.77582 12.5897Z" fill="#2C2C2C"/>
<path d="M4.27974 7.85861C4.2103 8.04707 4.15079 8.24544 4.09128 8.44382C4.06152 8.36447 3.99209 8.30496 3.91274 8.28512C3.84331 8.26528 3.76396 8.2752 3.70444 8.31487C3.63501 8.35455 3.60526 8.41406 3.5755 8.47358C3.43663 8.84057 3.34736 9.22741 3.30769 9.61425C3.23826 9.97133 3.18866 10.3383 3.1589 10.6954C3.09939 11.4492 3.13907 12.213 3.28785 12.9569C3.29777 13.0263 3.34736 13.0859 3.40688 13.1156C3.40688 13.2545 3.40688 13.3933 3.40688 13.5322C3.40688 13.681 3.5259 13.8099 3.6846 13.8099C3.7342 13.8099 3.77388 13.8 3.81355 13.7802C3.81355 13.8496 3.82347 13.919 3.82347 13.9984C3.83339 14.1174 3.90282 14.2265 4.02185 14.2662C4.09128 14.286 4.17063 14.2761 4.23014 14.2364C4.29957 14.1968 4.32934 14.1472 4.35909 14.0777C4.80544 12.9569 5.23195 11.8162 5.47 10.626C5.47992 10.5565 5.47992 10.4871 5.44025 10.4177C5.40057 10.3582 5.34106 10.3086 5.28155 10.2887C5.14268 10.2491 4.97406 10.3383 4.9443 10.4772C4.84511 10.9533 4.72609 11.4294 4.5773 11.8956C4.80544 10.9037 4.96414 9.89198 5.32122 8.92985C5.36089 8.82074 5.29146 8.68187 5.19227 8.62236C5.103 8.57277 4.97406 8.57277 4.88479 8.6422C4.85503 8.61244 4.80544 8.58268 4.76576 8.57277C4.72609 8.56285 4.68641 8.56285 4.64674 8.57277C4.69633 8.38431 4.75584 8.20577 4.81536 8.01731C4.86495 7.87844 4.76576 7.71974 4.6269 7.68007C4.60706 7.67015 4.57731 7.67015 4.55747 7.67015C4.41861 7.66023 4.31941 7.73958 4.27974 7.85861Z" fill="#2C2C2C"/>
<path d="M8.3564 5.2302C8.039 5.3393 7.73151 5.47817 7.44386 5.64679C7.19589 5.79557 6.95784 5.98403 6.74954 6.19233C6.55117 6.3907 6.38254 6.60892 6.23376 6.84697C6.08498 7.08502 5.96595 7.333 5.86676 7.59089C5.65846 8.10667 5.54936 8.65221 5.46009 9.19775C5.41049 9.48539 5.37082 9.78296 5.33114 10.0706V10.0805C5.33114 10.1004 5.32122 10.1202 5.32122 10.14C5.3113 10.1996 5.30139 10.2591 5.29147 10.3285C5.28155 10.3781 5.27163 10.4376 5.27163 10.4971C5.27163 10.517 5.27163 10.5269 5.26171 10.5467C5.24187 10.6955 5.22204 10.8344 5.2022 10.9831C5.16253 11.2807 5.11293 11.5684 5.05342 11.8659C4.91455 12.5602 4.73601 13.2546 4.4682 13.9092C4.28966 14.3159 4.08137 14.7027 3.81356 15.0499C3.74413 15.1392 3.66477 15.2284 3.58542 15.3177C3.48623 15.4268 3.47631 15.5954 3.58542 15.7045C3.68461 15.8037 3.87307 15.8136 3.97226 15.7045C4.22023 15.4367 4.43844 15.1292 4.6269 14.8118C4.81536 14.4845 4.96414 14.1373 5.09309 13.7902C5.34106 13.1157 5.50968 12.4115 5.62871 11.7072C5.67831 11.4097 5.7279 11.1022 5.76757 10.8046C5.77749 10.7253 5.78741 10.6459 5.79733 10.5765C5.79733 10.5566 5.80725 10.5467 5.80725 10.5269C5.81717 10.4674 5.82709 10.3979 5.83701 10.3384C5.84692 10.2888 5.85684 10.2293 5.85684 10.1698C5.85684 10.1599 5.85684 10.14 5.86676 10.1301C5.87668 10.0508 5.8866 9.9615 5.89652 9.88215C5.9362 9.5945 5.98579 9.30685 6.03538 9.01921C6.12465 8.56294 6.23376 8.11659 6.4123 7.69008C6.53133 7.41235 6.68011 7.14454 6.85865 6.90649C7.02727 6.69819 7.21573 6.50973 7.42403 6.34111C7.672 6.15265 7.94973 6.00387 8.23737 5.87492C8.32664 5.83525 8.41591 5.80549 8.49526 5.77573C8.56469 5.7559 8.62421 5.71622 8.65397 5.64679C8.69364 5.58727 8.70356 5.50792 8.68372 5.43849C8.65397 5.32938 8.53494 5.24011 8.42584 5.24011C8.406 5.21036 8.37624 5.22028 8.3564 5.2302Z" fill="#2C2C2C"/>
<path d="M8.80315 2.60176C8.78331 2.69103 8.75356 2.7803 8.7238 2.85965C8.67421 2.96876 8.61469 3.07787 8.53534 3.17706C8.41631 3.32584 8.28737 3.45478 8.13859 3.56389C7.68232 3.91105 7.15661 4.13919 6.66067 4.407C6.37302 4.55578 6.10521 4.73432 5.8374 4.91286C5.52 5.13107 5.2026 5.36913 4.90503 5.6171C4.31982 6.12296 3.7842 6.70817 3.38744 7.37274C3.19898 7.70006 3.04028 8.04722 2.92126 8.4043C2.80223 8.75146 2.7328 9.11846 2.6832 9.48546C2.54434 10.517 2.65344 11.5486 2.81215 12.5702C2.8915 13.086 2.99069 13.6018 3.08987 14.1176C3.13947 14.4052 3.18907 14.683 3.24858 14.9706C3.30809 15.2781 3.37752 15.5856 3.43703 15.8931C3.46679 16.0418 3.63541 16.1212 3.77428 16.0815C3.84371 16.0617 3.90322 16.022 3.93298 15.9526C3.97265 15.8831 3.97266 15.8137 3.96274 15.7443C3.89331 15.3971 3.82387 15.0599 3.75444 14.7127C3.69493 14.3953 3.63541 14.068 3.5759 13.7407C3.46679 13.1356 3.35769 12.5405 3.26842 11.9354C3.26842 11.9553 3.27833 11.985 3.27833 12.0049C3.16923 11.1915 3.11964 10.3583 3.21882 9.53506C3.28826 9.07879 3.39736 8.62252 3.5759 8.19601C3.74452 7.79925 3.96274 7.43225 4.22063 7.09501C4.6273 6.57923 5.09349 6.12296 5.60927 5.72621C5.97627 5.44848 6.35319 5.18067 6.74994 4.96245C7.07727 4.77399 7.42442 4.61529 7.75175 4.43675C8.09891 4.24829 8.42623 4.04 8.71388 3.76227C9.00153 3.48454 9.21974 3.12746 9.30901 2.73071C9.33877 2.58192 9.26934 2.43314 9.12056 2.39346C9.10072 2.38355 9.07096 2.38354 9.05112 2.38354C8.95193 2.40338 8.83291 2.48273 8.80315 2.60176ZM5.64895 5.71629C5.63903 5.71629 5.63903 5.72621 5.62911 5.72621C5.63903 5.72621 5.63903 5.72621 5.64895 5.71629ZM5.60927 5.75596L5.59935 5.76588C5.59935 5.75596 5.59935 5.75596 5.60927 5.75596ZM3.23866 9.49538C3.23866 9.5053 3.23866 9.5053 3.23866 9.51522C3.23866 9.5053 3.23866 9.5053 3.23866 9.49538Z" fill="#2C2C2C"/>
<path d="M1.90918 17.2718C1.85959 17.3512 1.89926 17.4404 1.96869 17.49C1.99845 17.5099 2.02821 17.5297 2.05797 17.5595C2.35553 17.7975 2.6531 18.0554 2.89115 18.3431C3.03993 18.5514 3.15896 18.7696 3.25815 18.9977C3.26807 19.0176 3.27799 19.0473 3.2879 19.0671C3.30774 19.1068 3.31766 19.1366 3.3375 19.1763C3.37717 19.2457 3.43669 19.2953 3.4962 19.335C3.60531 19.3945 3.72434 19.4143 3.84336 19.3845C3.95247 19.3548 4.05166 19.2754 4.11118 19.1763C4.12109 19.1465 4.14093 19.1167 4.15085 19.0771C4.12109 18.968 4.11117 18.8588 4.13101 18.7497C4.10125 18.6803 4.0715 18.6109 4.03182 18.5414C3.99214 18.4621 3.94255 18.3827 3.88304 18.3133C3.82352 18.234 3.76401 18.1645 3.7045 18.0951C3.64498 18.0356 3.57556 17.9761 3.51604 17.9265C3.3871 17.8174 3.24823 17.7281 3.09945 17.6388C2.95067 17.5496 2.78204 17.4801 2.61342 17.4107C2.63326 17.4206 2.6531 17.4305 2.67294 17.4305C2.53407 17.371 2.38529 17.3115 2.24642 17.252C2.20675 17.2321 2.16708 17.2123 2.1274 17.2024C2.09764 17.1925 2.06788 17.1826 2.03813 17.1826C1.98853 17.2024 1.93894 17.2222 1.90918 17.2718Z" fill="#2C2C2C"/>
<path d="M2.97062 18.432C2.79208 18.4519 2.63338 18.5213 2.47468 18.6106C2.39533 18.6502 2.37549 18.7494 2.41516 18.8288C2.46476 18.9081 2.55403 18.928 2.63338 18.8883C2.66313 18.8784 2.69289 18.8585 2.72265 18.8486C2.82184 18.8089 2.91111 18.7792 3.01029 18.7693C3.09956 18.7593 3.17892 18.7593 3.26819 18.7693C3.30786 18.7792 3.34754 18.7792 3.37729 18.7891C3.46656 18.8089 3.55583 18.7593 3.57567 18.6701C3.59551 18.5808 3.54591 18.4915 3.45664 18.4717C3.37729 18.4519 3.29795 18.4419 3.21859 18.432C3.18884 18.432 3.15908 18.432 3.13924 18.432C3.09956 18.4221 3.03014 18.432 2.97062 18.432Z" fill="#2C2C2C"/>
<path d="M21.8364 17.4599C21.6677 17.5591 21.5189 17.6781 21.3602 17.7971C21.1916 17.9261 21.0428 18.0649 20.8941 18.2137C20.7453 18.3724 20.6064 18.5509 20.4675 18.7295C20.3882 18.8287 20.3188 18.9378 20.2394 19.0469C20.2295 19.2453 20.2097 19.4436 20.17 19.642C20.1898 19.6619 20.2097 19.6718 20.2295 19.6916C20.3089 19.7313 20.3981 19.7511 20.4775 19.7214C20.5667 19.7015 20.6263 19.642 20.6758 19.5726C20.9734 19.1262 21.2412 18.6601 21.5685 18.2335C21.6281 18.1542 21.6876 18.0848 21.757 18.0153C21.8264 17.9459 21.9058 17.8765 21.9951 17.807L22.0347 17.7773C22.0744 17.7475 22.1042 17.7178 22.124 17.6682C22.1339 17.6186 22.1339 17.569 22.1042 17.5194C22.0645 17.4599 22.005 17.4301 21.9355 17.4301C21.8959 17.4301 21.8661 17.44 21.8364 17.4599ZM21.9752 17.817C21.9653 17.817 21.9653 17.8269 21.9554 17.8269C21.9653 17.8269 21.9752 17.8269 21.9752 17.817ZM21.6082 18.1839C21.6082 18.1939 21.5983 18.1939 21.5983 18.2038C21.5983 18.1939 21.5983 18.1939 21.6082 18.1839Z" fill="#2C2C2C"/>
<path d="M20.7949 18.5214C20.7552 18.6603 20.8445 18.7793 20.9635 18.8289C20.9834 18.8388 20.9933 18.8388 21.0131 18.8487C21.0726 18.8785 21.1222 18.9082 21.1718 18.938C21.2214 18.9876 21.271 19.0372 21.3206 19.0868C21.3305 19.1066 21.3404 19.1165 21.3504 19.1364C21.4198 19.2455 21.5487 19.2852 21.6678 19.2157C21.7173 19.186 21.757 19.1364 21.7769 19.0769C21.7967 19.0173 21.7769 18.9578 21.757 18.8983C21.6975 18.7694 21.6182 18.6504 21.509 18.5611C21.39 18.4619 21.2512 18.3925 21.1024 18.3429C21.0825 18.3329 21.0627 18.3329 21.0329 18.3329C20.9238 18.3329 20.8246 18.4123 20.7949 18.5214Z" fill="#2C2C2C"/>
<path d="M8.59458 15.0894C8.57474 15.1191 8.54499 15.1489 8.52515 15.1886C8.4458 15.2878 8.32677 15.3572 8.21766 15.4366C8.15815 15.4762 8.08871 15.506 8.01928 15.5159C7.99944 15.5258 7.98952 15.5258 7.96969 15.5357C7.93001 15.6349 7.91017 15.7341 7.90025 15.8432C7.89033 15.9523 7.90025 16.0614 7.92009 16.1705C7.94985 16.2995 8.01928 16.4086 8.09863 16.5078C8.17798 16.607 8.29701 16.6665 8.41604 16.7062C8.56482 16.7657 8.73344 16.7558 8.89214 16.726C9.15995 16.6863 9.40793 16.5574 9.54679 16.3293C9.66582 16.1309 9.67574 15.873 9.6063 15.6448C9.54679 15.4366 9.41784 15.2382 9.25914 15.0894C9.22939 15.0596 9.19963 15.0398 9.16988 15.02C9.01117 15.139 8.79295 15.1687 8.59458 15.0894Z" fill="#2C2C2C"/>
<path d="M8.21775 15.4367C8.15824 15.4764 8.08881 15.5061 8.01938 15.516C8.01938 15.516 8.00946 15.516 8.00946 15.526C8.00946 15.6549 8.01938 15.7838 8.05905 15.9029C8.11857 16.1012 8.22768 16.2699 8.37646 16.4186C8.42605 16.4682 8.49548 16.4682 8.54507 16.4186C8.59467 16.3691 8.59467 16.2897 8.54507 16.25C8.51532 16.2203 8.48556 16.1905 8.46573 16.1608C8.42605 16.1112 8.3963 16.0616 8.37646 16.0021C8.3467 15.9326 8.32686 15.8731 8.31694 15.7938C8.30702 15.7144 8.30702 15.6251 8.31694 15.5458C8.32686 15.4764 8.3467 15.4168 8.36654 15.3474C8.30702 15.3772 8.26735 15.4069 8.21775 15.4367Z" fill="#2C2C2C"/>
<path d="M15.3492 15.4963C15.2401 15.6847 15.2401 15.9129 15.2997 16.1112C15.3592 16.3195 15.4782 16.508 15.6567 16.627C15.8253 16.756 16.0436 16.7857 16.2519 16.7262C16.361 16.6964 16.4602 16.627 16.5395 16.5576C16.6189 16.4782 16.6784 16.3691 16.718 16.26C16.7478 16.1707 16.7577 16.0616 16.7577 15.9624C16.7577 15.8533 16.7379 15.7442 16.6883 15.645C16.6486 15.5459 16.5891 15.4566 16.5197 15.3772C16.4998 15.3574 16.48 15.3376 16.4502 15.3177C16.3709 15.3475 16.2816 15.3673 16.1923 15.3673C16.0535 15.3673 15.9245 15.3376 15.7857 15.3078C15.6865 15.3276 15.5972 15.3276 15.5079 15.3078C15.4385 15.3673 15.3889 15.4268 15.3492 15.4963Z" fill="#2C2C2C"/>
<path d="M16.1826 15.3674C16.0437 15.3674 15.9148 15.3376 15.7759 15.3079C15.7065 15.3178 15.6272 15.3277 15.5577 15.3178C15.5181 15.3475 15.4883 15.3773 15.4585 15.4071C15.3593 15.5261 15.2899 15.6649 15.2701 15.8137C15.2602 15.8832 15.2502 15.9526 15.2502 16.0319C15.2502 16.1113 15.2602 16.1906 15.2701 16.27C15.28 16.3295 15.2899 16.3791 15.3098 16.4287C15.3296 16.4981 15.3593 16.5676 15.4089 16.6271C15.4982 16.7659 15.6272 16.8552 15.7759 16.9147C15.8156 16.9246 15.8751 16.9346 15.9148 16.9346C15.9446 16.9346 15.9743 16.9346 16.0041 16.9346C16.0537 16.9246 16.1033 16.9246 16.1529 16.9147C16.2124 16.8949 16.262 16.8751 16.3215 16.8453C16.4107 16.8056 16.4901 16.7461 16.5595 16.6866C16.6488 16.6172 16.7282 16.518 16.7777 16.4089C16.8075 16.3493 16.8273 16.2898 16.8472 16.2303C16.867 16.1609 16.867 16.0815 16.8769 16.0121C16.8769 15.9724 16.8769 15.9228 16.867 15.8832C16.8571 15.8038 16.8472 15.7344 16.8273 15.6649C16.7976 15.5459 16.748 15.4368 16.6885 15.3376C16.6686 15.2979 16.6389 15.2583 16.6091 15.2285C16.4901 15.3178 16.3413 15.3773 16.1826 15.3674ZM15.9148 16.27C15.9049 16.2601 15.9049 16.2601 15.895 16.2502C15.8851 16.2303 15.8652 16.2006 15.8553 16.1807C15.8355 16.1311 15.8255 16.0815 15.8156 16.0319C15.8156 15.9824 15.8057 15.9427 15.8156 15.8931C15.8156 15.8832 15.8255 15.8633 15.8255 15.8534C15.8454 15.8137 15.8652 15.784 15.885 15.7542C15.9049 15.7344 15.9148 15.7145 15.9346 15.7046C15.9446 15.7046 15.9446 15.7046 15.9545 15.7145C15.9644 15.7145 15.9644 15.7245 15.9743 15.7245C15.9842 15.7344 15.9942 15.7443 16.0041 15.7542C16.0239 15.784 16.0338 15.8038 16.0438 15.8336C16.0636 15.8832 16.0735 15.9228 16.0834 15.9724C16.0834 16.022 16.0933 16.0716 16.0834 16.1212C16.0735 16.151 16.0735 16.1807 16.0636 16.2105L16.0537 16.2204C16.0239 16.2402 15.9942 16.2601 15.9545 16.2799C15.9446 16.2799 15.9446 16.2799 15.9346 16.2898C15.9247 16.2799 15.9247 16.2799 15.9148 16.27Z" fill="#2C2C2C"/>
<path d="M15.8651 15.2978C15.8751 15.2978 15.885 15.2978 15.885 15.2978C15.8751 15.2878 15.8751 15.2978 15.8651 15.2978Z" fill="#2C2C2C"/>
<path d="M11.4911 16.5872C11.501 16.7558 11.4812 16.9343 11.4614 17.1029C11.4316 17.3608 11.4019 17.6286 11.3622 17.8865C11.3126 18.2634 11.2432 18.6404 11.2035 19.0173C11.1836 19.1958 11.1737 19.3744 11.1836 19.5529C11.1836 19.7116 11.1936 19.8703 11.2134 20.029C11.2233 20.1282 11.2332 20.2175 11.263 20.3167C11.2828 20.4158 11.3225 20.5051 11.3622 20.5944C11.4217 20.7233 11.501 20.8523 11.6102 20.9415C11.6697 20.9911 11.7292 21.0407 11.7986 21.0804C11.8482 21.1002 11.8978 21.13 11.9474 21.1399C12.0069 21.1598 12.0664 21.1598 12.1259 21.1697C12.2053 21.1796 12.2846 21.1697 12.3739 21.1598C12.4433 21.1498 12.5029 21.13 12.5723 21.1002C12.6814 21.0507 12.7905 21.0011 12.8897 20.9316C13.0087 20.8523 13.1277 20.7531 13.2369 20.6638C13.336 20.5845 13.336 20.4258 13.2765 20.3266C13.1972 20.1976 13.0186 20.148 12.8897 20.2274C12.8103 20.277 12.7211 20.3266 12.6318 20.3662C12.5425 20.396 12.4533 20.4258 12.364 20.4456C12.3243 20.4456 12.2946 20.4456 12.2549 20.4456C12.235 20.4456 12.2251 20.4357 12.2053 20.4357C12.1954 20.4258 12.1854 20.4258 12.1755 20.4158C12.1557 20.396 12.1458 20.3861 12.1259 20.3662C12.0863 20.3067 12.0466 20.2373 12.0168 20.158C11.9276 19.9397 11.878 19.7116 11.8383 19.4835C11.8383 19.4736 11.8383 19.4537 11.8284 19.4438C11.8284 19.4537 11.8284 19.4537 11.8284 19.4636C11.7887 19.1859 11.7689 18.9082 11.749 18.6304C11.7292 18.3428 11.7193 18.0651 11.7292 17.7774C11.7391 17.5394 11.749 17.3112 11.7689 17.0732C11.7788 16.9145 11.7986 16.7558 11.7887 16.5971C11.7887 16.5177 11.7193 16.4483 11.6399 16.4483C11.5606 16.4285 11.4911 16.4979 11.4911 16.5872Z" fill="#2C2C2C"/>
<path d="M9.75517 21.6955C9.64606 21.8046 9.64606 21.993 9.75517 22.0922C9.93371 22.2608 10.1321 22.3997 10.3305 22.5386C10.5189 22.6675 10.7074 22.7965 10.9157 22.8957C11.1438 22.9948 11.3719 23.0742 11.6199 23.1238C11.8778 23.1734 12.1357 23.2031 12.3936 23.2031C12.8598 23.2031 13.326 23.1139 13.7624 22.9651C14.2187 22.8064 14.6253 22.5485 15.0221 22.2807C15.0915 22.2311 15.1213 22.1418 15.0816 22.0724C15.0419 22.003 14.9427 21.9732 14.8733 22.0129C14.7345 22.1121 14.5857 22.1914 14.4369 22.2509C14.1492 22.37 13.8418 22.4394 13.5442 22.4791C13.1573 22.5287 12.7705 22.5187 12.3936 22.4691C12.1258 22.4295 11.858 22.37 11.6001 22.3005C11.4612 22.2608 11.3224 22.2212 11.1934 22.1815C11.0545 22.1319 10.9157 22.0922 10.7768 22.0426C10.5388 21.9335 10.3305 21.7947 10.1222 21.6459C10.0825 21.6161 10.0329 21.6062 9.9833 21.6062C9.88411 21.6062 9.81468 21.636 9.75517 21.6955Z" fill="#2C2C2C"/>
<path d="M11.2332 23.6892C11.2134 23.7487 11.253 23.8181 11.3125 23.838C11.7093 23.9669 12.1358 24.0364 12.5524 23.9967C12.5921 23.9967 12.6218 23.9868 12.6417 23.957C12.6615 23.9372 12.6813 23.8975 12.6813 23.8677C12.6813 23.8281 12.6714 23.7983 12.6417 23.7785C12.6218 23.7586 12.5822 23.7388 12.5524 23.7388C12.3441 23.7586 12.1358 23.7586 11.9275 23.7289C11.7391 23.6991 11.5605 23.6594 11.382 23.6099C11.3721 23.6099 11.3621 23.6099 11.3522 23.6099C11.3026 23.5999 11.253 23.6297 11.2332 23.6892ZM11.8978 23.719C11.9077 23.719 11.9176 23.719 11.9275 23.719C11.9176 23.719 11.9077 23.719 11.8978 23.719Z" fill="#2C2C2C"/>
<path d="M15.0421 11.4294C14.9231 11.4294 14.8041 11.4493 14.685 11.4592C14.6751 11.4592 14.6652 11.4691 14.6553 11.4691C14.6354 11.489 14.6156 11.5088 14.5858 11.5385C14.566 11.5683 14.5561 11.5881 14.5363 11.6179C14.5164 11.6576 14.5065 11.7072 14.4966 11.7468C14.4867 11.8163 14.4867 11.8857 14.4966 11.9452C14.5164 12.0543 14.5462 12.1535 14.5858 12.2626C14.6057 12.3023 14.6156 12.3321 14.6354 12.3717C14.6454 12.3817 14.6652 12.4015 14.6751 12.4114C14.8834 12.6098 15.1512 12.7288 15.419 12.8379C15.7166 12.9569 16.0241 13.0363 16.3316 13.1256C16.6589 13.2148 16.9862 13.314 17.2937 13.443C17.502 13.5322 17.7103 13.6414 17.8888 13.7802C17.988 13.8596 18.0773 13.9488 18.1566 14.048C18.1864 14.0877 18.2062 14.1175 18.2261 14.1571C18.2757 14.2365 18.355 14.2662 18.4443 14.2464C18.4542 14.2464 18.4641 14.2464 18.4641 14.2365C18.4641 14.1671 18.4641 14.0877 18.4641 14.0183C18.4542 13.9885 18.4542 13.9488 18.4443 13.9191C18.3749 13.7405 18.3153 13.562 18.236 13.3835C18.236 13.3835 18.236 13.3835 18.236 13.3735C18.236 13.3735 18.236 13.3735 18.236 13.3835C18.236 13.3735 18.2261 13.3636 18.2261 13.3537C18.1864 13.2744 18.1566 13.195 18.117 13.1157C18.0475 13.0165 17.9682 12.9272 17.8988 12.8379C17.6409 12.5404 17.3433 12.2825 17.016 12.0643C16.6787 11.846 16.3117 11.6774 15.9249 11.5683C15.7166 11.5088 15.5083 11.479 15.3 11.4493C15.2107 11.4394 15.1215 11.4394 15.0322 11.4394H15.0421V11.4294ZM17.1945 12.9669C16.6589 12.7586 16.0836 12.6296 15.548 12.4015C15.4389 12.3519 15.3298 12.3023 15.2207 12.2329C15.3694 12.2329 15.5182 12.2428 15.667 12.2626C15.9844 12.3122 16.2919 12.3916 16.5895 12.5106C16.8474 12.6296 17.0953 12.7685 17.3135 12.9371C17.3731 12.9867 17.4326 13.0363 17.4921 13.0859C17.4028 13.0462 17.2937 13.0065 17.1945 12.9669Z" fill="#2C2C2C"/>
<path d="M15.0816 12.1438C15.0618 12.2331 15.1114 12.3422 15.2006 12.3621C15.2403 12.372 15.2899 12.3819 15.3296 12.3918C15.3296 12.3918 15.3296 12.3918 15.3296 12.4017C15.3395 12.4513 15.3792 12.5009 15.4189 12.5208C15.6371 12.6199 15.8553 12.6993 16.0834 12.7886C16.5298 13.0068 16.9563 13.2746 17.363 13.5622C17.4225 13.6019 17.5018 13.5821 17.5514 13.5424C17.6109 13.4829 17.6109 13.3837 17.5514 13.3242C17.4522 13.2349 17.353 13.1556 17.2538 13.0663C17.2538 13.0564 17.2638 13.0564 17.2638 13.0465C17.3134 12.9572 17.2836 12.8481 17.1943 12.7886C17.0555 12.6993 16.9166 12.6199 16.7678 12.5406C16.6091 12.4612 16.4405 12.3819 16.2719 12.3125C15.9545 12.1835 15.6271 12.0843 15.2899 12.0149C15.28 12.0149 15.2602 12.0149 15.2502 12.0149C15.1709 12.0149 15.1015 12.0645 15.0816 12.1438Z" fill="#2C2C2C"/>
<path d="M14.5855 11.8362C14.5359 11.8858 14.5161 11.9453 14.5161 12.0148C14.526 12.0346 14.526 12.0643 14.5359 12.0842C14.5458 12.1139 14.5656 12.1338 14.5855 12.1536C14.6152 12.1933 14.645 12.2231 14.6847 12.2528C14.7045 12.2726 14.7243 12.2925 14.7442 12.3123C14.9624 12.5107 15.2104 12.6793 15.4782 12.8182C15.8154 12.9967 16.1725 13.1356 16.5197 13.2844H16.5296C16.5296 13.2844 16.5296 13.2844 16.5395 13.2844C16.5395 13.2844 16.5395 13.2844 16.5296 13.2844C16.5296 13.2844 16.5395 13.2844 16.5494 13.2943C16.9561 13.4629 17.3529 13.6514 17.7 13.9192C17.7992 13.9985 17.8885 14.0878 17.9877 14.1672C17.9976 14.1771 18.0075 14.187 18.0174 14.187C18.0273 14.1969 18.0373 14.1969 18.0472 14.2068C18.0869 14.2267 18.1464 14.2168 18.186 14.1969C18.2555 14.1572 18.2952 14.0382 18.2456 13.9688C18.2356 13.9589 18.2356 13.9489 18.2257 13.939C18.2852 13.8597 18.2951 13.7406 18.2356 13.6514C18.1563 13.5224 18.0769 13.3935 17.9678 13.2844C17.8686 13.1753 17.7595 13.086 17.6405 13.0066C17.4223 12.8479 17.1743 12.7488 16.9263 12.6595C16.8073 12.6198 16.6784 12.5801 16.5593 12.5405C16.2717 12.3619 15.9741 12.1834 15.6964 11.985C15.627 11.9354 15.5278 11.9751 15.4881 12.0445C15.4583 12.0941 15.4583 12.1536 15.4881 12.1933C15.3195 12.1139 15.1509 12.0148 15.0021 11.9056C14.9723 11.8858 14.9525 11.866 14.9227 11.8461L14.9128 11.8362C14.8632 11.7965 14.8136 11.7668 14.7541 11.7668C14.6847 11.7668 14.6252 11.7965 14.5855 11.8362ZM14.9227 11.8561C14.9326 11.866 14.9426 11.866 14.9426 11.8759C14.9426 11.866 14.9326 11.866 14.9227 11.8561Z" fill="#2C2C2C"/>
<path d="M9.61611 10.7748C9.50701 10.7946 9.3979 10.8343 9.29871 10.864C9.06066 10.9533 8.83252 11.0624 8.60439 11.2013C8.36633 11.3401 8.14812 11.4988 7.93982 11.6675C7.74144 11.8262 7.54307 11.9948 7.36453 12.1634C7.20582 12.3122 7.04712 12.4808 6.89834 12.6494C6.77931 12.7883 6.66029 12.9272 6.57102 13.0859C6.53134 13.1553 6.53134 13.2446 6.57102 13.3239C6.61069 13.3933 6.69004 13.4529 6.76939 13.4429C7.52323 13.3537 8.25723 13.0958 8.93171 12.7387C9.01106 12.699 9.09041 12.6593 9.15984 12.6098C9.33838 12.5701 9.51692 12.5304 9.70538 12.4808C9.88392 12.4312 10.0525 12.3717 10.2212 12.3122C10.3799 12.2527 10.5386 12.1832 10.6774 12.084C10.7965 12.0047 10.9254 11.9055 10.9849 11.7666C11.0246 11.6873 11.0444 11.6079 11.0444 11.5187C11.0444 11.4294 11.0147 11.3401 10.975 11.2608C10.8956 11.112 10.7469 10.993 10.5981 10.9136C10.4195 10.8045 10.2013 10.7549 9.98311 10.7549C9.98311 10.7549 9.98311 10.7549 9.97319 10.7549C9.85417 10.7351 9.73514 10.7549 9.61611 10.7748ZM9.79465 11.3302C9.66571 11.3699 9.54668 11.3996 9.41774 11.4393C9.35822 11.4592 9.30863 11.479 9.24911 11.4988C9.25903 11.4988 9.26895 11.4889 9.27887 11.4889C9.44749 11.4195 9.61611 11.36 9.79465 11.3302ZM9.25903 11.4889C9.24911 11.4889 9.24911 11.4889 9.23919 11.4988C9.24911 11.4988 9.25903 11.4988 9.25903 11.4889Z" fill="#2C2C2C"/>
<path d="M7.75152 18.3628C7.76144 18.3827 7.77136 18.3926 7.7912 18.4025C7.77136 18.3628 7.75153 18.3232 7.73169 18.2736C7.73169 18.3033 7.73168 18.3331 7.75152 18.3628Z" fill="#2C2C2C"/>
<path d="M9.76511 11.082C9.66593 11.092 9.57665 11.1019 9.47746 11.1415C9.37828 11.1812 9.289 11.2308 9.18982 11.2804C9.11046 11.33 9.07079 11.4193 9.09063 11.5185C9.10055 11.5581 9.12038 11.5879 9.14022 11.6077C9.16998 11.6375 9.20966 11.6573 9.24933 11.6672C9.28901 11.697 9.34852 11.7069 9.40803 11.697C9.47746 11.6772 9.5469 11.6474 9.61633 11.6077C9.66593 11.5879 9.7056 11.5581 9.73535 11.5185C9.74527 11.4986 9.75519 11.4887 9.75519 11.4689C9.80479 11.4689 9.85438 11.449 9.89406 11.4094C9.93373 11.3697 9.95357 11.3201 9.95357 11.2705C9.95357 11.1713 9.87422 11.082 9.77503 11.082C9.77503 11.082 9.77503 11.082 9.76511 11.082Z" fill="#2C2C2C"/>
<path d="M8.37645 14.8217C8.22767 14.8613 8.09873 14.9308 7.9797 15.03C7.92019 15.0795 7.88051 15.1291 7.83092 15.1887C7.79124 15.2482 7.76148 15.3176 7.73173 15.3771C7.70197 15.4465 7.70197 15.5259 7.70197 15.5953C7.70197 15.6747 7.72181 15.754 7.74164 15.8334C7.80116 16.0218 7.92018 16.1706 8.05905 16.3095C8.21775 16.4583 8.46572 16.4682 8.62443 16.3095C8.67402 16.2599 8.70378 16.2004 8.72362 16.131C8.84264 16.2103 9.02118 16.2202 9.1402 16.1409C9.29891 16.0516 9.35842 15.8731 9.31875 15.7044C9.35842 15.6052 9.38818 15.4961 9.37826 15.387C9.36834 15.2283 9.30883 15.0696 9.17988 14.9605C9.10053 14.8911 9.04102 14.8613 8.94183 14.8217C8.87239 14.8018 8.80296 14.7919 8.73353 14.782C8.70378 14.782 8.67402 14.782 8.65418 14.782C8.55499 14.782 8.46572 14.8018 8.37645 14.8217Z" fill="#2C2C2C"/>
<path d="M15.7957 14.901C15.5577 14.9407 15.3395 15.0994 15.2304 15.3077C15.1609 15.4267 15.1312 15.5656 15.1312 15.7144C15.1312 15.8929 15.1907 16.0516 15.2601 16.2103C15.2998 16.2996 15.4089 16.369 15.4982 16.3888C15.5974 16.4186 15.7164 16.3988 15.8056 16.3492C15.8949 16.2996 15.9643 16.2103 15.9842 16.1111C15.9842 16.1012 15.9941 16.0913 15.9941 16.0814C16.0437 16.1607 16.133 16.2202 16.2222 16.25C16.4206 16.3095 16.6686 16.1805 16.7083 15.9722C16.738 15.8135 16.7579 15.6548 16.7281 15.4961C16.6983 15.3474 16.6289 15.2283 16.5297 15.1192C16.4504 15.02 16.3214 14.9704 16.2123 14.9208C16.1429 14.8911 16.0735 14.8812 15.9941 14.8812C15.9247 14.8812 15.8652 14.8911 15.7957 14.901ZM15.9544 15.6846C15.9544 15.7044 15.9544 15.7243 15.9544 15.754C15.9544 15.7639 15.9544 15.7639 15.9544 15.7739C15.9544 15.7838 15.9544 15.7838 15.9544 15.7937C15.9445 15.7739 15.9445 15.754 15.9346 15.7342C15.9346 15.7243 15.9346 15.7143 15.9346 15.7044V15.6945C15.9346 15.6945 15.9445 15.6945 15.9445 15.6846C15.9445 15.6846 15.9445 15.6846 15.9544 15.6846Z" fill="#2C2C2C"/>
<path d="M15.6767 15.0696C15.6767 15.1291 15.7263 15.1787 15.7858 15.1787C15.8453 15.1787 15.8949 15.1291 15.8949 15.0696C15.8949 15.0101 15.8453 14.9605 15.7858 14.9605C15.7263 14.9605 15.6767 15.0101 15.6767 15.0696Z" fill="#2C2C2C"/>
<path d="M15.518 13.0162C15.4883 13.0162 15.4684 13.0261 15.4387 13.0261C15.3891 13.0361 15.3395 13.0658 15.3097 13.1055C15.2502 13.165 15.2205 13.2344 15.2205 13.3138C15.2205 13.3931 15.2502 13.4725 15.3097 13.5221C15.3593 13.5717 15.4486 13.6213 15.518 13.6114C15.7858 13.5717 16.0536 13.5717 16.3215 13.6014C16.5694 13.6411 16.8075 13.7006 17.0356 13.7998C17.2538 13.899 17.4621 14.018 17.6506 14.1668C17.839 14.3156 18.0077 14.4842 18.1564 14.6727C18.3052 14.8711 18.4243 15.0793 18.5234 15.3075C18.6127 15.5356 18.6821 15.7737 18.7119 16.0216C18.7417 16.2696 18.7417 16.5176 18.7119 16.7755C18.6722 17.0234 18.6127 17.2615 18.5135 17.4896C18.4143 17.7078 18.2953 17.9161 18.1564 18.1046C18.0077 18.2931 17.8291 18.4617 17.6407 18.6204C17.4423 18.7692 17.234 18.8882 17.0059 18.9874C16.9364 19.0171 16.8769 19.0469 16.8372 19.1163C16.7976 19.1858 16.7876 19.2651 16.8075 19.3445C16.8273 19.4238 16.8769 19.4833 16.9463 19.523C17.0059 19.5627 17.105 19.5825 17.1745 19.5528C17.3034 19.4932 17.4423 19.4437 17.5613 19.3742C17.7299 19.285 17.8886 19.1758 18.0473 19.0469C18.335 18.8188 18.573 18.551 18.7714 18.2534C18.9797 17.9558 19.1186 17.6087 19.2178 17.2516C19.317 16.8945 19.3467 16.5077 19.317 16.1407C19.2872 15.7935 19.2078 15.4463 19.0789 15.119C19.0095 14.9603 18.94 14.8115 18.8508 14.6628C18.7615 14.5041 18.6524 14.3553 18.5334 14.2164C18.3151 13.9486 18.0573 13.7304 17.7696 13.5419C17.482 13.3535 17.1646 13.2146 16.8273 13.1154C16.5397 13.0361 16.2322 12.9964 15.9346 12.9964C15.8057 12.9865 15.6668 12.9964 15.518 13.0162ZM18.7317 16.706C18.7317 16.716 18.7317 16.7259 18.7317 16.7358C18.7317 16.7259 18.7317 16.716 18.7317 16.706Z" fill="#2C2C2C"/>
<path d="M15.6864 12.9968C15.2401 13.0265 14.8135 13.1555 14.4069 13.3538C14.0399 13.5324 13.7026 13.8002 13.4249 14.1077C13.286 14.2565 13.167 14.4152 13.0579 14.5838C12.929 14.7822 12.8397 14.9905 12.7504 15.2087C12.5917 15.6153 12.5322 16.0617 12.5421 16.4882C12.552 16.7064 12.5818 16.9246 12.6215 17.1428C12.6711 17.371 12.7504 17.5892 12.8397 17.7975C13.0083 18.1843 13.2761 18.5414 13.5737 18.839C13.7324 18.9878 13.901 19.1266 14.0895 19.2456C14.2878 19.3746 14.4961 19.4738 14.7044 19.5631C15.0913 19.7218 15.5178 19.7912 15.9245 19.7912C16.3708 19.7912 16.8172 19.7019 17.2238 19.5333L17.2933 19.5035C17.3429 19.4738 17.3726 19.444 17.4024 19.3944C17.4421 19.325 17.452 19.2457 17.4321 19.1663C17.4123 19.0869 17.3627 19.0274 17.2933 18.9878C17.2338 18.9481 17.1346 18.9282 17.0651 18.958C16.8172 19.0572 16.5593 19.1365 16.3014 19.1762C16.0534 19.206 15.7955 19.206 15.5475 19.1762C15.3095 19.1365 15.0714 19.077 14.8433 18.9878C14.6251 18.8886 14.4069 18.7695 14.2184 18.6208C14.03 18.472 13.8613 18.3034 13.7026 18.105C13.5638 17.9165 13.4348 17.7082 13.3456 17.49C13.2563 17.2619 13.1869 17.0238 13.1472 16.7759C13.1174 16.5279 13.1174 16.27 13.1472 16.022C13.1869 15.774 13.2464 15.5459 13.3456 15.3079C13.4447 15.0896 13.5638 14.8714 13.7126 14.683C13.8613 14.4945 14.03 14.3259 14.2184 14.1771C14.4168 14.0283 14.6251 13.9093 14.8532 13.8101C15.0814 13.7208 15.3194 13.6514 15.5575 13.6216C15.8054 13.5919 16.0534 13.5919 16.3014 13.6216C16.5493 13.6613 16.7874 13.7208 17.0155 13.82C17.2338 13.9192 17.4421 14.0382 17.6305 14.1771C17.819 14.3259 17.9876 14.4945 18.1463 14.683C18.2256 14.7921 18.305 14.9012 18.3645 15.0202C18.4439 15.1591 18.6323 15.2087 18.7712 15.1293C18.91 15.05 18.9596 14.8615 18.8803 14.7226C18.6621 14.3556 18.3843 14.0184 18.057 13.7506C17.7099 13.4729 17.3131 13.2646 16.8965 13.1356C16.6981 13.0761 16.4898 13.0464 16.2815 13.0166C16.1724 13.0067 16.0534 12.9968 15.9443 12.9968C15.865 12.9868 15.7757 12.9868 15.6864 12.9968Z" fill="#2C2C2C"/>
<path d="M8.03918 15.0795C8.03918 15.139 8.08878 15.1886 8.14829 15.1886C8.2078 15.1886 8.2574 15.139 8.2574 15.0795C8.2574 15.02 8.2078 14.9704 8.14829 14.9704C8.08878 14.9704 8.03918 15.02 8.03918 15.0795Z" fill="#2C2C2C"/>
<path d="M7.88064 13.0265C7.85088 13.0265 7.83104 13.0364 7.80128 13.0364C7.75168 13.0463 7.70209 13.0761 7.67234 13.1157C7.61282 13.1753 7.58307 13.2447 7.58307 13.324C7.58307 13.4034 7.61282 13.4827 7.67234 13.5323C7.72193 13.5819 7.8112 13.6315 7.88064 13.6216C8.14844 13.5819 8.41625 13.5819 8.68406 13.6117C8.93203 13.6514 9.17009 13.7109 9.39822 13.8101C9.61644 13.9093 9.82474 14.0283 10.0132 14.1771C10.2017 14.3258 10.3703 14.4945 10.5191 14.6829C10.6678 14.8813 10.7869 15.0896 10.8861 15.3177C10.9753 15.5459 11.0448 15.7839 11.0745 16.0319C11.1043 16.2799 11.1043 16.5278 11.0745 16.7857C11.0348 17.0337 10.9753 17.2718 10.8761 17.4999C10.7769 17.7181 10.6579 17.9264 10.5191 18.1149C10.3703 18.3033 10.1917 18.4719 10.0033 18.6306C9.80489 18.7794 9.5966 18.8985 9.36847 18.9976C9.29903 19.0274 9.23952 19.0572 9.19984 19.1266C9.16017 19.196 9.15025 19.2754 9.17009 19.3547C9.18993 19.4341 9.23952 19.4936 9.30895 19.5333C9.36846 19.5729 9.46765 19.5928 9.53708 19.563C9.66603 19.5035 9.8049 19.4539 9.92392 19.3845C10.0925 19.2952 10.2512 19.1861 10.4099 19.0572C10.6976 18.829 10.9356 18.5612 11.134 18.2636C11.3423 17.9661 11.4812 17.6189 11.5804 17.2618C11.6796 16.9048 11.7093 16.5179 11.6796 16.1509C11.6498 15.8038 11.5705 15.4566 11.4415 15.1293C11.3721 14.9706 11.3026 14.8218 11.2134 14.673C11.1241 14.5143 11.015 14.3655 10.896 14.2267C10.6778 13.9588 10.4199 13.7406 10.1322 13.5522C9.84457 13.3637 9.52716 13.2249 9.18992 13.1257C8.90227 13.0463 8.59479 13.0066 8.29722 13.0066C8.1782 12.9967 8.02942 13.0066 7.88064 13.0265ZM11.0943 16.7163C11.0943 16.7262 11.0943 16.7361 11.0943 16.7461C11.0943 16.7361 11.0943 16.7262 11.0943 16.7163Z" fill="#2C2C2C"/>
<path d="M8.05904 13.0064C7.61269 13.0362 7.18617 13.1651 6.7795 13.3635C6.4125 13.542 6.07526 13.8098 5.79753 14.1173C5.65867 14.2661 5.53964 14.4248 5.43053 14.5934C5.30159 14.7918 5.21231 15.0001 5.12304 15.2183C4.96434 15.625 4.90483 16.0713 4.91475 16.4978C4.92467 16.7161 4.95442 16.9343 4.9941 17.1525C5.04369 17.3806 5.12304 17.5988 5.21231 17.8071C5.38094 18.194 5.64875 18.5511 5.94631 18.8486C6.10502 18.9974 6.27363 19.1363 6.46209 19.2553C6.66047 19.3842 6.86877 19.4834 7.07706 19.5727C7.4639 19.7314 7.89041 19.8008 8.29708 19.8008C8.74343 19.8008 9.18979 19.7116 9.59646 19.5429L9.66589 19.5132C9.71549 19.4834 9.74524 19.4537 9.775 19.4041C9.81468 19.3346 9.82459 19.2553 9.80476 19.1759C9.78492 19.0966 9.73533 19.0371 9.66589 18.9974C9.60638 18.9577 9.50719 18.9379 9.43776 18.9676C9.18978 19.0668 8.9319 19.1462 8.67401 19.1859C8.42603 19.2156 8.16814 19.2156 7.92017 19.1859C7.68212 19.1462 7.44406 19.0867 7.21593 18.9974C6.99771 18.8982 6.7795 18.7792 6.59104 18.6304C6.40258 18.4816 6.23396 18.313 6.07526 18.1146C5.93639 17.9262 5.80745 17.7179 5.71818 17.4997C5.62891 17.2715 5.55947 17.0335 5.5198 16.7855C5.49004 16.5375 5.49004 16.2796 5.5198 16.0317C5.55947 15.7837 5.61899 15.5556 5.71818 15.3175C5.81736 15.0993 5.93639 14.8811 6.08518 14.6926C6.23396 14.5042 6.40258 14.3355 6.59104 14.1867C6.78942 14.038 6.99771 13.9189 7.22585 13.8197C7.45398 13.7305 7.69204 13.661 7.93009 13.6313C8.17806 13.6015 8.42603 13.6015 8.67401 13.6313C8.92198 13.671 9.16003 13.7305 9.38816 13.8297C9.60638 13.9289 9.81467 14.0479 10.0031 14.1867C10.1916 14.3355 10.3602 14.5042 10.5189 14.6926C10.5983 14.8017 10.6776 14.9108 10.7371 15.0299C10.8165 15.1687 11.0049 15.2183 11.1438 15.139C11.2827 15.0596 11.3323 14.8711 11.2529 14.7323C11.0347 14.3653 10.757 14.028 10.4296 13.7602C10.0825 13.4825 9.68573 13.2742 9.26914 13.1453C9.07076 13.0858 8.86246 13.056 8.65417 13.0262C8.54506 13.0163 8.42603 13.0064 8.31692 13.0064C8.23757 12.9965 8.1483 12.9965 8.05904 13.0064Z" fill="#2C2C2C"/>
<path d="M11.6297 16.0317C11.59 16.0317 11.5603 16.0416 11.5206 16.0416C11.4512 16.0614 11.3916 16.0912 11.3421 16.1408C11.2726 16.2102 11.223 16.3193 11.223 16.4185C11.223 16.5276 11.2627 16.6268 11.3421 16.6962C11.4115 16.7657 11.5206 16.8252 11.6198 16.8153C11.9471 16.7756 12.2843 16.7657 12.6117 16.7657C12.8299 16.7756 13.0084 16.5772 13.0084 16.3689C13.0084 16.1507 12.8299 15.9821 12.6117 15.9722C12.5522 15.9722 12.4926 15.9722 12.4431 15.9722C12.1852 15.9821 11.9074 16.0019 11.6297 16.0317Z" fill="#2C2C2C"/>
</svg>
