<svg width="21" height="29" viewBox="0 0 21 29" fill="none" xmlns="http://www.w3.org/2000/svg">
<ellipse cx="4.71486" cy="11.2502" rx="1.02464" ry="1.52429" transform="rotate(-14.3201 4.71486 11.2502)" fill="#C88255"/>
<ellipse cx="17.2504" cy="12.1605" rx="1.16772" ry="1.42676" transform="rotate(-163.37 17.2504 12.1605)" fill="#C88255"/>
<path d="M16.5 10C16.5 14.4183 13.4983 20 10.7368 20C7.97542 20 5 14.9183 5 10.5C5 6.08172 6.73858 4 9.5 4C12.2614 4 16.5 5.58172 16.5 10Z" fill="#C88255"/>
<path d="M9.66597 2.56746C9.27116 2.63071 8.88131 2.72072 8.49921 2.83684C8.4432 2.80602 8.38005 2.78979 8.3158 2.7897L8.21625 2.8029C8.15388 2.81987 8.09704 2.85235 8.05126 2.89719C7.97317 2.95753 7.89581 3.01877 7.81918 3.08091C7.6051 3.17272 7.39869 3.28081 7.20183 3.40417C6.87337 3.61132 6.57442 3.86025 6.31281 4.14445C6.05849 4.4233 5.83889 4.73076 5.65862 5.06037C5.56325 5.2383 5.47707 5.42082 5.40041 5.60723C5.33056 5.77182 5.27116 5.94046 5.21809 6.11098C5.11071 6.46169 5.02992 6.8197 4.97638 7.18207C4.88725 7.78719 4.84707 8.39827 4.85621 9.00959C4.82679 9.35118 4.81139 9.69411 4.80782 10.0362C4.79987 10.999 4.88606 11.9602 5.0652 12.9068C5.23614 13.8198 5.49571 14.7148 5.84038 15.5794C6.01069 16.0065 6.20071 16.4252 6.41043 16.8356C6.59984 17.21 6.81444 17.5717 7.05279 17.9182C7.33527 18.3257 7.67554 18.6917 8.06336 19.0052C8.26112 19.1658 8.47078 19.3118 8.6906 19.4419C8.91052 19.5681 9.14041 19.6768 9.37807 19.7671C9.59167 19.85 9.81258 19.9136 10.038 19.957C10.2884 20.0063 10.543 20.0323 10.7984 20.0346C11.059 20.0339 11.3189 20.0089 11.5746 19.9597C11.8168 19.914 12.0536 19.8446 12.2816 19.7525C12.537 19.6515 12.7833 19.5296 13.0178 19.388C13.2404 19.2509 13.4529 19.0985 13.6535 18.932C14.033 18.6216 14.3567 18.255 14.6476 17.8649C14.9227 17.4898 15.1637 17.0917 15.3678 16.6753C15.586 16.2324 15.7803 15.7786 15.9497 15.3157C16.344 14.2581 16.6608 13.1703 16.8376 12.0561C16.9356 11.452 16.9917 10.842 17.0053 10.2305C17.0108 9.93683 17.0053 9.64319 16.9872 9.3501C16.9685 9.02845 16.9322 8.70842 16.8885 8.3892C16.7972 7.73027 16.6547 7.07377 16.435 6.44422C16.438 6.23463 16.4397 6.02532 16.4372 5.81573C16.4309 5.31386 16.3943 4.8093 16.2832 4.31821C16.2162 4.02329 16.1124 3.73757 15.9741 3.46748C15.9669 3.45515 15.9572 3.44436 15.9456 3.43572C15.934 3.42709 15.9208 3.42079 15.9068 3.41718C15.8927 3.41357 15.878 3.41273 15.8637 3.41471C15.8493 3.41668 15.8354 3.42144 15.8229 3.42869C15.798 3.44353 15.7799 3.46728 15.7725 3.49493C15.7651 3.52257 15.769 3.55195 15.7833 3.57685C15.8071 3.62355 15.8297 3.67087 15.8509 3.71882C15.9686 4.00979 16.0486 4.31405 16.0891 4.6245C16.1345 4.9928 16.1538 5.36374 16.1468 5.73465C16.0953 5.6242 16.0409 5.51501 15.9835 5.40707C15.7807 5.03127 15.5382 4.67733 15.26 4.35107C15.1367 4.20586 15.0052 4.06763 14.8659 3.93702C14.7076 3.79075 14.5411 3.65324 14.3671 3.52513C14.0717 3.30381 13.7511 3.11669 13.4118 2.9675C13.0424 2.8021 12.6556 2.67689 12.2583 2.59413C12.0383 2.54941 11.8183 2.51897 11.595 2.49526C11.3973 2.47398 11.1987 2.4632 10.9999 2.46051H10.915C10.4964 2.46389 10.0787 2.49992 9.66597 2.56827V2.56746ZM11.634 3.32902C12.069 3.39043 12.4949 3.50285 12.9025 3.66386C13.2545 3.81422 13.5874 4.00406 13.8947 4.22958C14.2029 4.47029 14.4818 4.74489 14.726 5.04798C15.0145 5.42662 15.2565 5.83732 15.4467 6.27154C15.5758 6.5818 15.6846 6.89978 15.7726 7.22355C15.8782 7.60879 15.963 7.99923 16.0267 8.39324C16.0154 8.72458 16.0047 9.0562 15.9898 9.38755C15.9623 9.99071 15.9246 10.5933 15.8586 11.1924C15.838 11.3791 15.8146 11.5655 15.7893 11.752C15.6941 12.4558 15.5459 13.1517 15.3458 13.8341C15.2094 14.2915 15.0472 14.7412 14.8599 15.181C14.5109 15.987 14.0855 16.7677 13.5419 17.4646C13.2482 17.8393 12.91 18.1783 12.5343 18.4745C12.2849 18.6616 12.014 18.8193 11.727 18.9443C11.4902 19.0391 11.2427 19.1059 10.9898 19.1434C10.743 19.1712 10.4938 19.1705 10.2473 19.1413C9.94559 19.0951 9.65063 19.0137 9.36872 18.8988C9.02683 18.7539 8.70375 18.5697 8.40627 18.3501C8.35897 18.3142 8.31241 18.2766 8.26658 18.2375C8.06795 18.0551 7.88364 17.8584 7.71523 17.6489C7.51762 17.3898 7.33766 17.1183 7.17654 16.8361C7.00669 16.5418 6.85374 16.2385 6.71841 15.9275C6.50437 15.4211 6.32343 14.902 6.17669 14.3731C6.12169 14.1513 6.07192 13.9283 6.02737 13.7039C5.94653 13.2999 5.88053 12.8958 5.81591 12.489C5.75871 12.1305 5.70152 11.7714 5.65092 11.4115C5.63827 11.3179 5.62626 11.2243 5.6149 11.1308C5.5456 10.1962 5.55688 9.25635 5.68007 8.32616C5.72712 7.99082 5.79201 7.65813 5.87448 7.32942C5.96313 6.98429 6.07784 6.64608 6.21766 6.3176C6.33184 6.05697 6.46224 5.80344 6.60814 5.55847C6.74176 5.33747 6.88867 5.12446 7.04812 4.92056C7.25582 4.66304 7.47924 4.41808 7.71716 4.18702C7.84182 4.06525 7.96913 3.94609 8.09911 3.82954L8.15411 3.80556C8.44764 3.69273 8.74838 3.59878 9.05441 3.52432C9.35777 3.44703 9.66532 3.38651 9.97561 3.34302C10.5259 3.27171 11.0832 3.26728 11.6346 3.32982L11.634 3.32902ZM5.64789 11.3867V11.3821L5.65119 11.4053L5.64872 11.3867H5.64789ZM14.8522 15.2031L14.8412 15.23L14.8522 15.2031ZM13.5732 17.4277L13.5578 17.4471L13.5732 17.4277Z" fill="#2C2C2C"/>
<path d="M5.76313 0.704408C5.72731 0.714159 5.69675 0.737144 5.67788 0.768523C5.64048 0.831021 5.65973 0.925305 5.72903 0.959518C5.91079 1.04922 6.08348 1.15402 6.25645 1.25881C6.39621 1.34806 6.54243 1.4272 6.69395 1.4956C6.77466 1.53052 6.85806 1.55917 6.94336 1.58126C7.04129 1.60456 7.14097 1.62015 7.24144 1.62787C7.34204 1.63643 7.44314 1.63769 7.54393 1.63164C7.68142 1.62437 7.81671 1.60255 7.95228 1.58396L7.96603 1.58207L8.09912 1.56456L8.08675 1.56618L8.29684 1.53924H8.30206L8.32626 1.53601C8.4764 1.51607 8.62627 1.49479 8.77668 1.47432C9.32665 1.40239 9.87662 1.33289 10.4324 1.30191C10.8998 1.27497 11.3687 1.26015 11.8348 1.317C12.1729 1.36489 12.5039 1.45291 12.8203 1.57911C13.065 1.68252 13.2965 1.81343 13.5103 1.96918C13.6914 2.10994 13.8558 2.27025 14.0003 2.44708C14.1343 2.62247 14.2475 2.81227 14.3377 3.01279C14.4315 3.24256 14.4973 3.48236 14.5338 3.72721C14.571 4.04826 14.5683 4.37256 14.5255 4.69296C14.5291 4.7199 14.5329 4.74684 14.5362 4.77189C14.5572 4.84711 14.6076 4.91121 14.6764 4.9503C14.7453 4.98938 14.8271 5.00029 14.9042 4.98067C15.0266 4.96884 15.1499 4.96966 15.2721 4.98309C15.4201 5.00666 15.5651 5.04605 15.7044 5.10055C15.8664 5.172 16.02 5.26072 16.1622 5.36508C16.4915 5.6164 16.7502 5.94544 16.9143 6.32141C16.9823 6.48566 17.0312 6.65691 17.06 6.8319C17.0693 6.91158 17.0738 6.99173 17.0735 7.07192C17.0723 7.16274 17.0657 7.2534 17.0537 7.34347C17.0128 7.61015 16.9397 7.87113 16.8359 8.12092C16.7182 8.38342 16.5696 8.63151 16.3929 8.86012C16.3225 8.94722 16.2485 9.031 16.1707 9.11146C16.1735 9.38085 16.1707 9.64754 16.1559 9.91504C16.3495 9.75469 16.5288 9.5786 16.6921 9.38866C17.0019 9.03768 17.2484 8.63758 17.4211 8.20551C17.4754 8.07445 17.5213 7.94022 17.5586 7.80358C17.5994 7.64682 17.6298 7.48764 17.6496 7.32704C17.6681 7.19794 17.6745 7.06747 17.6689 6.93723C17.6647 6.85641 17.6535 6.7756 17.6414 6.69478C17.632 6.62923 17.6198 6.56431 17.6048 6.50002C17.5748 6.37432 17.5343 6.25125 17.4838 6.13203C17.4262 5.9914 17.3582 5.85508 17.2803 5.72418C17.1995 5.59392 17.1093 5.46942 17.0106 5.35162C16.8272 5.13119 16.6114 4.93879 16.3701 4.78078C16.2692 4.71388 16.1631 4.65479 16.0528 4.60406C15.9205 4.54206 15.7831 4.49132 15.642 4.4524C15.5048 4.41723 15.3646 4.3946 15.2231 4.38478C15.2034 4.38317 15.1833 4.38182 15.1635 4.38101C15.1651 4.35623 15.1665 4.33135 15.1676 4.30639C15.1733 4.17838 15.1722 4.05016 15.1646 3.92224C15.1554 3.77834 15.1385 3.63501 15.114 3.49284C15.0946 3.3771 15.0686 3.26252 15.0362 3.14964C15.0046 3.04053 14.9666 2.93331 14.9223 2.82853C14.8719 2.70565 14.8144 2.58567 14.7502 2.46917C14.6305 2.26058 14.4867 2.06616 14.3218 1.88971C13.9992 1.55006 13.6084 1.27941 13.174 1.09475C13.0464 1.04087 12.9174 0.989959 12.7849 0.948204C12.6699 0.911836 12.5525 0.881665 12.4345 0.855804C12.1678 0.798074 11.8968 0.761319 11.6242 0.745893C11.3249 0.732274 11.0251 0.737494 10.7266 0.761518C10.3479 0.788457 9.97149 0.837754 9.59586 0.892171C9.23591 0.944432 8.87925 1.01259 8.52205 1.08074C8.34358 1.11415 8.16622 1.15213 7.9883 1.1885C7.82331 1.22217 7.66025 1.25935 7.49333 1.28332C7.36571 1.3003 7.23651 1.30256 7.10835 1.29006C6.98947 1.27005 6.87331 1.23678 6.76215 1.19092C6.62674 1.12936 6.49508 1.06019 6.36782 0.983763C6.20585 0.890824 6.04168 0.801119 5.87284 0.718687C5.85012 0.706856 5.82488 0.700398 5.79915 0.699829C5.78697 0.699876 5.77486 0.701506 5.76313 0.704678V0.704408ZM8.00425 1.57722L7.9751 1.581L8.00425 1.57722ZM14.9388 4.97528H14.9303H14.9388Z" fill="#2C2C2C"/>
<path d="M8.32533 1.53552H8.31635L8.34441 1.53168L8.32504 1.53415" fill="#2C2C2C"/>
<path d="M5.79973 0.887562C5.76334 0.924057 5.74267 0.97286 5.74199 1.02387C5.73235 1.24856 5.76718 1.47295 5.84455 1.68468C5.92921 1.91121 6.04754 2.12426 6.19571 2.31693C6.34522 2.51481 6.51565 2.69667 6.70415 2.85948C6.80067 2.94299 6.90269 3.02111 7.00663 3.09492C7.04871 3.12483 7.09215 3.15338 7.13643 3.17978C7.16007 3.19379 7.18427 3.20672 7.20902 3.21857C7.24326 3.23651 7.27941 3.2507 7.31681 3.26087C7.36054 3.2781 7.40879 3.28094 7.45431 3.26895C7.49409 3.25819 7.52999 3.23668 7.55789 3.20689C7.58579 3.17709 7.60457 3.1402 7.61209 3.10044C7.6196 3.06068 7.61555 3.01965 7.60039 2.98205C7.58523 2.94444 7.55957 2.91177 7.52635 2.88777C7.49008 2.85585 7.45118 2.82692 7.41003 2.80129C7.37539 2.77786 7.34019 2.7555 7.30499 2.7326C7.23954 2.68968 7.17538 2.64478 7.1125 2.5979C6.8991 2.43465 6.70602 2.2474 6.53724 2.04C6.42201 1.89154 6.32449 1.73066 6.24658 1.56049C6.19825 1.44555 6.16329 1.32563 6.14236 1.20302C6.13571 1.14309 6.13359 1.08276 6.13604 1.02253C6.13579 0.984459 6.12405 0.947316 6.10229 0.915773C6.08054 0.88423 6.04974 0.859698 6.01379 0.845268C5.97783 0.830837 5.93832 0.827153 5.90023 0.834679C5.86213 0.842205 5.82717 0.860605 5.79973 0.887562Z" fill="#2C2C2C"/>
<path d="M6.81188 2.80262C6.37795 2.89637 5.94816 3.01355 5.53705 3.17976C5.32064 3.26528 5.11091 3.36621 4.90954 3.48175C4.71213 3.59677 4.52664 3.73039 4.35572 3.88071C4.186 4.0318 4.03484 4.20177 3.9053 4.38716C3.77221 4.58119 3.66527 4.79126 3.58714 5.01214C3.49805 5.25459 3.4546 5.50997 3.42435 5.76642C3.39653 6.0113 3.39009 6.25806 3.4051 6.50401C3.43764 7.02362 3.54599 7.53599 3.72683 8.02551C3.91056 8.52605 4.14918 9.00558 4.43849 9.45569C4.67872 9.82957 4.94907 10.184 5.24695 10.5157C5.237 10.2295 5.24187 9.94295 5.26152 9.65719C4.8912 9.17858 4.58082 8.65817 4.33702 8.10713C4.14617 7.66386 4.01295 7.19885 3.9405 6.72302C3.89321 6.36815 3.89127 6.00889 3.93472 5.65355C3.96636 5.41499 4.0271 5.18102 4.11566 4.95664C4.19288 4.78596 4.28986 4.62453 4.40467 4.47552C4.54607 4.3033 4.70737 4.14772 4.88534 4.0119C5.15863 3.81357 5.4555 3.64848 5.76942 3.52027C6.14091 3.37295 6.52489 3.25783 6.91692 3.17626C7.02197 3.15363 7.08191 3.03618 7.05442 2.93893C7.04061 2.89048 7.00819 2.84916 6.96395 2.82363C6.93436 2.80663 6.90063 2.79778 6.86633 2.79804C6.84782 2.79808 6.82937 2.80016 6.81133 2.80424" fill="#2C2C2C"/>
<path d="M6.69913 11.1876C6.6973 11.1589 6.69538 11.1301 6.69336 11.1014L6.68896 11.092C6.69245 11.1239 6.69583 11.1559 6.69913 11.1879" fill="#2C2C2C"/>
<path d="M7.84607 7.50676C7.85634 7.54268 7.86743 7.5786 7.87934 7.61452C7.87934 7.56854 7.87797 7.52247 7.87522 7.47632L7.84634 7.50676" fill="#2C2C2C"/>
<path d="M6.63374 10.6297C6.63686 10.6532 6.63988 10.6767 6.64281 10.7003L6.65767 10.6957C6.64758 10.5998 6.63621 10.504 6.62356 10.4083C6.62356 10.4066 6.62356 10.405 6.62356 10.4034L6.60321 10.3967C6.61403 10.4743 6.62448 10.552 6.63456 10.63" fill="#2C2C2C"/>
<path d="M14.6635 3.82928C14.6635 3.84446 14.6681 3.85931 14.6767 3.87193C14.6853 3.88456 14.6976 3.8944 14.7119 3.90021C14.7262 3.90602 14.742 3.90754 14.7572 3.90458C14.7724 3.90162 14.7863 3.8943 14.7973 3.88357C14.8083 3.87283 14.8157 3.85915 14.8188 3.84426C14.8218 3.82936 14.8202 3.81393 14.8143 3.7999C14.8084 3.78587 14.7983 3.77388 14.7854 3.76544C14.7725 3.757 14.7574 3.7525 14.7419 3.7525C14.7212 3.75271 14.7014 3.76087 14.6867 3.77522C14.6721 3.78958 14.6637 3.80898 14.6635 3.82928Z" fill="#2C2C2C"/>
<path d="M14.0492 3.52917C14.0328 3.58981 14.0414 3.65431 14.073 3.70885C14.1046 3.76339 14.1568 3.80362 14.2183 3.82092C14.3793 3.86689 14.5408 3.91179 14.7028 3.95561C14.8524 3.99521 15.0034 4.02942 15.1535 4.06714C15.4153 4.12874 15.6725 4.2074 15.9235 4.30258C16.0999 4.37674 16.2675 4.4697 16.4232 4.57978C16.5523 4.68293 16.67 4.79914 16.7743 4.92648C16.9243 5.12967 17.0506 5.34871 17.1508 5.57948C17.2325 5.7723 17.301 5.9703 17.3556 6.17213C17.4071 6.36811 17.4472 6.56679 17.4758 6.76721C17.5538 7.40269 17.5502 8.04526 17.4651 8.67986C17.3897 9.20059 17.2632 9.71754 17.0595 10.2049C16.9837 10.3754 16.8963 10.5408 16.7977 10.6997C16.7479 10.7805 16.6935 10.8568 16.6374 10.9328C16.5967 10.9866 16.5653 11.0489 16.5274 11.1057L16.5222 11.1108C16.4837 11.1339 16.4437 11.1545 16.4025 11.1725C16.3504 11.2023 16.3071 11.245 16.2771 11.2963C16.247 11.3476 16.2312 11.4058 16.2312 11.4649C16.2312 11.5241 16.247 11.5822 16.2771 11.6335C16.3071 11.6848 16.3504 11.7275 16.4025 11.7573C16.4422 11.7805 16.4864 11.7954 16.5322 11.8013C16.578 11.8072 16.6245 11.8039 16.669 11.7916C16.7602 11.7652 16.8475 11.7275 16.9289 11.6792C16.972 11.6515 17.0127 11.6201 17.0504 11.5855C17.0889 11.5466 17.1241 11.5047 17.1557 11.4602C17.1931 11.4125 17.2267 11.3619 17.2621 11.3129C17.3048 11.2533 17.3499 11.1957 17.3914 11.1353C17.5701 10.8746 17.7043 10.5893 17.8253 10.3002C18.0805 9.68899 18.2103 9.03114 18.276 8.37626C18.3411 7.724 18.3175 7.06615 18.2059 6.41997C18.1603 6.14747 18.089 5.87971 17.9928 5.62016C17.9242 5.43922 17.8449 5.26238 17.7552 5.09054C17.6863 4.95784 17.608 4.8301 17.5206 4.70828C17.4302 4.58062 17.329 4.46059 17.2181 4.34946C17.1148 4.24965 17.0026 4.15904 16.8829 4.07872C16.6763 3.94136 16.4489 3.83647 16.2092 3.76785C15.9824 3.70229 15.7517 3.65021 15.5185 3.61187C15.2574 3.5659 14.9972 3.51615 14.7378 3.46263C14.6063 3.43533 14.4762 3.40319 14.3473 3.36619C14.3267 3.36028 14.3053 3.35729 14.2838 3.3573C14.2308 3.35799 14.1794 3.37533 14.1373 3.40675C14.0951 3.43818 14.0643 3.48203 14.0495 3.53186L14.0492 3.52917ZM17.1648 5.61504L17.1717 5.63093L17.1648 5.61504Z" fill="#2C2C2C"/>
<path d="M7.83453 6.00703C7.78273 6.02121 7.73857 6.05452 7.71134 6.09997C7.69708 6.1231 7.68786 6.14888 7.68426 6.17568C7.68067 6.20247 7.68277 6.22971 7.69044 6.25567C7.75161 6.41782 7.82514 6.57523 7.91043 6.72656C7.99291 6.86732 8.08806 7.00057 8.19476 7.12472C8.39525 7.35767 8.63055 7.55957 8.89267 7.72357C9.16573 7.89895 9.46711 8.0296 9.77427 8.13574C10.3433 8.3364 10.9391 8.45483 11.543 8.48729C11.8521 8.50755 12.1621 8.51115 12.4716 8.49807C12.8214 8.48182 13.1702 8.44837 13.5165 8.39785C13.8404 8.35225 14.1616 8.29048 14.479 8.21278C14.9667 8.09459 15.4422 7.93226 15.8993 7.72788C16.0992 7.63881 16.2929 7.53676 16.4789 7.4224C16.5667 7.36852 16.6519 7.31006 16.7349 7.24891C16.7971 7.20311 16.8587 7.15624 16.9181 7.10694C16.9574 7.07435 16.9937 7.03852 17.0317 7.0043C17.1691 6.87985 17.1601 6.6541 17.0317 6.52883C16.9672 6.46597 16.88 6.43062 16.7891 6.43051L16.6978 6.44236C16.6468 6.45616 16.5997 6.48143 16.5603 6.51617C16.4858 6.5687 16.411 6.62123 16.3348 6.67134C16.2391 6.73465 16.1404 6.79337 16.0403 6.84995C15.8374 6.9636 15.6279 7.0656 15.4128 7.15543C14.6728 7.45499 13.8867 7.64033 13.0947 7.74809C12.358 7.8413 11.607 7.8712 10.8673 7.78014C10.621 7.74292 10.3772 7.69119 10.1373 7.62525C9.86913 7.55527 9.60557 7.46945 9.34805 7.36825C9.13324 7.27781 8.92986 7.16327 8.74198 7.02693C8.6147 6.92678 8.49922 6.81302 8.3977 6.68777C8.28541 6.54066 8.19074 6.3814 8.11557 6.21311C8.10658 6.19156 8.09742 6.16983 8.08807 6.14792C8.0725 6.09772 8.03876 6.05481 7.9932 6.02723C7.96946 6.01368 7.94321 6.00489 7.91597 6.00137C7.88873 5.99786 7.86104 5.99969 7.83453 6.00676" fill="#2C2C2C"/>
<path d="M7.39708 6.12127C7.00111 6.58785 6.56058 7.01456 6.1514 7.46821C5.95734 7.68127 5.77732 7.90622 5.61243 8.14168C5.44893 8.38125 5.31151 8.63695 5.20243 8.90459C5.10708 9.13804 5.03506 9.38001 4.98739 9.62708C4.92676 9.93647 4.89336 10.2504 4.88757 10.5654C4.88765 10.6181 4.90368 10.6696 4.93363 10.7135C4.96358 10.7573 5.00611 10.7915 5.05585 10.8116C5.1056 10.8318 5.16033 10.8371 5.21313 10.8268C5.26594 10.8166 5.31446 10.7912 5.35257 10.7539C5.40291 10.7035 5.43147 10.6359 5.43232 10.5654C5.44029 10.3803 5.45377 10.1955 5.47714 10.0115C5.52384 9.67657 5.61231 9.34852 5.74057 9.0347C5.87928 8.72961 6.05468 8.44184 6.26305 8.17751C6.48056 7.9057 6.72007 7.65193 6.95931 7.39844C7.23869 7.10211 7.51698 6.80579 7.77959 6.49518L7.82193 6.44131C7.8457 6.40097 7.85821 6.35522 7.85819 6.30864C7.85816 6.26207 7.84562 6.21633 7.82181 6.17602C7.798 6.1357 7.76377 6.10225 7.72256 6.07902C7.68136 6.05579 7.63464 6.0436 7.5871 6.04369C7.55129 6.04299 7.51573 6.04952 7.48261 6.06287C7.4495 6.07621 7.41954 6.0961 7.39461 6.12127" fill="#2C2C2C"/>
<path d="M7.04294 2.98047C6.75654 3.00215 6.47239 3.04639 6.19323 3.11274C5.93914 3.17572 5.69209 3.26335 5.45573 3.37431C5.02848 3.57316 4.64667 3.85456 4.33324 4.2016C4.01728 4.55181 3.7742 4.96424 3.59436 5.39634C3.51071 5.6045 3.44531 5.81926 3.39884 6.03829C3.34529 6.28325 3.31137 6.53193 3.29737 6.78207C3.26718 7.27547 3.30529 7.77061 3.41067 8.254C3.46223 8.48699 3.53004 8.71623 3.6136 8.94013C3.70418 9.18569 3.81054 9.42539 3.93204 9.65778C4.03505 9.85682 4.15259 10.0483 4.28374 10.2308C4.35982 10.3355 4.43948 10.4377 4.5227 10.5373C4.59454 10.6248 4.67245 10.7074 4.75589 10.7844C4.79867 10.8254 4.85392 10.8516 4.91328 10.859C4.97263 10.8664 5.03284 10.8547 5.08477 10.8256C5.14561 10.7906 5.19018 10.7338 5.20907 10.6672C5.21904 10.6331 5.22174 10.5974 5.21701 10.5623C5.21228 10.5271 5.20022 10.4933 5.18157 10.463C5.10567 10.3552 5.02648 10.2504 4.95141 10.1427C4.87633 10.0349 4.80429 9.92151 4.73582 9.80783C4.60463 9.59069 4.48735 9.36576 4.38466 9.13436C4.17281 8.6244 4.02704 8.09045 3.95074 7.54497C3.88857 7.09066 3.88857 6.63026 3.95074 6.17595C3.97708 6.00256 4.01381 5.83085 4.06073 5.66169C4.10526 5.49179 4.16036 5.32473 4.22572 5.16143C4.43206 4.68659 4.75984 4.27186 5.17744 3.95727C5.38983 3.80105 5.62065 3.67044 5.8649 3.56827C6.18149 3.4411 6.51316 3.35349 6.8521 3.30751C6.91534 3.29978 6.97877 3.29323 7.04239 3.28784C7.08349 3.2868 7.12272 3.27075 7.15238 3.24285C7.18155 3.21424 7.19805 3.17553 7.1983 3.1351C7.1983 3.05994 7.13258 2.98128 7.05201 2.98128H7.04184L7.04294 2.98047ZM6.87685 3.30454L6.86282 3.30643L6.87685 3.30454ZM4.2414 5.12237L4.23727 5.13207L4.2414 5.12237Z" fill="#2C2C2C"/>
<path d="M15.0544 7.66672C14.9926 7.72733 14.9579 7.8095 14.9579 7.89516L14.9697 7.9811C14.985 8.035 15.0142 8.0841 15.0547 8.1236C15.3051 8.41203 15.5526 8.70288 15.7971 8.99615C16.0476 9.29544 16.2935 9.59904 16.5481 9.89536C16.5874 9.93392 16.6362 9.9617 16.6899 9.97594C16.7435 9.99017 16.8 9.99036 16.8538 9.97648C16.9075 9.96259 16.9566 9.93513 16.9961 9.89683C17.0356 9.85853 17.0641 9.81074 17.0788 9.75825L17.0901 9.67555C17.0903 9.62036 17.0754 9.56613 17.0469 9.51849C16.7953 9.19523 16.5355 8.88058 16.277 8.56486C16.0286 8.26315 15.7773 7.96377 15.5233 7.66672C15.4683 7.60396 15.3706 7.5719 15.2901 7.5719C15.2026 7.57197 15.1187 7.60608 15.0569 7.66672" fill="#2C2C2C"/>
<path d="M5.1793 0.0136867C5.10384 0.0344628 5.03734 0.0787483 4.98986 0.139844C4.94238 0.200939 4.9165 0.275521 4.91614 0.352307C4.92741 0.992911 5.19387 1.60092 5.5508 2.12784C5.74687 2.41273 5.96347 2.68352 6.19894 2.93816C6.4214 3.18249 6.65844 3.41363 6.90153 3.63857C7.16414 3.88102 7.43527 4.11485 7.70751 4.34706C7.8329 4.45481 7.95884 4.56014 8.08424 4.66709C8.19835 4.76461 8.3144 4.86051 8.42604 4.96045C8.49303 5.02455 8.58264 5.06092 8.67628 5.06201C8.77014 5.06201 8.86016 5.02549 8.92653 4.96047C8.9929 4.89545 9.03018 4.80726 9.03018 4.71531C9.03053 4.66973 9.02153 4.62455 9.00373 4.58244C8.98592 4.54033 8.95966 4.50215 8.92651 4.47017C8.83549 4.38935 8.74557 4.30665 8.65345 4.22637C8.54896 4.13559 8.44392 4.04561 8.3386 3.95564C8.11036 3.75979 7.88185 3.56422 7.65773 3.36298C7.20538 2.9589 6.76706 2.53435 6.3884 2.06157C6.18961 1.80976 6.01716 1.53901 5.87363 1.25341C5.90095 1.26652 5.92845 1.27927 5.95613 1.29166C6.14451 1.37735 6.33965 1.44798 6.53965 1.50286C6.74017 1.55404 6.94405 1.59167 7.14984 1.61547C7.8648 1.70814 8.58608 1.64025 9.29664 1.55135C9.5224 1.52307 9.74789 1.49263 9.97365 1.46272C10.7596 1.36009 11.5567 1.26984 12.3481 1.36278C12.6785 1.40866 13.0022 1.4922 13.3128 1.61169C13.5163 1.7025 13.709 1.81487 13.8875 1.94681C14.1291 2.13711 14.3479 2.35354 14.5398 2.592C14.7589 2.87815 14.9435 3.18822 15.0897 3.516C15.1461 3.65219 15.1951 3.79121 15.2366 3.93247C15.2786 4.07063 15.3116 4.21126 15.3353 4.35352C15.3483 4.46478 15.3551 4.57666 15.3557 4.68864C15.3551 4.80183 15.3469 4.91486 15.3312 5.02699L15.3279 5.05043C15.3178 5.12227 15.3086 5.19482 15.3004 5.26809C15.2916 5.33975 15.277 5.41222 15.291 5.4836V5.48818C15.291 5.49034 15.291 5.49276 15.2927 5.49492C15.2961 5.5073 15.3012 5.51917 15.3078 5.53021C15.321 5.5526 15.3399 5.57118 15.3628 5.58409C15.38 5.59435 15.3991 5.60097 15.4191 5.60352C15.439 5.60607 15.4593 5.6045 15.4786 5.5989C15.5002 5.59153 15.5209 5.58186 15.5404 5.57008C15.5614 5.55546 15.5813 5.53953 15.6001 5.5224C15.624 5.50027 15.6459 5.47621 15.6656 5.45047C15.7209 5.38459 15.7685 5.31284 15.8075 5.23658C15.8764 5.09326 15.9261 4.94176 15.9551 4.78589C15.9868 4.62302 16.0031 4.45763 16.0038 4.29183C16.0028 4.11888 15.9877 3.94629 15.9587 3.77569C15.9331 3.62637 15.8957 3.47921 15.847 3.33551C15.7892 3.16309 15.7199 2.99455 15.6397 2.83094C15.4918 2.52303 15.2954 2.24395 15.0809 1.97725C14.8907 1.73993 14.674 1.52424 14.4347 1.33423C14.299 1.22527 14.1563 1.12503 14.0074 1.03413C13.8615 0.949672 13.7093 0.876188 13.552 0.814308C13.3809 0.74468 13.205 0.687241 13.0254 0.642438C12.8191 0.592448 12.6098 0.555021 12.3987 0.530372C12.039 0.486779 11.676 0.47389 11.3139 0.49185C10.6732 0.518789 10.038 0.616307 9.40334 0.700625C8.67628 0.795181 7.93822 0.873572 7.20676 0.787907C6.85428 0.737966 6.50913 0.647082 6.17859 0.517172C6.00659 0.446794 5.84254 0.359038 5.68912 0.255328C5.63161 0.208875 5.57808 0.157879 5.52908 0.102854C5.48526 0.0598427 5.43077 0.0287427 5.37096 0.0126098C5.30859 -0.00412187 5.24277 -0.00412187 5.1804 0.0126098L5.1793 0.0136867ZM9.94671 1.4673L9.91068 1.47215L9.94671 1.4673Z" fill="#2C2C2C"/>
<path d="M5.7251 0.638088C5.66692 0.671536 5.61845 0.719019 5.58431 0.776014C5.57129 0.806724 5.55809 0.837346 5.54471 0.867876C5.52603 0.934803 5.52603 1.00541 5.54471 1.07234C5.61395 1.25324 5.69497 1.4296 5.78725 1.60034C5.87054 1.75042 5.96301 1.89544 6.06416 2.03459C6.28941 2.34371 6.53933 2.63484 6.81156 2.90526C7.06702 3.16225 7.33816 3.40443 7.61314 3.64122C7.87474 3.86643 8.13946 4.08832 8.4073 4.30688L8.48787 4.36803C8.54841 4.40268 8.61721 4.42107 8.68732 4.42134C8.75744 4.42161 8.82639 4.40375 8.8872 4.36956C8.94801 4.33537 8.99854 4.28607 9.03368 4.22663C9.06882 4.16719 9.08733 4.09972 9.08733 4.03103C9.08632 3.92764 9.04443 3.82866 8.97047 3.7549C8.93142 3.71378 8.89182 3.6731 8.85167 3.63287C8.90098 3.65155 8.95388 3.65939 9.00662 3.65582C9.05936 3.65226 9.11066 3.63739 9.15689 3.61225C9.20311 3.58712 9.24313 3.55234 9.27412 3.51037C9.3051 3.46841 9.32629 3.42029 9.33619 3.36941C9.49184 3.48767 9.65023 3.60216 9.81439 3.70911C9.93924 3.78992 10.1193 3.7576 10.2216 3.65766C10.2739 3.60617 10.3075 3.53923 10.3171 3.4672L10.3679 3.50572C10.4131 3.53163 10.4644 3.5454 10.5167 3.54564C10.569 3.54587 10.6205 3.53256 10.6659 3.50705C10.7113 3.48154 10.749 3.44474 10.7752 3.40037C10.8014 3.356 10.8151 3.30564 10.8151 3.25438L10.8131 3.2401C10.8423 3.27081 10.8718 3.30135 10.9017 3.3317C10.9547 3.38294 11.0239 3.41496 11.098 3.4225C11.1721 3.43004 11.2466 3.41265 11.3092 3.37318C11.3447 3.40452 11.3872 3.4273 11.4332 3.43972C11.4723 3.45027 11.513 3.45319 11.5532 3.4483C11.5934 3.44341 11.6322 3.43081 11.6674 3.41122C11.7027 3.39164 11.7336 3.36544 11.7585 3.33414C11.7833 3.30284 11.8017 3.26704 11.8124 3.22879C11.8238 3.19002 11.8269 3.14938 11.8215 3.10939C11.8162 3.0694 11.8025 3.03092 11.7814 2.99631C11.6909 2.86566 11.5933 2.74012 11.5014 2.61028C11.5786 2.68024 11.6594 2.74615 11.7437 2.80774C11.7874 2.83288 11.8371 2.84609 11.8878 2.84599C11.9634 2.84623 12.036 2.81718 12.0899 2.76517L12.094 2.76113C12.2101 2.90373 12.3292 3.04372 12.4515 3.18111C12.754 3.52215 13.0719 3.85188 13.3994 4.1703C13.4937 4.26216 13.5894 4.35294 13.6875 4.43969C13.7613 4.50753 13.8396 4.57053 13.9218 4.62826C14.0096 4.68806 14.1418 4.67917 14.2306 4.62826C14.297 4.58985 14.3462 4.52826 14.3681 4.45585C14.4231 4.53056 14.4781 4.60473 14.5331 4.67837C14.5561 4.71681 14.589 4.7487 14.6284 4.77085C14.6679 4.79301 14.7126 4.80467 14.7581 4.80467C14.8035 4.80467 14.8482 4.79301 14.8877 4.77085C14.9272 4.7487 14.96 4.71681 14.983 4.67837C15.0181 4.61879 15.028 4.54808 15.0105 4.48144C14.9772 4.34217 14.9462 4.2029 14.9055 4.06524C14.8604 3.915 14.8077 3.7671 14.7473 3.6221C14.6216 3.31441 14.465 3.01969 14.2799 2.74228C14.0957 2.46747 13.8798 2.21429 13.6367 1.98772C13.4018 1.76579 13.1327 1.58151 12.8392 1.44167C12.7836 1.41122 12.7186 1.40165 12.6564 1.41473C12.6383 1.4103 12.6199 1.4076 12.6014 1.40665C12.5791 1.38456 12.5557 1.36328 12.5315 1.34361C12.4787 1.29754 12.4203 1.25817 12.3574 1.22643C12.3167 1.20676 12.2745 1.19019 12.2312 1.17686C12.1836 1.1647 12.1347 1.15756 12.0855 1.15558C12.0393 1.15552 11.9932 1.16013 11.948 1.16932C11.9261 1.17282 11.9048 1.17897 11.8845 1.18764C11.8611 1.19707 11.8383 1.20569 11.816 1.21458C11.7967 1.18654 11.7711 1.16315 11.7412 1.14615C11.7047 1.12538 11.6633 1.1143 11.6211 1.11401C11.5789 1.11373 11.5374 1.12425 11.5006 1.14454C11.4417 1.16799 11.3813 1.18735 11.3197 1.20246L11.2809 1.21188C11.2705 1.19413 11.2583 1.17752 11.2443 1.16232C11.2178 1.13574 11.1861 1.11471 11.1511 1.1005C11.1161 1.08628 11.0785 1.07918 11.0405 1.07961C10.946 1.08655 10.8519 1.09878 10.7587 1.11625C10.7159 1.12417 10.674 1.1358 10.6333 1.151C10.592 1.16537 10.5496 1.17662 10.5065 1.18468C10.4287 1.20084 10.3492 1.21161 10.2709 1.22562C10.1837 1.24098 10.0963 1.25499 10.0088 1.26846C9.97719 1.27705 9.94795 1.29252 9.92329 1.31371C9.89597 1.31138 9.86847 1.30949 9.84079 1.30805C9.79276 1.30757 9.74547 1.31961 9.70376 1.34295C9.66206 1.36629 9.62744 1.40009 9.60348 1.44086L9.49568 1.43548C9.21383 1.42093 8.93224 1.39857 8.65121 1.37082C8.42792 1.34873 8.20436 1.3261 7.98162 1.2989C7.57657 1.23882 7.18609 1.10575 6.80881 0.952464C6.57618 0.854407 6.34739 0.747998 6.12135 0.636741C6.0612 0.602273 5.99277 0.584106 5.92309 0.584106C5.8534 0.584106 5.78498 0.602273 5.72483 0.636741L5.7251 0.638088ZM12.8667 2.66442C12.9122 2.73339 12.9576 2.80244 13.0028 2.87158C12.9433 2.80531 12.8843 2.73841 12.826 2.67089C12.8397 2.66957 12.8533 2.66741 12.8667 2.66442Z" fill="#2C2C2C"/>
<path d="M12.3699 2.13511C12.3391 2.15281 12.3135 2.17794 12.2954 2.20811C12.2684 2.25608 12.2608 2.31225 12.2742 2.36543C12.3108 2.57394 12.3531 2.78029 12.4117 2.98503C12.4767 3.21552 12.5562 3.44187 12.6496 3.66281C12.744 3.89243 12.8562 4.11469 12.9851 4.32765C13.1021 4.52255 13.2443 4.7019 13.408 4.86131C13.4302 4.88307 13.4572 4.89955 13.4869 4.90948C13.5166 4.91942 13.5483 4.92254 13.5795 4.91861C13.6106 4.91468 13.6404 4.90381 13.6666 4.88682C13.6928 4.86984 13.7147 4.84719 13.7305 4.82063C13.757 4.77327 13.7644 4.71789 13.7512 4.66547C13.7405 4.60566 13.7283 4.54631 13.7146 4.4874C13.7925 4.64526 13.867 4.80447 13.9381 4.96503C13.9846 5.1043 14.0374 5.24196 14.0913 5.37827C14.1267 5.46806 14.1627 5.55732 14.1994 5.64604C14.2247 5.70746 14.2478 5.77077 14.2747 5.83165C14.2799 5.84568 14.2863 5.85928 14.2937 5.87232C14.3155 5.91119 14.3476 5.94357 14.3866 5.96607C14.4156 5.98266 14.4475 5.99351 14.4807 5.998C14.5139 6.00248 14.5476 6.00052 14.58 5.99221C14.6125 5.9839 14.6429 5.96942 14.6696 5.94959C14.6963 5.92976 14.7187 5.90497 14.7356 5.87663C14.769 5.81802 14.7782 5.74906 14.7612 5.68402C14.7432 5.61434 14.7197 5.54616 14.6908 5.4801C14.646 5.3648 14.6009 5.2495 14.5577 5.13339C14.5107 5.00651 14.4658 4.87855 14.4265 4.74898C14.3925 4.64164 14.3658 4.5322 14.3465 4.4214C14.3449 4.40712 14.3438 4.39285 14.3429 4.37857C14.3605 4.38342 14.3781 4.38908 14.3954 4.39554C14.5003 4.4458 14.5996 4.50665 14.6916 4.57711C14.9627 4.78696 15.2042 5.03264 15.4363 5.28237C15.5463 5.39928 15.6516 5.51862 15.7566 5.63876C15.7964 5.68402 15.8364 5.72892 15.8765 5.77346C15.9062 5.80862 15.9384 5.84174 15.9728 5.87259C15.9997 5.90023 16.0338 5.92016 16.0715 5.93024C16.1 5.93797 16.1299 5.94011 16.1593 5.93654C16.1887 5.93296 16.2171 5.92374 16.2429 5.90941C16.2686 5.89507 16.2913 5.8759 16.3095 5.85299C16.3277 5.83008 16.3411 5.80388 16.3489 5.77588C16.364 5.71837 16.3558 5.65739 16.3261 5.60563C16.295 5.55053 16.2591 5.49817 16.2189 5.44912C16.3159 5.56845 16.4149 5.68591 16.5172 5.80121C16.5358 5.81931 16.5588 5.83234 16.5841 5.83899C16.6094 5.84565 16.6361 5.84569 16.6614 5.83912C16.6867 5.83256 16.7098 5.81961 16.7284 5.80156C16.747 5.78352 16.7605 5.76101 16.7675 5.73628C16.773 5.71747 16.7746 5.69772 16.772 5.67829C16.7694 5.65886 16.7627 5.64018 16.7523 5.62341C16.7023 5.55391 16.6561 5.48144 16.6085 5.41059C16.5568 5.33373 16.5046 5.25722 16.4518 5.18107L16.4064 5.11642C16.4479 5.14902 16.4889 5.18081 16.5324 5.21232C16.5886 5.25576 16.6481 5.29511 16.7103 5.33005C16.7417 5.348 16.7774 5.35753 16.8137 5.35766C16.8501 5.35778 16.8859 5.34852 16.9174 5.33078C16.9489 5.31305 16.9752 5.28748 16.9934 5.25666C17.0116 5.22583 17.0212 5.19084 17.0213 5.15521L17.0138 5.10134C17.0044 5.06752 16.9861 5.0367 16.9608 5.0119C16.9135 4.95264 16.8635 4.89579 16.8109 4.84138V4.83922C16.8186 4.81298 16.8207 4.78547 16.817 4.75841C16.8134 4.73134 16.8041 4.7053 16.7897 4.6819C16.6639 4.50476 16.512 4.34681 16.339 4.21317C16.1647 4.0718 15.9712 3.95476 15.764 3.86539C15.7296 3.84567 15.6904 3.83521 15.6505 3.83506C15.6106 3.83491 15.5714 3.84508 15.5368 3.86454C15.5021 3.88399 15.4734 3.91205 15.4534 3.94587C15.4334 3.9797 15.4228 4.0181 15.4228 4.05719C15.4228 4.06096 15.4228 4.06473 15.4228 4.0685C15.3495 4.02057 15.2732 3.97703 15.1946 3.93812C15.1694 3.92412 15.141 3.91675 15.1121 3.91675C15.0831 3.91675 15.0547 3.92412 15.0296 3.93812C14.9987 3.95612 14.9746 3.98352 14.961 4.01615C14.9475 4.04878 14.9452 4.08485 14.9545 4.11888L14.9652 4.15094C14.8844 4.08859 14.7991 4.03205 14.71 3.98176C14.6565 3.95377 14.6014 3.92877 14.545 3.90687C14.5085 3.89188 14.4706 3.88042 14.4317 3.87266C14.3336 3.84929 14.2308 3.8517 14.1339 3.87966C14.0668 3.90147 14.0049 3.93618 13.9516 3.98176C13.9205 3.92501 13.8888 3.86844 13.8568 3.81205C13.6868 3.5123 13.4992 3.22249 13.295 2.94408C13.2497 2.88266 13.2034 2.82187 13.1561 2.7617C13.1269 2.64802 13.1011 2.53299 13.0832 2.41689C13.0764 2.39076 13.0642 2.36627 13.0474 2.34488C13.0306 2.32349 13.0096 2.30565 12.9856 2.29243C12.9609 2.2783 12.9336 2.26915 12.9053 2.26554C12.8769 2.26194 12.8482 2.26393 12.8206 2.27142C12.7982 2.27747 12.7769 2.28712 12.7576 2.29997C12.7134 2.25445 12.6677 2.21027 12.6202 2.16851C12.5876 2.13664 12.5451 2.11624 12.4995 2.11049C12.4538 2.10474 12.4075 2.11397 12.3677 2.13672L12.3699 2.13511ZM15.805 4.92516C15.876 5.01711 15.9472 5.10888 16.0187 5.20047L16.0099 5.1897C15.9688 5.14049 15.9273 5.09164 15.8853 5.04315C15.8582 5.004 15.8314 4.96467 15.805 4.92516Z" fill="#2C2C2C"/>
<path d="M16.2733 6.14383C16.2733 6.18513 16.2858 6.22549 16.3092 6.25982C16.3326 6.29416 16.3659 6.32092 16.4048 6.33672C16.4438 6.35252 16.4866 6.35665 16.528 6.3486C16.5693 6.34054 16.6073 6.32066 16.6371 6.29146C16.6669 6.26226 16.6872 6.22506 16.6954 6.18457C16.7036 6.14407 16.6994 6.10209 16.6833 6.06394C16.6671 6.02579 16.6398 5.99319 16.6048 5.97024C16.5697 5.9473 16.5285 5.93506 16.4864 5.93506C16.43 5.93555 16.3761 5.95771 16.3362 5.99675C16.2964 6.0358 16.2738 6.08862 16.2733 6.14383Z" fill="#2C2C2C"/>
<path d="M16.292 4.39855C16.1899 4.4139 16.0929 4.46616 16.0082 4.5222C15.9502 4.55673 15.9075 4.61119 15.8883 4.67494C15.8866 4.68105 15.8852 4.68724 15.8839 4.69353C15.834 4.67395 15.7832 4.65671 15.7315 4.6418C15.703 4.63358 15.673 4.63101 15.6434 4.63424C15.6138 4.63747 15.5852 4.64644 15.5591 4.66063C15.5331 4.67482 15.5102 4.69394 15.4918 4.71688C15.4734 4.73982 15.4599 4.76611 15.452 4.79424C15.444 4.82236 15.4419 4.85175 15.4457 4.88069C15.4495 4.90963 15.4591 4.93754 15.474 4.96279C15.489 4.98804 15.5089 5.01014 15.5326 5.02778C15.5563 5.04542 15.5834 5.05826 15.6122 5.06555C15.6554 5.07767 15.6977 5.09249 15.7398 5.10811C15.8646 5.16396 15.9829 5.23307 16.0923 5.3142C16.1586 5.36592 16.2224 5.42195 16.2832 5.47852C16.2518 5.5287 16.2353 5.58644 16.2356 5.64527C16.2356 5.67221 16.2323 5.69915 16.2331 5.72474C16.2339 5.75033 16.2359 5.77862 16.2372 5.80556C16.2372 5.81283 16.2372 5.81984 16.2372 5.82711C16.2433 6.041 16.2581 6.25463 16.2854 6.4669C16.2901 6.50408 16.2953 6.54126 16.3008 6.57843C16.314 6.72794 16.3283 6.87745 16.3387 7.02696L16.3412 7.05929C16.251 6.93034 16.1548 6.80571 16.0527 6.68538C15.9102 6.51909 15.7468 6.37118 15.5663 6.2452C15.5124 6.21449 15.4512 6.19831 15.3889 6.19831C15.3266 6.19831 15.2654 6.21449 15.2115 6.2452C15.1594 6.27519 15.1159 6.31776 15.0853 6.36885L15.0499 6.45101C15.0415 6.48149 15.0373 6.51293 15.0375 6.54449C14.9899 6.54862 14.9438 6.56297 14.9025 6.58651C14.8399 6.62283 14.7912 6.67819 14.7638 6.74414C14.7364 6.8101 14.7318 6.88303 14.7507 6.9518C14.7688 7.01484 14.785 7.07734 14.8079 7.14037C14.8395 7.22631 14.8766 7.31036 14.9137 7.39414C14.9645 7.50766 15.022 7.61812 15.0861 7.72494C15.2206 7.94401 15.374 8.15131 15.5448 8.34454C15.8055 8.64679 16.1039 8.91671 16.3549 9.22705C16.4547 9.35052 16.5409 9.48398 16.612 9.6252C16.6526 9.73193 16.6821 9.8424 16.7 9.95493C16.7204 10.1661 16.7158 10.3789 16.6866 10.5891V10.5939L16.6736 10.6885C16.6735 10.7515 16.6906 10.8135 16.7231 10.8679C16.7472 10.9082 16.7791 10.9435 16.8171 10.9717C16.8551 10.9999 16.8984 11.0205 16.9445 11.0324C16.9906 11.0442 17.0387 11.047 17.0859 11.0407C17.1331 11.0343 17.1786 11.0189 17.2198 10.9953C17.2605 10.9725 17.2963 10.9419 17.3249 10.9054C17.3536 10.8689 17.3746 10.8272 17.3867 10.7828C17.3952 10.7424 17.4032 10.7019 17.41 10.661C17.4197 10.6039 17.4235 10.547 17.4301 10.4899C17.4538 10.3226 17.4738 10.1548 17.487 9.98645C17.5269 9.90978 17.5628 9.8312 17.5946 9.75101C17.6449 9.6252 17.6832 9.49506 17.709 9.36228C17.7538 9.1341 17.777 8.90233 17.7783 8.66996C17.7849 8.64948 17.7906 8.62847 17.7959 8.60719C17.815 8.52001 17.8286 8.43175 17.8365 8.34292C17.8495 8.20856 17.8504 8.07335 17.8393 7.93884C17.8146 7.62841 17.7565 7.3214 17.6661 7.02292C17.6641 6.99086 17.6617 6.95827 17.6606 6.92594C17.6595 6.89362 17.6606 6.86721 17.6606 6.83758C17.6606 6.78849 17.6483 6.74015 17.6249 6.69676C17.6014 6.65338 17.5675 6.61627 17.5261 6.58867C17.4751 6.45663 17.4172 6.32724 17.3526 6.20102C17.328 6.14714 17.303 6.09326 17.2775 6.03939C17.2408 5.9636 17.2034 5.88817 17.165 5.8131C17.1543 5.73229 17.1428 5.65147 17.1298 5.57065C17.1188 5.50277 17.1023 5.43596 17.0905 5.36834C17.0603 5.20671 17.0303 5.04319 16.9703 4.88856C16.9038 4.71723 16.8073 4.53836 16.6349 4.45027C16.5928 4.42721 16.5472 4.41084 16.4998 4.40178C16.4672 4.39594 16.4342 4.39207 16.4011 4.3902H16.3921C16.3579 4.39158 16.3239 4.39545 16.2903 4.40178L16.292 4.39855ZM16.3885 4.89826C16.3951 4.90437 16.4014 4.91074 16.4075 4.91739C16.4221 4.93907 16.4355 4.96156 16.4476 4.98474C16.4297 4.98698 16.4121 4.99113 16.3951 4.99713C16.3681 4.97611 16.3406 4.95564 16.3126 4.93571C16.3298 4.92445 16.3476 4.9141 16.3659 4.90473L16.3879 4.89826" fill="#2C2C2C"/>
<path d="M6.60973 3.20971C6.55238 3.21502 6.49594 3.22733 6.44171 3.24635C6.37802 3.27016 6.31561 3.29713 6.25472 3.32716C6.17042 3.3684 6.08903 3.41511 6.01108 3.46697C6.0076 3.45961 6.00384 3.45252 5.99981 3.44569C5.97557 3.40489 5.94087 3.371 5.89915 3.34738C5.85743 3.32375 5.81014 3.31121 5.76195 3.311C5.65104 3.31375 5.54061 3.32619 5.43197 3.34818C5.14219 3.40996 4.87693 3.55276 4.66833 3.75926C4.59216 3.8357 4.52185 3.91755 4.45797 4.00413C4.40228 4.07765 4.35175 4.15478 4.30673 4.235C4.20017 4.42747 4.11207 4.6292 4.04357 4.83762C3.97469 5.0432 3.92039 5.25319 3.88105 5.4661C3.83315 5.71372 3.79918 5.96373 3.77931 6.215C3.74502 6.67146 3.7581 7.13015 3.81836 7.58402C3.86455 7.93261 3.92615 8.27958 4.03834 8.61389C4.08947 8.76857 4.1531 8.919 4.22863 9.06377C4.25654 9.11641 4.28787 9.16725 4.3224 9.21597C4.3695 9.2841 4.4221 9.34842 4.47969 9.40831C4.51111 9.43914 4.54842 9.4636 4.5895 9.48029C4.63057 9.49698 4.6746 9.50557 4.71907 9.50557C4.76354 9.50557 4.80757 9.49698 4.84864 9.48029C4.88971 9.4636 4.92703 9.43914 4.95844 9.40831L5.01151 9.34124C5.03481 9.30232 5.04969 9.25914 5.05524 9.21436C5.13238 9.18809 5.19656 9.13426 5.23495 9.06364C5.27334 8.99302 5.28311 8.91081 5.2623 8.83344C5.23315 8.72569 5.2073 8.61443 5.18503 8.50371C5.20685 8.40494 5.22875 8.30616 5.25075 8.20739C5.3173 7.9081 5.38604 7.60935 5.46029 7.31167C5.48504 7.21218 5.5107 7.11295 5.53729 7.014C5.58878 7.02906 5.64355 7.02971 5.6954 7.01588C5.76112 6.9981 5.83674 6.94989 5.86617 6.88712C5.99046 6.62285 6.09358 6.34834 6.19615 6.07707C6.28882 5.83462 6.38121 5.59056 6.48296 5.34972C6.56215 5.16816 6.64795 4.98928 6.74199 4.81499C6.78929 4.72798 6.84016 4.64285 6.89186 4.55853C6.94686 4.46748 6.99828 4.37373 7.05933 4.28564C7.08794 4.2376 7.09952 4.18164 7.09226 4.12647C7.085 4.07131 7.0593 4.02005 7.01918 3.9807L7.01065 3.97289V3.96857C7.02779 3.90784 7.02534 3.84339 7.00363 3.78407C6.98192 3.72475 6.94202 3.67346 6.88939 3.63723L6.89626 3.63561C6.9229 3.62789 6.94545 3.61036 6.95918 3.58671C6.97292 3.56305 6.97678 3.53511 6.96996 3.50873C6.96496 3.4793 6.9557 3.45073 6.94246 3.42387L6.94548 3.43088L6.94026 3.4201C6.93283 3.3207 6.85336 3.24904 6.75822 3.21914C6.72678 3.20969 6.69403 3.20506 6.66115 3.2054C6.64276 3.20539 6.62439 3.20656 6.60615 3.2089L6.60973 3.20971ZM6.91743 3.38643L6.92266 3.39289L6.91716 3.38562L6.91743 3.38643ZM5.30327 3.95618C5.27834 4.01293 5.25313 4.06969 5.22765 4.12644C5.1886 4.16559 5.15029 4.20537 5.11271 4.24577C5.02224 4.34275 4.93919 4.44593 4.8578 4.55045C4.80738 4.61412 4.76231 4.68169 4.72305 4.75249C4.68263 4.82765 4.65183 4.90874 4.61884 4.98713C4.60894 5.0103 4.59977 5.03364 4.59134 5.05717C4.6282 4.9236 4.67357 4.79242 4.72718 4.6644C4.79238 4.51648 4.87409 4.37609 4.97082 4.24577C5.03469 4.16833 5.10636 4.09739 5.18476 4.03404C5.22393 4.00619 5.26469 3.98056 5.30685 3.95726" fill="#2C2C2C"/>
<path d="M10.846 2.37271C10.8153 2.40253 10.793 2.43966 10.7814 2.48046C10.7783 2.50228 10.7753 2.5241 10.7723 2.54592C10.7722 2.5895 10.784 2.63231 10.8067 2.66984C10.8705 2.75102 10.9355 2.83121 11.0019 2.91041C10.9777 2.89406 10.9533 2.8779 10.9288 2.86192C10.8899 2.83969 10.8464 2.82651 10.8016 2.82338C10.7567 2.82025 10.7117 2.82727 10.6701 2.84388C10.6284 2.86049 10.5913 2.88625 10.5614 2.91918C10.5315 2.95211 10.5098 2.99132 10.4978 3.03378C10.4943 3.05911 10.491 3.0847 10.4874 3.11029C10.4874 3.12481 10.4885 3.1393 10.4907 3.15366L10.4332 3.10813C10.3852 3.0706 10.3364 3.03396 10.2869 2.99823C10.2493 2.97129 10.2091 2.94704 10.1709 2.92064C10.1371 2.90122 10.0986 2.8909 10.0594 2.89074C10.0201 2.89058 9.98158 2.90058 9.94757 2.91972C9.91357 2.93887 9.88534 2.96648 9.86574 2.99975C9.84614 3.03303 9.83587 3.07079 9.83596 3.10921C9.83844 3.12861 9.84119 3.148 9.84394 3.16713C9.85416 3.20351 9.87387 3.23665 9.90113 3.2633C10.1192 3.51599 10.3312 3.77514 10.546 4.02971C10.7607 4.28428 10.976 4.54155 11.1908 4.79666C11.4315 5.08311 11.671 5.37045 11.9093 5.6587C11.537 5.32951 11.1963 4.96556 10.8581 4.60378C10.632 4.36133 10.4079 4.11888 10.175 3.88289C10.065 3.77119 9.9521 3.66173 9.83624 3.55451C9.72294 3.44945 9.60553 3.34843 9.48811 3.24795C9.44303 3.20523 9.38308 3.18087 9.32037 3.17979C9.25736 3.17979 9.19692 3.20431 9.15237 3.24796C9.10781 3.29161 9.08278 3.35081 9.08278 3.41254C9.08381 3.47407 9.10868 3.53291 9.15235 3.57714C9.40204 3.85623 9.66382 4.12561 9.91791 4.40039C10.1899 4.69483 10.4563 4.99439 10.7052 5.30796C10.7783 5.40143 10.8504 5.49653 10.92 5.59297C10.6249 5.30311 10.3499 4.9925 10.076 4.68513C9.84531 4.42598 9.61267 4.16818 9.36546 3.92357C9.11212 3.67123 8.83774 3.44001 8.54519 3.23232C8.49019 3.19272 8.43217 3.1542 8.3747 3.11649C8.30017 3.06719 8.191 3.07338 8.11593 3.11649C8.06774 3.14499 8.03033 3.18809 8.00935 3.23926C7.98836 3.29043 7.98495 3.34691 7.99962 3.40015C8.04261 3.5532 8.09778 3.70272 8.16461 3.84733C8.17432 3.86889 8.18431 3.89044 8.19458 3.91199C8.09751 3.83952 7.99687 3.7711 7.8921 3.70779C7.8316 3.67116 7.7689 3.63937 7.70593 3.60758C7.67323 3.58898 7.63662 3.57796 7.5989 3.57538C7.56118 3.5728 7.52336 3.57872 7.48833 3.59269C7.45331 3.60666 7.42202 3.6283 7.39687 3.65596C7.37172 3.68362 7.35337 3.71655 7.34323 3.75224C7.34048 3.77352 7.33718 3.79507 7.33443 3.81663C7.33441 3.85953 7.34608 3.90166 7.36825 3.93866C7.41903 4.04067 7.47311 4.14079 7.53049 4.23903C7.4612 4.18703 7.39108 4.13639 7.31931 4.0879C7.27593 4.06371 7.22564 4.05418 7.17619 4.06076C7.12673 4.06735 7.08086 4.08968 7.04565 4.12433C7.01044 4.15898 6.98784 4.20402 6.98134 4.25249C6.97484 4.30097 6.98479 4.35019 7.00967 4.39258L7.0446 4.44915L7.03745 4.45346C6.98096 4.43958 6.92117 4.44791 6.87086 4.47665C6.82055 4.5054 6.78372 4.55228 6.76824 4.60728C6.76576 4.62667 6.76301 4.6458 6.76026 4.6652C6.76026 4.66735 6.76026 4.66978 6.76026 4.67193L6.74569 4.67947C6.6981 4.70689 6.66321 4.7513 6.64834 4.80339C6.63383 4.85742 6.64153 4.91488 6.66979 4.96341L6.68327 4.98765L6.67419 4.98065L6.63212 4.94859C6.60046 4.9305 6.56449 4.9209 6.52784 4.92077C6.49119 4.92063 6.45515 4.92997 6.42335 4.94784C6.39156 4.96571 6.36514 4.99148 6.34675 5.02254C6.32837 5.0536 6.31867 5.08887 6.31864 5.12477L6.32606 5.17865C6.33567 5.21269 6.35415 5.24369 6.37968 5.26862L6.38133 5.27051L6.4245 5.326C6.39938 5.32932 6.37518 5.33747 6.35328 5.34998C6.30929 5.37527 6.27704 5.41632 6.26336 5.46447C6.25603 5.48906 6.25397 5.51488 6.25733 5.54029C6.26069 5.5657 6.2694 5.59015 6.28289 5.61209C6.29994 5.63499 6.31699 5.65762 6.33486 5.67971L6.41131 5.79204C6.38891 5.79802 6.36771 5.80768 6.34861 5.8206C6.34314 5.77927 6.32461 5.74066 6.29562 5.71017C6.26662 5.67969 6.22861 5.65885 6.18692 5.65059C6.14522 5.64234 6.10194 5.64707 6.06313 5.66413C6.02432 5.68118 5.99193 5.70971 5.97051 5.74571C5.89819 5.86546 5.84269 5.99422 5.80552 6.12851C5.78823 6.19728 5.77573 6.26712 5.76812 6.33755C5.76168 6.39065 5.75902 6.44412 5.76014 6.49757C5.75116 6.52056 5.74199 6.54355 5.73264 6.56653C5.71798 6.5994 5.70313 6.63218 5.6881 6.66486C5.64237 6.68558 5.60325 6.71807 5.57492 6.75888C5.54659 6.79968 5.5301 6.84726 5.52723 6.89653C5.50963 6.98058 5.48296 7.06517 5.50688 7.1503C5.52606 7.21813 5.57129 7.27605 5.6331 7.31193C5.67482 7.33581 5.72228 7.34837 5.77059 7.3483C5.81956 7.34901 5.86779 7.33652 5.91001 7.3122C5.95113 7.28712 5.98599 7.25334 6.01203 7.21333C6.01808 7.21926 6.02385 7.22519 6.03018 7.23084C6.05889 7.25878 6.09216 7.28182 6.12862 7.299C6.17522 7.32245 6.22693 7.33447 6.27931 7.33402C6.33373 7.3331 6.38668 7.31662 6.43165 7.28661C6.45288 7.27253 6.4726 7.25637 6.4905 7.23839C6.51022 7.21677 6.52772 7.19331 6.54275 7.16835C6.56903 7.12198 6.58812 7.07205 6.5994 7.02018C6.61301 6.9588 6.62074 6.8963 6.62249 6.8335C6.62249 6.82649 6.62249 6.81949 6.62249 6.81249L6.67749 6.81868C6.69976 6.8218 6.7218 6.8263 6.74349 6.83215C6.77504 6.8407 6.80834 6.84089 6.83999 6.83271C6.87164 6.82454 6.90051 6.80828 6.92366 6.78561C6.94681 6.76293 6.9634 6.73464 6.97175 6.70364C6.98009 6.67263 6.9799 6.64001 6.97117 6.6091C6.96237 6.58827 6.95394 6.56725 6.94588 6.54606C6.96249 6.5503 6.97958 6.55247 6.99675 6.55253C7.03213 6.55253 7.06688 6.54338 7.09749 6.526C7.12811 6.50863 7.1535 6.48365 7.1711 6.45359C7.18871 6.42352 7.1979 6.38944 7.19775 6.35478C7.1976 6.32013 7.18812 6.28612 7.17026 6.2562C7.22009 6.25026 7.26645 6.22817 7.30198 6.19343L7.31216 6.18266C7.35029 6.21858 7.38878 6.25449 7.42765 6.29041C7.49035 6.34725 7.55524 6.39951 7.62316 6.45043C7.66642 6.47515 7.71678 6.48524 7.76647 6.47916C7.81616 6.47307 7.86243 6.45114 7.89815 6.41675C7.93512 6.44814 7.98116 6.46745 8.02986 6.47199C8.07855 6.47652 8.12749 6.46607 8.16983 6.44208C8.18762 6.4319 8.2039 6.4194 8.21823 6.4049L8.23748 6.42645C8.39147 6.59832 8.54353 6.77235 8.70028 6.94206C8.72488 6.96654 8.75426 6.98593 8.78667 6.99907C8.81907 7.01221 8.85385 7.01884 8.88892 7.01857C8.92223 7.01855 8.95524 7.01242 8.98626 7.00052C9.05061 7.05673 9.11605 7.11177 9.1826 7.16565C9.30359 7.26344 9.42761 7.35988 9.55768 7.44582C9.60392 7.4722 9.65777 7.48285 9.71084 7.47613C9.76391 7.46941 9.81322 7.44568 9.85109 7.40864C9.87539 7.38452 9.89421 7.35563 9.90629 7.32387C9.91838 7.29211 9.92346 7.2582 9.92121 7.22438C9.97004 7.2591 10.0296 7.27632 10.0898 7.27313C10.1501 7.26994 10.2074 7.24654 10.2521 7.20686C10.2968 7.16719 10.3263 7.11365 10.3355 7.05523C10.3447 6.99681 10.3331 6.93706 10.3026 6.88603L10.2842 6.85747C10.3868 6.9435 10.4928 7.02584 10.6021 7.1045C10.6392 7.13144 10.6769 7.15676 10.7148 7.18209C10.772 7.21491 10.8387 7.22822 10.9044 7.21993C10.9702 7.21165 11.0312 7.18223 11.0781 7.13629C11.1243 7.09003 11.1539 7.03028 11.1624 6.96607C11.1709 6.90186 11.1578 6.83669 11.1251 6.78043C11.0976 6.73059 11.0632 6.68453 11.0308 6.63765C10.9942 6.58378 10.9576 6.53205 10.9208 6.48006C10.8383 6.36557 10.7514 6.25378 10.6634 6.14333C10.5534 6.00405 10.436 5.86855 10.3175 5.7352C10.388 5.81189 10.4597 5.88759 10.5325 5.9623C10.7818 6.21828 11.0533 6.45263 11.344 6.66271C11.4378 6.73041 11.5347 6.79381 11.6346 6.85289C11.6772 6.87714 11.7256 6.88992 11.7749 6.88992C11.8241 6.88992 11.8725 6.87714 11.9151 6.85289C12.0193 6.79309 12.0801 6.66109 12.0427 6.54552C12.0199 6.47602 11.9907 6.4084 11.9602 6.34106C11.9978 6.36961 12.0357 6.39781 12.0741 6.42564C12.3401 6.62172 12.6339 6.77864 12.9463 6.89142C12.9992 6.90588 13.0554 6.90271 13.1063 6.88243C13.1571 6.86214 13.1996 6.82588 13.2271 6.77935C13.2493 6.74208 13.261 6.69968 13.2609 6.65651C13.2581 6.63496 13.2551 6.61341 13.2521 6.59186C13.2407 6.55114 13.2187 6.51402 13.1883 6.4841L13.1352 6.42107L13.1943 6.45878C13.3856 6.57774 13.5889 6.67704 13.801 6.75511C13.8464 6.76731 13.8944 6.76731 13.9398 6.75511C13.9836 6.74337 14.0234 6.72062 14.0553 6.68911C14.0823 6.66238 14.1029 6.63019 14.1158 6.59482C14.3081 6.73207 14.5115 6.85387 14.7238 6.95903C14.7618 6.98076 14.8044 6.99366 14.8482 6.99671C14.8921 6.99977 14.9361 6.99292 14.9768 6.97667C15.0176 6.96043 15.054 6.93523 15.0832 6.90303C15.1124 6.87082 15.1337 6.83247 15.1454 6.79093C15.1559 6.75499 15.1587 6.71731 15.1538 6.68024C15.1488 6.64317 15.1361 6.60749 15.1165 6.57542C15.103 6.55684 15.089 6.53906 15.075 6.52155C14.9669 6.37958 14.8599 6.2368 14.7499 6.09645L14.8049 6.14629C14.8506 6.18688 14.8964 6.22729 14.9424 6.26751C15.0568 6.39646 15.1712 6.52541 15.2856 6.65435C15.3494 6.72628 15.4132 6.79875 15.4781 6.86986C15.5106 6.90245 15.5524 6.92466 15.5981 6.9336C15.6437 6.94254 15.691 6.93779 15.7338 6.91997C15.7698 6.93711 15.8102 6.94287 15.8497 6.93645C15.8891 6.93003 15.9255 6.91175 15.9538 6.88414C15.9717 6.86663 15.9859 6.84584 15.9955 6.82296C16.0052 6.80008 16.0102 6.77556 16.0102 6.7508C16.0077 6.73409 16.0055 6.71739 16.0033 6.70069C15.9944 6.66921 15.9774 6.64053 15.9538 6.61745L15.9439 6.60506C15.827 6.45474 15.7146 6.30092 15.5983 6.15033C15.4729 5.9887 15.3455 5.82706 15.2149 5.66759C14.9546 5.35079 14.6835 5.04306 14.4015 4.7444L14.3823 4.72392C14.1828 4.49113 13.9688 4.27062 13.7416 4.06365C13.7073 4.03276 13.6725 4.00223 13.6373 3.97206C13.3059 3.65347 12.9646 3.34529 12.6133 3.04752C12.4401 2.90071 12.2668 2.7512 12.0823 2.61893C12.0729 2.61342 12.0625 2.60981 12.0516 2.60829C12.0408 2.60678 12.0298 2.60739 12.0192 2.6101C12.0086 2.61281 11.9986 2.61755 11.9899 2.62407C11.9812 2.63058 11.9739 2.63872 11.9685 2.64802C11.9586 2.66505 11.9552 2.68495 11.9588 2.70422C11.9624 2.72349 11.9728 2.74088 11.9883 2.75335C12.0952 2.85464 12.2083 2.95108 12.3182 3.04968C12.2002 2.96329 12.0801 2.87978 11.958 2.79915C11.8277 2.7133 11.6946 2.63168 11.5587 2.55427C11.4259 2.47831 11.2904 2.40476 11.1523 2.33876C11.1139 2.31677 11.0703 2.30524 11.0258 2.30536C10.9593 2.30543 10.8955 2.33129 10.8485 2.37729L10.846 2.37271ZM9.1243 4.4047C9.36959 4.65954 9.6014 4.92731 9.83266 5.19347C9.93413 5.31038 10.0359 5.42756 10.139 5.54367C9.79966 5.17272 9.44823 4.81174 9.1353 4.41871L9.12458 4.40497L9.1243 4.4047ZM6.28124 6.52424C6.29499 6.47629 6.30681 6.42753 6.31671 6.3785C6.33239 6.3098 6.34251 6.23999 6.34696 6.16973C6.34696 6.16649 6.34696 6.16299 6.34696 6.15976L6.36703 6.18293C6.40629 6.24198 6.44024 6.30427 6.4685 6.36907C6.48033 6.39763 6.49188 6.42645 6.50343 6.45528L6.48528 6.45097C6.4398 6.43902 6.39135 6.44522 6.35054 6.46821C6.32414 6.48327 6.30224 6.50485 6.28704 6.53081C6.27184 6.55676 6.26386 6.58618 6.26391 6.6161C6.26391 6.65004 6.26556 6.68345 6.26391 6.71739C6.26227 6.75134 6.25649 6.78366 6.25182 6.81653L6.25732 6.77477C6.25264 6.80925 6.24714 6.844 6.23972 6.87822C6.23147 6.86367 6.22377 6.84894 6.21662 6.83404C6.20947 6.81608 6.20287 6.79731 6.19682 6.77773C6.22762 6.69422 6.25594 6.60964 6.28069 6.5237L6.28124 6.52424ZM5.52476 6.92967V6.93317V6.92967Z" fill="#2C2C2C"/>
<path d="M5.89454 3.14178C5.86704 3.15498 5.83734 3.16872 5.80847 3.18165C5.74622 3.20466 5.68598 3.23259 5.62835 3.26516C5.57171 3.2956 5.51644 3.32766 5.46171 3.36187C5.3369 3.44161 5.21648 3.52776 5.10093 3.61994C4.89686 3.78147 4.71126 3.96419 4.54739 4.16491C4.37142 4.37372 4.22073 4.60179 4.09834 4.84458C4.03736 4.96784 3.98499 5.09501 3.9416 5.22522C3.89881 5.3597 3.87051 5.49821 3.85718 5.63846C3.85717 5.69912 3.87747 5.75812 3.91497 5.80639C3.95248 5.85466 4.0051 5.88954 4.06479 5.9057C4.11403 5.91885 4.16597 5.91885 4.21521 5.9057C4.28561 5.88508 4.34574 5.8397 4.38405 5.77828C4.4055 5.74756 4.4264 5.71632 4.44592 5.68453C4.4575 5.66505 4.46806 5.645 4.47754 5.62446C4.48814 5.60449 4.50009 5.58523 4.51329 5.56681C4.55894 5.49677 4.60294 5.42565 4.64556 5.35372C4.73548 5.20259 4.81962 5.04823 4.90239 4.89334C4.95492 4.79501 5.00689 4.69641 5.05996 4.59863C5.07735 4.62031 5.10019 4.6372 5.12623 4.64766C5.09131 4.7449 5.05969 4.8435 5.03301 4.94398C4.99087 5.09874 4.96516 5.25736 4.95629 5.4173C4.95006 5.56771 4.96977 5.71807 5.01459 5.86206C5.03944 5.94297 5.07023 6.02201 5.10671 6.09858C5.13548 6.15924 5.17411 6.21492 5.2211 6.26344C5.26933 6.31133 5.3291 6.34653 5.39489 6.36581C5.46372 6.38446 5.53643 6.38446 5.60525 6.36581C5.64979 6.35401 5.69252 6.33644 5.7323 6.31355C5.62835 6.51559 5.51561 6.71332 5.41084 6.91455C5.37612 6.97408 5.36627 7.04445 5.38334 7.11094C5.40129 7.17403 5.44321 7.22801 5.50049 7.26179C5.46565 7.33363 5.43192 7.40601 5.39929 7.47892C5.37179 7.54276 5.34429 7.60715 5.3168 7.67153C5.28994 7.73052 5.2668 7.79107 5.2475 7.85283C5.24219 7.87162 5.23933 7.89099 5.23898 7.91048C5.15373 8.02443 5.06711 8.1373 4.98324 8.25233C4.95657 8.29706 4.94577 8.34917 4.95254 8.40054C4.95931 8.45191 4.98325 8.49964 5.02064 8.53627C5.06578 8.57967 5.1265 8.60399 5.18975 8.60399C5.253 8.60399 5.31373 8.57967 5.35887 8.53627C5.41386 8.48239 5.47464 8.43228 5.53321 8.38164L5.54503 8.3714H5.56318C5.61488 8.3714 5.68363 8.35066 5.7169 8.3089C5.79023 8.21659 5.86438 8.12446 5.93936 8.03251L6.10243 7.89216C6.35734 7.6718 6.60922 7.44821 6.85286 7.21627C7.09017 6.99079 7.31786 6.75561 7.53152 6.50832C7.64371 6.3782 7.75151 6.24405 7.85435 6.1072C7.9055 6.03931 7.955 5.97035 8.00312 5.90058C8.04354 5.84239 8.08177 5.78286 8.12246 5.72494C8.13209 5.71362 8.14116 5.70204 8.14996 5.68992C8.16457 5.67097 8.17539 5.64949 8.18186 5.62661C8.19271 5.59033 8.19218 5.55169 8.18033 5.5157C8.16849 5.47972 8.14587 5.44805 8.11543 5.42482C8.08498 5.40159 8.04811 5.38785 8.00959 5.38541C7.97108 5.38296 7.93271 5.39191 7.89945 5.4111C7.89153 5.38538 7.87712 5.36203 7.85757 5.34319C7.83801 5.32436 7.81392 5.31066 7.78753 5.30334C7.74579 5.29255 7.7014 5.29821 7.66387 5.31911C7.62635 5.34001 7.59867 5.37448 7.58679 5.41514C7.57799 5.44558 7.56782 5.47548 7.55655 5.50485C7.5306 5.5588 7.49948 5.61022 7.4636 5.6584L7.44463 5.68049C7.46699 5.63451 7.48908 5.58827 7.5109 5.54175C7.53014 5.50957 7.54021 5.47291 7.54005 5.43561C7.54005 5.37989 7.51745 5.32644 7.47722 5.28704C7.437 5.24763 7.38244 5.22549 7.32556 5.22549C7.29735 5.22514 7.26936 5.23042 7.24331 5.24103C7.21725 5.25164 7.19368 5.26734 7.17404 5.28718C7.10172 5.37177 7.03407 5.4604 6.96588 5.54849C6.97743 5.52281 6.98879 5.49704 6.99998 5.47117C7.02315 5.4323 7.03544 5.38812 7.03561 5.3431C7.03579 5.29808 7.02383 5.25381 7.00096 5.21476C6.97809 5.17572 6.94511 5.14327 6.90534 5.1207C6.86558 5.09813 6.82044 5.08624 6.77449 5.08622C6.74017 5.08586 6.70613 5.09231 6.67442 5.10518C6.6427 5.11805 6.61398 5.13708 6.58997 5.16111C6.51353 5.24677 6.44121 5.33621 6.37246 5.4278C6.33491 5.40631 6.29221 5.39498 6.24872 5.39498C6.20523 5.39498 6.16252 5.40631 6.12498 5.4278C6.00716 5.50504 5.89378 5.58858 5.78537 5.67806C5.7092 5.74002 5.63605 5.80575 5.55878 5.86664C5.54723 5.87499 5.53541 5.88307 5.52331 5.89088C5.51671 5.87876 5.51066 5.86663 5.50489 5.85424C5.42567 5.68214 5.40059 5.49082 5.43284 5.30469C5.47354 5.04419 5.56291 4.79286 5.66575 4.55041C5.83275 4.17981 6.02124 3.81887 6.23029 3.46935C6.25707 3.42346 6.26781 3.37024 6.26086 3.31782C6.25391 3.26539 6.22966 3.21663 6.1918 3.17895C6.16183 3.14958 6.12459 3.12832 6.08373 3.11726L6.01883 3.10864C5.97544 3.10853 5.93282 3.11979 5.89536 3.14124" fill="#2C2C2C"/>
<path d="M8.64607 2.47476C8.60072 2.50125 8.56781 2.54414 8.55444 2.59418C8.54106 2.64421 8.54829 2.6974 8.57457 2.74226C8.59767 2.77926 8.62132 2.81589 8.64552 2.85217L8.64359 2.85056C8.61291 2.82085 8.57482 2.79951 8.53312 2.78867C8.49142 2.77782 8.44755 2.77785 8.40586 2.78874C8.36417 2.79963 8.32612 2.82101 8.29546 2.85075C8.26481 2.8805 8.24263 2.91758 8.23112 2.95831C8.22205 2.98936 8.21959 3.02191 8.22389 3.05393C8.2282 3.08595 8.23917 3.11677 8.25614 3.14446C8.47613 3.45695 8.71316 3.7557 8.96202 4.04529L8.959 4.0531L8.90675 4.03047C8.81753 3.99186 8.72564 3.95945 8.63177 3.93349C8.55747 3.91382 8.48197 3.8988 8.40573 3.88851C8.31217 3.87414 8.21741 3.86864 8.12277 3.87207C8.05193 3.87306 7.98416 3.90052 7.93331 3.94885C7.88347 3.99833 7.85534 4.06494 7.85494 4.13446C7.85032 4.44467 7.8711 4.75474 7.91709 5.06169C7.94296 5.24324 7.97969 5.42314 8.02708 5.60047L8.01608 5.60639C7.9816 5.62595 7.95274 5.65376 7.93221 5.68721C7.91125 5.72226 7.90024 5.76216 7.90031 5.80278C7.89426 5.86447 7.89096 5.92642 7.88986 5.98838C7.88876 6.05034 7.88629 6.11176 7.88986 6.17264C7.89889 6.29809 7.92831 6.42132 7.97703 6.53766C8.02093 6.64879 8.07975 6.7537 8.15192 6.84962C8.22455 6.9458 8.30814 7.03356 8.40106 7.11119C8.58713 7.26008 8.79376 7.38242 9.01482 7.4746C9.14131 7.52847 9.26946 7.57939 9.3998 7.62357L9.47432 7.64835C9.60915 7.73198 9.75047 7.80512 9.89697 7.86709C10.0948 7.95199 10.2993 8.021 10.5085 8.07344C10.7438 8.12996 10.9837 8.16602 11.2254 8.1812C11.2826 8.18134 11.3387 8.16645 11.3879 8.1381C11.4376 8.10946 11.4786 8.06836 11.5067 8.01903C11.5414 8.03253 11.5788 8.03816 11.616 8.0355C11.6533 8.03284 11.6894 8.02196 11.7218 8.00367C11.7564 7.98342 11.7855 7.95534 11.8068 7.92178C11.828 7.88822 11.8407 7.85016 11.8439 7.81079C11.9327 7.87094 12.0257 7.92495 12.1221 7.97242C12.1553 7.99146 12.193 8.0015 12.2314 8.0015C12.2699 8.0015 12.3076 7.99146 12.3408 7.97242C12.3808 7.94927 12.4123 7.91416 12.4306 7.87224C12.4488 7.83031 12.4529 7.78377 12.4422 7.7394C12.5613 7.84435 12.6902 7.93806 12.8272 8.0193C12.8644 8.04054 12.9072 8.05046 12.9501 8.04778C12.9931 8.04511 13.0343 8.02996 13.0684 8.00426C13.1025 7.97857 13.1281 7.9435 13.1418 7.90352C13.1555 7.86355 13.1567 7.82048 13.1454 7.77981C13.1397 7.76185 13.1337 7.74443 13.1275 7.72755L13.1349 7.73375C13.1624 7.7608 13.1973 7.7795 13.2354 7.78759C13.2735 7.79569 13.3132 7.79283 13.3496 7.77938C13.3861 7.76592 13.4178 7.74243 13.441 7.71173C13.4642 7.68103 13.4778 7.64443 13.4803 7.60633C13.5649 7.66664 13.6553 7.71861 13.7503 7.76149C13.7782 7.7774 13.8098 7.78578 13.842 7.78578C13.8743 7.78578 13.9059 7.7774 13.9337 7.76149C13.9607 7.74602 13.9833 7.72404 13.9992 7.69765C14.0057 7.68654 14.011 7.6748 14.0151 7.66263C14.0276 7.69554 14.0472 7.72542 14.0726 7.75018L14.1232 7.78843C14.1614 7.81029 14.2049 7.82182 14.2491 7.82184C14.2882 7.8248 14.3267 7.82696 14.3657 7.82696C14.4233 7.82558 14.4808 7.82018 14.5376 7.81079C14.6281 7.79676 14.7174 7.77678 14.8052 7.75099C14.8354 7.74283 14.8637 7.72891 14.8884 7.71003C14.9132 7.69115 14.9339 7.66768 14.9493 7.64096C14.9648 7.61424 14.9748 7.5848 14.9786 7.55431C14.9825 7.52382 14.9802 7.49289 14.9718 7.46328C14.9614 7.42757 14.9431 7.39455 14.9182 7.36657C14.9243 7.36169 14.9302 7.35647 14.9358 7.35095C14.9637 7.32371 14.9839 7.28982 14.9943 7.25262L14.9957 7.24265C15.0249 7.26061 15.0544 7.27713 15.0843 7.29222C15.1573 7.32978 15.233 7.36211 15.3109 7.38893C15.3446 7.3983 15.3802 7.39862 15.4141 7.38985C15.4479 7.38109 15.4788 7.36355 15.5033 7.33909C15.5275 7.31531 15.5451 7.2858 15.5542 7.25343C15.5615 7.22853 15.5635 7.20244 15.56 7.17676C15.5566 7.15108 15.5478 7.12638 15.5341 7.10419C15.4529 6.98943 15.3693 6.87646 15.2834 6.7653C15.3982 6.84645 15.5214 6.91552 15.651 6.97138C15.6802 6.98806 15.7134 6.99685 15.7473 6.99685C15.7811 6.99685 15.8143 6.98806 15.8435 6.97138C15.8797 6.95038 15.9078 6.91838 15.9236 6.88024C15.9395 6.8421 15.9421 6.79994 15.9312 6.76018C15.8476 6.50509 15.7488 6.25503 15.6353 6.01128C15.5932 5.91897 15.5491 5.82756 15.5031 5.73705C15.5053 5.7116 15.5019 5.68599 15.4933 5.66189C15.4847 5.6378 15.471 5.61576 15.453 5.59723L15.398 5.53985C15.3482 5.4488 15.2963 5.359 15.2424 5.27047C15.0938 5.02494 14.9275 4.79015 14.7447 4.5679C14.5723 4.35558 14.3748 4.16397 14.1565 3.99707C14.1267 3.97956 14.0927 3.97026 14.058 3.97013C14.0153 3.97011 13.9738 3.98383 13.9398 4.00919C13.9058 4.03454 13.8813 4.07013 13.8699 4.11048C13.8569 4.16015 13.8639 4.21283 13.8895 4.25757L13.8958 4.26969C13.8775 4.26287 13.8591 4.2564 13.8408 4.25029C13.8148 4.24289 13.7873 4.24241 13.7611 4.2489C13.7349 4.25538 13.711 4.26861 13.6918 4.2872C13.6681 4.31065 13.6529 4.34106 13.6486 4.37376C13.6443 4.40646 13.651 4.43965 13.6678 4.46823C13.7076 4.5336 13.7492 4.5978 13.7927 4.66084C13.7605 4.64953 13.7283 4.63956 13.6956 4.6304C13.5663 4.59266 13.4295 4.58637 13.2971 4.61208C13.2319 4.62772 13.17 4.65453 13.1143 4.69128C13.0745 4.71683 13.037 4.74557 13.0021 4.77722C12.9659 4.81177 12.9338 4.85017 12.9064 4.89171C12.8826 4.92849 12.8631 4.96781 12.8484 5.00889C12.8373 5.036 12.8287 5.06405 12.8228 5.09267C12.8062 5.17286 12.8017 5.25501 12.8096 5.33647C12.8182 5.42119 12.8331 5.50519 12.8541 5.58781C12.514 5.30683 12.1942 5.00243 11.8692 4.70529C11.4528 4.32465 11.0206 3.951 10.5327 3.66033C10.5014 3.64222 10.4664 3.63101 10.4301 3.62748C10.3939 3.62394 10.3573 3.62817 10.3229 3.63986L10.258 3.59002C10.1792 3.53022 10.0992 3.4723 10.018 3.41627C9.96792 3.36509 9.91759 3.31444 9.8692 3.26191C9.85136 3.23815 9.83218 3.2154 9.81173 3.19376C9.79887 3.18072 9.7826 3.1714 9.7647 3.16682C9.75091 3.16318 9.73651 3.16226 9.72235 3.16411C9.70819 3.16596 9.69455 3.17054 9.68221 3.17759C9.67416 3.18219 9.66677 3.18781 9.66021 3.19429C9.60045 3.16143 9.53967 3.13018 9.4779 3.10055C9.4185 3.03805 9.35864 2.97582 9.29833 2.91386C9.16359 2.7754 9.02335 2.64151 8.88833 2.50466C8.86986 2.48647 8.84787 2.47208 8.82364 2.46232C8.79942 2.45256 8.77345 2.44763 8.74726 2.44782C8.71187 2.4479 8.67714 2.4572 8.64662 2.47476H8.64607ZM8.40518 4.39738C8.48456 4.41377 8.56224 4.43721 8.63727 4.46742C8.81735 4.54874 8.98746 4.64978 9.14434 4.7686C9.57084 5.09725 9.93409 5.49917 10.2927 5.89598C10.417 6.03364 10.5402 6.17237 10.6658 6.30895C10.6601 6.31165 10.6543 6.31461 10.6485 6.31811C10.5957 6.3486 10.557 6.39793 10.5404 6.45577C10.5289 6.4975 10.5289 6.54146 10.5404 6.58319C10.4937 6.54871 10.4456 6.51558 10.3955 6.4846C10.3654 6.4674 10.3317 6.45721 10.297 6.45481C10.2623 6.4524 10.2274 6.45786 10.1952 6.47075C10.163 6.48364 10.1342 6.50361 10.1111 6.52914C10.088 6.55466 10.0712 6.58504 10.062 6.61794C10.0535 6.64646 10.0512 6.67637 10.0551 6.70581C10.0591 6.73524 10.0692 6.76357 10.0848 6.789C10.1172 6.8348 10.15 6.88033 10.1824 6.92585C10.1936 6.9413 10.2045 6.95692 10.2151 6.97273C10.1631 6.93878 10.1115 6.90412 10.0603 6.86874C9.8021 6.69068 9.55379 6.49887 9.30355 6.31003C9.11959 6.17076 8.9348 6.03229 8.74369 5.90299C8.73617 5.88682 8.72875 5.87048 8.72141 5.85396C8.58613 5.52015 8.49295 5.1714 8.44395 4.81547C8.42608 4.67647 8.41316 4.53692 8.40408 4.39738H8.40518ZM13.5246 5.01455C13.6101 5.03024 13.6936 5.05462 13.774 5.08728C13.829 5.11126 13.884 5.13739 13.939 5.1654C13.9261 5.16935 13.9138 5.17469 13.9021 5.1813C13.8608 5.20516 13.8305 5.24379 13.8177 5.28905C13.8055 5.33594 13.8122 5.38561 13.8364 5.42779C13.9643 5.66875 14.1139 5.89809 14.2832 6.11311C14.2535 6.08581 14.2238 6.05887 14.1939 6.03229C14.1663 6.00528 14.132 5.98581 14.0944 5.97584C14.0568 5.96588 14.0172 5.96575 13.9795 5.97549C13.9418 5.98522 13.9074 6.00447 13.8797 6.03132C13.8519 6.05816 13.8319 6.09166 13.8215 6.12846C13.8196 6.13548 13.8181 6.14258 13.8169 6.14975C13.7872 6.11958 13.7571 6.08967 13.7267 6.06004C13.6758 6.00993 13.6274 5.95767 13.5765 5.90757C13.558 5.88957 13.5358 5.87561 13.5114 5.86661C13.487 5.8576 13.4609 5.85375 13.4349 5.85531C13.4209 5.80816 13.4058 5.76156 13.3904 5.71496C13.3453 5.57838 13.2955 5.4426 13.271 5.30091C13.2671 5.26206 13.2663 5.22296 13.2688 5.18399C13.2727 5.16514 13.2776 5.14652 13.2837 5.12823C13.2901 5.11637 13.297 5.10488 13.3043 5.09375C13.3177 5.0791 13.3321 5.06525 13.3472 5.05226C13.3624 5.04186 13.3782 5.03233 13.3945 5.02371C13.4071 5.01967 13.4198 5.01643 13.433 5.01374C13.4637 5.01187 13.4945 5.01232 13.5251 5.01509L13.5246 5.01455ZM14.3968 5.44449C14.4722 5.49594 14.5467 5.54901 14.6204 5.60289C14.6866 5.65111 14.7513 5.70229 14.8208 5.74594C14.8466 5.76133 14.8762 5.76945 14.9064 5.76937C14.9515 5.76936 14.9948 5.75183 15.0268 5.72061C15.033 5.7146 15.0387 5.70811 15.0438 5.70122L15.046 5.70337C15.1662 5.91888 15.2746 6.14247 15.373 6.36822L15.3785 6.38115C15.021 6.10045 14.7276 5.75375 14.3968 5.44557V5.44449ZM12.5167 6.15029C12.5535 6.11419 12.5779 6.06778 12.5866 6.01748C12.6233 6.04693 12.6599 6.07611 12.6966 6.10503C12.6683 6.14089 12.6534 6.18521 12.6545 6.23054C12.6556 6.27586 12.6726 6.31944 12.7026 6.35394H12.6955C12.6504 6.3422 12.603 6.3422 12.558 6.35394C12.5166 6.30437 12.4754 6.25472 12.4345 6.20497C12.4655 6.19274 12.4936 6.1744 12.517 6.15109L12.5167 6.15029ZM11.9033 6.52096L11.909 6.47894L11.9288 6.50749C11.958 6.54952 11.9868 6.59235 12.0146 6.63545C12.0194 6.65657 12.0274 6.67684 12.0385 6.69553C12.0538 6.72103 12.0692 6.74644 12.0847 6.77176C12.0198 6.70199 11.9541 6.63276 11.8865 6.56541C11.8933 6.55108 11.8989 6.53621 11.9033 6.52096Z" fill="#2C2C2C"/>
<path d="M3.85497 9.69576C3.7775 9.70048 3.70172 9.72007 3.63195 9.7534C3.58273 9.77717 3.53793 9.80886 3.49941 9.84715C3.45779 9.88725 3.42173 9.93253 3.39217 9.98185C3.33605 10.0756 3.29653 10.178 3.2753 10.2846C3.2203 10.5376 3.22608 10.7992 3.2511 11.0554C3.26678 11.217 3.2896 11.3786 3.31462 11.5403C3.33551 11.6808 3.36387 11.8202 3.39959 11.9578C3.47364 12.2445 3.57825 12.5228 3.7117 12.7881C3.77824 12.9152 3.85953 13.0345 3.95396 13.1434C3.98494 13.1799 4.01897 13.2139 4.05571 13.2449C4.11296 13.2955 4.17545 13.3401 4.24214 13.378C4.30592 13.4131 4.3739 13.4402 4.44453 13.4588C4.51381 13.4774 4.58566 13.4849 4.65737 13.4812C4.70958 13.4778 4.76144 13.4705 4.81246 13.4591C4.86296 13.4443 4.91208 13.4252 4.9593 13.4023C5.02493 13.37 5.0852 13.3283 5.13804 13.2783C5.16386 13.2555 5.18768 13.2305 5.20926 13.2037C5.25609 13.1496 5.29839 13.0918 5.33576 13.031C5.37624 12.9619 5.3925 12.8817 5.38208 12.8027C5.37165 12.7236 5.3351 12.6501 5.27801 12.5933C5.14052 12.4586 4.89303 12.4489 4.75554 12.5933C4.73052 12.6202 4.70494 12.6453 4.67744 12.6693L4.66232 12.6784L4.64995 12.6706C4.59619 12.6232 4.54652 12.5714 4.50145 12.516C4.36858 12.336 4.25661 12.1421 4.16762 11.9379C4.03013 11.6089 3.91436 11.2684 3.86157 10.9158C3.83773 10.7416 3.83413 10.5653 3.85084 10.3902C3.85863 10.3414 3.87068 10.2932 3.88687 10.2464C3.89182 10.2367 3.89732 10.2273 3.90309 10.2181H3.91216C3.9354 10.2233 3.95827 10.23 3.98063 10.238C4.04949 10.271 4.11488 10.3106 4.17587 10.356C4.43078 10.5559 4.64335 10.807 4.84381 11.0583C4.88148 11.106 4.9604 11.1294 5.0187 11.1294C5.08434 11.1294 5.14729 11.1039 5.1937 11.0584C5.24011 11.013 5.26619 10.9513 5.26619 10.887C5.26325 10.8656 5.26032 10.8442 5.25739 10.8226C5.24614 10.7819 5.22425 10.7447 5.19386 10.7148C4.94885 10.4061 4.68707 10.1001 4.36039 9.87113C4.26152 9.79887 4.14954 9.74566 4.03041 9.71434C3.98213 9.70224 3.93257 9.69573 3.88274 9.69495C3.87312 9.69495 3.86349 9.69495 3.85524 9.69495" fill="#2C2C2C"/>
<path d="M17.5211 10.6324C17.4028 10.6671 17.2892 10.7158 17.1828 10.7773C17.0677 10.8443 16.9591 10.9215 16.8584 11.0079C16.769 11.0827 16.6862 11.1647 16.6109 11.2531C16.5296 11.3459 16.456 11.445 16.3909 11.5494C16.374 11.5777 16.363 11.609 16.3584 11.6415C16.3539 11.6739 16.3559 11.707 16.3644 11.7387C16.3729 11.7704 16.3877 11.8001 16.4079 11.8263C16.4282 11.8524 16.4534 11.8743 16.4823 11.8909C16.5112 11.9074 16.5431 11.9182 16.5763 11.9226C16.6094 11.9271 16.6432 11.9251 16.6755 11.9168C16.7079 11.9085 16.7383 11.894 16.7649 11.8742C16.7916 11.8544 16.814 11.8296 16.8309 11.8013C16.8585 11.7558 16.8884 11.7119 16.9205 11.6696C17.0083 11.5643 17.1072 11.4684 17.2156 11.3835C17.305 11.318 17.401 11.2616 17.5021 11.2154C17.5649 11.1917 17.6298 11.1736 17.696 11.1615C17.7362 11.1585 17.7767 11.1585 17.817 11.1615C17.8723 11.1686 17.9247 11.19 17.9688 11.2234C17.9995 11.2501 18.0283 11.2788 18.0548 11.3094C18.0817 11.3476 18.1056 11.3879 18.126 11.4298C18.1505 11.4944 18.1689 11.561 18.181 11.6289C18.1911 11.7379 18.1897 11.8477 18.1769 11.9565C18.1488 12.1254 18.1016 12.2909 18.0364 12.4497C17.955 12.6307 17.8536 12.8023 17.7339 12.9615C17.644 13.0722 17.5426 13.1735 17.4314 13.2638C17.3577 13.3168 17.2789 13.3629 17.1963 13.4015C17.1402 13.422 17.0824 13.4378 17.0236 13.4489C16.9278 13.462 16.8301 13.449 16.7412 13.4114C16.6791 13.3818 16.6198 13.3469 16.5639 13.3072C16.538 13.2864 16.5127 13.2646 16.4888 13.242C16.4563 13.2101 16.4177 13.1849 16.3752 13.1676C16.3328 13.1504 16.2873 13.1415 16.2413 13.1415C16.1953 13.1415 16.1498 13.1504 16.1074 13.1676C16.0649 13.1849 16.0263 13.2101 15.9938 13.242C15.9613 13.2738 15.9355 13.3116 15.9179 13.3532C15.9003 13.3948 15.8913 13.4394 15.8913 13.4844C15.8913 13.5295 15.9003 13.574 15.9179 13.6156C15.9355 13.6572 15.9613 13.695 15.9938 13.7269C16.0965 13.8275 16.2118 13.9148 16.337 13.9868C16.4052 14.0229 16.476 14.054 16.5487 14.08C16.5976 14.0982 16.648 14.1122 16.6994 14.1218C16.8211 14.1478 16.9463 14.1545 17.0701 14.1415C17.2222 14.1296 17.3706 14.0897 17.5076 14.024C17.6016 13.9843 17.6907 13.9345 17.7735 13.8756C17.8832 13.7994 17.9858 13.7138 18.0801 13.6199C18.1759 13.5209 18.2641 13.4151 18.3441 13.3034C18.4122 13.2102 18.4736 13.1124 18.5278 13.0108C18.6495 12.7877 18.7398 12.5495 18.7962 12.3026C18.8251 12.1724 18.8435 12.0402 18.8512 11.9072C18.8557 11.7809 18.8471 11.6546 18.8256 11.53C18.8055 11.4127 18.7697 11.2985 18.7192 11.1903C18.668 11.081 18.5996 10.9802 18.5165 10.8916C18.4532 10.8237 18.3802 10.7651 18.2998 10.7175C18.2711 10.7005 18.241 10.6856 18.2099 10.6731C18.1567 10.6491 18.1015 10.6296 18.0449 10.6149C17.9729 10.5981 17.899 10.5897 17.8249 10.5898C17.7226 10.5904 17.6208 10.6047 17.5225 10.6324" fill="#2C2C2C"/>
<path d="M7.26233 6.68485C7.26233 6.72614 7.27483 6.76651 7.29824 6.80084C7.32166 6.83517 7.35494 6.86193 7.39388 6.87773C7.43283 6.89354 7.47568 6.89767 7.51702 6.88961C7.55835 6.88156 7.59633 6.86168 7.62613 6.83248C7.65594 6.80328 7.67623 6.76608 7.68445 6.72558C7.69268 6.68508 7.68846 6.6431 7.67233 6.60495C7.6562 6.56681 7.62888 6.5342 7.59384 6.51126C7.55879 6.48832 7.51759 6.47607 7.47544 6.47607C7.41907 6.47657 7.36516 6.49872 7.3253 6.53777C7.28544 6.57681 7.26283 6.62963 7.26233 6.68485Z" fill="#2C2C2C"/>
<path d="M7.88404 5.56951L7.82904 5.611C7.7959 5.64352 7.77193 5.68389 7.75947 5.72818C7.72045 5.82243 7.68838 5.9193 7.6635 6.01804C7.60497 5.98036 7.53713 5.9589 7.46716 5.95593C7.39719 5.95296 7.32771 5.96861 7.26608 6.0012C7.20445 6.03379 7.15297 6.08211 7.11711 6.14104C7.08125 6.19997 7.06233 6.26731 7.06238 6.33592C7.06432 6.49206 7.08201 6.64762 7.11518 6.80035C7.14102 6.92595 7.17782 7.04916 7.22517 7.1686C7.28054 7.31334 7.34671 7.45389 7.42316 7.58911C7.45698 7.64865 7.49438 7.7063 7.53315 7.7626C7.55075 7.78765 7.56918 7.81217 7.58815 7.83641C7.61308 7.86892 7.63857 7.90106 7.6646 7.93285C7.69722 7.96813 7.73526 7.99822 7.77734 8.02202C7.89008 8.09583 8.05233 8.08721 8.16727 8.02202C8.22401 7.98925 8.27132 7.94291 8.30476 7.88733L8.34381 7.79681C8.36216 7.73094 8.36216 7.66145 8.34381 7.59558C8.34024 7.58453 8.33666 7.57376 8.33281 7.56271C8.32209 7.52581 8.31549 7.48755 8.30779 7.44984C8.29761 7.3992 8.28854 7.34828 8.28029 7.29764C8.26434 7.20712 8.24949 7.11661 8.23629 7.02582C8.19834 6.73515 8.17415 6.44179 8.20659 6.14951C8.22151 6.05385 8.24649 5.95996 8.28111 5.86934C8.30586 5.80604 8.28744 5.72145 8.25362 5.66488C8.21734 5.60418 8.15798 5.56005 8.08854 5.54217C8.0191 5.52429 7.94526 5.53413 7.88321 5.56951" fill="#2C2C2C"/>
<path d="M7.70968 21.7721C7.17754 21.8866 6.65483 22.0397 6.14584 22.2301C5.85742 22.336 5.57481 22.4566 5.29917 22.5913C5.04 22.7201 4.78778 22.8619 4.54351 23.0162C4.01981 23.3493 3.52226 23.7203 3.05502 24.126C2.59565 24.5229 2.15712 24.9423 1.74114 25.3827C1.43811 25.7004 1.14415 26.0263 0.859266 26.3603C0.725348 26.5171 0.595004 26.6766 0.464387 26.8363C0.31672 27.0168 0.167955 27.197 0.0274374 27.3832L-6.10352e-05 27.4212C0.00122223 27.4332 0.00259614 27.4452 0.00406273 27.4573C0.0207137 27.5756 0.0498353 27.6918 0.0909588 27.8042C0.0975584 27.818 0.104707 27.8312 0.111856 27.8452C0.126705 27.8487 0.14183 27.8517 0.156954 27.8546C0.210949 27.8588 0.2652 27.8588 0.319196 27.8546C0.390489 27.8414 0.460497 27.8222 0.528458 27.7972C0.741297 27.5489 0.965959 27.3099 1.18842 27.0699C1.49228 26.7429 1.79641 26.4161 2.10907 26.0969C2.74153 25.4517 3.40535 24.8342 4.12553 24.2839C4.7305 23.8308 5.37836 23.4272 6.07792 23.1304C6.49995 22.9618 6.93234 22.8193 7.37255 22.7037C7.79561 22.591 8.22541 22.5043 8.65948 22.444C9.04561 22.3957 9.43425 22.3692 9.82349 22.3645C9.85212 22.3572 9.8816 22.3534 9.91121 22.3535C9.99821 22.3425 10.0858 22.3371 10.1735 22.3373C10.3147 22.3383 10.4556 22.3495 10.5951 22.3707C10.6413 22.3773 10.6871 22.3853 10.7326 22.3944C10.8917 22.4066 11.0505 22.4226 11.2089 22.4424C12.0669 22.5633 12.9059 22.7896 13.7063 23.1158C14.584 23.4886 15.4114 23.9661 16.1699 24.5374C17.0333 25.2025 17.8102 25.9688 18.4833 26.8191C18.9796 27.4554 19.422 28.1303 19.8062 28.8371L19.8189 28.843C19.8868 28.8683 19.9568 28.8877 20.0282 28.9009C20.078 28.9047 20.1281 28.9047 20.178 28.9009C20.2187 28.893 20.2588 28.8822 20.2979 28.8686C20.3351 28.8505 20.3709 28.8299 20.4052 28.8069C20.4337 28.7826 20.4605 28.7564 20.4855 28.7285C20.5096 28.6936 20.5311 28.6571 20.5498 28.6191C20.5597 28.592 20.5689 28.5651 20.5773 28.5383C20.5258 28.4401 20.4732 28.3425 20.4195 28.2455C19.9149 27.3383 19.3144 26.4857 18.6277 25.7017C17.9601 24.9361 17.204 24.2491 16.3747 23.6543C15.5661 23.0688 14.682 22.5907 13.7453 22.2325C12.8101 21.8727 11.8268 21.6471 10.8258 21.5625C10.5431 21.5378 10.2599 21.5255 9.9761 21.5256C9.21456 21.5279 8.45544 21.6097 7.71161 21.7697" fill="#2C2C2C"/>
<path d="M6.35128 22.1388C6.2729 22.184 6.21544 22.2572 6.19096 22.343C6.18693 22.3733 6.18281 22.4037 6.17859 22.434C6.17847 22.4947 6.19489 22.5543 6.22616 22.6067C6.23249 22.6202 6.23908 22.6337 6.24568 22.6471C6.2829 22.7457 6.32891 22.8409 6.38318 22.9316C6.45047 23.0377 6.52469 23.1395 6.60536 23.2363C6.73559 23.396 6.88404 23.5406 7.04782 23.6673C7.24234 23.8227 7.44954 23.9621 7.66735 24.0843C7.89552 24.2084 8.13189 24.3174 8.37489 24.4105C8.59501 24.4974 8.82093 24.5694 9.05108 24.626C9.53862 24.7403 10.038 24.7992 10.5393 24.8014C10.792 24.7992 11.0442 24.7772 11.2933 24.7357C11.5069 24.7003 11.7165 24.6446 11.9192 24.5695C12.1356 24.4921 12.3424 24.3911 12.5357 24.2683C12.7238 24.1477 12.894 24.0021 13.0414 23.8357C13.1912 23.6646 13.3152 23.4734 13.4096 23.2678C13.4718 23.1345 13.5238 22.9968 13.5652 22.8559C13.5773 22.7898 13.5637 22.7216 13.5271 22.6648C13.4906 22.608 13.4337 22.5666 13.3676 22.5488C13.3015 22.531 13.231 22.5379 13.1699 22.5684C13.1088 22.5988 13.0615 22.6506 13.0373 22.7134C13.0154 22.7888 12.9896 22.8631 12.96 22.9359C12.8986 23.0694 12.8224 23.1958 12.7328 23.3131C12.6344 23.4322 12.523 23.5406 12.4007 23.6363C12.2588 23.7394 12.1058 23.827 11.9445 23.8974C11.7017 23.9907 11.4485 24.0556 11.1902 24.0905C10.9391 24.1202 10.686 24.1293 10.4334 24.1174C10.2617 24.1404 10.0889 24.1544 9.91563 24.1592C9.85814 24.1592 9.80157 24.145 9.75118 24.1179C9.7008 24.0908 9.65823 24.0516 9.62745 24.004C9.53432 23.9827 9.44192 23.9593 9.35026 23.934C9.11136 23.8687 8.87651 23.79 8.64685 23.6983C8.28121 23.545 7.93528 23.3501 7.61621 23.1175C7.39136 22.9448 7.18746 22.7474 7.00849 22.5291C6.97907 22.4912 6.95047 22.4526 6.92187 22.4138L6.86852 22.3411C6.85282 22.3154 6.83957 22.2884 6.82893 22.2603C6.79263 22.1838 6.70051 22.1256 6.62021 22.1032C6.57529 22.0912 6.52838 22.0881 6.48221 22.094C6.43605 22.1 6.39154 22.1148 6.35128 22.1377" fill="#2C2C2C"/>
<path d="M10.2754 21.8317L10.2363 21.8812C10.214 21.9187 10.2022 21.9613 10.2022 22.0046C10.1911 22.116 10.1804 22.2273 10.1703 22.3387H10.172C10.3132 22.3396 10.4541 22.3506 10.5935 22.3718C10.6185 22.3754 10.6432 22.3793 10.6678 22.3837C10.6777 22.2579 10.6886 22.1315 10.7005 22.0044C10.701 21.9722 10.6948 21.9403 10.6822 21.9106C10.6696 21.8809 10.651 21.854 10.6274 21.8317C10.6042 21.809 10.5767 21.791 10.5464 21.7787C10.5162 21.7664 10.4837 21.7601 10.451 21.7601C10.4182 21.7601 10.3858 21.7664 10.3555 21.7787C10.3252 21.791 10.2977 21.809 10.2746 21.8317" fill="#2C2C2C"/>
<path d="M10.5467 24.105C10.3839 24.1242 10.2211 24.1452 10.0575 24.1552C10.0545 24.253 10.0522 24.3509 10.0503 24.4488C10.0331 25.2794 10.0636 26.1104 10.1416 26.9377C10.1675 27.2044 10.2002 27.47 10.2379 27.7353C10.2728 27.9805 10.3124 28.2253 10.369 28.467C10.4004 28.6001 10.5535 28.6771 10.6836 28.6421C10.7479 28.6245 10.8027 28.5832 10.8365 28.5268L10.8623 28.467C10.8746 28.4233 10.8746 28.3773 10.8623 28.3336C10.8623 28.3317 10.8623 28.3299 10.8623 28.3277C10.8296 28.0896 10.7884 27.8528 10.7546 27.6146C10.5978 26.4517 10.5513 25.2766 10.5791 24.1037C10.5687 24.1046 10.5581 24.105 10.5475 24.105" fill="#2C2C2C"/>
<path d="M12.2588 23.0604C12.2588 23.0755 12.2634 23.0904 12.272 23.103C12.2806 23.1156 12.2928 23.1255 12.3072 23.1313C12.3215 23.1371 12.3372 23.1386 12.3524 23.1357C12.3677 23.1327 12.3816 23.1254 12.3926 23.1146C12.4035 23.1039 12.411 23.0902 12.414 23.0753C12.417 23.0604 12.4155 23.045 12.4096 23.031C12.4036 23.0169 12.3936 23.005 12.3807 22.9965C12.3678 22.9881 12.3527 22.9836 12.3372 22.9836C12.3164 22.9838 12.2966 22.9919 12.282 23.0063C12.2673 23.0207 12.259 23.0401 12.2588 23.0604Z" fill="#2C2C2C"/>
<path d="M12.7843 22.5022C12.7652 22.6007 12.737 22.6974 12.6998 22.7909C12.6549 22.8888 12.5996 22.9817 12.5349 23.0681C12.4617 23.1556 12.3794 23.2354 12.2893 23.306C12.1746 23.3892 12.051 23.4601 11.9208 23.5175C11.6403 23.6271 11.3409 23.6869 11.0409 23.7289C10.7702 23.7603 10.4977 23.7734 10.2253 23.7683C9.95008 23.7647 9.67532 23.7462 9.40224 23.7128C9.0032 23.6597 8.61224 23.5593 8.23795 23.4138C8.05389 23.3318 7.8755 23.2381 7.70393 23.1333C7.58267 23.0611 7.46332 22.9849 7.34838 22.9035C7.29338 22.865 7.24031 22.8252 7.18669 22.7853C7.13307 22.7454 7.0767 22.7085 7.0217 22.6703C6.97688 22.6342 6.93315 22.5956 6.89218 22.5563C6.86078 22.5252 6.82063 22.5039 6.77684 22.4952C6.73305 22.4865 6.6876 22.4908 6.6463 22.5075C6.605 22.5242 6.56971 22.5525 6.54494 22.589C6.52017 22.6254 6.50703 22.6682 6.5072 22.712C6.5088 22.7701 6.53231 22.8256 6.5732 22.8677L6.58475 22.8817C6.6194 22.9251 6.65542 22.9674 6.69089 23.0105C6.74579 23.0847 6.80578 23.1552 6.87046 23.2214C6.93951 23.2885 7.01202 23.3521 7.0877 23.4119C7.24764 23.5398 7.41592 23.6574 7.59147 23.764C7.70146 23.8321 7.81145 23.9008 7.92777 23.9614C8.01714 24.0086 8.10844 24.0519 8.20276 24.0918C8.65417 24.2862 9.12977 24.4214 9.61727 24.494C9.8933 24.5376 10.1725 24.5587 10.4521 24.557C10.5756 24.5549 10.6996 24.5468 10.8217 24.5336C10.9727 24.5183 11.1227 24.4954 11.2713 24.4649C11.3866 24.4402 11.5 24.4076 11.6106 24.3671C11.7427 24.3197 11.8714 24.2634 11.9956 24.1988C12.093 24.1464 12.1865 24.0872 12.2753 24.0218C12.3804 23.9475 12.4795 23.8653 12.5717 23.7761C12.8907 23.4604 13.0862 23.0388 13.1706 22.6059C13.1837 22.5548 13.1766 22.5008 13.1505 22.4547C13.1241 22.4106 13.0812 22.3783 13.0309 22.3645C13.0146 22.3601 12.9978 22.358 12.9809 22.358C12.8934 22.358 12.8019 22.4135 12.7845 22.5013" fill="#2C2C2C"/>
</svg>
