<svg width="28" height="31" viewBox="0 0 28 31" fill="none" xmlns="http://www.w3.org/2000/svg">
<ellipse cx="14.113" cy="16.96" rx="9" ry="13" fill="#FAE1C5"/>
<ellipse cx="4.44884" cy="18.2936" rx="2.23417" ry="4.50926" transform="rotate(-35.7769 4.44884 18.2936)" fill="#FAE1C5"/>
<ellipse cx="2.15611" cy="4.75927" rx="2.15611" ry="4.75927" transform="matrix(-0.833845 -0.551999 -0.551999 0.833845 27.6057 16.0107)" fill="#FAE1C5"/>
<path d="M13.6316 0.122418C12.8083 0.232198 11.93 0.45176 10.953 0.781103C10.0967 1.06653 9.20745 1.43979 8.29627 1.88989C7.48389 2.29608 6.70445 2.7352 5.99087 3.20726C5.66153 3.42682 5.33218 3.65736 5.0248 3.89888C4.72839 4.12942 4.41002 4.38192 4.13557 4.65637C3.58667 5.20527 3.15852 5.92983 2.917 6.76416C2.80722 7.11546 2.74135 7.51067 2.68646 8.00469C2.64255 8.38892 2.64255 8.79511 2.65353 9.25619C2.67549 9.87096 2.76331 10.5626 2.917 11.342C3.03776 11.9678 3.19146 12.6045 3.422 13.373C3.60862 14.0207 3.82818 14.6684 4.04775 15.3051C4.14655 15.4259 4.2234 15.5576 4.30024 15.7003C4.38807 15.876 4.45394 16.0516 4.51981 16.2383C4.60763 16.5127 4.68448 16.7872 4.75034 17.0726C4.76132 17.0946 4.7723 17.1165 4.7723 17.1494C4.7723 17.1604 4.7723 17.1604 4.7723 17.1714C4.78328 17.1824 4.79426 17.1824 4.81621 17.1934C4.82719 17.3141 4.83817 17.4349 4.84915 17.5556C4.89306 17.7642 4.91502 17.9838 4.93697 18.2033C4.98089 18.6315 4.99186 19.0706 5.03578 19.4988C5.07969 19.7732 5.15653 20.0477 5.16751 20.3331C5.16751 20.4429 5.15653 20.5417 5.13458 20.6405C5.17849 20.9588 5.23338 21.2772 5.29925 21.5956C5.60664 23.0996 6.13358 24.4718 6.89107 25.6794C7.26433 26.2832 7.71443 26.8651 8.21942 27.403C8.70246 27.919 9.27332 28.413 9.92103 28.885C10.2613 29.1375 10.5907 29.3461 10.9091 29.5108C11.2384 29.6864 11.6007 29.8511 11.9849 29.9938C12.6656 30.2353 13.4011 30.378 14.1695 30.4C14.2464 30.4 14.3232 30.4 14.4001 30.4C15.7724 30.4 17.1446 29.9938 18.3632 29.2144C19.6476 28.402 20.7235 27.1944 21.4919 25.7233C22.1287 24.4938 22.5568 23.0776 22.8313 21.2662C22.8971 20.8271 22.952 20.388 22.9959 19.9489C23.0069 19.7073 23.0399 19.4658 23.0728 19.2133C23.0838 19.1475 23.0838 19.0926 23.0947 19.0267C23.0947 18.862 23.1057 18.7083 23.1167 18.5437C23.1277 18.4119 23.1387 18.2692 23.1606 18.1375C23.1606 18.1155 23.1716 18.1045 23.1716 18.0826C23.1826 17.9508 23.1935 17.8191 23.2045 17.6874C23.2265 17.369 23.2594 17.0616 23.2814 16.7433C23.2923 16.7323 23.3033 16.7103 23.3143 16.6993C23.3253 16.6554 23.3363 16.6005 23.3472 16.5566V16.5456C23.3802 16.4029 23.4131 16.2492 23.457 16.1065C23.5229 15.876 23.5997 15.6454 23.7315 15.4369C23.7864 15.349 23.8412 15.2502 23.9291 15.1734C23.951 15.1514 23.973 15.1404 23.9949 15.1185C24.0937 14.8221 24.1925 14.5257 24.2694 14.2293C24.489 13.4608 24.6536 12.6484 24.7634 11.8141C24.8732 10.9578 24.9171 10.1674 24.8842 9.40988C24.8622 9.02565 24.8183 8.63044 24.7524 8.19132C24.6866 7.7961 24.5987 7.42285 24.489 7.08253C24.3572 6.65438 24.1925 6.31406 23.9949 6.02863C23.8961 5.88592 23.7973 5.76516 23.6766 5.6444C23.5778 5.54559 23.457 5.43581 23.2923 5.32603C23.0508 5.15038 22.7764 5.02962 22.5349 4.91984C22.3702 4.85397 22.2055 4.78811 22.0518 4.72224C21.8981 4.65637 21.7444 4.60148 21.5907 4.53561C21.4261 4.46974 21.2834 4.40387 21.1516 4.33801C20.9869 4.26116 20.8662 4.18431 20.7454 4.09649C20.6137 3.9867 20.482 3.85497 20.3722 3.71225C20.0867 3.32802 19.8782 2.87792 19.6806 2.44977C19.5818 2.23021 19.472 1.99967 19.3622 1.78011C19.1756 1.41783 18.967 1.14338 18.7474 0.923817C18.4839 0.660343 18.1436 0.484692 17.7813 0.407845C17.7704 0.407845 17.7484 0.407845 17.7374 0.407845C17.7265 0.407845 17.7045 0.407845 17.6935 0.407845C17.6386 0.385889 17.5837 0.363936 17.5179 0.341979C17.1775 0.22122 16.7823 0.133396 16.2993 0.0675271C15.9809 0.0236147 15.6406 0.00165784 15.3003 0.00165784C14.7514 -0.00932025 14.2244 0.0345928 13.6316 0.122418ZM9.61364 11.1664C10.1406 11.1005 10.6675 10.9358 11.2274 10.6614C11.952 10.3101 12.6107 9.82705 13.2474 9.35499L13.3572 9.27815C13.9719 8.81707 14.6745 8.3011 15.465 7.97175C15.8163 7.82904 16.1785 7.73023 16.5189 7.67534C16.6835 7.65339 16.8372 7.64241 17.0019 7.64241C17.1775 7.64241 17.3422 7.65339 17.5179 7.67534C17.9241 7.73023 18.3412 7.851 18.7584 8.02664C19.0438 8.1474 19.3073 8.30109 19.5378 8.47674C19.7354 8.64142 19.9221 8.82804 20.0867 9.02565C20.2734 9.26717 20.4271 9.5526 20.5588 9.85998C20.8772 10.6614 21.0199 11.5287 21.1516 12.363C21.1846 12.5826 21.2175 12.8131 21.2614 13.0327C21.3492 13.5157 21.459 14.0756 21.6456 14.6245C21.6895 14.7672 21.7444 14.8989 21.7993 15.0307C21.8652 15.2722 21.953 15.5027 22.0518 15.7333C22.1177 15.8979 22.2165 16.0626 22.3372 16.2602L22.3812 16.3261L22.4361 16.4139C22.48 16.4798 22.5239 16.5347 22.5678 16.6005C22.5897 16.6225 22.6117 16.6444 22.6337 16.6664C22.6007 16.9957 22.5788 17.3251 22.5568 17.6544C22.48 18.6425 22.4031 19.6634 22.2714 20.6624V20.6844V20.7063V20.7173V20.7393V20.7283C22.0518 22.3201 21.7335 23.5826 21.2724 24.7024C20.943 25.4599 20.5368 26.1734 20.0648 26.7992C19.6257 27.37 19.1316 27.8641 18.5937 28.2812C18.0887 28.6655 17.5398 28.9838 16.969 29.2363C16.4091 29.4669 15.8163 29.6315 15.2234 29.7194C14.938 29.7523 14.6416 29.7742 14.3562 29.7742C14.0707 29.7742 13.7743 29.7523 13.4889 29.7194C12.9071 29.6315 12.3362 29.4778 11.7763 29.2473C11.447 29.1046 11.1286 28.9399 10.8212 28.7533C10.5468 28.5886 10.2613 28.391 9.92103 28.1275L9.89907 28.1166L9.87712 28.0946L9.86614 28.0836L9.87712 28.0946C9.15256 27.5237 8.50485 26.876 7.95595 26.1734C7.40704 25.4599 6.94596 24.6694 6.58369 23.8131C6.15554 22.7922 5.84815 21.6395 5.68348 20.399V20.388V20.377C5.58468 19.6195 5.52979 18.862 5.4749 18.1265C5.44196 17.7093 5.40903 17.2702 5.36512 16.8421C5.3761 16.8201 5.38707 16.7981 5.38707 16.7762L5.40903 16.7323C5.44196 16.6554 5.46392 16.5786 5.49686 16.5017L5.50783 16.4798L5.54077 16.4029C5.59566 16.2492 5.66153 16.0846 5.71642 15.9199C5.81522 15.6015 5.91402 15.2393 6.00185 14.7782C6.15554 14.0207 6.25434 13.1973 6.33119 12.2642C6.38608 11.5726 6.41902 10.848 6.41902 10.1235C6.56173 10.3101 6.73738 10.4857 6.93499 10.6394C7.14357 10.8041 7.39606 10.9358 7.69247 11.0346C7.95595 11.1334 8.25236 11.1883 8.63659 11.2103C8.73539 11.2213 8.8342 11.2213 8.933 11.2213C9.1306 11.2213 9.36114 11.1993 9.61364 11.1664Z" fill="#2C2C2C"/>
<path d="M2.40098 13.9547C2.21436 13.9986 2.04968 14.0864 1.88501 14.1852C1.73132 14.284 1.5886 14.4048 1.45687 14.5365C1.2373 14.7781 1.08361 15.0854 0.995787 15.4038C0.907963 15.7112 0.896985 16.0405 0.929919 16.3699C0.951875 16.6992 1.01774 17.0286 1.10557 17.3579C1.19339 17.6982 1.31415 18.0276 1.45687 18.3569C1.62154 18.7521 1.80817 19.1254 2.02773 19.4986C2.31316 19.9817 2.6425 20.4427 3.00478 20.8709C3.16945 21.0685 3.35608 21.2441 3.5427 21.4198C3.70738 21.5735 3.894 21.7052 4.09161 21.804C4.17943 21.8479 4.27824 21.8919 4.37704 21.9248C4.46486 21.9577 4.56367 21.9687 4.66247 21.9797C4.8491 22.0016 5.02475 21.9577 5.18942 21.8809C5.34311 21.804 5.46387 21.6503 5.54072 21.4966C5.6505 21.2771 5.67245 21.0246 5.67245 20.7831C5.67245 20.6184 5.54072 20.4757 5.36507 20.4757C5.25529 20.4757 5.14551 20.5416 5.10159 20.6404C5.09062 20.6623 5.07964 20.6843 5.06866 20.7172C5.06866 20.7392 5.05768 20.7611 5.05768 20.7831C5.05768 20.8599 5.05768 20.9368 5.0467 21.0136C5.03573 21.0795 5.02475 21.1453 5.00279 21.2112C4.99181 21.2441 4.96986 21.2661 4.95888 21.299C4.9479 21.31 4.92594 21.332 4.91497 21.343C4.90399 21.3539 4.88203 21.3649 4.87105 21.3649C4.8491 21.3759 4.82714 21.3759 4.80519 21.3869C4.76127 21.3869 4.71736 21.3869 4.68443 21.3869C4.60758 21.3759 4.53073 21.3539 4.46486 21.321C4.34411 21.2661 4.23432 21.2002 4.12454 21.1124C3.76227 20.827 3.45488 20.4757 3.16945 20.1134C2.70837 19.5096 2.33511 18.8509 2.02773 18.1593C1.80817 17.6433 1.63252 17.1054 1.55567 16.5455C1.52274 16.293 1.52274 16.0515 1.54469 15.799C1.56665 15.6453 1.61056 15.5026 1.66545 15.3599C1.70936 15.2501 1.77523 15.1513 1.8411 15.0525C1.91795 14.9647 2.00577 14.8769 2.0936 14.8C2.1924 14.7232 2.30218 14.6573 2.42294 14.6024C2.49979 14.5695 2.57663 14.5475 2.66446 14.5365C2.76326 14.5256 2.86206 14.5256 2.96087 14.5365C3.08162 14.5585 3.20238 14.5914 3.31216 14.6353C3.45488 14.7012 3.58662 14.7781 3.70738 14.8659C3.82814 14.9647 3.93792 15.0745 4.03672 15.1952C4.08063 15.2501 4.17943 15.283 4.2453 15.283C4.32215 15.283 4.399 15.2501 4.45389 15.1952C4.50878 15.1403 4.54171 15.0635 4.54171 14.9866C4.54171 14.8988 4.50878 14.8329 4.45389 14.7781C4.21237 14.4816 3.90498 14.2511 3.56466 14.0974C3.37803 14.0206 3.19141 13.9657 2.9938 13.9437C2.92793 13.9327 2.86206 13.9327 2.79619 13.9327C2.66446 13.9108 2.53272 13.9327 2.40098 13.9547ZM3.12554 20.0475C3.13652 20.0585 3.13652 20.0585 3.14749 20.0695C3.13652 20.0585 3.12554 20.0475 3.12554 20.0475Z" fill="#2C2C2C"/>
<path d="M4.98072 19.1363C4.9917 19.1363 4.9917 19.1473 5.00268 19.1473C5.05757 19.1912 5.16735 19.1912 5.23322 19.1802C5.31007 19.1582 5.37594 19.1143 5.40887 19.0375C5.45278 18.9716 5.46376 18.8838 5.4418 18.8069C5.43083 18.785 5.41985 18.763 5.40887 18.7301C5.38691 18.6862 5.343 18.6533 5.31007 18.6203C5.16735 18.4996 5.03561 18.3678 4.91486 18.2361C4.94779 18.5435 4.95877 18.8399 4.98072 19.1363ZM5.31007 18.6313C5.29909 18.6203 5.28811 18.6093 5.26616 18.5984C5.27713 18.6093 5.29909 18.6203 5.31007 18.6313Z" fill="#2C2C2C"/>
<path d="M12.7972 16.1946C12.8191 16.9521 12.8301 17.6986 12.8191 18.4561C12.8191 18.6098 12.8191 18.7635 12.8082 18.9172C12.8082 19.0489 12.7972 19.1806 12.7862 19.3014C12.7752 19.5868 12.7862 19.8832 12.8521 20.1687C12.885 20.2894 12.9399 20.4102 13.0058 20.52C13.0826 20.6517 13.1924 20.7395 13.3132 20.8273C13.4229 20.9042 13.5437 20.9591 13.6645 20.992C13.7962 21.0359 13.9389 21.0469 14.0706 21.0579C14.3341 21.0798 14.5976 21.0359 14.8501 20.992C15.0806 20.9481 15.3002 20.8932 15.5307 20.8383C15.6844 20.7944 15.7832 20.6188 15.7393 20.4651C15.6954 20.3004 15.5307 20.2126 15.3661 20.2565C15.0916 20.3224 14.8281 20.3882 14.5427 20.4321C14.3561 20.4541 14.1804 20.4651 13.9938 20.4431C13.906 20.4321 13.8291 20.4102 13.7523 20.3773C13.7084 20.3553 13.6535 20.3333 13.6096 20.3004C13.5766 20.2675 13.5437 20.2455 13.5217 20.2126C13.4998 20.1796 13.4778 20.1467 13.4669 20.1138C13.4339 20.0259 13.412 19.9381 13.401 19.8503C13.379 19.6307 13.379 19.4002 13.39 19.1806C13.401 18.8952 13.412 18.6208 13.412 18.3353C13.412 17.6217 13.401 16.9082 13.39 16.1946C13.39 16.0299 13.2583 15.8872 13.0826 15.8872C12.9399 15.8872 12.7972 16.0299 12.7972 16.1946ZM14.5427 20.4431C14.5317 20.4431 14.5207 20.4431 14.5098 20.4431C14.5207 20.4431 14.5317 20.4431 14.5427 20.4431Z" fill="#2C2C2C"/>
<path d="M9.37216 14.1634C9.10868 14.2073 8.87814 14.4159 8.75738 14.6574C8.63662 14.9099 8.62564 15.1953 8.69151 15.4698C8.75738 15.7332 8.92205 15.9638 9.15259 16.1065C9.38313 16.2492 9.69052 16.2712 9.94302 16.1724C10.0748 16.1285 10.1845 16.0516 10.2833 15.9528C10.3821 15.843 10.448 15.7223 10.4919 15.5796C10.5249 15.4698 10.5358 15.338 10.5358 15.2173C10.5249 15.0636 10.4919 14.9209 10.4261 14.7782C10.3821 14.6684 10.3053 14.5696 10.2284 14.4708C10.1845 14.4159 10.1187 14.372 10.0638 14.328C10.0308 14.3061 9.99791 14.2841 9.96497 14.2732C9.91008 14.2402 9.84421 14.2073 9.76737 14.1853C9.69052 14.1634 9.61367 14.1414 9.53683 14.1414C9.48194 14.1414 9.42705 14.1524 9.37216 14.1634Z" fill="#2C2C2C"/>
<path d="M24.6534 14.0867C24.4339 14.1196 24.2253 14.2074 24.0387 14.3172C23.852 14.416 23.6764 14.5587 23.5117 14.7014C23.3251 14.8551 23.1604 15.0198 23.0067 15.1955C22.8969 15.3162 22.886 15.5028 23.0067 15.6236C23.1165 15.7334 23.3251 15.7444 23.4349 15.6236C23.5556 15.4919 23.6874 15.3601 23.8191 15.2394C23.841 15.2174 23.863 15.1845 23.885 15.1625C23.9508 15.1076 24.0167 15.0527 24.0826 15.0088C24.2143 14.91 24.346 14.8332 24.4997 14.7673C24.5985 14.7234 24.7083 14.7014 24.8071 14.6795C24.8949 14.6685 24.9828 14.6685 25.0706 14.6795C25.1694 14.7014 25.2682 14.7234 25.367 14.7673C25.4987 14.8332 25.6305 14.91 25.7512 14.9979C25.861 15.0857 25.9598 15.1845 26.0476 15.2833C26.1245 15.3821 26.1794 15.4919 26.2343 15.6016C26.2892 15.7334 26.3221 15.8761 26.3441 16.0188C26.366 16.2494 26.366 16.4799 26.3331 16.7104C26.2782 17.0398 26.2013 17.3691 26.0916 17.6875C26.0037 17.9729 25.894 18.2583 25.7842 18.5438C25.6744 18.7853 25.5427 19.0049 25.3999 19.2244C25.1804 19.5757 24.9498 19.9051 24.6973 20.2344C24.6973 20.2454 24.6864 20.2454 24.6864 20.2454C24.6864 20.2344 24.6973 20.2344 24.6973 20.2344C24.4119 20.6077 24.1045 20.9699 23.7313 21.2554C23.6325 21.3212 23.5337 21.3871 23.4239 21.442C23.38 21.453 23.347 21.4639 23.3031 21.4749C23.2812 21.4749 23.2702 21.4749 23.2482 21.4749C23.2373 21.4749 23.2263 21.4749 23.2263 21.4639C23.2153 21.4639 23.2043 21.453 23.2043 21.453C23.1933 21.442 23.1824 21.431 23.1714 21.42C23.1494 21.3871 23.1275 21.3432 23.1055 21.2993C23.0616 21.1675 23.0287 21.0358 23.0067 20.9041C22.9848 20.8711 22.9738 20.8272 22.9738 20.7833C22.9518 20.6516 22.9408 20.5089 22.9299 20.3771C22.875 20.2893 22.7762 20.2234 22.6664 20.2234C22.5017 20.2234 22.359 20.3552 22.359 20.5308C22.359 20.6955 22.3919 20.8711 22.4139 21.0358C22.4249 21.1566 22.4578 21.2663 22.4907 21.3761C22.5456 21.5627 22.6335 21.7494 22.7762 21.8811C22.9079 22.0128 23.0836 22.0787 23.2702 22.0787C23.4458 22.0787 23.6215 22.0128 23.7752 21.936C23.9508 21.8482 24.1045 21.7274 24.2472 21.6067C24.4119 21.4749 24.5546 21.3212 24.6973 21.1675C25.0157 20.8162 25.3121 20.432 25.5866 20.0368C25.8061 19.7184 26.0147 19.4001 26.2013 19.0597C26.2672 18.939 26.3331 18.8072 26.377 18.6755C26.4977 18.3681 26.6185 18.0498 26.7173 17.7314C26.9259 17.0727 27.0576 16.3482 26.893 15.6675C26.8051 15.3272 26.6295 15.0088 26.388 14.7563C26.2453 14.6026 26.0806 14.4819 25.9049 14.3721C25.7183 14.2513 25.5207 14.1635 25.3011 14.1196C25.1914 14.0976 25.0816 14.0867 24.9718 14.0757C24.9608 14.0757 24.9498 14.0757 24.9389 14.0757C24.8401 14.0537 24.7413 14.0647 24.6534 14.0867ZM26.3331 16.7214C26.3331 16.7324 26.3331 16.7434 26.3331 16.7434C26.3331 16.7324 26.3331 16.7324 26.3331 16.7214ZM24.7413 20.1685C24.7303 20.1795 24.7193 20.2015 24.7083 20.2124C24.7193 20.2015 24.7303 20.1795 24.7413 20.1685Z" fill="#2C2C2C"/>
<path d="M22.5787 19.1147C22.4689 19.2354 22.4579 19.4221 22.5787 19.5428C22.6885 19.6526 22.8861 19.6636 23.0068 19.5428C23.0178 19.3891 23.0398 19.2354 23.0617 19.0708C23.0727 18.8841 23.0727 18.7085 23.0837 18.5219C22.919 18.7195 22.7543 18.9171 22.5787 19.1147Z" fill="#2C2C2C"/>
<path d="M9.36117 12.3081C8.92204 12.374 8.4939 12.4838 8.09869 12.6704C7.90108 12.7692 7.72543 12.8899 7.56076 13.0217C7.39609 13.1644 7.24239 13.3291 7.12164 13.5047C7.05577 13.5925 7.00088 13.6913 6.94599 13.8011C6.91305 13.867 6.90207 13.9438 6.94599 14.0097C6.9899 14.0975 7.0887 14.1305 7.1875 14.1085C7.35218 14.0646 7.51685 14.0207 7.67054 13.9768C7.73641 13.9878 7.78032 13.9768 7.84619 13.9438C7.87912 13.9329 7.91206 13.9109 7.94499 13.8999C9.25139 13.5377 10.5468 13.1205 11.8752 12.8351C11.8861 12.8351 11.9081 12.8351 11.9191 12.8351C12.0179 12.8351 12.1057 12.8131 12.1935 12.7692H12.2045H12.2155C12.3033 12.7472 12.3472 12.6484 12.3253 12.5716C12.3143 12.5496 12.3143 12.5386 12.3033 12.5167C12.2813 12.4398 12.2155 12.363 12.1386 12.341C12.0837 12.3301 12.0288 12.3191 11.974 12.3191C11.952 12.3191 11.941 12.3191 11.9191 12.3191C11.7324 12.3081 11.5568 12.2862 11.3702 12.2752C11.1506 12.2532 10.942 12.2422 10.7225 12.2422C10.6127 12.2422 10.5029 12.2313 10.3931 12.2313C10.0528 12.2422 9.70149 12.2642 9.36117 12.3081Z" fill="#2C2C2C"/>
<path d="M17.7264 14.4272C17.6166 14.4821 17.5068 14.5589 17.419 14.6577C17.3312 14.7565 17.2543 14.8663 17.1994 14.9871C17.1446 15.1188 17.1116 15.2505 17.1006 15.4042C17.1006 15.547 17.1336 15.6787 17.1885 15.8104C17.2543 15.9422 17.3641 16.0519 17.4959 16.1398C17.5617 16.1837 17.6496 16.2166 17.7264 16.2496C17.8032 16.2825 17.8801 16.3044 17.9569 16.3154C18.0887 16.3374 18.2204 16.3374 18.3521 16.3044C18.4619 16.2715 18.5607 16.2166 18.6486 16.1398C18.8022 15.9971 18.8681 15.7885 18.8901 15.5799C18.912 15.514 18.923 15.4482 18.923 15.3713C18.934 15.2176 18.8901 15.0639 18.8242 14.9212C18.7913 14.8444 18.7474 14.7785 18.7034 14.7126C18.6486 14.6467 18.5937 14.5809 18.5278 14.526C18.4949 14.504 18.4619 14.4711 18.429 14.4491C18.3961 14.4272 18.3521 14.4162 18.3192 14.3943C18.2533 14.3723 18.1875 14.3503 18.1106 14.3503C18.0887 14.3503 18.0777 14.3503 18.0557 14.3503C17.946 14.3394 17.8362 14.3833 17.7264 14.4272ZM18.1655 14.8114C18.1655 14.8114 18.1545 14.8114 18.1545 14.8004C18.1655 14.8004 18.1655 14.8004 18.1765 14.8004C18.2094 14.8114 18.2424 14.8114 18.2753 14.8224H18.2863C18.3082 14.8444 18.3302 14.8663 18.3521 14.8883C18.3741 14.9102 18.3851 14.9432 18.3961 14.9651C18.3192 14.9102 18.2424 14.8553 18.1655 14.8114ZM18.3412 14.9102L18.3521 14.9212C18.3521 14.9212 18.3521 14.9212 18.3412 14.9102ZM17.5947 15.042C17.5947 15.0859 17.5947 15.1408 17.5947 15.1847C17.5947 15.1957 17.5947 15.1957 17.5947 15.2066C17.5617 15.2286 17.5398 15.2505 17.5178 15.2835C17.4959 15.3164 17.4849 15.3603 17.4849 15.4042C17.4849 15.4262 17.4959 15.4591 17.4959 15.4811C17.4959 15.514 17.5178 15.536 17.5288 15.5689C17.5178 15.5909 17.5178 15.6018 17.5068 15.6238C17.5068 15.6238 17.5068 15.6238 17.5068 15.6128C17.4959 15.5799 17.4849 15.536 17.4739 15.503C17.4739 15.4591 17.4739 15.4042 17.4739 15.3603C17.4849 15.2945 17.5068 15.2396 17.5288 15.1847C17.5398 15.1298 17.5617 15.0859 17.5947 15.042Z" fill="#2C2C2C"/>
<path d="M17.6714 14.427C17.5616 14.4489 17.4518 14.5148 17.353 14.5807C17.2981 14.6246 17.2542 14.6685 17.2103 14.7234C17.1335 14.8112 17.0676 14.921 17.0456 15.0418C17.0237 15.1406 17.0237 15.2503 17.0566 15.3601C17.1115 15.5468 17.2432 15.6895 17.3969 15.7992C17.4189 15.8981 17.4518 15.9859 17.4957 16.0737C17.5616 16.1945 17.6604 16.2933 17.7812 16.3262C17.9349 16.3701 18.0776 16.3042 18.1983 16.2164C18.2752 16.1615 18.3411 16.0957 18.3959 16.0298C18.4069 16.0298 18.4179 16.0298 18.4289 16.0188C18.4838 16.0078 18.5277 15.9859 18.5826 15.9639C18.7582 15.8871 18.879 15.7224 18.9119 15.5358C18.9229 15.4809 18.9229 15.426 18.9229 15.3711C18.9229 15.3052 18.9119 15.2394 18.89 15.1735C18.89 15.1625 18.879 15.1406 18.879 15.1296C18.879 15.1076 18.879 15.0857 18.879 15.0637C18.868 14.9978 18.8351 14.943 18.8021 14.899C18.7802 14.8551 18.7472 14.8002 18.7253 14.7563C18.6484 14.6465 18.5496 14.5477 18.4289 14.5038C18.352 14.4709 18.2752 14.4489 18.1874 14.4489C18.1434 14.438 18.0995 14.427 18.0556 14.416C18.0007 14.405 17.9458 14.405 17.88 14.405C17.88 14.405 17.88 14.405 17.869 14.405C17.7921 14.405 17.7263 14.416 17.6714 14.427ZM18.2423 14.8112C18.2642 14.8222 18.2752 14.8222 18.2862 14.8222C18.2752 14.8222 18.2642 14.8222 18.2532 14.8332C18.2423 14.8222 18.2423 14.8112 18.2423 14.8112ZM17.891 14.8442C17.9129 14.8661 17.9239 14.8771 17.9349 14.899C17.9458 14.91 17.9458 14.91 17.9568 14.921C17.88 14.9539 17.8031 14.9978 17.7263 15.0527C17.7043 15.0637 17.6824 15.0857 17.6604 15.0967C17.6604 15.0747 17.6714 15.0637 17.6714 15.0418C17.6824 15.0308 17.6824 15.0198 17.6933 15.0088C17.7373 14.9649 17.7702 14.921 17.8251 14.8771C17.847 14.8771 17.869 14.8661 17.891 14.8442ZM18.4947 15.0747C18.5277 15.1515 18.5496 15.2174 18.5606 15.2833C18.4947 15.426 18.4069 15.5577 18.3191 15.6785C18.3191 15.6456 18.3081 15.6126 18.2752 15.5907C18.1764 15.5138 18.0776 15.4479 17.9678 15.3931C17.9129 15.3711 17.869 15.3382 17.8141 15.3162C17.8251 15.3052 17.8251 15.3052 17.8361 15.2943C17.9129 15.2394 18.0007 15.1845 18.0995 15.1406C18.1325 15.1955 18.1544 15.2503 18.1874 15.3052C18.2203 15.3821 18.3301 15.3931 18.3959 15.3601C18.4289 15.3382 18.4508 15.3052 18.4618 15.2723C18.4728 15.2284 18.4618 15.1955 18.4508 15.1515C18.4399 15.1186 18.4179 15.0857 18.4069 15.0527C18.4179 15.0747 18.4618 15.0637 18.4947 15.0747ZM17.7812 15.9749C17.8361 15.9969 17.9019 16.0078 17.9568 16.0188H17.9458C17.9239 16.0298 17.9129 16.0298 17.891 16.0298C17.88 16.0298 17.869 16.0298 17.858 16.0298C17.847 16.0298 17.847 16.0298 17.8361 16.0188C17.8251 16.0188 17.8141 16.0078 17.8141 16.0078C17.8031 16.0078 17.7921 15.9969 17.7812 15.9749C17.7812 15.9859 17.7812 15.9749 17.7812 15.9749Z" fill="#2C2C2C"/>
<path d="M16.2989 12.0776C16.0464 12.0886 15.7939 12.1215 15.5415 12.1764C15.4866 12.1874 15.4317 12.1984 15.3878 12.2094C15.3438 12.2094 15.3109 12.2204 15.278 12.2423C15.245 12.2533 15.2011 12.2643 15.1682 12.2752C15.1462 12.2862 15.1243 12.2862 15.1023 12.2972C15.0694 12.3082 15.0255 12.3192 14.9925 12.3411C14.9267 12.374 14.9157 12.4399 14.9047 12.5058C14.9047 12.5168 14.9047 12.5277 14.9047 12.5497C14.9047 12.5826 14.9267 12.6156 14.9486 12.6375C14.9816 12.6705 15.0145 12.6705 15.0474 12.6814C15.0584 12.6814 15.0694 12.6814 15.0694 12.6814C15.6732 12.9559 16.3209 13.0986 16.9796 13.2303C17.276 13.2852 17.5614 13.3401 17.8578 13.395C18.275 13.5377 18.7031 13.6914 19.1203 13.8341C19.3399 13.911 19.5594 13.9878 19.779 14.0647C19.9986 14.1415 20.2071 14.2074 20.4267 14.2952C20.5035 14.3281 20.5914 14.2733 20.6243 14.2184C20.6682 14.1415 20.6463 14.0647 20.5914 13.9988C20.5145 13.911 20.4267 13.8232 20.3389 13.7463C20.2401 13.6585 20.1413 13.5707 20.0315 13.4938C19.9217 13.417 19.8229 13.3401 19.7131 13.2633C19.5155 13.1096 19.296 12.9778 19.0874 12.8461C18.6592 12.5936 18.2091 12.396 17.7371 12.2533C17.3199 12.1325 16.8808 12.0776 16.4526 12.0776C16.4087 12.0776 16.3538 12.0776 16.2989 12.0776ZM19.285 13.4938C19.3728 13.5377 19.4606 13.5816 19.5375 13.6365C19.4497 13.6036 19.3508 13.5707 19.263 13.5487C19.274 13.5377 19.285 13.5158 19.285 13.4938Z" fill="#2C2C2C"/>
<path d="M15.432 12.5717C15.421 12.6156 15.443 12.6705 15.4759 12.6925C15.5308 12.7254 15.5857 12.7583 15.6516 12.7913C15.7174 12.8242 15.7833 12.8572 15.8382 12.8901C15.9699 12.945 16.1017 12.9999 16.2334 13.0548C16.5078 13.1536 16.7823 13.2304 17.0568 13.2963C17.6276 13.439 18.1985 13.5268 18.7693 13.6366C18.8462 13.6695 18.923 13.7025 18.9999 13.7354C18.9999 13.7354 18.9889 13.7354 18.9779 13.7244C19.1316 13.7903 19.2853 13.8562 19.428 13.922C19.4939 13.955 19.5707 13.9769 19.6366 14.0099C19.7135 14.0318 19.7903 14.0647 19.8671 14.0867C19.933 14.0977 19.9879 14.0757 20.0208 14.0208C20.0428 13.9879 20.0428 13.955 20.0318 13.911C20.0208 13.8781 19.9989 13.8452 19.9659 13.8232C19.9111 13.7793 19.8452 13.7464 19.7903 13.7134C19.7244 13.6805 19.6586 13.6476 19.5817 13.6146C19.439 13.5488 19.2853 13.4939 19.1316 13.439H19.1206C19.0657 13.4061 18.9999 13.3841 18.945 13.3512C18.6925 13.2304 18.429 13.1096 18.1546 13.0108C18.1216 12.9999 18.0887 13.0218 18.0777 13.0548C18.0777 13.0657 18.0777 13.0877 18.0777 13.0987C17.5288 12.934 16.9689 12.7803 16.409 12.6595C16.2663 12.6266 16.1126 12.5937 15.9699 12.5717C15.8931 12.5607 15.8162 12.5498 15.7504 12.5278C15.6735 12.5168 15.5967 12.5059 15.5198 12.4949C15.5198 12.4949 15.5198 12.4949 15.5088 12.4949C15.4869 12.4949 15.443 12.5388 15.432 12.5717ZM16.3432 12.9011C16.2993 12.8791 16.2444 12.8681 16.2005 12.8462C16.2444 12.8572 16.2993 12.8681 16.3432 12.8791C16.6396 12.945 16.936 13.0328 17.2324 13.1096C17.452 13.1755 17.6715 13.2414 17.8911 13.3182C17.3751 13.2084 16.8482 13.0877 16.3432 12.9011ZM18.9889 13.7244C18.9779 13.7244 18.9779 13.7134 18.9669 13.7134C18.9669 13.7134 18.9779 13.7134 18.9889 13.7244Z" fill="#2C2C2C"/>
<path d="M10.0965 21.9468C10.0416 21.9578 9.98673 22.0017 9.96478 22.0456C9.90989 22.1444 9.93184 22.2981 10.0416 22.353C10.5795 22.6055 11.1285 22.8251 11.6993 22.9897C12.2921 23.1654 12.9069 23.2861 13.5217 23.363C14.1255 23.4398 14.7402 23.4508 15.344 23.4069C15.9478 23.363 16.5407 23.2422 17.1115 23.0446C17.5067 22.9019 17.891 22.7263 18.2423 22.5067C18.352 22.4408 18.396 22.2871 18.3301 22.1774C18.2642 22.0676 18.1105 22.0237 18.0007 22.0895C17.7702 22.2323 17.5287 22.353 17.2872 22.4628C16.7822 22.6714 16.2442 22.8031 15.6953 22.88C14.9269 22.9788 14.1474 22.9568 13.379 22.858C12.3909 22.7263 11.4358 22.4518 10.5137 22.0676C10.4259 22.0346 10.349 21.9907 10.2612 21.9578C10.2173 21.9358 10.1843 21.9249 10.1404 21.9249C10.1404 21.9468 10.1185 21.9468 10.0965 21.9468Z" fill="#2C2C2C"/>
<path d="M12.9948 24.4827C12.9838 24.5266 12.9838 24.5705 13.0058 24.6035C13.0277 24.6364 13.0607 24.6693 13.1046 24.6803C13.2912 24.7133 13.4778 24.7352 13.6645 24.7572C14.0816 24.823 14.4988 24.8669 14.916 24.8999C14.9379 24.8999 14.9708 24.8999 14.9928 24.8889C15.1026 24.8999 15.2124 24.8999 15.3221 24.9109C15.41 24.9109 15.4758 24.834 15.4758 24.7572C15.4758 24.6693 15.41 24.6035 15.3221 24.6035C15.1136 24.5925 14.905 24.5815 14.6964 24.5705C14.5647 24.5486 14.4329 24.5376 14.2902 24.5157C14.2682 24.4937 14.2353 24.4937 14.2024 24.4937C14.0377 24.4717 13.873 24.4498 13.7084 24.4278C13.5437 24.4059 13.379 24.3949 13.2144 24.3949C13.1924 24.3949 13.1704 24.3949 13.1595 24.3839H13.1485C13.0716 24.3729 13.0167 24.4278 12.9948 24.4827Z" fill="#2C2C2C"/>
<path d="M2.75204 16.6774C2.74106 16.6993 2.73008 16.7323 2.74106 16.7652C2.74106 16.7762 2.75204 16.7872 2.75204 16.7872C2.77399 16.8311 2.79595 16.864 2.82888 16.886C2.86182 16.9189 2.89475 16.9518 2.93866 16.9848C3.00453 17.0506 3.0704 17.1055 3.13627 17.1714C3.26801 17.2922 3.41072 17.4129 3.55344 17.5337C3.83887 17.7752 4.11332 18.0277 4.40973 18.2582C4.42071 18.2692 4.43168 18.2802 4.44266 18.2912C4.4756 18.3131 4.49755 18.3131 4.53049 18.3131C4.5744 18.3131 4.62929 18.2912 4.66222 18.2582C4.69516 18.2253 4.71711 18.1814 4.71711 18.1265C4.71711 18.0826 4.69516 18.0277 4.66222 17.9948C4.37679 17.7532 4.08039 17.5117 3.79495 17.2812C3.65224 17.1604 3.49855 17.0397 3.34485 16.9299C3.26801 16.875 3.20214 16.8201 3.12529 16.7652C3.08138 16.7323 3.04844 16.7103 3.00453 16.6774C2.96062 16.6444 2.91671 16.6225 2.8728 16.6115C2.86182 16.6115 2.85084 16.6115 2.83986 16.6115C2.80693 16.6225 2.77399 16.6444 2.75204 16.6774Z" fill="#2C2C2C"/>
<path d="M3.79513 17.5993C3.57557 17.7969 3.37796 17.9945 3.19133 18.2251C3.1584 18.269 3.13644 18.3129 3.13644 18.3678C3.13644 18.4227 3.1584 18.4776 3.19133 18.5105C3.26818 18.5873 3.39992 18.5983 3.47676 18.5105C3.67437 18.3019 3.88295 18.0933 4.09154 17.9067C4.17936 17.8299 4.16838 17.6762 4.09154 17.5993C4.04763 17.5554 3.99274 17.5334 3.94882 17.5334C3.89393 17.5444 3.83904 17.5664 3.79513 17.5993Z" fill="#2C2C2C"/>
<path d="M25.0819 16.8859C24.4452 17.2262 23.8963 17.7312 23.534 18.3569C23.4901 18.4338 23.512 18.5326 23.5889 18.5765C23.6657 18.6204 23.7645 18.5875 23.8084 18.5216C23.8743 18.4228 23.9402 18.324 24.006 18.2362C24.2036 17.9837 24.4342 17.7532 24.6867 17.5555C24.8623 17.4238 25.049 17.3031 25.2466 17.1933C25.3344 17.1494 25.3563 17.0396 25.3124 16.9517C25.2795 16.8969 25.2246 16.8639 25.1587 16.8639C25.1368 16.8529 25.1038 16.8639 25.0819 16.8859ZM24.006 18.2252C24.006 18.2362 23.9951 18.2362 23.9951 18.2472C23.9951 18.2362 24.006 18.2362 24.006 18.2252Z" fill="#2C2C2C"/>
<path d="M24.1048 17.6434C24.0499 17.6544 24.006 17.6873 23.984 17.7422C23.9511 17.7861 23.9511 17.852 23.9621 17.8959C23.973 17.9398 24.006 17.9947 24.0609 18.0167C24.2804 18.1155 24.489 18.2253 24.6756 18.379C24.6866 18.3899 24.6976 18.4009 24.7196 18.4119C24.7635 18.4448 24.8074 18.4668 24.8623 18.4668C24.9172 18.4668 24.9611 18.4448 25.005 18.4119C25.0818 18.335 25.0818 18.2033 25.005 18.1265C24.7854 17.9398 24.5439 17.7752 24.2804 17.6654C24.2475 17.6544 24.2146 17.6434 24.1707 17.6434C24.1377 17.6324 24.1267 17.6324 24.1048 17.6434ZM24.6866 18.379C24.6976 18.379 24.6976 18.3899 24.7086 18.3899C24.6976 18.3899 24.6866 18.379 24.6866 18.379Z" fill="#2C2C2C"/>
<path d="M15.6956 7.44453C15.6407 7.71899 15.6627 7.99344 15.6956 8.26789C15.7286 8.5643 15.7835 8.86071 15.8274 9.15712C15.8383 9.24494 15.8493 9.33276 15.8493 9.42059C15.8603 9.49744 15.8823 9.57428 15.9372 9.62917C15.992 9.68406 16.0689 9.717 16.1457 9.717C16.508 9.717 16.8593 9.65113 17.2106 9.55233C17.54 9.45352 17.8583 9.31081 18.1657 9.16809C18.7585 8.88266 19.3184 8.53136 19.9222 8.26789C20.2406 8.13615 20.5589 8.03735 20.8993 7.99344C20.9212 7.99344 20.9541 7.98246 20.9761 7.98246C21.0529 7.97148 21.1298 7.9605 21.1847 7.89464C21.2396 7.83975 21.2725 7.7629 21.2725 7.68605C21.2725 7.60921 21.2396 7.53236 21.1847 7.47747C21.1298 7.42258 21.0529 7.37867 20.9761 7.38964C20.6577 7.42258 20.3503 7.48845 20.0539 7.58725C19.7466 7.68605 19.4501 7.82877 19.1537 7.97148C18.6048 8.24594 18.0889 8.55332 17.529 8.79484C17.1667 8.93756 16.7934 9.05831 16.4092 9.1132C16.3982 9.1132 16.3982 9.1132 16.3873 9.1132C16.3214 8.77288 16.2445 8.43256 16.2006 8.09224C16.1787 7.92757 16.1677 7.7629 16.1896 7.58725C16.2006 7.52138 16.2006 7.45551 16.1677 7.40062C16.1348 7.34573 16.0799 7.30182 16.014 7.27986C15.992 7.26889 15.9701 7.26888 15.9481 7.26888C15.8384 7.25791 15.7176 7.32378 15.6956 7.44453ZM16.1787 7.59823C16.1787 7.59823 16.1787 7.6092 16.1787 7.59823C16.1787 7.59823 16.1787 7.6092 16.1787 7.59823ZM19.9442 8.23496C19.9332 8.23496 19.9332 8.24594 19.9222 8.24594C19.9332 8.23496 19.9442 8.23496 19.9442 8.23496ZM19.9112 8.24594C19.9002 8.24594 19.8893 8.25691 19.8783 8.25691C19.8893 8.25691 19.9002 8.25691 19.9112 8.24594Z" fill="#2C2C2C"/>
<path d="M18.6928 6.64369C18.594 6.69858 18.5391 6.7864 18.4952 6.89618C18.4732 6.95107 18.4512 7.00596 18.4293 7.06086C18.3744 7.19259 18.3085 7.32433 18.2317 7.44509C18.1878 7.42313 18.1439 7.41215 18.0999 7.3902C17.6718 7.20357 17.2546 7.01695 16.8265 6.81934C16.7936 6.80836 16.7496 6.7864 16.7167 6.77542C16.6399 6.75347 16.552 6.75347 16.4752 6.77542C16.3983 6.79738 16.3325 6.84129 16.2776 6.89618C16.2227 6.95107 16.1788 7.01695 16.1568 7.09379C16.1239 7.32433 16.08 7.55487 16.047 7.78541C16.0361 7.88421 16.0251 7.99399 16.0251 8.0928C16.0251 8.24649 16.047 8.40018 16.069 8.5429C16.069 8.55388 16.069 8.55388 16.069 8.56486C16.069 8.67464 16.058 8.77344 16.058 8.88322C16.058 9.00398 16.1129 9.12474 16.1898 9.20158C16.2995 9.31137 16.4862 9.37723 16.6289 9.32234C16.7716 9.26745 16.9143 9.21256 17.057 9.15767C17.1229 9.20158 17.1997 9.21256 17.2766 9.21256C17.3534 9.21256 17.4303 9.19061 17.4961 9.15767C17.9133 8.97104 18.2756 8.70757 18.583 8.37823C18.9123 8.01595 19.1429 7.57683 19.3075 7.11575C19.3405 7.01694 19.3185 6.88521 19.2636 6.7864C19.2087 6.6876 19.1209 6.62173 19.0111 6.5888C18.9782 6.57782 18.9343 6.57782 18.9013 6.57782C18.8355 6.5888 18.7586 6.61075 18.6928 6.64369ZM18.1329 7.41216C18.1548 7.42313 18.1768 7.43411 18.1878 7.43411C18.1658 7.42313 18.1439 7.41216 18.1329 7.41216Z" fill="#2C2C2C"/>
<path d="M10.1738 1.82415C9.67978 1.85708 9.18577 1.91197 8.69176 1.98882C8.13187 2.06567 7.57199 2.16447 7.01211 2.27425C6.48516 2.37305 5.96919 2.49381 5.45322 2.62555C5.06898 2.72435 4.68475 2.84511 4.32247 3.00978C4.19074 3.06467 4.08096 3.14152 3.97118 3.24032C3.78455 3.42695 3.65281 3.65749 3.55401 3.89901C3.44423 4.16248 3.37836 4.42596 3.32347 4.71139C3.26858 5.02975 3.23564 5.35909 3.23564 5.68844C3.22467 6.33614 3.27956 6.98385 3.42227 7.6096C3.48814 7.92797 3.58694 8.23535 3.72966 8.53176C3.78455 8.64154 3.92726 8.68546 4.03704 8.65252C4.1578 8.61959 4.22367 8.50981 4.23465 8.38905C4.26758 7.85112 4.24563 7.31319 4.21269 6.77527C4.23465 6.73135 4.25661 6.67647 4.25661 6.62157C4.25661 6.31419 4.26758 6.0068 4.28954 5.69942C4.32247 5.71039 4.36639 5.72137 4.4103 5.72137C4.58595 5.72137 4.70671 5.57866 4.71769 5.41398C4.71769 5.35909 4.71769 5.31518 4.71769 5.26029C4.71769 5.23834 4.71769 5.21638 4.71769 5.19442C4.78355 4.83215 4.93725 4.5028 5.06898 4.1515C5.33246 4.18444 5.60691 4.19542 5.87039 4.22835C6.02408 4.25031 6.18875 4.28324 6.33147 4.33813C6.38636 4.34911 6.44125 4.34911 6.49614 4.33813C6.57298 4.31618 6.63885 4.26128 6.68276 4.19542C6.72668 4.11857 6.73765 4.03075 6.7157 3.9539C6.69374 3.87705 6.63885 3.8002 6.57298 3.76727C6.18875 3.58064 5.78256 3.5038 5.36539 3.44891C5.16779 3.42695 4.9592 3.39402 4.7616 3.38304C4.99214 3.29521 5.22268 3.22934 5.45322 3.16348C5.82647 3.05369 6.21071 2.96587 6.58396 2.87804C7.40732 2.69142 8.24165 2.5487 9.07599 2.42795L9.01012 2.43892C9.38337 2.38403 9.74565 2.3511 10.1189 2.31816C10.3604 2.30719 10.6019 2.28523 10.8435 2.31816C10.8764 2.32914 10.9203 2.32914 10.9532 2.34012C11.085 2.38403 11.2167 2.29621 11.2497 2.16447C11.2826 2.03273 11.2057 1.901 11.074 1.86806C10.9532 1.82415 10.8105 1.82415 10.6898 1.81317C10.6349 1.81317 10.591 1.81317 10.5361 1.81317C10.4263 1.81317 10.3055 1.82415 10.1738 1.82415ZM10.8764 2.31816C10.8874 2.31816 10.8874 2.31816 10.8984 2.31816C10.8874 2.31816 10.8764 2.31816 10.8764 2.31816ZM5.80452 4.22835C5.81549 4.22835 5.82647 4.22835 5.83745 4.22835C5.82647 4.22835 5.81549 4.22835 5.80452 4.22835Z" fill="#2C2C2C"/>
<path d="M7.40682 2.71326C6.95672 2.73521 6.51759 2.7901 6.07847 2.87793C5.88086 2.92184 5.67228 2.96576 5.47467 3.02065C5.26609 3.07554 5.05751 3.13043 4.8599 3.21825C4.82697 3.22923 4.79403 3.25118 4.77208 3.27314C4.72816 3.31705 4.70621 3.36096 4.70621 3.42683C4.70621 3.53661 4.80501 3.6464 4.91479 3.63542C5.00262 3.62444 5.09044 3.62444 5.17827 3.62444C5.22218 3.73422 5.34294 3.80009 5.45272 3.76716C5.54054 3.7452 5.62837 3.71227 5.71619 3.67933C5.82597 3.6464 5.93575 3.61346 6.04554 3.58053C6.39683 3.55857 6.74813 3.5476 7.09943 3.52564C7.84594 3.4927 8.60343 3.45977 9.34994 3.47075C9.44875 3.47075 9.52559 3.3939 9.52559 3.2951C9.52559 3.1963 9.44875 3.11945 9.34994 3.11945C8.74615 3.10847 8.15333 3.11945 7.54954 3.14141C7.59345 3.09749 7.62638 3.02065 7.62638 2.96576C7.63736 2.83402 7.53856 2.71326 7.40682 2.71326Z" fill="#2C2C2C"/>
<path d="M17.3641 1.37384C17.3092 1.45069 17.2982 1.53851 17.3092 1.62633C17.3311 1.71416 17.3751 1.78003 17.4519 1.83492C18.2204 2.48262 19.0327 3.08642 19.8451 3.69022C20.5477 4.21717 21.2503 4.74411 21.909 5.32595C22.4579 5.81997 22.9739 6.35789 23.391 6.97267C23.6326 7.34592 23.8302 7.75211 23.9839 8.18026C24.1485 8.69623 24.2473 9.23415 24.2912 9.78306C24.3461 10.837 24.2144 11.9018 24.0168 12.9338C24.0058 13.0216 24.0278 13.1094 24.0717 13.1863C24.1266 13.307 24.2364 13.3949 24.3571 13.4388C24.4779 13.4827 24.6206 13.4717 24.7414 13.4168C24.8511 13.3619 24.9609 13.2521 24.9938 13.1314C25.4659 11.1553 25.7074 8.94872 24.7633 7.06049C24.5767 6.69821 24.3461 6.34691 24.0936 6.02855C23.8411 5.71019 23.5447 5.42475 23.2374 5.1503C22.6226 4.6014 21.931 4.14032 21.2393 3.69022C20.6904 3.33892 20.1525 2.98762 19.6146 2.61436C19.0108 2.19719 18.418 1.74709 17.8471 1.27504C17.7922 1.23112 17.7373 1.20917 17.6715 1.20917C17.5507 1.22015 17.4299 1.28601 17.3641 1.37384Z" fill="#2C2C2C"/>
<path d="M4.54186 5.50175C4.1247 5.97381 3.74046 6.46782 3.36721 6.98379C2.972 7.52172 2.64266 8.09258 2.3682 8.69637C2.12669 9.25625 1.96201 9.87103 1.90712 10.4748C1.87419 10.7822 1.89615 11.1006 1.94006 11.397C1.98397 11.7044 2.07179 12.0227 2.21451 12.2972C2.32429 12.5168 2.56581 12.6375 2.80733 12.5826C2.95004 12.5497 3.0708 12.4728 3.14765 12.3521C3.1696 12.3082 3.19156 12.2643 3.21352 12.2313C3.24645 12.1325 3.25743 12.0447 3.23547 11.9459C3.22449 11.7922 3.20254 11.6385 3.19156 11.4848C3.15863 10.892 3.21352 10.2882 3.3233 9.70636C3.48797 8.94887 3.75144 8.20236 4.10274 7.49976C4.24546 7.23629 4.38817 6.98379 4.56382 6.73129C4.73947 6.4788 4.93708 6.23728 5.14566 6.00674C5.18957 5.95185 5.21153 5.88598 5.21153 5.80913C5.22251 5.69935 5.17859 5.60055 5.11273 5.5237C5.04686 5.44686 4.94805 5.39197 4.83827 5.39197C4.8273 5.39197 4.81632 5.39197 4.81632 5.39197C4.71751 5.40295 4.60773 5.43588 4.54186 5.50175ZM4.13568 7.45585C4.13568 7.46683 4.1247 7.4778 4.1247 7.48878C4.1247 7.4778 4.1247 7.46683 4.13568 7.45585Z" fill="#2C2C2C"/>
<path d="M22.4363 21.7493C22.3924 21.87 22.3485 21.9908 22.3046 22.1116C22.2168 22.1335 22.1399 22.1665 22.0741 22.2323C21.9643 22.3311 21.9204 22.4519 21.8984 22.5946C21.8655 22.8471 21.8435 23.1106 21.8435 23.374C21.8435 23.4619 21.8435 23.5387 21.8326 23.6265C21.7228 23.9998 21.624 24.3731 21.5252 24.7463C21.4922 24.8341 21.4922 24.922 21.5032 25.0208C21.5252 25.1525 21.613 25.2733 21.7228 25.3391C21.9423 25.4928 22.2936 25.4489 22.4363 25.2074C22.5571 24.9988 22.6669 24.7792 22.7328 24.5597C22.7767 24.4279 22.8096 24.2852 22.8206 24.1425C22.8535 24.0327 22.8755 23.923 22.9084 23.8241C22.9084 23.8132 22.9194 23.8022 22.9194 23.7912C22.9523 23.7583 22.9852 23.7144 23.0072 23.6595C23.0621 23.5277 23.117 23.407 23.1609 23.2752C23.2048 23.1545 23.2268 23.0118 23.1609 22.891C23.1499 22.88 23.1499 22.8691 23.1389 22.8471C23.1499 22.7922 23.1609 22.7373 23.1719 22.6934C23.1938 22.6056 23.2048 22.5178 23.2268 22.4299C23.2597 22.3201 23.2926 22.1994 23.3146 22.0786C23.3914 21.8371 23.2707 21.5627 23.0292 21.4858C22.9743 21.4639 22.9304 21.4639 22.8755 21.4639C22.6888 21.4309 22.5132 21.5627 22.4363 21.7493Z" fill="#2C2C2C"/>
<path d="M5.06881 21.4311C4.94805 21.4531 4.84925 21.5299 4.78338 21.6287C4.70653 21.7385 4.69555 21.8593 4.71751 21.98C4.79436 22.5289 4.83827 23.0888 4.95903 23.6377C5.01392 23.9122 5.09076 24.1757 5.18957 24.4282C5.29935 24.7246 5.45304 24.988 5.62869 25.2405C5.6726 25.2954 5.73847 25.3393 5.80434 25.3613C5.91412 25.3942 6.0239 25.3942 6.1227 25.3393C6.22151 25.2954 6.29835 25.2076 6.33129 25.1088C6.3752 24.999 6.35325 24.9002 6.30933 24.7904C6.28738 24.7136 6.26542 24.6367 6.25444 24.5599C6.2764 24.494 6.28738 24.4172 6.2764 24.3403C6.23249 24.0329 6.13368 23.7365 6.04586 23.4401C5.96901 23.1986 5.91412 22.9681 5.88119 22.7266C5.87021 22.6717 5.87021 22.6168 5.85923 22.5619C5.85923 22.5509 5.85923 22.529 5.85923 22.518C5.85923 22.507 5.85923 22.496 5.85923 22.485C5.85923 22.4411 5.84825 22.3972 5.84825 22.3423C5.83727 22.2765 5.80434 22.2106 5.76043 22.1557C5.73847 22.1337 5.70554 22.1008 5.68358 22.0898C5.6726 21.991 5.66162 21.8922 5.63967 21.7934C5.60673 21.5739 5.38717 21.4202 5.17859 21.4202C5.1237 21.4311 5.09076 21.4311 5.06881 21.4311Z" fill="#2C2C2C"/>
<path d="M17.7595 2.37302C17.7046 2.52672 17.7814 2.71334 17.9461 2.75726C18.6048 2.93291 19.2744 3.13051 19.9112 3.37203C19.8672 3.45985 19.8453 3.55865 19.8672 3.64648C19.8892 3.7343 19.9441 3.85506 20.0319 3.888C20.0649 3.89898 20.0978 3.92093 20.1197 3.93191C20.1197 3.93191 20.1197 3.93191 20.1307 3.93191C20.2515 3.9868 20.3613 4.04169 20.482 4.09658C20.7565 4.2393 21.0199 4.40397 21.3054 4.53571C21.3932 4.57962 21.492 4.55766 21.5798 4.51375C21.7884 4.57962 21.997 4.64549 22.2056 4.72233C22.4581 4.79918 22.6996 4.887 22.9521 4.97483C23.1168 5.02972 23.3034 4.97483 23.4022 4.83212C23.523 4.65647 23.4681 4.41495 23.3034 4.29419C22.9411 4.04169 22.5569 3.81115 22.1617 3.60257C21.7445 3.38301 21.3054 3.19638 20.8663 3.02073C19.988 2.68041 19.0768 2.42791 18.1656 2.18639C18.1327 2.17542 18.0998 2.17542 18.0668 2.17542C17.9241 2.17542 17.8034 2.24129 17.7595 2.37302Z" fill="#2C2C2C"/>
<path d="M15.9591 6.68742C15.9261 6.6984 15.8822 6.70938 15.8493 6.72036C15.7834 6.75329 15.7176 6.80818 15.6737 6.87405C15.2455 7.35709 14.8613 7.86208 14.4331 8.34512C14.2794 8.52077 14.1257 8.68544 13.9391 8.83913C13.8623 8.71837 13.7305 8.64153 13.5988 8.63055C13.489 8.61957 13.3682 8.66348 13.2804 8.74033C13.2036 8.8062 13.1267 8.92695 13.1377 9.03674C13.1377 9.21238 13.1597 9.39901 13.2475 9.55271C13.3024 9.64053 13.3573 9.71738 13.4561 9.77227C13.5439 9.83814 13.6427 9.86009 13.7525 9.87107C13.9062 9.89303 14.0818 9.82716 14.2136 9.75031C14.3782 9.66249 14.5209 9.54173 14.6637 9.40999C14.993 9.1026 15.2894 8.75131 15.5748 8.40001C15.8603 8.05969 16.1347 7.71936 16.4202 7.37904C16.497 7.29122 16.508 7.13753 16.486 7.02775C16.4641 6.90699 16.3982 6.80818 16.2994 6.74231C16.2226 6.68742 16.1347 6.66547 16.0469 6.66547C16.0249 6.67644 15.992 6.67645 15.9591 6.68742Z" fill="#2C2C2C"/>
</svg>
