<svg width="30" height="28" viewBox="0 0 30 28" fill="none" xmlns="http://www.w3.org/2000/svg">
<ellipse cx="14.5" cy="15.5" rx="8.5" ry="10.5" fill="#7B442B"/>
<ellipse cx="5.83512" cy="17.0253" rx="2.43512" ry="3.26012" transform="rotate(-33.7148 5.83512 17.0253)" fill="#7B442B"/>
<ellipse cx="23.9644" cy="16.9645" rx="2.34646" ry="3.26012" transform="rotate(-142.554 23.9644 16.9645)" fill="#7B442B"/>
<path d="M15.2199 0.359294C14.6797 0.359294 14.1198 0.418222 13.5502 0.526262C13.0001 0.624479 12.4796 0.781629 11.9787 0.997707C11.4483 1.22361 10.9769 1.48879 10.5644 1.80309C10.3385 1.97988 10.142 2.15667 9.95541 2.35311C9.77862 2.53972 9.61165 2.74598 9.4545 2.99152C9.2286 3.32546 9.05181 3.69869 8.92412 4.1112C8.76698 4.25853 8.59019 4.41567 8.40357 4.563C8.24642 4.69068 8.0991 4.80855 7.94195 4.92641C7.6473 5.16213 7.34282 5.39785 7.05799 5.65322C6.59637 6.07555 6.22314 6.56664 5.94814 7.10683C5.51598 7.97115 5.34901 8.92386 5.18204 9.85692C5.074 10.456 4.96596 11.065 4.78917 11.6543C4.74988 11.782 4.70077 11.9195 4.65166 12.0668C4.46505 12.5186 4.21951 12.9704 3.87575 13.4419C3.60074 13.8249 3.28644 14.1883 2.99179 14.5517C2.97215 14.5714 2.96232 14.591 2.94268 14.6107C2.70696 15.3178 2.42213 16.0152 2.12748 16.7027C1.63639 17.8518 1.13548 19.0108 0.909578 20.2385C0.821182 20.8082 0.801541 21.3877 0.85065 21.9671C0.929224 22.5859 1.07655 23.1949 1.29263 23.7743C1.48906 24.2556 1.71496 24.7172 2.00961 25.1494C2.19623 25.3851 2.39266 25.611 2.61856 25.8074C2.84446 25.9842 3.09001 26.1316 3.34537 26.2592C3.84628 26.4753 4.37666 26.5932 4.90703 26.6914C5.44723 26.7798 5.9776 26.8387 6.5178 26.9369C6.57673 26.9271 6.63566 26.9173 6.69459 26.9075C7.54908 26.7798 8.67858 26.6325 9.82773 26.6325C9.94559 26.6325 10.0536 26.6325 10.1715 26.6325C10.859 26.6619 11.576 26.7602 12.4403 26.9369C12.8921 27.0352 13.3537 27.1432 13.7957 27.2512C14.1297 27.3298 14.4734 27.4182 14.8172 27.4968C15.7601 27.7129 16.5163 27.8307 17.2235 27.8602C17.3708 27.87 17.5182 27.87 17.6851 27.87C17.9405 27.87 18.1959 27.8602 18.4316 27.8504C19.2173 27.8209 20.062 27.7718 21.0245 27.6932C21.0442 27.6932 21.0736 27.6932 21.0933 27.6834C22.429 27.5066 23.8041 27.4084 25.0711 26.9369C25.6407 26.7012 26.1908 26.4164 26.6917 26.0628C27.0747 25.778 27.4185 25.4539 27.7229 25.1003C28.0078 24.7467 28.2435 24.3636 28.4399 23.961C28.6658 23.4502 28.8132 22.9198 28.9114 22.3698C29.0391 21.5055 29.0391 20.6216 28.9507 19.7572C28.8524 18.8536 28.6658 17.95 28.4399 17.0661C28.214 16.6045 27.9783 16.1527 27.7426 15.7107C27.4086 15.0723 27.0649 14.4044 26.7506 13.7463C26.4559 13.0883 26.2104 12.4793 26.0238 11.89C25.9354 11.615 25.8568 11.3204 25.7881 11.0454L25.7586 10.9275C25.6702 10.6034 25.6015 10.3185 25.5229 10.0534C25.1595 8.73724 24.7961 7.69614 24.3934 6.75325C23.9121 5.62375 23.3719 4.68086 22.763 3.8853C22.4192 3.44332 22.046 3.04063 21.6629 2.68705C21.2602 2.32364 20.8183 1.9897 20.337 1.69505C19.3646 1.10575 18.2057 0.693234 16.919 0.467334C16.3494 0.369116 15.7797 0.320007 15.2395 0.320007H15.2199V0.359294ZM14.2868 25.2672C13.7368 25.2083 13.1769 25.0708 12.6269 24.8646C12.0082 24.619 11.409 24.2949 10.8394 23.8824C10.2402 23.4502 9.70987 22.9493 9.24824 22.3993C8.82591 21.8886 8.47232 21.3189 8.19732 20.7198C7.86338 19.9635 7.60801 19.1188 7.44104 18.1367C7.26425 17.0366 7.1955 15.9071 7.12675 14.8169C7.09728 14.4142 7.07763 14.0017 7.04817 13.599C7.81427 12.9213 8.47232 12.0766 8.99288 11.1043C9.28753 10.5444 9.53307 9.94532 9.70986 9.31673C9.82772 8.90421 9.91612 8.47206 9.96523 8.0399C10.0831 8.16758 10.2206 8.28544 10.3581 8.39348C10.7706 8.73724 11.2617 9.05154 11.8019 9.31673C12.7251 9.76853 13.8154 10.1123 15.2199 10.3775C16.2119 10.5739 17.2333 10.7016 18.2155 10.8195L18.4512 10.8489C18.962 10.9177 19.4825 10.9864 19.9834 11.0552H20.0031L20.3075 11.0945C20.5432 11.1239 20.7888 11.1632 21.0343 11.2025C21.5254 12.0865 21.9478 12.8231 22.4487 13.5106C22.4781 14.1883 22.4487 14.8955 22.3701 15.6616C22.2129 17.1545 21.879 18.5786 21.3781 19.8849L21.3683 19.9144V19.9242L21.3585 19.9537C21.3585 19.9537 21.3683 19.9439 21.3683 19.934C21.0147 20.8376 20.6218 21.5743 20.17 22.2127C19.8754 22.6056 19.5316 22.9788 19.1387 23.3029C18.6378 23.7154 18.0485 24.069 17.3414 24.3931H17.3315H17.3217L17.2922 24.4029H17.3021C16.8405 24.6092 16.3395 24.8056 15.6717 25.0315C15.4556 25.1003 15.2297 25.1789 14.9449 25.2672C14.9154 25.2672 14.8859 25.2672 14.8466 25.2672C14.6502 25.2967 14.4636 25.2869 14.2868 25.2672ZM6.52762 14.0017V14.0213V14.0508C6.50797 14.041 6.49815 14.0213 6.47851 14.0115C6.49815 14.0017 6.5178 14.0017 6.52762 14.0017ZM22.3996 19.5412L22.3897 19.5313L22.3799 19.5215C22.3701 19.5117 22.3603 19.4921 22.3505 19.4822C22.3308 19.4429 22.321 19.3938 22.3112 19.3447C22.3013 19.2465 22.2915 19.1483 22.3013 19.0206C22.3013 18.9911 22.2915 18.9519 22.2817 18.9224C22.3406 18.7063 22.3996 18.4902 22.4585 18.284C22.6255 17.6259 22.7531 16.9286 22.8514 16.2116C22.8906 15.8777 22.9299 15.5437 22.9496 15.2196C23.0085 15.1116 23.0773 15.0035 23.1558 14.8955C23.2933 14.7089 23.4505 14.5419 23.6175 14.4044C23.7451 14.3062 23.863 14.2276 23.9907 14.1687C24.0791 14.1294 24.1675 14.0999 24.2559 14.0803C24.305 14.0705 24.3443 14.0705 24.3934 14.0705C24.413 14.0705 24.4327 14.0705 24.4523 14.0705C24.5112 14.0803 24.58 14.0901 24.6389 14.1097C24.6979 14.1392 24.7568 14.1687 24.8157 14.208C24.8845 14.2669 24.963 14.3356 25.022 14.4044C25.0711 14.4633 25.1104 14.5321 25.1398 14.6008C25.1791 14.699 25.2086 14.7874 25.2282 14.8955C25.2479 15.0625 25.2577 15.2392 25.238 15.4259C25.1988 15.7893 25.1005 16.1723 24.9336 16.6045C24.6782 17.2429 24.3639 17.8322 24.0005 18.3429C23.8041 18.6081 23.5487 18.8733 23.2541 19.1188C23.0576 19.276 22.8808 19.3938 22.7139 19.4724C22.6451 19.5019 22.5764 19.5215 22.5174 19.5412C22.4978 19.5412 22.4781 19.5412 22.4585 19.5412H22.4487C22.4192 19.5412 22.4094 19.5412 22.3996 19.5412ZM6.53744 19.5805C6.46869 19.5706 6.40976 19.551 6.34101 19.5313C6.2035 19.4724 6.05618 19.3938 5.90885 19.2858C5.64366 19.0894 5.39812 18.8536 5.17222 18.5786C5.074 18.4608 5.00525 18.3527 4.93649 18.2545C4.8481 18.1072 4.7597 17.95 4.67131 17.7536C4.43559 17.2429 4.27844 16.7321 4.19004 16.2312C4.14093 15.9169 4.13111 15.6321 4.15075 15.3571C4.1704 15.1803 4.20969 15.0232 4.25879 14.8758C4.3079 14.7678 4.35701 14.6794 4.41594 14.591C4.48469 14.5026 4.55345 14.424 4.64184 14.3455C4.72042 14.2865 4.80881 14.2276 4.89721 14.1883C4.97578 14.149 5.06418 14.1294 5.15257 14.1097C5.2115 14.0999 5.27043 14.0999 5.32936 14.0999C5.35883 14.0999 5.3883 14.0999 5.41776 14.0999C5.5258 14.1097 5.62402 14.1392 5.73206 14.1785C5.84992 14.2276 5.95796 14.2865 6.06599 14.3651C6.18386 14.4535 6.28207 14.5517 6.38029 14.6598C6.4294 14.7285 6.48833 14.7973 6.52762 14.8758C6.54726 14.8955 6.56691 14.9249 6.58655 14.9446C6.63566 15.7107 6.69459 16.6536 6.81245 17.5572C6.87138 18.0581 6.94995 18.5001 7.04817 18.9224C7.02853 18.9519 7.01871 18.9715 7.01871 19.001C6.99906 19.0992 6.97942 19.1876 6.94995 19.276C6.92049 19.3349 6.89102 19.3938 6.86156 19.4429C6.84191 19.4724 6.82227 19.4921 6.79281 19.5117C6.77316 19.5215 6.75352 19.5412 6.73388 19.551C6.71423 19.5608 6.68477 19.5706 6.66512 19.5706C6.64548 19.5706 6.61601 19.5706 6.59637 19.5706C6.56691 19.5805 6.54726 19.5805 6.53744 19.5805ZM12.2733 26.3575H12.4108H12.2733Z" fill="#2C2C2C"/>
<path d="M29.7758 23.6959C29.7856 23.6959 29.8053 23.6959 29.8151 23.6959C29.8249 23.6271 29.8249 23.5584 29.8347 23.4896C29.8151 23.5486 29.7955 23.6271 29.7758 23.6959Z" fill="#2C2C2C"/>
<path d="M5.05457 15.1803C4.99564 15.2392 4.99564 15.3374 5.05457 15.4062C5.19208 15.5437 5.32958 15.6812 5.47691 15.8089C5.63406 15.9562 5.78138 16.1035 5.92871 16.2508C6.21354 16.5357 6.49837 16.8303 6.74392 17.1544C6.77338 17.1937 6.84213 17.2134 6.89124 17.2134C6.95017 17.2134 6.99928 17.1937 7.03857 17.1544C7.07786 17.1152 7.0975 17.066 7.0975 17.0071C7.0975 16.9875 7.0975 16.9678 7.08768 16.9482C7.07786 16.9089 7.05821 16.8794 7.03857 16.8598C6.7832 16.5357 6.49837 16.2508 6.1939 15.9857C6.04657 15.8482 5.88942 15.7205 5.7421 15.5928C5.58495 15.4553 5.4278 15.3178 5.27065 15.1901C5.24119 15.1606 5.2019 15.141 5.16261 15.141C5.12333 15.1312 5.08404 15.1508 5.05457 15.1803Z" fill="#2C2C2C"/>
<path d="M24.3936 14.8266C24.207 14.9347 24.0203 15.0525 23.8435 15.1704C23.7551 15.2293 23.6569 15.2883 23.5685 15.357C23.4605 15.4356 23.3623 15.5043 23.2641 15.5829C22.9007 15.8677 22.5765 16.2115 22.3997 16.6338L22.3801 16.6829C22.3703 16.7222 22.3703 16.7517 22.3801 16.791C22.3899 16.8401 22.4292 16.8794 22.4685 16.9088C22.5176 16.9383 22.5667 16.9383 22.6158 16.9285C22.6551 16.9187 22.714 16.8794 22.7337 16.8401C22.8024 16.6829 22.8908 16.5454 22.9891 16.4079C23.2542 16.0642 23.5882 15.7793 23.9221 15.5142C24.1186 15.357 24.3346 15.2195 24.5409 15.082C24.5704 15.0624 24.5998 15.0329 24.6096 14.9936C24.6195 14.9543 24.6195 14.915 24.5998 14.8856C24.5704 14.8365 24.5212 14.8168 24.4721 14.8168C24.4427 14.807 24.4132 14.8168 24.3936 14.8266ZM22.9989 16.3785L22.9891 16.3883C22.9989 16.3883 22.9989 16.3883 22.9989 16.3785Z" fill="#2C2C2C"/>
<path d="M13.9727 15.9267C14.012 16.4964 13.9236 17.0758 14.0218 17.6455C14.0415 17.783 14.1004 17.9205 14.1691 18.0384C14.2084 18.1071 14.2674 18.1759 14.3263 18.225C14.3656 18.2544 14.4049 18.2937 14.454 18.3134C14.5031 18.3428 14.562 18.3625 14.6111 18.3821C14.6897 18.4116 14.7781 18.4116 14.8665 18.4116C14.9254 18.4116 14.9843 18.4018 15.0335 18.392C15.0924 18.3821 15.1611 18.3527 15.2102 18.3232C15.3969 18.2446 15.5442 18.0875 15.6817 17.9402C15.7799 17.8321 15.7996 17.6848 15.7308 17.5669C15.6915 17.4982 15.6228 17.4491 15.5442 17.4196C15.4558 17.4 15.3772 17.4098 15.3085 17.4491C15.279 17.4589 15.2495 17.4785 15.2299 17.4884C15.1219 17.5276 15.0138 17.5669 14.896 17.5964C14.8763 17.5964 14.8567 17.5964 14.837 17.5964H14.8272C14.8174 17.5964 14.8174 17.5866 14.8076 17.5866C14.7879 17.5669 14.7683 17.5571 14.7584 17.5375C14.7192 17.4785 14.6799 17.4098 14.6504 17.341C14.5817 17.1544 14.5325 16.9482 14.5031 16.7517C14.4736 16.4767 14.4638 16.2017 14.4441 15.9267C14.4343 15.7892 14.3361 15.6812 14.1986 15.6812C14.0906 15.6812 13.9629 15.7892 13.9727 15.9267Z" fill="#2C2C2C"/>
<path d="M11.4583 19.1188C11.4092 19.1679 11.3993 19.2759 11.4583 19.3251C11.6645 19.4822 11.8708 19.6393 12.0967 19.767C12.3226 19.8947 12.5779 19.9831 12.8235 20.0715C13.3244 20.2385 13.8646 20.2974 14.3851 20.3072C15.4262 20.3269 16.4575 20.0911 17.4593 19.7965C17.5477 19.767 17.6067 19.6786 17.5772 19.5804C17.5576 19.492 17.4593 19.4331 17.3611 19.4626C16.9486 19.5804 16.5263 19.6786 16.1039 19.7376C15.3673 19.8358 14.611 19.8456 13.8744 19.7572C13.1672 19.659 12.4699 19.4626 11.802 19.1875C11.7431 19.1581 11.6842 19.1384 11.6252 19.109C11.5958 19.0992 11.5761 19.0893 11.5467 19.0893C11.527 19.0697 11.4877 19.0893 11.4583 19.1188ZM13.8941 19.7474C13.9137 19.7474 13.9333 19.7474 13.9432 19.7572C13.9235 19.7474 13.9039 19.7474 13.8941 19.7474Z" fill="#2C2C2C"/>
<path d="M14.0316 20.7592C14.0022 20.7592 13.9727 20.769 13.9432 20.7788C13.9039 20.7984 13.8745 20.8377 13.8647 20.877C13.8352 20.9654 13.8941 21.0538 13.9825 21.0833C14.12 21.1226 14.2673 21.1422 14.4147 21.1618C14.562 21.1815 14.7191 21.2011 14.8665 21.211C14.9156 21.211 14.9745 21.1913 15.004 21.152C15.0433 21.1127 15.0629 21.0636 15.0629 21.0145C15.0629 20.9654 15.0433 20.9065 15.004 20.877C14.9647 20.8377 14.9156 20.8279 14.8665 20.8181C14.729 20.8083 14.5915 20.7984 14.4441 20.7886C14.3754 20.7886 14.3165 20.7788 14.2477 20.7788C14.179 20.769 14.1102 20.7592 14.0316 20.7592Z" fill="#2C2C2C"/>
<path d="M18.0095 13.54C17.8818 13.5793 17.7738 13.6579 17.6952 13.7561C17.6559 13.8052 17.6166 13.8543 17.5872 13.9133C17.5577 13.9722 17.5282 14.0311 17.5086 14.09C17.4693 14.1883 17.4595 14.2963 17.4595 14.4043C17.4595 14.6695 17.5872 14.9052 17.8131 15.0428C18.0095 15.1508 18.2649 15.1803 18.4809 15.1017C18.589 15.0624 18.6774 15.0035 18.7756 14.9249C18.8542 14.8561 18.9131 14.7677 18.9524 14.6695C19.0015 14.5615 19.0211 14.4633 19.031 14.3552C19.0408 14.2374 19.0113 14.1195 18.9622 14.0213C18.9229 13.9231 18.8542 13.8445 18.7756 13.7757C18.7068 13.7168 18.6381 13.6677 18.5595 13.6284L18.5497 13.6186C18.5006 13.5793 18.4417 13.5597 18.3827 13.54C18.3336 13.5204 18.2747 13.5106 18.2157 13.5106C18.1372 13.5106 18.0684 13.5204 18.0095 13.54ZM18.2452 14.3356C18.255 14.3454 18.2649 14.3651 18.2845 14.3749C18.2943 14.3945 18.314 14.4142 18.3238 14.424C18.3336 14.4436 18.3533 14.4731 18.3729 14.4927C18.3729 14.4927 18.3729 14.4927 18.3631 14.4927C18.3434 14.5026 18.3336 14.5026 18.314 14.5026C18.3041 14.5026 18.2845 14.5026 18.2747 14.5026C18.2649 14.5026 18.255 14.5026 18.2452 14.4927C18.2354 14.4829 18.2256 14.4829 18.2157 14.4731C18.2157 14.4534 18.2157 14.4436 18.2157 14.424C18.2256 14.3945 18.2256 14.3651 18.2354 14.3356C18.2354 14.3454 18.2354 14.3454 18.2452 14.3356Z" fill="#2C2C2C"/>
<path d="M18.1664 13.9331C18.1272 13.9528 18.1075 13.9921 18.0977 14.0215C18.0879 14.0707 18.0977 14.1001 18.1173 14.1394C18.1272 14.159 18.137 14.1787 18.1468 14.1983C18.0879 14.2278 18.0486 14.2867 18.0486 14.3457C18.0486 14.4341 18.1075 14.4832 18.1763 14.5224C18.2156 14.5519 18.2647 14.5519 18.304 14.5421C18.3236 14.5519 18.3432 14.5519 18.3629 14.5617C18.412 14.5814 18.4807 14.5617 18.52 14.5224C18.5593 14.4832 18.5691 14.4242 18.5593 14.3653C18.5397 14.2966 18.5102 14.2278 18.4807 14.159C18.4513 14.1001 18.412 14.0412 18.3825 13.9724C18.3629 13.9331 18.3236 13.9135 18.2941 13.9037C18.2843 13.9037 18.2647 13.8939 18.2548 13.8939C18.2156 13.9135 18.1861 13.9233 18.1664 13.9331Z" fill="#2C2C2C"/>
<path d="M17.6362 10.9863C17.4201 11.0158 17.1942 11.0649 16.988 11.1337C16.88 11.1631 16.7719 11.2024 16.6639 11.2417C16.546 11.281 16.4282 11.3301 16.3201 11.3989C16.2514 11.4381 16.2317 11.5364 16.2514 11.6051C16.2612 11.6444 16.2906 11.6739 16.3201 11.6935C16.3398 11.7524 16.3889 11.7917 16.4478 11.8016C16.5165 11.8114 16.5853 11.8212 16.654 11.831C16.6737 11.831 16.6835 11.831 16.7032 11.8408C17.4005 11.9882 18.0978 12.0766 18.805 12.1453C19.522 12.2141 20.239 12.2632 20.956 12.3516C20.9953 12.3614 21.0444 12.3614 21.0837 12.3417C21.1426 12.3221 21.2015 12.273 21.2212 12.2141C21.2506 12.1551 21.2506 12.0864 21.231 12.0275C21.2113 11.9587 21.1622 11.9194 21.1033 11.8899C20.3961 11.4774 19.63 11.114 18.805 11.006C18.6086 10.9765 18.4121 10.9667 18.2157 10.9667C18.0389 10.9471 17.8327 10.9569 17.6362 10.9863Z" fill="#2C2C2C"/>
<path d="M10.9965 10.9175C10.6135 10.947 10.2403 11.0256 9.88669 11.1533C9.72954 11.2024 9.58222 11.2711 9.42507 11.3399C9.33667 11.3792 9.24828 11.4086 9.1697 11.4577C9.07149 11.5068 8.98309 11.5461 8.88487 11.6051C8.79648 11.6542 8.7179 11.7033 8.63933 11.7524C8.55093 11.8211 8.51165 11.9292 8.55093 12.0274C8.56076 12.0667 8.59022 12.106 8.61968 12.1354C8.65897 12.1747 8.73755 12.2042 8.79648 12.1944C8.95363 12.1649 9.11077 12.1453 9.26792 12.1256C9.42507 12.106 9.58222 12.0765 9.74919 12.0569C10.0831 12.0078 10.4269 11.9586 10.7608 11.9095C11.4091 11.8211 12.0573 11.772 12.7154 11.8015C12.7645 11.8015 12.8037 11.8113 12.8529 11.8113C12.902 11.831 12.9511 11.8408 13.0002 11.8506C13.0493 11.8604 13.1082 11.8604 13.1475 11.8408C13.1573 11.8408 13.1672 11.8408 13.177 11.8408C13.2752 11.8506 13.3734 11.8015 13.3931 11.6935C13.4029 11.6443 13.3832 11.5854 13.3538 11.5461C13.3538 11.4872 13.3341 11.4381 13.3047 11.389C13.2752 11.3399 13.2359 11.3104 13.1868 11.2908C13.1377 11.2711 13.0886 11.2515 13.0395 11.2318C12.9314 11.1925 12.8234 11.1631 12.7154 11.1238C12.5287 11.0649 12.3421 11.0256 12.1457 10.9863C11.8707 10.9372 11.5957 10.9077 11.3207 10.9077C11.2126 10.9077 11.1046 10.9077 10.9965 10.9175ZM12.7252 11.7818H12.735C12.735 11.7818 12.735 11.7818 12.7252 11.7818Z" fill="#2C2C2C"/>
<path d="M10.6431 13.3534C10.5449 13.3927 10.4762 13.4713 10.4074 13.5499C10.3485 13.6284 10.319 13.7267 10.2994 13.8249C10.2994 13.8543 10.2895 13.874 10.2895 13.9034C10.2502 13.982 10.2306 14.0704 10.2208 14.1588C10.211 14.2374 10.2208 14.316 10.2502 14.3945C10.2797 14.4928 10.3288 14.5713 10.3976 14.6499C10.427 14.7383 10.486 14.8267 10.5547 14.8758C10.6235 14.9347 10.7021 14.9838 10.7904 15.0035C10.8985 15.0231 11.0065 15.0231 11.1146 14.9937C11.1244 14.9937 11.1244 14.9937 11.1342 14.9937C11.2619 15.0035 11.3994 14.9642 11.5074 14.8856C11.6449 14.7874 11.7432 14.6597 11.7923 14.4928C11.8316 14.3454 11.8217 14.1981 11.7923 14.0508C11.7628 13.8936 11.6842 13.7561 11.586 13.6284C11.5074 13.5302 11.3994 13.4516 11.2815 13.4124C11.2717 13.4124 11.2619 13.4025 11.2619 13.4025C11.1637 13.3534 11.0655 13.324 10.9476 13.3043C10.928 13.3043 10.9083 13.3043 10.8887 13.3043C10.8003 13.3043 10.7217 13.324 10.6431 13.3534Z" fill="#2C2C2C"/>
<path d="M10.869 10.5935C10.6333 10.6131 10.3976 10.6426 10.1619 10.6917C9.93598 10.7408 9.71008 10.8194 9.494 10.898C9.10113 11.0551 8.71808 11.2908 8.42343 11.5953C8.33504 11.6837 8.31539 11.8114 8.37432 11.9194C8.43325 12.0275 8.55111 12.0766 8.6788 12.0569C8.95381 12.0078 9.22881 11.9685 9.50382 11.9293C9.51364 11.9293 9.51365 11.9293 9.52347 11.9293C9.54311 11.9293 9.55293 11.9293 9.57258 11.9293C10.2012 11.8801 10.8298 11.89 11.4485 11.8801C12.0771 11.8801 12.7057 11.8605 13.3343 11.7819C13.4227 11.7721 13.5013 11.6837 13.5307 11.5953C13.5602 11.5069 13.5406 11.3891 13.4718 11.3301C13.3736 11.2417 13.2754 11.173 13.1673 11.114C13.0593 11.0551 12.9611 10.9962 12.853 10.9471C12.6566 10.8489 12.4503 10.7703 12.2343 10.7114C11.8905 10.6131 11.5369 10.5739 11.1735 10.5739C11.0655 10.5837 10.9673 10.5935 10.869 10.5935ZM11.7628 11.173C11.8807 11.1926 11.9887 11.2221 12.1066 11.2516C11.3307 11.3007 10.5646 11.3105 9.78866 11.3694C10.103 11.2614 10.4172 11.1828 10.7512 11.1435C11.0851 11.114 11.4289 11.1239 11.7628 11.173ZM11.8021 11.1828C11.8119 11.1828 11.8119 11.1828 11.8218 11.1828C11.8119 11.1828 11.8021 11.1828 11.8021 11.1828Z" fill="#2C2C2C"/>
<path d="M22.9006 16.0445C22.8318 16.0642 22.7729 16.1035 22.7336 16.1624C22.6943 16.2213 22.6845 16.2999 22.7042 16.3687C22.7238 16.4276 22.7631 16.5062 22.822 16.5356C23.0774 16.6633 23.3229 16.8008 23.5685 16.9383C23.6962 17.0071 23.8631 16.9776 23.9417 16.8499C24.0203 16.7321 23.981 16.5455 23.8533 16.4767C23.6078 16.3392 23.3524 16.2017 23.1068 16.074C23.0577 16.0446 23.0086 16.0347 22.9595 16.0347C22.9399 16.0347 22.9202 16.0347 22.9006 16.0445Z" fill="#2C2C2C"/>
<path d="M6.13505 16.7812C6.05648 16.7812 5.99755 16.8009 5.93861 16.85C5.88951 16.8991 5.86004 16.9679 5.85022 17.0366C5.85022 17.1741 5.96808 17.3214 6.11541 17.3116C6.30202 17.3018 6.49846 17.3018 6.68507 17.3116C6.83239 17.3214 6.96008 17.1938 6.96008 17.0464C6.96008 16.8991 6.84222 16.7714 6.69489 16.7714C6.6065 16.7714 6.50828 16.7616 6.41988 16.7616C6.32166 16.7714 6.22345 16.7714 6.13505 16.7812Z" fill="#2C2C2C"/>
<path d="M23.4506 7.41119C23.2934 7.49958 23.1756 7.64691 23.1264 7.81388C23.1166 7.87281 23.1068 7.93174 23.097 8.00049C23.097 8.12818 23.1166 8.24604 23.1854 8.35408C23.4506 9.05142 23.7747 9.7193 24.1086 10.3872C24.5015 11.1729 24.914 11.9488 25.3265 12.7248C26.1712 14.3257 27.0159 15.9463 27.6739 17.6356C28.0963 18.7455 28.4498 19.9045 28.5775 21.0929C28.6266 21.6625 28.6266 22.242 28.5382 22.8117C28.4597 23.2242 28.3418 23.6269 28.1748 24.0099C28.1355 24.0983 28.0864 24.1867 28.0373 24.2653C27.9489 24.4323 27.9096 24.6091 27.9489 24.7957C27.9882 24.9725 28.1061 25.1198 28.2534 25.218C28.5579 25.4046 29.0195 25.3261 29.1963 25.0019C29.4418 24.56 29.6284 24.0983 29.7561 23.6073C29.8838 23.1162 29.9526 22.6054 29.9624 22.0947C29.982 21.5643 29.9329 21.034 29.8642 20.5134C29.7954 20.0027 29.6776 19.4919 29.5499 18.991C29.2454 17.8812 28.8231 16.8106 28.3516 15.7597C27.8802 14.7087 27.3596 13.6873 26.8292 12.6658C26.3774 11.7917 25.906 10.9274 25.464 10.0532C25.0712 9.28714 24.6881 8.5014 24.3738 7.69602C24.3149 7.53887 24.1283 7.41119 23.9711 7.3719C23.9024 7.35226 23.8336 7.34244 23.7649 7.34244C23.6666 7.33262 23.5488 7.35226 23.4506 7.41119Z" fill="#2C2C2C"/>
<path d="M2.32405 16.0641C1.50884 17.5079 0.870425 19.0696 0.575772 20.7098C0.428446 21.5643 0.359694 22.4188 0.438268 23.2831C0.477555 23.7152 0.546309 24.1376 0.654348 24.5501C0.772209 24.9921 0.939178 25.4242 1.13561 25.8367C1.29276 26.1707 1.75438 26.2787 2.06868 26.1118C2.22583 26.0234 2.34369 25.8859 2.3928 25.7091C2.45173 25.5224 2.42226 25.3457 2.34369 25.1787C2.28476 25.0608 2.23565 24.9331 2.18654 24.8153C1.99993 24.3144 1.88207 23.7938 1.81331 23.2536C1.75438 22.5366 1.78385 21.8196 1.89189 21.1027C2.08832 20.0124 2.43208 18.9615 2.88388 17.9597C3.0705 17.5668 3.26693 17.174 3.48301 16.7909C3.57141 16.6239 3.61069 16.4472 3.57141 16.2605C3.53212 16.0838 3.41426 15.9364 3.26693 15.8382C3.15889 15.7695 3.03121 15.74 2.90353 15.74C2.67763 15.74 2.44191 15.8578 2.32405 16.0641Z" fill="#2C2C2C"/>
<path d="M15.7013 0.565673C15.1513 0.60496 14.6013 0.683533 14.0709 0.840681C13.7075 0.938898 13.4718 1.3023 13.57 1.67553C13.6584 2.02911 14.0414 2.28448 14.4048 2.17644C14.7781 2.0684 15.1513 1.99965 15.5245 1.95054C16.2317 1.89161 16.929 1.92107 17.6264 2.02911C18.4809 2.17644 19.3059 2.44162 20.0916 2.78539C20.8479 3.13897 21.5551 3.58095 22.2033 4.1015C22.7238 4.53366 23.1855 5.02475 23.598 5.56494C23.7846 5.83013 23.9516 6.09532 24.0989 6.38015C24.2757 6.71409 24.7078 6.83195 25.032 6.65516C25.3659 6.47837 25.4838 6.05603 25.307 5.72209C24.8159 4.78902 24.1284 3.964 23.3328 3.26665C22.9203 2.90325 22.4685 2.56931 22.0069 2.27466C21.5158 1.96036 20.9952 1.69517 20.455 1.45945C19.4434 1.00765 18.3728 0.732642 17.2728 0.604959C16.9487 0.565672 16.6245 0.546028 16.3004 0.546028C16.104 0.536206 15.8977 0.546029 15.7013 0.565673Z" fill="#2C2C2C"/>
<path d="M26.9473 22.9198C26.5937 23.0082 26.3481 23.3912 26.4463 23.7546C26.4856 23.8921 26.5151 24.0296 26.5347 24.1671C26.5446 24.3145 26.5446 24.452 26.5249 24.5993C26.4954 24.7172 26.466 24.835 26.4169 24.9529C26.3579 25.0609 26.299 25.1591 26.2204 25.2573C26.1124 25.385 25.9847 25.4931 25.8472 25.6011C25.8276 25.6109 25.8178 25.6208 25.7981 25.6306C25.641 25.7288 25.5231 25.8467 25.474 26.0333C25.4151 26.2101 25.4347 26.4065 25.5231 26.5636C25.6115 26.7208 25.7588 26.8386 25.9258 26.8878C26.0928 26.9369 26.3088 26.9369 26.4562 26.8386C26.7214 26.6619 26.9767 26.4752 27.183 26.2297C27.291 26.102 27.3991 25.9743 27.4874 25.827C27.5857 25.6699 27.6642 25.4931 27.733 25.3261C27.841 25.0511 27.8901 24.7466 27.9 24.452C27.9098 24.2752 27.8901 24.0984 27.8705 23.9314C27.8508 23.7644 27.8214 23.5975 27.7723 23.4305C27.6839 23.126 27.4089 22.91 27.1044 22.91C27.0553 22.9001 27.0062 22.91 26.9473 22.9198Z" fill="#2C2C2C"/>
<path d="M2.1962 22.2913C2.0587 22.419 1.99977 22.5859 1.98013 22.7725C1.93102 23.2538 1.96048 23.7253 2.03905 24.1967C2.11763 24.678 2.27478 25.1396 2.49085 25.5816C2.68729 25.9843 2.95248 26.3575 3.25695 26.6914C3.58107 27.0352 3.97394 27.32 4.39627 27.5263C4.4552 27.5557 4.50431 27.5754 4.56324 27.6049C4.6811 27.6441 4.80879 27.6441 4.92665 27.6147C5.10344 27.5754 5.25076 27.4575 5.34898 27.3102C5.4472 27.1531 5.47666 26.9664 5.43738 26.7798C5.39809 26.6227 5.29005 26.4361 5.1329 26.3575C4.907 26.2494 4.70075 26.1218 4.50431 25.9646C4.3177 25.7976 4.15073 25.6209 4.0034 25.4244C3.84625 25.1887 3.70875 24.9333 3.59089 24.6681C3.47303 24.344 3.39446 24.0199 3.35517 23.6762C3.33553 23.3815 3.33552 23.0868 3.36499 22.802C3.40428 22.4288 3.05069 22.1047 2.69711 22.0948C2.68729 22.0948 2.68729 22.0948 2.67747 22.0948C2.49085 22.1047 2.32388 22.1734 2.1962 22.2913Z" fill="#2C2C2C"/>
<path d="M22.4586 6.30157C22.3014 6.38996 22.1836 6.53729 22.1344 6.70426C22.0853 6.87123 22.0952 7.08731 22.1836 7.23463C23.8434 9.8374 25.798 12.2437 27.3694 14.9054C27.556 15.2295 27.9686 15.367 28.3025 15.1804C28.6266 15.0036 28.7641 14.5715 28.5775 14.2474C27.006 11.5857 25.0515 9.17934 23.3916 6.57658C23.2934 6.41943 23.1657 6.30157 22.9889 6.25246C22.9202 6.23282 22.8514 6.22299 22.7827 6.22299C22.6746 6.21317 22.5666 6.24264 22.4586 6.30157Z" fill="#2C2C2C"/>
<path d="M24.1773 24.7959C24.0496 24.9236 23.971 25.0906 23.9612 25.2772C23.9514 25.4736 24.0299 25.621 24.1478 25.7683C24.1576 25.7781 24.1576 25.7781 24.1674 25.7879C24.2165 25.8665 24.2657 25.9353 24.2951 26.0237C24.3049 26.0531 24.3148 26.0826 24.3148 26.1022C24.3148 26.1121 24.3148 26.1121 24.3148 26.1219V26.1317C24.3049 26.1415 24.3049 26.1513 24.2951 26.1612C24.2657 26.1906 24.246 26.2103 24.2165 26.2397C24.1281 26.2987 24.0299 26.3478 23.9317 26.3969C23.7746 26.4656 23.6567 26.6424 23.6076 26.7996C23.5487 26.9764 23.5683 27.1728 23.6567 27.33C23.7451 27.4871 23.8924 27.605 24.0594 27.6541C24.246 27.713 24.4228 27.6835 24.5898 27.605C25.071 27.3889 25.5032 27.0157 25.6505 26.4951C25.7193 26.2397 25.7095 25.9549 25.6407 25.6995C25.5523 25.3754 25.3657 25.1004 25.1594 24.8352C25.0514 24.6977 24.8451 24.629 24.6782 24.6192C24.6683 24.6192 24.6683 24.6192 24.6585 24.6192C24.4719 24.6093 24.3049 24.6781 24.1773 24.7959ZM24.1969 25.8371C24.2165 25.8567 24.2264 25.8763 24.246 25.896C24.2362 25.8763 24.2165 25.8567 24.1969 25.8371Z" fill="#2C2C2C"/>
<path d="M4.96612 24.4126C4.78933 24.4519 4.642 24.5698 4.54379 24.7171C4.51432 24.776 4.49468 24.8252 4.46521 24.8743C4.42593 24.9921 4.42592 25.1198 4.45539 25.2377C4.49468 25.5127 4.57325 25.7582 4.67147 26.0136C4.76969 26.2591 4.89737 26.4752 5.05452 26.6815C5.21167 26.8877 5.38846 27.0645 5.59471 27.2217C5.82061 27.4083 6.07598 27.5261 6.34117 27.644C6.49831 27.7128 6.72421 27.6735 6.87154 27.5949C7.02869 27.5065 7.14655 27.3592 7.19566 27.1922C7.25459 27.0154 7.23494 26.819 7.14655 26.6618C7.10726 26.6127 7.0778 26.5636 7.03851 26.5243C6.95994 26.4359 6.86172 26.377 6.75368 26.3377C6.626 26.269 6.50814 26.2002 6.39028 26.1118C6.29206 26.0234 6.20366 25.9252 6.12509 25.827C6.04651 25.7091 5.97776 25.5814 5.92865 25.4537C5.86972 25.277 5.83044 25.0903 5.80097 24.9136C5.78133 24.7466 5.634 24.5796 5.4965 24.4912C5.38846 24.4225 5.26077 24.3832 5.13309 24.3832C5.07416 24.393 5.02505 24.393 4.96612 24.4126Z" fill="#2C2C2C"/>
<path d="M4.73049 13.5301C4.68138 13.6774 4.76978 13.8542 4.92693 13.9033C4.99568 13.923 5.06443 13.9524 5.13318 13.9819C5.28051 14.0507 5.41802 14.139 5.55552 14.2471C5.73231 14.4042 5.88946 14.5712 6.02696 14.7578C6.19393 14.9935 6.33144 15.2391 6.43948 15.5043C6.50823 15.7007 6.55734 15.8873 6.5868 16.0936C6.59662 16.2311 6.59662 16.3588 6.57698 16.4963C6.57698 16.5159 6.56716 16.5356 6.56716 16.5552C6.56716 16.6043 6.57698 16.6632 6.60644 16.7025C6.64573 16.7713 6.70466 16.8204 6.78324 16.84C6.86181 16.8597 6.94038 16.8597 7.00914 16.8204C7.06807 16.7909 7.13682 16.7222 7.14664 16.6436C7.17611 16.4864 7.18593 16.3391 7.18593 16.182C7.17611 16.0052 7.14664 15.8284 7.10735 15.6516C7.02878 15.3177 6.88145 14.9935 6.70466 14.6989C6.34126 14.0998 5.80106 13.5399 5.11354 13.3435C5.08408 13.3337 5.05461 13.3337 5.02515 13.3337C4.88764 13.314 4.76978 13.4024 4.73049 13.5301Z" fill="#2C2C2C"/>
<path d="M6.16438 13.5696C6.10545 13.6187 6.07599 13.6973 6.07599 13.7759C6.07599 13.8544 6.10546 13.9232 6.15456 13.9821C6.20367 14.041 6.25278 14.1 6.30189 14.1589V14.1687C6.31171 14.1982 6.34118 14.2277 6.36082 14.2571C6.38046 14.2866 6.40011 14.3062 6.41975 14.3357C6.50815 14.4339 6.6653 14.4536 6.77333 14.3946C6.84209 14.3553 6.8912 14.2964 6.91084 14.2178C6.93048 14.1491 6.93048 14.0509 6.8912 13.9919C6.79298 13.8446 6.68494 13.7071 6.56708 13.5794C6.51797 13.5205 6.43939 13.491 6.36082 13.491C6.29207 13.491 6.21349 13.5205 6.16438 13.5696Z" fill="#2C2C2C"/>
<path d="M5.2313 10.122C5.17237 10.1515 5.10361 10.2202 5.09379 10.2988C4.97593 10.839 4.81878 11.3693 4.59288 11.8703C4.32769 12.4399 3.98393 12.9605 3.63035 13.4712C3.41427 13.7757 3.1982 14.09 3.00176 14.4043C2.80533 14.7186 2.60889 15.0427 2.4321 15.3668C2.06869 16.0445 1.76422 16.7517 1.56778 17.4883C1.36153 18.2446 1.29278 19.0303 1.27313 19.816C1.27313 19.9732 1.40081 20.1107 1.55796 20.1205C1.71511 20.1205 1.85262 19.9928 1.86244 19.8357C1.88208 19.3348 1.91154 18.8437 1.99012 18.3428C2.1178 17.6258 2.3437 16.9285 2.63835 16.2704C2.62853 16.2802 2.62853 16.2999 2.61871 16.3097C2.62853 16.29 2.62853 16.2802 2.63835 16.2606C2.63835 16.2508 2.64818 16.2409 2.64818 16.2409C2.64818 16.2508 2.63835 16.2606 2.63835 16.2606C2.87408 15.7597 3.14909 15.2686 3.44374 14.7971C3.75804 14.3061 4.1018 13.8346 4.42591 13.3435C4.71074 12.9114 4.96611 12.4694 5.17237 11.9979C5.39827 11.5069 5.54559 10.9863 5.66346 10.4559C5.6831 10.3774 5.6831 10.2988 5.64381 10.23C5.60452 10.1613 5.54559 10.1122 5.46702 10.0925C5.43755 10.0827 5.40809 10.0827 5.37862 10.0827C5.32951 10.0827 5.2804 10.0925 5.2313 10.122Z" fill="#2C2C2C"/>
<path d="M24.1282 13.3926C23.6175 13.648 23.205 14.0605 22.8711 14.5221C22.7139 14.748 22.5862 14.9936 22.4782 15.2489C22.3701 15.5141 22.3112 15.799 22.3014 16.0838C22.3014 16.2409 22.4291 16.3784 22.5862 16.3883C22.7434 16.3981 22.8809 16.2606 22.8907 16.1034C22.8907 16.0249 22.9005 15.9365 22.9103 15.8579C22.9496 15.6713 23.0086 15.4945 23.0773 15.3177C23.1952 15.0721 23.3523 14.8364 23.5193 14.6203C23.6764 14.4337 23.8532 14.2668 24.0398 14.1194C24.1577 14.0409 24.2756 13.9721 24.3934 13.9132C24.5408 13.8444 24.5899 13.648 24.5113 13.5105C24.4524 13.4123 24.3541 13.3632 24.2559 13.3632C24.2265 13.3632 24.1773 13.373 24.1282 13.3926Z" fill="#2C2C2C"/>
<path d="M22.2229 17.1544C22.164 17.1838 22.0952 17.2526 22.0854 17.3311C21.9773 17.9597 21.7318 18.6473 22.0265 19.2562C22.105 19.4134 22.2327 19.541 22.38 19.6294C22.4586 19.6785 22.5568 19.7178 22.655 19.7375C22.7729 19.7669 22.8908 19.7669 23.0185 19.7473C23.4113 19.6982 23.7453 19.4723 24.089 19.3053C24.2364 19.2366 24.2855 19.0401 24.2069 18.9026C24.1283 18.7553 23.9515 18.716 23.8042 18.7848C23.5881 18.883 23.3917 19.0107 23.1756 19.0991C23.097 19.1285 23.0086 19.1482 22.9202 19.1678C22.881 19.1678 22.8417 19.1678 22.8024 19.1678C22.7729 19.158 22.7434 19.1482 22.714 19.1383C22.6845 19.1187 22.655 19.1089 22.6354 19.0892C22.6158 19.0696 22.5961 19.05 22.5765 19.0303C22.5568 19.0008 22.5372 18.9714 22.5274 18.9321C22.5077 18.8732 22.4979 18.8044 22.4881 18.7357C22.4783 18.549 22.4979 18.3723 22.5175 18.1856C22.5568 17.9597 22.6158 17.7338 22.6452 17.5079C22.6452 17.4785 22.655 17.4588 22.655 17.4294C22.655 17.3803 22.6452 17.3213 22.6158 17.282C22.5765 17.2133 22.5175 17.1642 22.439 17.1445C22.4095 17.1347 22.38 17.1347 22.3506 17.1347C22.3113 17.1249 22.2622 17.1347 22.2229 17.1544Z" fill="#2C2C2C"/>
<path d="M6.9009 16.8893C6.74375 16.9286 6.64554 17.0955 6.68482 17.2429C6.7634 17.508 6.81251 17.783 6.85179 18.0581C6.87144 18.2741 6.87144 18.4804 6.84197 18.6965C6.82233 18.7849 6.80268 18.8733 6.7634 18.9617C6.74375 19.0108 6.71429 19.0501 6.68482 19.0893C6.65536 19.1188 6.63571 19.1483 6.60625 19.1679C6.57678 19.1876 6.5375 19.2072 6.49821 19.2268C6.43928 19.2465 6.39017 19.2563 6.33124 19.2661C6.25267 19.2661 6.17409 19.2661 6.09552 19.2563C5.9973 19.2367 5.89908 19.1974 5.80087 19.1581C5.62408 19.0697 5.45711 18.9518 5.29996 18.834C5.28031 18.8242 5.27049 18.8045 5.25085 18.7947C5.19192 18.7456 5.13299 18.7063 5.04459 18.7063C4.96602 18.7063 4.88744 18.7358 4.83833 18.7849C4.7794 18.834 4.74994 18.9126 4.74994 18.9911C4.74994 19.0599 4.76958 19.1581 4.82851 19.1974C5.04459 19.384 5.27049 19.551 5.52586 19.6786C5.79104 19.8063 6.07587 19.8849 6.37053 19.8554C6.56696 19.8358 6.7634 19.7867 6.93037 19.659C6.99912 19.6099 7.06787 19.551 7.1268 19.4822C7.18573 19.4036 7.24466 19.3349 7.28395 19.2367C7.45092 18.8929 7.48038 18.5099 7.45092 18.1366C7.43128 17.7831 7.36252 17.4393 7.26431 17.0955C7.22502 16.9678 7.10716 16.8696 6.97948 16.8696C6.95001 16.8795 6.92054 16.8893 6.9009 16.8893ZM6.85179 18.6474C6.85179 18.6572 6.85179 18.6572 6.85179 18.667C6.84197 18.6572 6.85179 18.6572 6.85179 18.6474Z" fill="#2C2C2C"/>
<path d="M17.4299 11.7525C16.6835 12.0177 16.0647 12.5579 15.6817 13.2553C15.5835 13.432 15.5049 13.6285 15.446 13.8151C15.3772 14.0214 15.3379 14.2374 15.3183 14.4437C15.2692 14.8267 15.3084 15.2098 15.3968 15.583C15.446 15.7794 15.5245 15.9661 15.6031 16.1527C15.6915 16.3491 15.8094 16.5357 15.937 16.7027C16.1826 17.0268 16.4772 17.292 16.8112 17.5081C17.1451 17.7242 17.5183 17.8617 17.9014 17.9402C18.3041 18.0188 18.7166 18.009 19.1193 17.9402C19.522 17.8715 19.9148 17.7045 20.2586 17.4786C20.6122 17.2527 20.9068 16.9581 21.1524 16.6143C21.3783 16.3 21.5453 15.9268 21.6337 15.5535C21.7221 15.1901 21.7515 14.8071 21.7122 14.4339C21.6926 14.2571 21.6631 14.0803 21.614 13.9035C21.5649 13.7169 21.4961 13.5499 21.4176 13.3731V13.3633C21.2702 13.0392 21.0443 12.7445 20.7988 12.4892L20.789 12.4793C20.7693 12.4597 20.7497 12.44 20.7301 12.4204C20.7202 12.4106 20.7202 12.4106 20.7104 12.4008C20.5827 12.2829 20.455 12.1847 20.3077 12.0865C20.2881 12.0766 20.2684 12.0668 20.2586 12.0472C20.1407 11.9686 20.0229 11.9097 19.8952 11.8507C19.8461 11.8213 19.7872 11.8016 19.7282 11.782C19.7086 11.7722 19.6988 11.7722 19.6791 11.7623C19.6693 11.7623 19.6693 11.7623 19.6595 11.7525C19.3648 11.6347 19.0505 11.5757 18.7264 11.5561C18.697 11.5561 18.6675 11.5561 18.6478 11.5561C18.638 11.5561 18.638 11.5561 18.6282 11.5561C18.5987 11.5561 18.5791 11.5561 18.5496 11.5561C18.53 11.5561 18.5202 11.5561 18.5005 11.5561C18.1273 11.5659 17.7639 11.6248 17.4299 11.7525ZM18.7952 12.1159C18.8246 12.1159 18.8541 12.1258 18.8836 12.1258C19.1193 12.165 19.3452 12.224 19.5613 12.3124C19.63 12.3418 19.7086 12.3811 19.7773 12.4204C19.8657 12.4695 19.9443 12.5186 20.0229 12.5677L20.0425 12.5776H20.0524L20.0622 12.5874L20.072 12.5972C20.072 12.5972 20.072 12.5972 20.0818 12.5972C20.1113 12.6168 20.1309 12.6365 20.1604 12.6561C20.2488 12.7249 20.3372 12.8035 20.4158 12.882C20.4158 12.882 20.4158 12.882 20.4256 12.8918C20.5042 12.9704 20.5729 13.049 20.6515 13.1374C20.6711 13.157 20.6809 13.1767 20.7006 13.2061C20.7006 13.2061 20.7006 13.2061 20.7006 13.216V13.2258C20.8184 13.3928 20.9167 13.5597 20.9952 13.7463C21.0836 13.9722 21.1426 14.1981 21.1819 14.4339C21.2113 14.6696 21.2113 14.9151 21.1819 15.1509C21.1426 15.3866 21.0836 15.6125 20.9952 15.8286C20.897 16.0446 20.789 16.2411 20.6417 16.4277C20.4943 16.6045 20.3372 16.7714 20.1604 16.9089C19.9738 17.0464 19.7773 17.1643 19.5613 17.2625C19.3452 17.3509 19.1193 17.4099 18.8836 17.4491C18.6478 17.4786 18.4121 17.4786 18.1666 17.4491C17.9309 17.4099 17.705 17.3509 17.4889 17.2625C17.2728 17.1643 17.0764 17.0464 16.8799 16.9089C16.7031 16.7616 16.5362 16.6045 16.3987 16.4179C16.2612 16.2312 16.1433 16.0348 16.0549 15.8286C15.9665 15.6125 15.9076 15.3768 15.8683 15.141C15.8388 14.9053 15.8388 14.6696 15.8683 14.4339C15.9076 14.1981 15.9665 13.9722 16.0549 13.7463C16.1531 13.5303 16.271 13.3338 16.4085 13.1472C16.5558 12.9704 16.713 12.8035 16.8996 12.6659C17.0862 12.5284 17.2826 12.4106 17.4987 12.3222C17.7148 12.2338 17.9407 12.1749 18.1764 12.1356C18.3728 12.0963 18.5791 12.0963 18.7952 12.1159ZM17.5282 12.2927C17.5183 12.2927 17.5085 12.3025 17.5085 12.3025C17.5085 12.2927 17.5183 12.2927 17.5282 12.2927ZM20.622 16.4375C20.6122 16.4473 20.6122 16.4473 20.6024 16.4571C20.6122 16.4473 20.6122 16.4473 20.622 16.4375ZM16.8406 16.8697C16.8505 16.8697 16.8505 16.8795 16.8603 16.8795C16.8505 16.8795 16.8406 16.8795 16.8406 16.8697Z" fill="#2C2C2C"/>
<path d="M9.66096 11.4875C8.91451 11.7526 8.29574 12.2928 7.91269 12.9902C7.81447 13.167 7.7359 13.3634 7.67697 13.55C7.60822 13.7563 7.56893 13.9723 7.54929 14.1786C7.50018 14.5617 7.53947 14.9447 7.62786 15.3179C7.67697 15.5144 7.75554 15.701 7.83412 15.8876C7.92251 16.084 8.04038 16.2706 8.16806 16.4376C8.4136 16.7617 8.70825 17.0269 9.04219 17.243C9.37613 17.4591 9.74936 17.5966 10.1324 17.6751C10.5351 17.7537 10.9476 17.7439 11.3503 17.6751C11.753 17.6064 12.1459 17.4394 12.4896 17.2135C12.8432 16.9876 13.1379 16.693 13.3834 16.3492C13.6093 16.0349 13.7763 15.6617 13.8647 15.2885C13.9531 14.9251 13.9825 14.542 13.9432 14.1688C13.9236 13.992 13.8941 13.8152 13.845 13.6384C13.7959 13.4518 13.7272 13.2848 13.6486 13.108V13.0982C13.5013 12.7741 13.2754 12.4794 13.0298 12.2241C13.0298 12.2241 13.0298 12.2241 13.02 12.2143C13.0004 12.1946 12.9807 12.175 12.9611 12.1553C12.9512 12.1455 12.9512 12.1455 12.9414 12.1357C12.8137 12.0178 12.6861 11.9196 12.5387 11.8214C12.5191 11.8116 12.4994 11.8017 12.4896 11.7821C12.3718 11.7035 12.2539 11.6446 12.1262 11.5857C12.0771 11.5562 12.0182 11.5366 11.9593 11.5169C11.9396 11.5071 11.9298 11.5071 11.9101 11.4973C11.9003 11.4973 11.9003 11.4973 11.8905 11.4875C11.5958 11.3696 11.2816 11.3107 10.9574 11.291C10.928 11.291 10.8985 11.291 10.8789 11.291C10.869 11.291 10.869 11.291 10.8592 11.291C10.8298 11.291 10.8101 11.291 10.7806 11.291C10.761 11.291 10.7512 11.291 10.7315 11.291C10.3681 11.3008 10.0047 11.3696 9.66096 11.4875ZM11.0262 11.8509C11.0557 11.8509 11.0851 11.8607 11.1146 11.8607C11.3503 11.9 11.5762 11.9589 11.7923 12.0473C11.861 12.0768 11.9396 12.116 12.0084 12.1553C12.0968 12.2044 12.1753 12.2535 12.2539 12.3027L12.2735 12.3125C12.2735 12.3125 12.2735 12.3125 12.2834 12.3125L12.2932 12.3223L12.303 12.3321C12.303 12.3321 12.303 12.3321 12.3128 12.3321C12.3423 12.3518 12.3619 12.3714 12.3914 12.3911C12.4798 12.4598 12.5682 12.5384 12.6468 12.617C12.6468 12.617 12.6468 12.617 12.6566 12.6268C12.7352 12.7053 12.8039 12.7839 12.8825 12.8723C12.9021 12.892 12.912 12.9116 12.9316 12.9411C12.9316 12.9411 12.9316 12.9411 12.9316 12.9509V12.9607C13.0495 13.1277 13.1477 13.2947 13.2263 13.4813C13.3147 13.7072 13.3736 13.9331 13.4129 14.1688C13.4423 14.4045 13.4423 14.6501 13.4129 14.8858C13.3736 15.1215 13.3147 15.3474 13.2263 15.5635C13.128 15.7796 13.02 15.976 12.8727 16.1626C12.7253 16.3394 12.5682 16.5064 12.3914 16.6439C12.2048 16.7814 12.0084 16.8992 11.7923 16.9974C11.5762 17.0858 11.3503 17.1448 11.1146 17.1841C10.8789 17.2135 10.6431 17.2135 10.3976 17.1841C10.1619 17.1448 9.93597 17.0858 9.71989 16.9974C9.50381 16.8992 9.30738 16.7814 9.11094 16.6439C8.93415 16.4965 8.76718 16.3394 8.62968 16.1528C8.49217 15.9662 8.37431 15.7697 8.28592 15.5635C8.19752 15.3474 8.13859 15.1117 8.0993 14.876C8.06984 14.6402 8.06984 14.4045 8.0993 14.1688C8.13859 13.9331 8.19752 13.7072 8.28592 13.4813C8.38413 13.2652 8.502 13.0688 8.6395 12.8821C8.78683 12.7053 8.94398 12.5384 9.13059 12.4009C9.3172 12.2634 9.51364 12.1455 9.72972 12.0571C9.94579 11.9687 10.1717 11.9098 10.4074 11.8705C10.6039 11.8312 10.8199 11.8312 11.0262 11.8509ZM9.75918 12.0276C9.74936 12.0276 9.73954 12.0375 9.73954 12.0375C9.74936 12.0276 9.74936 12.0276 9.75918 12.0276ZM12.8629 16.1724C12.853 16.1822 12.853 16.1822 12.8432 16.1921C12.8432 16.1921 12.853 16.1822 12.8629 16.1724ZM9.07166 16.6046C9.08148 16.6046 9.08148 16.6144 9.0913 16.6144C9.08148 16.6144 9.08148 16.6144 9.07166 16.6046Z" fill="#2C2C2C"/>
<path d="M13.6191 14.4534C13.57 14.5026 13.5405 14.5811 13.5405 14.6499C13.5503 14.807 13.678 14.9249 13.8254 14.9151C14.1102 14.9151 14.4048 14.9249 14.6897 14.9347C14.9745 14.9445 15.2692 14.9543 15.554 14.9642C15.7013 14.974 15.8192 14.8267 15.8192 14.6892C15.8192 14.6204 15.7897 14.5517 15.7308 14.5026C15.6718 14.4534 15.6129 14.4338 15.5343 14.4338C15.2495 14.424 14.9549 14.4142 14.67 14.4043C14.3852 14.3945 14.0905 14.3847 13.8057 14.3749H13.7959C13.737 14.365 13.6682 14.4142 13.6191 14.4534Z" fill="#2C2C2C"/>
<path d="M17.2434 13.707C17.214 13.7365 17.1845 13.7757 17.155 13.8052C17.1452 13.8347 17.1452 13.8641 17.1452 13.8936C18.0193 13.815 18.9131 13.8248 19.7873 13.8347C19.7873 13.8347 19.7971 13.8347 19.7971 13.8248C19.8265 13.7954 19.856 13.7561 19.8658 13.7168C19.7185 13.5891 19.5515 13.4713 19.3846 13.373C19.0506 13.3927 18.7167 13.4025 18.3926 13.4123C18.1961 13.4222 17.9997 13.4222 17.8033 13.432C17.705 13.432 17.6167 13.4418 17.5184 13.4418C17.4104 13.5302 17.322 13.6186 17.2434 13.707Z" fill="#2C2C2C"/>
<path d="M17.9701 13.2158C17.8326 13.2649 17.7049 13.3239 17.5871 13.4024C17.4594 13.4908 17.3415 13.5989 17.2335 13.7069C17.204 13.7364 17.1745 13.7757 17.1451 13.8051C17.1353 13.8346 17.1353 13.8641 17.1353 13.8837H17.1451C17.204 13.8739 17.2629 13.8739 17.3219 13.8641C17.3317 13.8542 17.3513 13.8444 17.3612 13.8346C17.3808 13.8248 17.3906 13.8051 17.4103 13.7953C17.4987 13.7364 17.5871 13.6873 17.6754 13.648C17.7737 13.6185 17.8817 13.5891 17.9799 13.5792C18.2156 13.5694 18.4514 13.6087 18.6773 13.648C18.7951 13.6676 18.9228 13.6873 19.0407 13.7069C19.1782 13.7266 19.3255 13.7167 19.463 13.7266C19.5612 13.7364 19.6496 13.6676 19.6791 13.5792C19.5612 13.4908 19.4335 13.4123 19.3059 13.3435C19.1487 13.2649 18.9719 13.206 18.7951 13.1569C18.6478 13.1274 18.5005 13.1176 18.3532 13.1176C18.2844 13.1176 18.2156 13.1274 18.1469 13.1471C18.0978 13.1765 18.0389 13.1962 17.9701 13.2158Z" fill="#2C2C2C"/>
<path d="M12.0476 13.5498C12.077 13.5792 12.1065 13.6185 12.136 13.648C12.1458 13.6774 12.1458 13.7069 12.1458 13.7364C11.2717 13.6578 10.3779 13.6676 9.50374 13.6774C9.50374 13.6774 9.50375 13.6774 9.49392 13.6676C9.46446 13.6382 9.43499 13.5989 9.42517 13.5596C9.5725 13.4319 9.73947 13.314 9.90644 13.2158C10.2404 13.2355 10.5743 13.2453 10.8984 13.2551C11.0949 13.2649 11.2913 13.2649 11.4877 13.2748C11.586 13.2748 11.6744 13.2846 11.7726 13.2846C11.8708 13.3828 11.9592 13.4614 12.0476 13.5498Z" fill="#2C2C2C"/>
<path d="M11.311 13.0588C11.4485 13.1079 11.5663 13.1668 11.694 13.2454C11.8217 13.3338 11.9396 13.4418 12.0476 13.5499C12.0771 13.5793 12.1065 13.6186 12.136 13.6481C12.1458 13.6776 12.1458 13.707 12.1458 13.7267H12.136C12.0771 13.7168 12.0181 13.7168 11.9592 13.707C11.9494 13.6972 11.9297 13.6874 11.9199 13.6776C11.9003 13.6677 11.8905 13.6481 11.8708 13.6383C11.7824 13.5793 11.694 13.5302 11.6056 13.4909C11.5074 13.4615 11.3994 13.432 11.3012 13.4222C11.0654 13.4124 10.8297 13.4517 10.6038 13.4909C10.4859 13.5106 10.3583 13.5302 10.2404 13.5499C10.1029 13.5695 9.95557 13.5597 9.81807 13.5695C9.71985 13.5793 9.63145 13.5106 9.60199 13.4222C9.71985 13.3338 9.84754 13.2552 9.97522 13.1865C10.1324 13.1079 10.3092 13.049 10.4859 12.9999C10.6333 12.9704 10.7806 12.9606 10.9279 12.9606C10.9967 12.9606 11.0654 12.9704 11.1342 12.99C11.1833 13.0195 11.252 13.0391 11.311 13.0588Z" fill="#2C2C2C"/>
</svg>
