<svg width="22" height="19" viewBox="0 0 22 19" fill="none" xmlns="http://www.w3.org/2000/svg">
<path d="M16.0038 18.9956H6.00378C4.58701 18.9965 3.21563 18.496 2.13247 17.5827C1.04931 16.6695 0.324252 15.4024 0.0856863 14.0059C-0.152879 12.6093 0.110439 11.1734 0.829013 9.95242C1.54759 8.7314 2.67506 7.80405 4.01178 7.33457C3.9665 6.38823 4.11379 5.44254 4.44474 4.5548C4.77569 3.66706 5.2834 2.85574 5.93713 2.16999C6.59085 1.48424 7.37698 0.938325 8.24788 0.565325C9.11879 0.192325 10.0564 0 11.0038 0C11.9512 0 12.8888 0.192325 13.7597 0.565325C14.6306 0.938325 15.4167 1.48424 16.0704 2.16999C16.7242 2.85574 17.2319 3.66706 17.5628 4.5548C17.8938 5.44254 18.0411 6.38823 17.9958 7.33457C19.3325 7.80405 20.46 8.7314 21.1785 9.95242C21.8971 11.1734 22.1604 12.6093 21.9219 14.0059C21.6833 15.4024 20.9583 16.6695 19.8751 17.5827C18.7919 18.496 17.4205 18.9965 16.0038 18.9956ZM6.00378 16.9956H16.0038C16.5464 16.9946 17.0832 16.8832 17.5814 16.6682C18.0797 16.4532 18.529 16.1391 18.902 15.745C19.275 15.3508 19.5639 14.8849 19.7511 14.3756C19.9383 13.8663 20.0199 13.3242 19.991 12.7823C19.962 12.2404 19.8232 11.7101 19.5828 11.2236C19.3424 10.7371 19.0055 10.3046 18.5927 9.95242C18.1798 9.60024 17.6996 9.33574 17.1813 9.17503C16.663 9.01431 16.1174 8.96074 15.5778 9.01757C15.9138 8.25643 16.0546 7.42347 15.9874 6.59417C15.9202 5.76486 15.6471 4.96544 15.1929 4.26835C14.7387 3.57126 14.1177 2.99854 13.3862 2.6021C12.6547 2.20566 11.8358 1.99803 11.0038 1.99803C10.1718 1.99803 9.35289 2.20566 8.62139 2.6021C7.88989 2.99854 7.26888 3.57126 6.81465 4.26835C6.36042 4.96544 6.08732 5.76486 6.02012 6.59417C5.95291 7.42347 6.09372 8.25643 6.42978 9.01757C5.89012 8.96074 5.34453 9.01431 4.82623 9.17503C4.30792 9.33574 3.82774 9.60024 3.4149 9.95242C3.00206 10.3046 2.66519 10.7371 2.4248 11.2236C2.18441 11.7101 2.04552 12.2404 2.01658 12.7823C1.98765 13.3242 2.06927 13.8663 2.25649 14.3756C2.44371 14.8849 2.7326 15.3508 3.10559 15.745C3.47858 16.1391 3.92787 16.4532 4.42611 16.6682C4.92436 16.8832 5.46113 16.9946 6.00378 16.9956Z" fill="black"/>
</svg>
