<svg width="28" height="28" viewBox="0 0 28 28" fill="none" xmlns="http://www.w3.org/2000/svg">
<path d="M24.5 12.5C22.9 4.9 16.1667 3 13 3C3.80002 2.6 1.83335 13.1667 2.00002 18.5C4.00002 21.1667 9.10002 26.6 13.5 27C19 27.5 25 22.5 26 19.5C26.8 17.1 25.3334 13.8333 24.5 12.5Z" fill="#E5AD7B"/>
<path d="M9.67285 27.0499C9.67285 27.0612 9.67285 27.0612 9.67285 27.0724C9.67285 27.0949 9.67286 27.1174 9.68411 27.1399C10.5054 27.2974 11.3829 27.4437 12.4179 27.6012C12.8904 27.6237 13.3629 27.6462 13.8129 27.6574C13.6329 27.6012 13.4416 27.5449 13.2616 27.4887C12.2154 27.1624 11.1241 26.8362 10.0104 26.7687C9.9991 26.7687 9.99911 26.7687 9.98786 26.7687C9.81911 26.7799 9.6841 26.8924 9.67285 27.0499Z" fill="#2C2C2C"/>
<path d="M17.84 27.5674C17.975 27.5562 18.11 27.5449 18.245 27.5337C18.5938 27.4549 18.9425 27.3649 19.2913 27.2637C18.8075 27.3762 18.3125 27.4774 17.84 27.5674Z" fill="#2C2C2C"/>
<path d="M9.67285 27.0502C9.67285 27.0614 9.67285 27.0614 9.67285 27.0727C9.67285 27.0952 9.67286 27.1177 9.68411 27.1402C10.0104 27.2077 10.3479 27.2639 10.6966 27.3202C10.7079 27.2977 10.7191 27.2864 10.7304 27.2639C10.8091 27.1402 10.8541 26.9939 10.8541 26.8589C10.5729 26.8139 10.2916 26.7802 10.0104 26.7577C9.9991 26.7577 9.99911 26.7577 9.98786 26.7577C9.81911 26.7802 9.6841 26.8927 9.67285 27.0502Z" fill="#2C2C2C"/>
<path d="M9.67285 27.0502C9.67285 27.0614 9.67285 27.0614 9.67285 27.0727C9.67285 27.0952 9.67286 27.1177 9.68411 27.1402C10.1566 27.2302 10.6404 27.3202 11.1579 27.3989C11.2704 27.3089 11.3491 27.1852 11.4054 27.0389C11.4166 27.0164 11.4166 26.9939 11.4279 26.9714C10.9666 26.8702 10.4941 26.7914 10.0216 26.7577C10.0104 26.7577 10.0104 26.7577 9.9991 26.7577C9.8191 26.7802 9.6841 26.8927 9.67285 27.0502Z" fill="#2C2C2C"/>
<path d="M9.67285 27.0499C9.67285 27.0612 9.67285 27.0612 9.67285 27.0724C9.67285 27.0949 9.67286 27.1174 9.68411 27.1399C10.0216 27.2074 10.3704 27.2637 10.7304 27.3312C10.8541 27.2074 10.9441 27.0499 10.9666 26.8812C10.6516 26.8249 10.3366 26.7799 10.0104 26.7687C9.9991 26.7687 9.99911 26.7687 9.98786 26.7687C9.81911 26.7799 9.6841 26.8924 9.67285 27.0499Z" fill="#2C2C2C"/>
<path d="M16.0288 22.1002C15.9951 22.1115 15.9501 22.134 15.9163 22.1452C15.8826 22.1565 15.8376 22.179 15.8038 22.1902C15.7251 22.224 15.6351 22.2465 15.5563 22.2802C15.3988 22.3365 15.2301 22.3702 15.0726 22.404C14.6451 22.4827 14.1951 22.494 13.7676 22.4715C13.6101 22.4602 13.4526 22.4377 13.2951 22.404C13.1263 22.3702 12.9576 22.3477 12.7888 22.314C12.6201 22.2802 12.4513 22.2465 12.2826 22.2127C12.1026 22.179 11.9113 22.134 11.7201 22.134H11.7088C11.6751 22.1677 11.6413 22.2015 11.6188 22.224C11.5963 22.2465 11.5738 22.2577 11.5626 22.2802C11.5626 22.314 11.5626 22.3365 11.5738 22.3702C11.5851 22.4152 11.6188 22.449 11.6638 22.4715C11.7313 22.5165 11.7988 22.539 11.8776 22.5727C11.9676 22.6065 12.0688 22.6402 12.1588 22.6627C12.3163 22.7077 12.4851 22.7415 12.6426 22.7752C12.8226 22.809 13.0026 22.8202 13.1826 22.8315C13.3513 22.8427 13.5088 22.8427 13.6776 22.8315C13.8463 22.8315 14.0038 22.8202 14.1726 22.7977C14.3413 22.7752 14.5101 22.7527 14.6788 22.719C15.0051 22.6515 15.3201 22.5615 15.6238 22.4265C15.7026 22.3927 15.7813 22.359 15.8601 22.314C15.9051 22.2915 15.9388 22.269 15.9838 22.2465C16.0288 22.224 16.0626 22.2015 16.1076 22.1677C16.1413 22.1452 16.1188 22.089 16.0851 22.089C16.0401 22.089 16.0401 22.089 16.0288 22.1002Z" fill="black"/>
<path d="M14.589 21.6611C14.3415 21.6836 14.1165 21.7624 13.8915 21.8749C13.7903 21.9312 13.689 21.9874 13.5878 22.0549C13.5315 22.0886 13.4865 22.1336 13.4303 22.1786C13.374 22.2349 13.3065 22.2799 13.2615 22.3474C13.2503 22.3586 13.239 22.3811 13.2278 22.3924C13.2165 22.4261 13.2053 22.4599 13.2053 22.4937H13.1265C12.744 22.4599 12.3615 22.3924 11.9903 22.2799C11.9228 22.2574 11.8553 22.3137 11.844 22.3812C11.8328 22.4487 11.8778 22.5161 11.9453 22.5274C12.5978 22.7299 13.2953 22.7974 13.9703 22.7636C14.319 22.7411 14.6678 22.6961 15.0053 22.6174C15.174 22.5836 15.3315 22.5386 15.489 22.4824C15.5678 22.4599 15.6465 22.4261 15.7253 22.3924C15.804 22.3586 15.894 22.3249 15.9728 22.2911C16.029 22.2686 16.074 22.2236 16.0853 22.1674C16.0965 22.0886 16.0628 22.0212 15.9953 21.9874C15.984 21.9874 15.9728 21.9761 15.9728 21.9761C15.9053 21.9424 15.8265 21.9087 15.759 21.8749C15.7253 21.8637 15.6915 21.8524 15.6578 21.8299C15.5453 21.7849 15.4215 21.7511 15.2978 21.7174C15.1403 21.6836 14.9715 21.6611 14.8028 21.6611C14.7353 21.6499 14.6565 21.6499 14.589 21.6611ZM13.8353 22.4261C13.9478 22.3361 14.0715 22.2461 14.2065 22.1786C14.3303 22.1224 14.454 22.0774 14.589 22.0549C14.7465 22.0324 14.8928 22.0211 15.0503 22.0324C15.219 22.0549 15.3878 22.0886 15.5453 22.1449C15.264 22.2686 14.9715 22.3474 14.6678 22.4036C14.3753 22.4599 14.0715 22.4936 13.7678 22.5049C13.779 22.4711 13.8015 22.4486 13.8353 22.4261Z" fill="black"/>
<path d="M13.5087 22.5722C13.5087 22.6397 13.565 22.6847 13.6325 22.6847C13.7 22.6847 13.745 22.6285 13.745 22.561C13.745 22.4935 13.6887 22.4485 13.6212 22.4485C13.5537 22.4597 13.5087 22.516 13.5087 22.5722Z" fill="black"/>
<path d="M13.4524 22.4936C13.4524 22.5611 13.5086 22.6061 13.5761 22.6061C13.6436 22.6061 13.6886 22.5498 13.6886 22.4823C13.6886 22.4148 13.6324 22.3698 13.5649 22.3698C13.4974 22.3698 13.4524 22.4261 13.4524 22.4936Z" fill="black"/>
<path d="M12.4179 21.7852C12.2042 21.8527 11.9904 21.954 11.7992 22.0778C11.7092 22.134 11.6754 22.269 11.7429 22.359C11.8104 22.4603 11.9342 22.4715 12.0242 22.4153C12.0692 22.3815 12.1254 22.359 12.1817 22.3253C12.2829 22.2803 12.3954 22.2465 12.5079 22.2128C12.6204 22.1903 12.7329 22.1903 12.8567 22.1903C12.9579 22.2015 13.0592 22.224 13.1492 22.2577C13.2729 22.3027 13.3967 22.359 13.5092 22.4265C13.5767 22.4602 13.6442 22.5052 13.7117 22.539C13.7454 22.5502 13.7679 22.5728 13.8017 22.584C13.8354 22.5953 13.8692 22.6065 13.8917 22.6177C13.9254 22.6177 13.9479 22.629 13.9817 22.6177C14.0379 22.6177 14.0942 22.584 14.1392 22.539C14.1842 22.494 14.1954 22.4378 14.1954 22.3815C14.1954 22.2465 14.1054 22.134 14.0154 22.0327C13.9817 21.9877 13.9367 21.954 13.8917 21.9202C13.8354 21.8752 13.7792 21.8415 13.7117 21.8077C13.6104 21.7627 13.5092 21.7177 13.3967 21.6952C13.2842 21.6727 13.1604 21.6615 13.0367 21.6615H13.0254C12.8117 21.684 12.6092 21.729 12.4179 21.7852Z" fill="black"/>
<path d="M15.1402 21.8977C15.0389 21.8977 14.9264 21.909 14.8252 21.9202C14.7577 21.9202 14.7014 21.9202 14.6452 21.9315C14.4427 21.9427 14.2402 21.9765 14.0489 22.0215C13.9927 22.044 13.9477 22.0665 13.9139 22.1115C13.9027 22.134 13.8802 22.1452 13.8689 22.1677C13.6664 22.1677 13.4639 22.1565 13.2614 22.1452C13.0589 22.134 12.8677 22.1115 12.6652 22.089C12.6089 22.0777 12.5639 22.089 12.5189 22.1227C12.4739 22.1452 12.4514 22.1902 12.4402 22.2465C12.4289 22.3027 12.4402 22.3477 12.4739 22.3927C12.4964 22.4265 12.5527 22.4715 12.5977 22.4715C13.0252 22.5165 13.4527 22.5727 13.8914 22.6065C13.9252 22.6065 13.9702 22.6065 14.0039 22.6177C14.0602 22.6515 14.1277 22.674 14.1839 22.6627C14.2402 22.6515 14.2964 22.6402 14.3527 22.629C14.3189 22.6402 14.2964 22.6402 14.2627 22.6402C14.3189 22.629 14.3639 22.6177 14.4202 22.6177C14.4539 22.6177 14.4877 22.6177 14.5214 22.6177C14.7239 22.6065 14.9264 22.5727 15.1402 22.539C15.1627 22.539 15.1739 22.539 15.1964 22.5277C15.2527 22.5277 15.2977 22.5052 15.3427 22.4827C15.3539 22.4715 15.3652 22.4715 15.3652 22.4602C15.4439 22.449 15.5227 22.4265 15.5902 22.404C15.6914 22.359 15.7702 22.269 15.7589 22.1452C15.7589 22.0777 15.7252 22.0102 15.6689 21.9652L15.6127 21.9315C15.5677 21.909 15.5339 21.8977 15.4777 21.909C15.4439 21.909 15.4102 21.909 15.3652 21.909C15.2864 21.8865 15.2077 21.8977 15.1402 21.8977Z" fill="black"/>
<path d="M13.205 23.4276C13.1712 23.4276 13.1262 23.4389 13.0925 23.4614C13.0475 23.4951 13.0137 23.5401 13.0025 23.5964C12.98 23.7089 13.0475 23.8214 13.16 23.8439C13.4187 23.9001 13.6887 23.9339 13.9587 23.9339C14.2175 23.9339 14.4762 23.9114 14.735 23.8551C14.7575 23.8551 14.7687 23.8439 14.7912 23.8439C14.825 23.8326 14.8587 23.8101 14.8812 23.7876C14.915 23.7426 14.9375 23.6864 14.9375 23.6301C14.9262 23.5176 14.825 23.4164 14.7125 23.4276C14.4762 23.4389 14.24 23.4389 14.0037 23.4389C13.79 23.4276 13.565 23.4164 13.3512 23.3939C13.34 23.3939 13.3287 23.3939 13.3175 23.3939C13.2725 23.3939 13.2387 23.4051 13.205 23.4276Z" fill="black"/>
<path d="M15.4777 21.9872C15.1515 22.066 14.8252 22.1672 14.499 22.2347C14.3415 22.2685 14.184 22.291 14.0265 22.3022C13.9027 22.3135 13.8015 22.4147 13.8127 22.5385C13.824 22.6622 13.9252 22.7635 14.049 22.7522C14.4765 22.7072 14.9152 22.6397 15.3427 22.5722C15.5677 22.5385 15.7927 22.4935 16.0065 22.4372C16.2202 22.381 16.4227 22.3247 16.6365 22.2572C16.704 22.2347 16.7602 22.1785 16.7827 22.111C16.749 22.111 16.7152 22.111 16.6815 22.0997C16.5015 22.0885 16.3327 22.0547 16.164 22.0097C16.0627 21.976 15.9502 21.9422 15.8602 21.886C15.7252 21.931 15.6015 21.9535 15.4777 21.9872Z" fill="black"/>
<path d="M16.3778 22.0212C16.3666 22.0212 16.3666 22.0211 16.3553 22.0099C16.3328 22.0099 16.3216 21.9987 16.2991 21.9987C16.3216 22.0099 16.3553 22.0212 16.3778 22.0212Z" fill="black"/>
<path d="M15.4553 14.394C15.3991 14.4502 15.3766 14.5515 15.4103 14.6302C15.4216 14.6752 15.4441 14.709 15.4778 14.7315C15.5228 14.7765 15.5903 14.7877 15.6466 14.7877C15.9278 14.799 16.2091 14.8215 16.4903 14.8327C16.7828 14.844 17.0641 14.8552 17.3566 14.8665C17.9416 14.8777 18.5266 14.8665 19.1003 14.8215C19.1453 14.8215 19.1791 14.799 19.2128 14.7765C19.0778 14.6527 18.9428 14.529 18.7966 14.4165C18.5041 14.1915 18.2003 14.0002 17.8741 13.854C17.8291 13.8315 17.7841 13.8202 17.7503 13.809C17.5816 13.7752 17.4128 13.764 17.2441 13.7527C17.2103 13.7527 17.1878 13.7527 17.1541 13.7527C16.5241 13.7527 15.9053 13.9665 15.4553 14.394Z" fill="black"/>
<path d="M9.78491 13.4603C9.42491 13.4715 9.08741 13.5728 8.77241 13.719C8.61491 13.7865 8.47992 13.8765 8.33367 13.9665C8.17617 14.079 8.01867 14.2028 7.88367 14.349C7.84992 14.3828 7.82741 14.4278 7.81616 14.4728C8.91866 14.5065 10.0212 14.6978 11.1349 14.7203C11.1574 14.7203 11.1912 14.7203 11.2137 14.7315C11.2362 14.7203 11.2587 14.7203 11.2812 14.709C11.2924 14.6978 11.3037 14.6978 11.3149 14.6865C11.3262 14.6528 11.3374 14.619 11.3487 14.5965C11.3599 14.574 11.3599 14.5628 11.3712 14.5403L11.3824 14.529C11.3824 14.5178 11.3824 14.5065 11.3824 14.5065C11.3824 14.4615 11.3937 14.4278 11.3937 14.3828C11.2362 14.1128 11.0224 13.8765 10.7524 13.7078C10.6062 13.6178 10.4487 13.5615 10.2912 13.5165C10.1449 13.4828 9.98741 13.4603 9.84116 13.4603C9.81866 13.4603 9.80741 13.4603 9.78491 13.4603ZM9.66116 14.1353C9.76241 14.124 9.86366 14.124 9.96491 14.1353C10.0099 14.1465 10.0662 14.1578 10.1112 14.169C9.95366 14.1578 9.80741 14.1465 9.66116 14.1353Z" fill="black"/>
<path d="M11.4499 14.5287C11.4499 14.5512 11.4499 14.5737 11.4499 14.585C11.4611 14.585 11.4611 14.5737 11.4724 14.5625C11.4724 14.54 11.4611 14.5175 11.4611 14.5062C11.4611 14.5175 11.4611 14.5175 11.4499 14.5287Z" fill="black"/>
<path d="M11.4279 14.7198C11.4166 14.7423 11.4166 14.7648 11.4054 14.7761C11.3941 14.7873 11.3941 14.7873 11.3829 14.7986H11.3941C11.4054 14.7873 11.4166 14.7761 11.4279 14.7648C11.4391 14.7536 11.4504 14.7311 11.4504 14.7198C11.4616 14.7086 11.4616 14.6861 11.4616 14.6748C11.4616 14.6861 11.4504 14.6973 11.4279 14.7198Z" fill="black"/>
<path d="M11.5066 14.7315C11.4953 14.7427 11.4953 14.754 11.484 14.7765C11.4728 14.7877 11.4728 14.799 11.4615 14.8102C11.4728 14.799 11.4953 14.799 11.5066 14.7877C11.5178 14.754 11.5178 14.7202 11.5066 14.6865C11.5178 14.6977 11.5178 14.709 11.5066 14.7315Z" fill="black"/>
<path d="M12.3277 18.4773C12.3389 18.4773 12.3502 18.4773 12.3727 18.4773C12.3727 18.4661 12.3727 18.4549 12.3727 18.4436C12.3502 18.4549 12.3389 18.4661 12.3277 18.4773Z" fill="black"/>
<path d="M16.2874 15.2711C16.2874 15.7661 16.7037 16.1823 17.1987 16.1823C17.6937 16.1823 18.1099 15.7661 18.1099 15.2711C18.1099 14.7761 17.6937 14.3598 17.1987 14.3598C16.6924 14.3598 16.2874 14.7761 16.2874 15.2711Z" fill="black"/>
<path d="M9.14386 15.406C9.14386 15.8785 9.5376 16.2723 10.0101 16.2723C10.4826 16.2723 10.8764 15.8785 10.8764 15.406C10.8764 14.9335 10.4826 14.5398 10.0101 14.5398C9.5376 14.5398 9.14386 14.9335 9.14386 15.406Z" fill="black"/>
<path d="M15.05 18.8374C14.9938 18.8712 14.9375 18.8937 14.8813 18.9162C14.69 18.9949 14.4988 19.0512 14.2963 19.0737C14.1275 19.0962 13.9588 19.0962 13.7788 19.0737C13.6325 19.0512 13.4975 19.0174 13.3625 18.9612C13.3288 18.9499 13.3063 18.9387 13.2725 18.9162C13.16 18.8599 13.025 18.8824 12.9575 18.9949C12.9013 19.0962 12.935 19.2537 13.0363 19.3099C13.1938 19.3887 13.3625 19.4674 13.5425 19.5124C13.7338 19.5687 13.925 19.5912 14.1275 19.5912C14.5438 19.5912 14.9375 19.4674 15.3088 19.2874C15.4325 19.2199 15.4775 19.0512 15.3988 18.9274C15.365 18.8712 15.3088 18.8262 15.2413 18.8037C15.2188 18.7924 15.1963 18.7924 15.1738 18.7924C15.14 18.8037 15.095 18.8149 15.05 18.8374ZM14.3413 19.0737C14.33 19.0737 14.33 19.0737 14.3188 19.0737C14.33 19.0737 14.33 19.0737 14.3413 19.0737Z" fill="#2C2C2C"/>
<path d="M17.9304 20.1649C17.9304 20.3336 18.0654 20.4686 18.2342 20.4686C18.4029 20.4686 18.5379 20.3336 18.5379 20.1649C18.5379 19.9961 18.4029 19.8611 18.2342 19.8611C18.0654 19.8611 17.9304 19.9961 17.9304 20.1649Z" fill="#2C2C2C"/>
<path d="M4.10364 19.2988C4.10364 19.5463 4.31739 19.76 4.56489 19.76C4.81239 19.76 5.02614 19.5463 5.02614 19.2988C5.02614 19.0513 4.81239 18.8375 4.56489 18.8375C4.31739 18.8375 4.10364 19.0513 4.10364 19.2988Z" fill="#2C2C2C"/>
<path d="M22.835 18.7926C22.835 19.0401 23.0487 19.2539 23.2962 19.2539C23.5437 19.2539 23.7575 19.0401 23.7575 18.7926C23.7575 18.5451 23.5437 18.3314 23.2962 18.3314C23.0487 18.3314 22.835 18.5451 22.835 18.7926Z" fill="#2C2C2C"/>
<path d="M13.4527 14.8777C13.4639 15.429 13.4414 15.9915 13.3964 16.5427C13.3852 16.644 13.4864 16.734 13.5877 16.734C13.6327 16.734 13.6889 16.7115 13.7227 16.6777C13.7564 16.644 13.7789 16.599 13.7789 16.5427C13.8239 15.9915 13.8464 15.429 13.8352 14.8777C13.8352 14.7765 13.7452 14.6865 13.6439 14.6865C13.5427 14.6865 13.4527 14.7765 13.4527 14.8777Z" fill="#2C2C2C"/>
<path d="M9.67285 27.0499C9.67285 27.0612 9.67285 27.0612 9.67285 27.0724C9.67285 27.0949 9.67286 27.1174 9.68411 27.1399C10.5054 27.2974 11.3829 27.4437 12.4179 27.6012C12.8904 27.6237 13.3629 27.6462 13.8129 27.6574C13.6329 27.6012 13.4416 27.5449 13.2616 27.4887C12.2154 27.1624 11.1241 26.8362 10.0104 26.7687C9.9991 26.7687 9.99911 26.7687 9.98786 26.7687C9.81911 26.7799 9.6841 26.8924 9.67285 27.0499Z" fill="#2C2C2C"/>
<path d="M17.84 27.5674C17.975 27.5562 18.11 27.5449 18.245 27.5337C18.5938 27.4549 18.9425 27.3649 19.2913 27.2637C18.8075 27.3762 18.3125 27.4774 17.84 27.5674Z" fill="#2C2C2C"/>
<path d="M13.5089 0.342509H13.4639C13.1714 0.342509 12.8902 0.35376 12.6314 0.36501C12.3727 0.38751 12.1027 0.410007 11.8439 0.432507C10.9102 0.567507 9.99891 0.815007 9.13266 1.16376C8.81766 1.29876 8.50266 1.45626 8.19891 1.62501L8.18766 1.63626L8.13141 1.67001L8.09766 1.69251L8.07516 1.70376L8.05266 1.71501L8.03016 1.72626C8.03016 1.72626 8.01891 1.72626 8.01891 1.73751L7.94016 1.78251L7.92891 1.79376L7.91766 1.80501L7.89516 1.81626L7.87266 1.82751C7.85016 1.83876 7.82766 1.85001 7.80516 1.87251L7.79391 1.88376C7.78266 1.89501 7.77141 1.89501 7.76016 1.90626L7.73766 1.91751L7.72641 1.92876L7.71516 1.94001L7.69266 1.95126L7.67016 1.96251L7.64766 1.97376L7.62516 1.98501L7.60266 1.99626L7.58016 2.00751L7.52391 2.04126C7.50141 2.05251 7.47891 2.07501 7.45641 2.08626C7.00641 2.36751 6.56766 2.67126 6.10641 3.02001C5.84766 3.22251 5.63391 3.39126 5.43141 3.58251L5.38641 3.60501C5.19516 3.79626 5.01516 3.99876 4.82391 4.23501C4.31766 4.92126 3.89016 5.67501 3.47391 6.39501C3.35016 6.60876 3.23766 6.82251 3.11391 7.02501C3.00141 7.31751 2.90016 7.62126 2.79891 7.92501C2.55141 8.71251 2.36016 9.56751 2.21391 10.4563C2.14641 10.9063 2.09016 11.3563 2.04516 11.8175C2.03391 11.975 2.02266 12.1213 2.01141 12.2788C2.00016 12.3688 2.00016 12.4475 1.98891 12.5375C1.96641 12.7963 1.94391 13.0775 1.89891 13.4038C1.70766 14.7988 1.35891 16.1938 1.02141 17.5438C0.920161 17.96 0.81891 18.365 0.71766 18.7813C0.42516 20.0075 0.0764111 21.6275 0.00891113 23.3038C0.110161 23.3825 0.200158 23.45 0.301408 23.5175C0.526408 23.675 0.751413 23.8438 0.987663 23.99L0.99891 24.0013L1.01016 24.0125C1.06641 24.0463 1.12266 24.08 1.17891 24.1138L1.21266 24.1363L1.22391 24.1475C1.44891 24.2825 1.67391 24.4288 1.89891 24.5525L1.91016 24.5638L1.93266 24.575L1.94391 24.5863L1.96641 24.5975L2.00016 24.62C2.04516 24.6425 2.10141 24.6763 2.14641 24.6988C3.84516 25.5875 5.82516 26.2963 8.19891 26.8475C9.41391 27.1175 10.7414 27.365 12.3839 27.6125C13.2052 27.6575 14.0264 27.68 14.8477 27.68C15.3764 27.68 15.9164 27.6688 16.4339 27.6463C16.8839 27.6238 17.3452 27.6013 17.7952 27.5563C18.2789 27.4663 18.7739 27.365 19.2802 27.2525C19.4377 27.2075 19.6064 27.1625 19.7639 27.1175C19.9664 27.0613 20.1577 27.005 20.3489 26.9375C21.1702 26.69 22.0027 26.3975 22.8464 26.0713C23.4314 25.8463 24.0277 25.61 24.6014 25.3625C25.0627 25.16 25.5239 24.9575 25.9852 24.7438C26.6039 24.2825 27.2114 23.7988 27.8077 23.3038C27.8077 23.1463 27.7964 22.9888 27.7964 22.8313C27.4589 20.9525 27.0539 19.0963 26.6714 17.2288C26.5702 16.88 26.4577 16.52 26.3452 16.1488C26.2889 15.98 26.2327 15.8113 26.1877 15.6425C26.1089 15.4063 26.0302 15.1588 25.9514 14.9225C25.7489 14.2925 25.5239 13.6625 25.3214 13.0438C25.1977 12.6838 25.0739 12.3238 24.9502 11.9525C24.6802 11.1538 24.4664 10.31 24.2527 9.50001L24.2189 9.35376C24.2189 9.33126 24.2077 9.32001 24.2077 9.29751L24.1964 9.27501C24.0277 8.62251 23.8477 7.93626 23.6227 7.26126C23.3977 6.56376 23.1614 5.96751 22.8802 5.42751C22.6214 4.95501 22.3514 4.56126 22.0364 4.20126C21.9577 4.12251 21.8789 4.04376 21.7889 3.96501C21.8002 3.97626 21.8114 3.99876 21.8227 4.01001C21.6314 3.75126 21.4177 3.50376 21.1814 3.26751C21.0014 3.08751 20.7989 2.90751 20.5852 2.75001C20.5739 2.72751 20.5739 2.69376 20.5627 2.67126C20.0227 2.28876 19.4602 1.94001 18.8977 1.64751C18.6052 1.49001 18.3127 1.35501 18.0202 1.22001L17.9977 1.20876L17.9752 1.19751C17.8739 1.15251 17.7727 1.11876 17.6827 1.08501C16.8389 0.770006 15.9727 0.545006 15.0839 0.410006C14.8477 0.376256 14.6002 0.353759 14.3639 0.342509H14.3414H14.3189C14.2627 0.342509 14.2177 0.331261 14.1614 0.331261H14.1502H14.1389C14.1277 0.331261 14.1277 0.331261 14.1164 0.331261H14.0939H14.0714C13.9814 0.331261 13.9027 0.320007 13.8127 0.320007H13.8014H13.7789H13.7677H13.7452H13.7227H13.6889H13.6552C13.6439 0.320007 13.6327 0.320007 13.6214 0.320007H13.5989C13.5764 0.342507 13.5427 0.342509 13.5089 0.342509ZM5.78016 9.32001H5.79141H5.80266H5.81391H5.82516C5.83641 9.32001 5.83641 9.32001 5.84766 9.32001C5.87016 9.32001 5.88141 9.33126 5.90391 9.33126C5.98266 9.35376 6.03891 9.41001 6.08391 9.47751C6.14016 9.55626 6.16266 9.65751 6.15141 9.75876V9.77001V9.78126V9.79251V9.80376C6.15141 9.81501 6.14016 9.82626 6.14016 9.83751V9.84876L6.12891 9.88251L6.14016 9.84876L6.12891 9.88251L6.10641 9.93876C6.03891 10.13 5.98266 10.3213 5.93766 10.5013V10.49C5.91516 10.5575 5.90391 10.625 5.88141 10.6925L5.87016 10.7375L5.85891 10.7713C5.83641 10.895 5.81391 11.0075 5.79141 11.1088C5.75766 11.3338 5.72391 11.5588 5.71266 11.7725C6.32016 11.8963 6.95016 11.9975 7.56891 12.065C7.87266 12.0988 8.19891 12.1325 8.53641 12.155C8.43516 12.2113 8.32266 12.2675 8.22141 12.3238C7.90641 12.5038 7.60266 12.7063 7.31016 12.9313C7.20891 13.01 7.18641 13.1338 7.25391 13.2238C7.28766 13.28 7.35516 13.3138 7.43391 13.3138C7.47891 13.3138 7.52391 13.3025 7.55766 13.28C7.64766 13.2238 7.73766 13.1675 7.82766 13.1225C7.95141 13.0663 8.06391 13.0213 8.18766 12.9875C8.30016 12.965 8.41266 12.9538 8.52516 12.9538C8.63766 12.965 8.75016 12.9875 8.86266 13.01C8.95266 13.0325 9.04266 13.0438 9.13266 13.0663C9.31266 13.0888 9.50391 13.1 9.68391 13.1113C9.74016 13.1113 9.79641 13.1113 9.84141 13.1225L10.0777 13.1338C10.2464 13.145 10.4152 13.1563 10.5952 13.1675C10.8539 13.19 11.1014 13.2238 11.3152 13.2463C11.3377 13.2463 11.3602 13.2463 11.3827 13.2463C11.6077 13.2463 11.8102 13.0888 11.8439 12.8638C11.8664 12.74 11.8327 12.6163 11.7652 12.515C11.6977 12.4138 11.5852 12.3463 11.4727 12.335C11.2927 12.3125 11.1464 12.2788 11.0114 12.245C11.8889 12.335 12.7889 12.3913 13.7902 12.4025C14.0264 12.4025 14.2739 12.4138 14.5102 12.4138C15.0952 12.4138 15.6802 12.4025 16.2764 12.38C16.1752 12.4025 16.0627 12.4138 15.9389 12.4363C15.8264 12.4588 15.7139 12.515 15.6464 12.6163C15.5677 12.7175 15.5452 12.8413 15.5677 12.965C15.6014 13.19 15.8039 13.3475 16.0289 13.3475C16.0514 13.3475 16.0739 13.3475 16.0964 13.3475C16.3102 13.3138 16.5577 13.28 16.8164 13.2688C16.9852 13.2575 17.1539 13.2463 17.3339 13.235L17.5702 13.2238C17.6264 13.2238 17.6827 13.2125 17.7277 13.2125C17.9077 13.2013 18.0877 13.19 18.2789 13.1675C18.3689 13.1563 18.4589 13.1338 18.5489 13.1113C18.6614 13.0888 18.7739 13.0663 18.8864 13.055C18.9989 13.055 19.1002 13.0663 19.2239 13.0888C19.3477 13.1225 19.4602 13.1675 19.5839 13.2238C19.6739 13.2688 19.7639 13.325 19.8539 13.3813C19.8877 13.4038 19.9327 13.415 19.9777 13.415C20.0452 13.415 20.1127 13.3813 20.1577 13.325C20.2252 13.235 20.2027 13.1113 20.1014 13.0325C19.8202 12.8075 19.5052 12.5938 19.1902 12.425C19.0552 12.3463 18.9202 12.2788 18.7739 12.2C19.6627 12.11 20.5852 11.9863 21.4852 11.84C21.4964 11.6263 21.4964 11.4013 21.4852 11.1875C21.4739 10.85 21.4289 10.5238 21.3839 10.1975C21.3727 10.13 21.3614 10.0625 21.3502 9.99501C21.3164 9.79251 21.4402 9.60126 21.6314 9.54501C21.6427 9.54501 21.6539 9.54501 21.6652 9.53376C21.6877 9.53376 21.7102 9.52251 21.7327 9.52251C21.8227 9.52251 21.9014 9.55626 21.9689 9.61251C22.0477 9.66876 22.0927 9.74751 22.1152 9.83751C22.1264 9.91626 22.1377 9.98376 22.1489 10.0513C22.2389 10.5913 22.2727 11.1425 22.2614 11.6825H22.2727C22.2727 11.705 22.2727 11.7388 22.2727 11.7613C22.2727 11.84 22.2839 11.9075 22.2839 11.9863C22.3514 12.0875 22.3852 12.2225 22.3739 12.3463C22.3739 12.38 22.3627 12.4025 22.3627 12.425C22.3627 12.4588 22.3627 12.4813 22.3627 12.515L22.3852 12.5038C22.3852 12.8525 22.3739 13.2013 22.3739 13.55C22.3627 15.26 22.3627 17.0263 22.0702 18.7363C21.9352 19.4675 21.7777 20.1088 21.5752 20.705L21.5414 20.7275L21.5077 20.75C21.5077 20.8063 21.4964 20.8625 21.4964 20.93C21.4064 21.1888 21.3052 21.425 21.1927 21.6613C20.8664 22.3475 20.4502 22.9888 19.9664 23.5738C19.4827 24.1363 18.9314 24.6538 18.3352 25.0813C18.0427 25.295 17.7277 25.4863 17.4127 25.655C17.0977 25.8238 16.7489 25.9813 16.3439 26.1388C15.6239 26.4088 14.9602 26.5663 14.3302 26.6338C14.1839 26.645 14.0489 26.6563 13.9139 26.6563C13.7339 26.6563 13.5539 26.645 13.3852 26.6225C13.3739 26.6225 13.3739 26.6225 13.3627 26.6225C13.3289 26.6225 13.2952 26.6338 13.2502 26.645C12.9352 26.5775 12.6539 26.4988 12.3952 26.42C12.0464 26.3075 11.7202 26.1613 11.4727 26.0488C10.5164 25.5988 9.62766 25.0363 8.82891 24.3725C8.22141 23.855 7.71516 23.3263 7.31016 22.7525C7.14141 22.505 6.98391 22.2575 6.86016 22.01C6.72516 21.74 6.61266 21.47 6.50016 21.1663C6.12891 20.1763 5.82516 19.0963 5.56641 17.8813C5.33016 16.7563 5.15016 15.5413 5.02641 14.2925C5.01516 14.1688 5.00391 14.0338 4.99266 13.8988C5.01516 13.8763 5.03766 13.8425 5.07141 13.8088C5.03766 13.73 5.02641 13.6513 5.03766 13.5725C4.92516 12.9988 4.89141 12.425 4.92516 11.8513C4.92516 11.7613 4.93641 11.6825 4.94766 11.5925C4.98141 11.2775 5.02641 10.9513 5.10516 10.6363C5.11641 10.5688 5.13891 10.5125 5.15016 10.445C5.17266 10.3663 5.19516 10.2875 5.21766 10.2088L5.22891 10.1638L5.25141 10.085V10.0963C5.25141 10.085 5.26266 10.0738 5.26266 10.0625V10.0513V10.04L5.27391 10.0063C5.30766 9.90501 5.34141 9.80376 5.37516 9.70251V9.69126V9.68001V9.66876C5.38641 9.63501 5.39766 9.60126 5.40891 9.56751C5.40891 9.55626 5.42016 9.54501 5.42016 9.53376L5.43141 9.51126C5.45391 9.46626 5.49891 9.42126 5.55516 9.38751C5.56641 9.38751 5.56641 9.37626 5.57766 9.37626C5.63391 9.34251 5.70141 9.32001 5.78016 9.32001ZM23.0039 15.1925C23.0714 15.1025 23.1389 15.0125 23.2064 14.9225C23.4089 14.6863 23.6339 14.4838 23.8589 14.3038C24.0277 14.1913 24.1852 14.1013 24.3427 14.045C24.4552 14.0113 24.5452 13.9888 24.6464 13.9775C24.6689 13.9775 24.6914 13.9775 24.7139 13.9775C24.7589 13.9775 24.8039 13.9775 24.8489 13.9888C24.9052 14 24.9614 14.0225 25.0177 14.045C25.0514 14.0563 25.0739 14.0788 25.1077 14.1013C25.1864 14.1575 25.2539 14.225 25.3102 14.2813C25.3327 14.3038 25.3439 14.3263 25.3664 14.3488C25.4339 14.4613 25.5014 14.5738 25.5464 14.6863C25.5914 14.7988 25.6139 14.9225 25.6252 15.0575C25.6364 15.2825 25.6252 15.5188 25.5802 15.7775C25.4902 16.295 25.3102 16.8238 25.0177 17.4425C24.8714 17.7463 24.7139 18.0388 24.5452 18.3313C24.4327 18.5225 24.2977 18.7363 24.1514 18.9163C23.9039 19.2088 23.6227 19.4675 23.3189 19.6925C23.1502 19.805 23.0039 19.895 22.8577 19.9513C22.7902 19.9738 22.7227 19.9963 22.6664 19.9963C22.6552 19.9963 22.6439 19.9963 22.6439 19.9963C22.6214 19.9963 22.5989 19.9963 22.5764 19.9963C22.5539 19.9963 22.5427 19.985 22.5202 19.985C22.5089 19.9738 22.4977 19.9738 22.4864 19.9625C22.6777 19.175 22.8127 18.3088 22.9027 17.33C22.9027 17.285 22.9139 17.2513 22.9139 17.2063C22.9252 17.195 22.9477 17.1838 22.9589 17.1613L22.9927 17.1275C23.0377 17.0825 23.0939 17.0375 23.1389 16.9813H23.1502C23.1839 17.0038 23.2289 17.015 23.2739 17.015C23.2964 17.015 23.3189 17.015 23.3414 17.0038C23.3639 16.9925 23.3864 16.9925 23.4202 16.9925C23.4539 16.9925 23.4764 16.9925 23.5102 16.9925C23.5327 16.9925 23.5552 16.9925 23.5777 16.9925C23.6452 17.0038 23.7014 17.015 23.7689 17.0488C23.7914 17.0488 23.8027 17.06 23.8252 17.06C23.8477 17.06 23.8702 17.06 23.8927 17.0488C23.9489 17.0375 23.9939 16.9925 24.0277 16.9363C24.0839 16.835 24.0502 16.6888 23.9377 16.6325C23.8364 16.5763 23.7239 16.5425 23.6114 16.52C23.6564 16.4863 23.6902 16.4413 23.7352 16.4075C23.8927 16.25 24.0727 16.115 24.2527 15.98C24.3314 15.9238 24.4102 15.8563 24.4777 15.8C24.4889 15.8675 24.4889 15.9238 24.5002 15.9913L24.5114 15.9575C24.5114 15.89 24.5114 15.8225 24.5114 15.7663C24.5452 15.7438 24.5789 15.71 24.6014 15.6875C24.7027 15.5975 24.7027 15.4513 24.6464 15.35C24.6014 15.2713 24.5002 15.215 24.3989 15.215C24.3539 15.215 24.3089 15.2263 24.2639 15.26C24.1402 15.35 24.0164 15.4288 23.9039 15.5188C23.7239 15.6538 23.5327 15.7888 23.3414 15.9125C23.2402 15.98 23.1277 16.0475 23.0152 16.1263L22.9927 16.1488C22.9927 15.8225 22.9927 15.53 23.0039 15.1925ZM4.76766 20.0413C4.66641 20.0188 4.55391 19.985 4.44141 19.94C4.26141 19.85 4.08141 19.7375 3.90141 19.5913C3.71016 19.4225 3.53016 19.22 3.35016 18.9838C3.03516 18.5225 2.75391 18.005 2.54016 17.4425C2.37141 16.97 2.25891 16.5425 2.21391 16.1263C2.19141 15.8675 2.20266 15.6313 2.23641 15.4175C2.27016 15.26 2.31516 15.125 2.37141 14.99C2.41641 14.8888 2.47266 14.7988 2.54016 14.72C2.59641 14.6638 2.65266 14.5963 2.72016 14.5513C2.78766 14.5063 2.86641 14.4613 2.94516 14.4275C3.02391 14.405 3.11391 14.3825 3.20391 14.3713C3.23766 14.3713 3.26016 14.3713 3.29391 14.3713C3.36141 14.3713 3.44016 14.3713 3.51891 14.3825C3.63141 14.405 3.74391 14.4388 3.86766 14.495C3.99141 14.5625 4.11516 14.63 4.22766 14.7313C4.31766 14.81 4.40766 14.9 4.48641 15.0013C4.54266 15.5413 4.62141 16.07 4.70016 16.5988C4.61016 16.5538 4.52016 16.5088 4.43016 16.4638C4.10391 16.295 3.80016 16.1038 3.50766 15.935C3.47391 15.9125 3.44016 15.9013 3.40641 15.9013C3.32766 15.9013 3.26016 15.9463 3.22641 16.0025C3.17016 16.1038 3.20391 16.2163 3.30516 16.2838C3.39516 16.3513 3.48516 16.4075 3.57516 16.4638C3.74391 16.5763 3.90141 16.6888 4.07016 16.8013H4.02516C3.96891 16.8013 3.93516 16.8238 3.90141 16.8575C3.86766 16.8913 3.84516 16.9475 3.84516 16.9925C3.84516 17.0375 3.86766 17.0825 3.90141 17.1163C3.93516 17.15 3.98016 17.1613 4.02516 17.1613C4.03641 17.1613 4.04766 17.1613 4.05891 17.1613C4.22766 17.1838 4.38516 17.2063 4.55391 17.2288C4.57641 17.2288 4.58766 17.2288 4.61016 17.2288C4.63266 17.2288 4.64391 17.2288 4.65516 17.2175C4.71141 17.2625 4.77891 17.3075 4.84641 17.3413C4.99266 18.1175 5.16141 18.8938 5.36391 19.625C5.35266 19.67 5.33016 19.715 5.31891 19.76C5.28516 19.8163 5.26266 19.8613 5.22891 19.9063C5.20641 19.9288 5.17266 19.9625 5.15016 19.985C5.12766 19.9963 5.09391 20.0188 5.06016 20.03C5.02641 20.0413 4.99266 20.0525 4.94766 20.0525C4.93641 20.0525 4.92516 20.0525 4.91391 20.0525C4.85766 20.0525 4.81266 20.0525 4.76766 20.0413ZM12.4177 27.6125C11.3714 27.455 10.5052 27.3088 9.68391 27.1513C9.68391 27.1288 9.67266 27.1063 9.67266 27.0838C9.67266 27.0725 9.67266 27.0725 9.67266 27.0613C9.68391 26.9038 9.81891 26.78 9.98766 26.78C9.99891 26.78 9.99891 26.78 10.0102 26.78C11.1239 26.8475 12.2152 27.185 13.2614 27.5C13.4414 27.5563 13.6327 27.6125 13.8127 27.6688C13.3627 27.6575 12.8902 27.6463 12.4177 27.6125Z" fill="#2C2C2C"/>
<path d="M27.4924 22.4148C27.5149 22.6173 27.5487 22.8311 27.5487 23.0336C27.5487 23.0673 27.5374 23.1123 27.5374 23.1461C27.0424 23.0786 26.5699 22.8873 26.0637 22.8198C25.8949 22.7973 25.7374 22.8986 25.7037 23.0673C25.6699 23.2248 25.7824 23.4048 25.9512 23.4273C26.1312 23.4498 26.2999 23.4836 26.4687 23.5286C26.4237 23.5736 26.3899 23.6298 26.3787 23.6973C26.3674 23.7761 26.3787 23.8661 26.4349 23.9336C26.4799 23.9898 26.5587 24.0573 26.6374 24.0573C26.6824 24.0573 26.7274 24.0573 26.7724 24.0573C26.7724 24.0911 26.7837 24.1248 26.7949 24.1586C27.1549 23.8773 27.5149 23.5961 27.8637 23.3036C27.8637 23.1461 27.8524 22.9886 27.8524 22.8311C27.8074 22.5836 27.7624 22.3361 27.7174 22.0773C27.5599 22.1448 27.4699 22.2798 27.4924 22.4148Z" fill="#2C2C2C"/>
</svg>
