<svg width="23" height="30" viewBox="0 0 23 30" fill="none" xmlns="http://www.w3.org/2000/svg">
<path d="M20.5 13.5L20 10.5L12.5 4.49998C5.29997 2.49998 3.83331 9.33332 3.99997 13L3.49991 13.5C-0.000138998 12 0.499939 17.5 4.49992 20C8.66658 20 17 19.5 19 19.5C21.5 19.5 22.5 16 22.5 14.5C22.5 13.3 21.1666 13.3333 20.5 13.5Z" fill="#7B442B"/>
<path d="M11.1824 14.5604C11.2009 14.5604 11.2194 14.5511 11.2379 14.5511C11.2472 14.5511 11.2472 14.5511 11.2472 14.5511C11.2287 14.5418 11.2009 14.5326 11.1824 14.5233C11.1824 14.5418 11.1824 14.5511 11.1824 14.5604Z" fill="#2C2C2C"/>
<path d="M11.0528 18.4122C11.0621 18.4122 11.0713 18.4122 11.0806 18.4122C11.0621 18.4029 11.0435 18.3844 11.0343 18.3752C11.0343 18.3752 11.0343 18.3752 11.025 18.3659C11.0343 18.3844 11.0435 18.4029 11.0528 18.4122Z" fill="#2C2C2C"/>
<path d="M13.3214 18.5049C13.3214 18.5049 13.3214 18.5141 13.3214 18.5049C13.3214 18.5419 13.3214 18.579 13.3214 18.6067C13.3492 18.5697 13.3677 18.5234 13.377 18.4771C13.3584 18.4956 13.3399 18.5049 13.3214 18.5049Z" fill="#2C2C2C"/>
<path d="M7.97836 13.0694C7.75613 13.1064 7.56168 13.2823 7.45983 13.486C7.35797 13.699 7.34871 13.9398 7.40427 14.1713C7.45983 14.3935 7.59872 14.5879 7.79317 14.7083C7.98762 14.8287 8.24689 14.8472 8.45986 14.7639C8.57098 14.7268 8.66357 14.662 8.74691 14.5787C8.83025 14.4861 8.8858 14.3842 8.92284 14.2639C8.95062 14.1713 8.95988 14.0601 8.95988 13.9583C8.95062 13.8287 8.92284 13.7083 8.86728 13.5879C8.83025 13.4953 8.76543 13.412 8.70061 13.3286C8.66357 13.2823 8.60801 13.2453 8.56172 13.2083C8.53394 13.1897 8.50616 13.1712 8.47838 13.162C8.43208 13.1342 8.37653 13.1064 8.31171 13.0879C8.24689 13.0694 8.18207 13.0508 8.11726 13.0508C8.07096 13.0508 8.02466 13.0601 7.97836 13.0694Z" fill="#2C2C2C"/>
<path d="M14.7752 13.4769C14.7011 13.5603 14.6363 13.6529 14.59 13.7547C14.5437 13.8658 14.5159 13.977 14.5067 14.1066C14.5067 14.227 14.5344 14.3381 14.5807 14.4492C14.6363 14.5603 14.7289 14.6529 14.84 14.727C14.8956 14.764 14.9696 14.7918 15.0345 14.8196C15.0993 14.8474 15.1641 14.8659 15.2289 14.8751C15.34 14.8937 15.4511 14.8937 15.5622 14.8659C15.6548 14.8381 15.7382 14.7918 15.8123 14.727C15.9419 14.6066 15.9975 14.4307 16.016 14.2547C16.0345 14.1992 16.0437 14.1436 16.0437 14.0788C16.053 13.9492 16.016 13.8195 15.9604 13.6992C15.9326 13.6343 15.8956 13.5788 15.8586 13.5232C15.8215 13.4769 15.7845 13.4306 15.7474 13.3936C15.4882 13.3751 15.2382 13.3473 14.9882 13.3195C14.9048 13.3566 14.8307 13.4214 14.7752 13.4769ZM15.3956 13.6158C15.3956 13.6158 15.3863 13.6158 15.3863 13.6066C15.3956 13.6066 15.3956 13.6066 15.4048 13.6066C15.4326 13.6158 15.4604 13.6158 15.4882 13.6251H15.4974C15.516 13.6436 15.5345 13.6621 15.553 13.6806C15.5715 13.6992 15.5808 13.7177 15.59 13.7455C15.5252 13.6992 15.4604 13.6529 15.3956 13.6158ZM15.553 13.6992L15.5622 13.7084C15.5622 13.7084 15.553 13.7084 15.553 13.6992ZM14.84 14.301C14.8307 14.2733 14.8215 14.2362 14.8122 14.2084C14.8122 14.1714 14.8122 14.1251 14.8122 14.0881C14.8215 14.0325 14.84 13.9862 14.8585 13.9399C14.877 13.9029 14.8956 13.8658 14.9233 13.8288C14.9233 13.8658 14.9233 13.9121 14.9233 13.9492V13.9677C14.8956 13.9862 14.877 14.0047 14.8585 14.0325C14.84 14.0603 14.8307 14.0973 14.8307 14.1344C14.8307 14.1529 14.84 14.1807 14.84 14.1992C14.84 14.227 14.8585 14.2455 14.8678 14.2733C14.8493 14.2733 14.84 14.2918 14.84 14.301Z" fill="#2C2C2C"/>
<path d="M14.7195 13.4213C14.6732 13.4583 14.6362 13.4954 14.5991 13.5417C14.5343 13.6157 14.4788 13.7083 14.4602 13.8102C14.4417 13.8935 14.4417 13.9861 14.4602 14.0787C14.5065 14.2361 14.6177 14.3565 14.7473 14.4491C14.7658 14.5324 14.7936 14.6065 14.8306 14.6806C14.8862 14.7732 14.9695 14.8658 15.0714 14.8936C15.201 14.9306 15.3214 14.8751 15.4232 14.801C15.4881 14.7547 15.5436 14.6991 15.5899 14.6436C15.5992 14.6436 15.6084 14.6436 15.6177 14.6343C15.664 14.625 15.701 14.6065 15.7473 14.588C15.8955 14.5232 15.9973 14.3843 16.0251 14.2269C16.0344 14.1806 16.0344 14.1343 16.0344 14.088C16.0344 14.0324 16.0251 13.9769 16.0066 13.9213C16.0066 13.9121 15.9973 13.8935 15.9973 13.8843C15.9973 13.8658 15.9973 13.8472 15.9881 13.838C15.9788 13.7824 15.951 13.7361 15.9233 13.6991C15.9047 13.662 15.877 13.6157 15.8584 13.5787C15.8029 13.5046 15.7381 13.4306 15.664 13.3843C15.4232 13.3657 15.1732 13.338 14.9325 13.3102C14.8491 13.3287 14.7751 13.375 14.7195 13.4213ZM15.4603 13.6157C15.4788 13.625 15.4788 13.625 15.4881 13.625L15.4603 13.6343C15.4695 13.625 15.4695 13.6157 15.4603 13.6157ZM14.9788 13.8195C14.988 13.8102 14.988 13.8009 14.9973 13.7917C15.0343 13.7546 15.0621 13.7176 15.1084 13.6806C15.1269 13.6713 15.1455 13.6528 15.164 13.6435C15.1825 13.662 15.1917 13.6713 15.2103 13.6898C15.2195 13.6991 15.2195 13.6991 15.2288 13.7083C15.164 13.7361 15.0992 13.7732 15.0343 13.8195C15.0158 13.8287 14.9973 13.8472 14.9788 13.8565C14.9788 13.8472 14.9788 13.8287 14.9788 13.8195ZM15.5807 14.0972C15.6084 14.0787 15.627 14.0509 15.6362 14.0232C15.6455 13.9861 15.6362 13.9584 15.627 13.9213C15.6177 13.8935 15.5992 13.8658 15.5899 13.838C15.6177 13.838 15.6455 13.8287 15.6825 13.838C15.6825 13.838 15.6825 13.838 15.6825 13.8472C15.701 13.9028 15.7195 13.9583 15.7381 14.0232C15.7381 14.0232 15.7381 14.0232 15.7381 14.0324C15.6825 14.1528 15.6084 14.2639 15.5344 14.3658C15.5344 14.338 15.5251 14.3102 15.4973 14.2917C15.414 14.2269 15.3306 14.1713 15.238 14.125C15.1918 14.1065 15.1547 14.0787 15.1084 14.0602C15.1177 14.0509 15.1177 14.0509 15.1269 14.0417C15.1917 13.9861 15.2658 13.9491 15.3492 13.9121C15.3769 13.9584 15.3955 14.0047 15.4232 14.0509C15.4418 14.088 15.4881 14.1158 15.5344 14.1158C15.5436 14.1158 15.5621 14.1065 15.5807 14.0972ZM15.1455 14.6528C15.1362 14.6528 15.1362 14.6528 15.1269 14.6436C15.1177 14.6436 15.1084 14.6343 15.1084 14.6343C15.0992 14.625 15.0899 14.6158 15.0806 14.6065C15.1269 14.625 15.1825 14.6343 15.2288 14.6436H15.2195C15.201 14.6528 15.1917 14.6528 15.1732 14.6528H15.164C15.1547 14.6528 15.1547 14.6528 15.1455 14.6528Z" fill="#2C2C2C"/>
<path d="M8.59889 19.6344C8.55259 19.6436 8.50629 19.6807 8.48777 19.7177C8.44148 19.8011 8.46 19.9307 8.55259 19.977C8.63593 20.014 8.71927 20.0511 8.8026 20.0974C8.99705 20.0326 9.20076 19.9677 9.40447 19.9214C9.25632 19.8659 9.09891 19.8103 8.95075 19.7455C8.87668 19.7177 8.81186 19.6807 8.73778 19.6529C8.70074 19.6344 8.67297 19.6251 8.63593 19.6251C8.62667 19.6344 8.61741 19.6344 8.59889 19.6344Z" fill="#2C2C2C"/>
<path d="M15.2659 19.755C15.0714 19.8754 14.8677 19.9772 14.664 20.0698C14.5251 20.1254 14.3862 20.1717 14.2473 20.218C14.4047 20.2828 14.5529 20.3569 14.701 20.4402C14.7196 20.4495 14.7288 20.4587 14.7473 20.468C14.9973 20.3661 15.2381 20.2458 15.4696 20.0976C15.5622 20.042 15.5992 19.9124 15.5437 19.8198C15.5066 19.755 15.4325 19.718 15.3677 19.718C15.3307 19.7272 15.2936 19.7365 15.2659 19.755Z" fill="#2C2C2C"/>
<path d="M2.39518 15.1898C2.38592 15.2083 2.37666 15.2361 2.38592 15.2639C2.38592 15.2731 2.39518 15.2824 2.39518 15.2824C2.41369 15.3194 2.43221 15.3472 2.45999 15.3657C2.48777 15.3935 2.51555 15.4213 2.55259 15.449C2.60815 15.5046 2.6637 15.5509 2.71926 15.6065C2.83038 15.7083 2.95075 15.8102 3.07113 15.912C3.31187 16.1157 3.54336 16.3287 3.79337 16.5232C3.80263 16.5324 3.81189 16.5417 3.82115 16.5509C3.84893 16.5695 3.86745 16.5695 3.89523 16.5695C3.93227 16.5695 3.97857 16.5509 4.00634 16.5232C4.03412 16.4954 4.05264 16.4583 4.05264 16.412C4.05264 16.375 4.03412 16.3287 4.00634 16.3009C3.7656 16.0972 3.51559 15.8935 3.27484 15.6991C3.15446 15.5972 3.02483 15.4953 2.89519 15.4027C2.83038 15.3564 2.77482 15.3102 2.71 15.2639C2.67296 15.2361 2.64518 15.2176 2.60815 15.1898C2.57111 15.162 2.53407 15.1435 2.49703 15.1342C2.48777 15.1342 2.47851 15.1342 2.46925 15.1342C2.45073 15.1435 2.41369 15.1527 2.39518 15.1898ZM2.45999 15.3379C2.46925 15.3379 2.46925 15.3379 2.45999 15.3379V15.3379Z" fill="#2C2C2C"/>
<path d="M3.28409 15.9676C3.0989 16.1343 2.93223 16.301 2.77481 16.4954C2.74703 16.5324 2.72852 16.5695 2.72852 16.6158C2.72852 16.6621 2.74703 16.7084 2.77481 16.7362C2.83963 16.801 2.95075 16.8102 3.01556 16.7362C3.18224 16.5602 3.35817 16.3843 3.5341 16.2269C3.60818 16.1621 3.59892 16.0324 3.5341 15.9676C3.49706 15.9306 3.45076 15.912 3.41373 15.912C3.36743 15.9213 3.32113 15.9398 3.28409 15.9676Z" fill="#2C2C2C"/>
<path d="M21.2291 15.3563C20.692 15.6434 20.229 16.0693 19.9235 16.5971C19.8864 16.662 19.905 16.7453 19.9698 16.7823C20.0346 16.8194 20.1179 16.7916 20.155 16.736C20.2105 16.6527 20.2661 16.5694 20.3216 16.4953C20.4883 16.2823 20.6828 16.0879 20.8957 15.9212C21.0439 15.8101 21.2013 15.7082 21.368 15.6156C21.4421 15.5786 21.4606 15.486 21.4235 15.4119C21.3958 15.3656 21.3495 15.3378 21.2939 15.3378C21.2846 15.3378 21.2569 15.3471 21.2291 15.3563ZM20.3309 16.4953C20.3309 16.5045 20.3216 16.5045 20.3216 16.5138C20.3216 16.5045 20.3216 16.5045 20.3309 16.4953Z" fill="#2C2C2C"/>
<path d="M20.4142 16.0044C20.3679 16.0137 20.3309 16.0415 20.3124 16.0878C20.2846 16.1248 20.2846 16.1804 20.2939 16.2174C20.3031 16.2545 20.3309 16.3008 20.3772 16.3193C20.5624 16.4026 20.7383 16.4952 20.8957 16.6248C20.905 16.6341 20.9143 16.6434 20.9328 16.6526C20.9698 16.6804 21.0069 16.6989 21.0532 16.6989C21.0995 16.6989 21.1365 16.6804 21.1735 16.6526C21.2383 16.5878 21.2383 16.4767 21.1735 16.4119C20.9883 16.2545 20.7846 16.1156 20.5624 16.023C20.5346 16.0137 20.5068 16.0044 20.4698 16.0044C20.442 15.9952 20.4235 15.9952 20.4142 16.0044ZM20.8957 16.6248C20.905 16.6248 20.905 16.6341 20.9143 16.6341C20.905 16.6341 20.905 16.6248 20.8957 16.6248Z" fill="#2C2C2C"/>
<path d="M13.3121 0.179993C13.2843 0.179993 13.2473 0.179993 13.2195 0.179993C12.3213 0.198512 11.4416 0.457784 10.6638 0.698534C9.11748 1.16151 7.53409 1.95784 5.67291 3.20788C5.3303 3.43937 4.95992 3.69864 4.5062 4.02273L4.40434 4.09681C4.08026 4.3283 3.74691 4.56904 3.42282 4.80979C3.11726 5.04128 2.85799 5.27277 2.65428 5.50426C2.5339 5.6339 2.43205 5.76353 2.34871 5.89317C2.2376 6.05058 2.15426 6.21726 2.0987 6.34689C1.91351 6.73579 1.83017 7.20803 1.83943 7.75435C1.84869 8.00436 1.87647 8.28215 1.93203 8.63401C1.98759 8.93958 2.0524 9.26366 2.13574 9.59701C2.30241 10.2544 2.5339 10.9119 2.76539 11.523C2.89503 11.8749 3.00614 12.1527 3.11726 12.4119L3.12652 12.4304C3.20059 12.6156 3.28393 12.8101 3.37653 12.986C3.34875 12.9953 3.31171 13.0045 3.28393 13.0045C3.27467 13.0045 3.26541 13.0045 3.25615 13.0045C3.21911 13.0045 3.18208 12.9953 3.14504 12.986L3.1543 13.0231C3.13578 13.0231 3.11726 13.0138 3.09874 13.0045C2.94133 12.9397 2.78391 12.8934 2.61724 12.8749C2.56168 12.8656 2.50612 12.8656 2.45057 12.8656C2.33945 12.8656 2.22834 12.8749 2.10796 12.9027C1.97833 12.9305 1.83017 12.9953 1.67276 13.0971C1.54313 13.1805 1.42275 13.2823 1.31164 13.3934C1.1357 13.5879 0.99681 13.8379 0.922733 14.125C0.857916 14.3657 0.839397 14.6342 0.867176 14.9398C0.885695 15.1991 0.941252 15.4676 1.01533 15.7732C1.08941 16.0417 1.182 16.3102 1.31164 16.6158C1.45053 16.9491 1.6172 17.2732 1.79314 17.5788C2.03389 17.9862 2.31167 18.3751 2.61724 18.7362C2.7191 18.8566 2.83021 18.9677 2.95059 19.0788C3.02466 19.1344 3.08948 19.19 3.1543 19.227C3.21911 19.2548 3.28393 19.2826 3.34875 19.3196C3.43208 19.3566 3.51542 19.3937 3.59876 19.44C3.66357 19.4677 3.72839 19.5048 3.79321 19.5418C3.8858 19.5603 3.96914 19.5974 4.04322 19.6437C4.17285 19.727 4.28397 19.8381 4.34878 19.9678C4.3673 19.9863 4.38582 20.0048 4.39508 20.0233C4.4599 20.1067 4.51546 20.19 4.56176 20.2641C4.61731 20.3474 4.66361 20.4215 4.70991 20.5048C4.83954 20.7363 4.95992 20.9771 5.08955 21.2456L5.09881 21.2548L5.11733 21.2826C5.17289 21.3937 5.22845 21.5049 5.28401 21.616C5.32104 21.69 5.35808 21.7641 5.40438 21.8382C5.43216 21.8845 5.45994 21.9401 5.47846 21.9864C5.49697 22.0234 5.51549 22.0697 5.54327 22.1067C5.58957 22.1715 5.62661 22.2364 5.67291 22.2919C5.71921 22.3567 5.74698 22.4401 5.7655 22.5419C5.78402 22.5882 5.8118 22.6345 5.83032 22.6808L5.83958 22.6993L5.86736 22.7456C6.18218 23.2549 6.56183 23.7457 6.98777 24.1994C7.39519 24.6346 7.87669 25.0513 8.42301 25.4494C8.71932 25.6624 8.98784 25.8384 9.25637 25.9772C9.53416 26.1254 9.83973 26.2643 10.1638 26.3847C10.7379 26.5884 11.3583 26.7087 12.0065 26.7273C12.0713 26.7273 12.1361 26.7273 12.2009 26.7273C13.3584 26.7273 14.5158 26.3847 15.5436 25.7272C16.627 25.042 17.5345 24.0235 18.1826 22.7827C18.2382 22.6716 18.2937 22.5604 18.3493 22.4401C18.3493 22.4493 18.3586 22.4493 18.3678 22.4586C18.3956 22.3845 18.4234 22.3104 18.4512 22.2364C18.59 21.866 18.7567 21.4956 18.9234 21.1437C18.9975 20.9863 19.0715 20.8196 19.1364 20.6622L19.1641 20.5974C19.1827 20.5419 19.2104 20.4956 19.229 20.44L19.2382 20.403C19.266 20.3104 19.303 20.2178 19.3401 20.1252C19.3679 20.0604 19.3956 20.0048 19.4419 19.94C19.4697 19.9029 19.4975 19.8659 19.5253 19.8381C19.5253 19.8289 19.5345 19.8103 19.5345 19.8011C19.5438 19.7826 19.5716 19.764 19.5901 19.764C19.6271 19.7548 19.6734 19.7455 19.729 19.7363C19.8864 19.727 20.0253 19.6622 20.1271 19.6159C20.2753 19.5418 20.4142 19.4307 20.5253 19.3381C20.6457 19.2363 20.7568 19.1251 20.9049 18.9677C21.1457 18.7085 21.3864 18.4029 21.655 18.014C21.8587 17.7177 22.0346 17.4399 22.1735 17.1899C22.2291 17.0788 22.2846 16.9769 22.3217 16.8658C22.4328 16.5695 22.5254 16.3287 22.6087 16.0695C22.8309 15.375 22.8772 14.8194 22.7569 14.3287C22.692 14.0509 22.5439 13.7823 22.3309 13.5601C22.2291 13.449 22.0994 13.3471 21.9235 13.236C21.7753 13.1342 21.5994 13.0694 21.4142 13.0231C21.3309 13.0045 21.2383 12.9953 21.1364 12.986C21.1272 12.986 21.1179 12.986 21.1087 12.986C21.0253 12.986 20.942 12.9953 20.8679 13.0138C20.8216 13.0231 20.7661 13.0323 20.7198 13.0508C20.8031 12.9397 20.8864 12.8101 20.979 12.6434C21.0994 12.4212 21.2105 12.1804 21.3309 11.8471C21.4976 11.3841 21.6457 10.8748 21.7476 10.3378C21.9235 9.46737 21.905 8.58771 21.692 7.78213C21.5809 7.36545 21.4235 6.9858 21.2105 6.63394C21.1087 6.46726 20.9883 6.30059 20.8494 6.13392C20.692 5.94873 20.5068 5.79131 20.3494 5.66168C20.1364 5.495 19.9049 5.37463 19.7197 5.29129C19.4697 5.18018 19.2012 5.12462 18.9975 5.08758C18.6549 5.03202 18.3123 5.0135 17.9697 4.99499C17.8678 4.98573 17.7659 4.98573 17.6641 4.97647C17.5622 4.96721 17.4696 4.96721 17.3678 4.95795C17.3956 4.30052 17.2659 3.59679 16.9604 2.86528C16.8215 2.51341 16.627 2.16155 16.3863 1.81894C16.2844 1.67079 16.164 1.52264 16.0529 1.393C15.9048 1.22633 15.7381 1.08744 15.6177 0.976322C15.3121 0.717053 14.9232 0.504079 14.4973 0.365185C14.1362 0.23555 13.738 0.179993 13.3121 0.179993ZM11.7194 9.2544C12.1731 9.08773 12.7009 8.90254 13.2473 8.74512C13.8491 8.57845 14.3584 8.47659 14.8399 8.42104C14.9603 8.41178 15.0621 8.41178 15.1547 8.41178C15.1825 8.41178 15.2103 8.41178 15.2381 8.41178C15.3677 8.41178 15.5159 8.4303 15.6733 8.45808C15.9696 8.5229 16.2566 8.61549 16.5252 8.73587C16.7844 8.8655 17.0252 9.02291 17.2381 9.19885C17.3956 9.33774 17.5252 9.47663 17.6363 9.63405C17.7289 9.77294 17.803 9.91184 17.8678 10.0693C17.9974 10.4489 18.0437 10.8285 18.0715 11.1897V11.1711C18.0808 11.2452 18.0808 11.3193 18.09 11.3934C18.1085 11.5971 18.1178 11.8008 18.1456 12.0045C18.1734 12.2638 18.2289 12.5416 18.3215 12.8749C18.4049 13.1712 18.5067 13.4768 18.6456 13.8009C18.7104 13.9583 18.7845 14.1064 18.8586 14.2361C18.8956 14.3009 18.9327 14.3564 18.9697 14.4027C18.979 14.449 18.9882 14.4953 18.9882 14.5416C18.9975 14.6065 19.0067 14.662 19.016 14.7268C19.0252 14.7731 19.0345 14.8102 19.0345 14.8565C19.0438 14.9028 19.053 14.9398 19.053 14.9861C19.0623 15.0509 19.0715 15.1157 19.0808 15.1805C19.0993 15.2917 19.1178 15.3935 19.1271 15.4954C19.1178 15.6528 19.0993 15.8195 19.0901 15.9769V16.0047C19.0252 16.8288 18.9604 17.6899 18.8493 18.5325V18.551V18.5696V18.5973L18.8586 18.5881C18.7845 19.0788 18.7104 19.5233 18.6178 19.94C18.5808 19.9955 18.553 20.0696 18.5437 20.1622C18.5345 20.2363 18.5252 20.3196 18.516 20.3937C18.3771 20.9493 18.2104 21.4586 18.016 21.9401C17.7382 22.579 17.3956 23.1716 16.9974 23.7086C16.627 24.1901 16.2103 24.6068 15.7566 24.9587C15.3307 25.2828 14.8677 25.5513 14.3862 25.7643C13.9139 25.9587 13.4139 26.0976 12.9139 26.1717C12.6732 26.1995 12.4232 26.218 12.1824 26.218C11.9417 26.218 11.6916 26.1995 11.4509 26.1717C10.9601 26.1069 10.4786 25.968 10.0064 25.7735C9.72861 25.6532 9.46008 25.5143 9.20081 25.3568C8.96932 25.218 8.72857 25.0513 8.44153 24.8291L8.42301 24.8198L8.40449 24.8013L8.39523 24.792C7.7841 24.3105 7.23778 23.7642 6.78406 23.1716C6.32108 22.5697 5.93218 21.8938 5.62661 21.1808C5.26549 20.3196 5.00622 19.3474 4.86732 18.301V18.2918C4.78399 17.6436 4.73769 17.0047 4.69139 16.3843V16.3565C4.66361 16.0139 4.63583 15.6528 4.60805 15.3009C4.61731 15.2824 4.62657 15.2639 4.62657 15.2454L4.64509 15.2083L4.65435 15.1805C4.61731 15.1157 4.59879 15.0509 4.59879 14.9768C4.59879 14.9491 4.59879 14.9213 4.59879 14.8935C4.59879 14.7731 4.59879 14.6527 4.59879 14.5324C4.62657 14.5139 4.64509 14.4953 4.65435 14.4676C4.70991 14.3657 4.75621 14.2546 4.81176 14.0972C4.8488 13.9861 4.88584 13.8657 4.91362 13.7546L4.93214 13.6805C4.99696 13.4212 5.08029 13.1157 5.13585 12.8101C5.19141 12.523 5.20993 12.2267 5.22845 11.9582C5.24697 11.6526 5.24697 11.3378 5.24697 11.0508C5.23771 10.6063 5.21919 10.1526 5.19141 9.70812L5.18215 9.61553C5.44142 9.8748 5.71921 10.1063 6.02477 10.2915C6.16367 10.3748 6.31182 10.4489 6.51553 10.5415C6.6822 10.6156 6.84888 10.6711 7.01555 10.7082C7.20074 10.7452 7.36741 10.773 7.52483 10.773C7.72854 10.773 7.92299 10.7359 8.08966 10.6989C8.53412 10.6063 8.96007 10.4211 9.35823 10.2359C9.50638 10.1711 9.65454 10.097 9.81195 10.023C10.0527 9.90258 10.312 9.7822 10.562 9.68035C10.7009 9.62479 10.8398 9.56923 10.9787 9.52293L11.1268 9.46738L11.2194 9.43034C11.3861 9.38404 11.5528 9.31922 11.7194 9.2544L11.6639 9.27292L11.7194 9.2544ZM4.08952 19.1344C4.071 19.1344 4.05248 19.1344 4.03396 19.1344C3.96914 19.1251 3.91358 19.1066 3.84877 19.0788C3.74691 19.0325 3.65431 18.977 3.56172 18.9029C3.29319 18.6899 3.04318 18.4214 2.75613 18.0603C2.37649 17.5603 2.0524 17.0047 1.79314 16.4121C1.58942 15.9121 1.45979 15.4676 1.39497 15.0509C1.36719 14.8194 1.36719 14.6157 1.38571 14.4213C1.40423 14.2916 1.44127 14.1713 1.48757 14.0509C1.52461 13.9583 1.58016 13.8749 1.63572 13.7916C1.70054 13.7175 1.76536 13.6435 1.84869 13.5786C1.94129 13.5138 2.03389 13.4583 2.12648 13.412C2.1913 13.3842 2.25612 13.3657 2.33019 13.3564C2.36723 13.3564 2.41353 13.3471 2.45057 13.3471C2.49687 13.3471 2.5339 13.3471 2.5802 13.3564C2.68206 13.3749 2.77465 13.4027 2.87651 13.4397C2.99688 13.4953 3.09874 13.5601 3.20985 13.6342C3.29319 13.699 3.36727 13.7731 3.43208 13.8472L3.45986 13.9212L3.48764 13.9953C3.57098 14.1064 3.64506 14.2176 3.70061 14.3287C3.77469 14.4768 3.83025 14.625 3.8858 14.7824C3.95062 14.9676 3.99692 15.162 4.05248 15.3565L4.08952 15.4861L4.09878 15.5139L4.10803 15.5417C4.10803 15.5509 4.10803 15.5509 4.10803 15.5602C4.11729 15.5695 4.12655 15.5695 4.14507 15.5787C4.15433 15.6806 4.16359 15.7824 4.17285 15.8843C4.20063 16.0417 4.22841 16.2269 4.24693 16.4306C4.26545 16.5973 4.27471 16.7547 4.28397 16.9214L4.29323 17.0325C4.30249 17.1065 4.30249 17.1806 4.31175 17.2547C4.32101 17.3473 4.33027 17.4306 4.33952 17.5232C4.34878 17.5973 4.3673 17.6806 4.38582 17.7547C4.4136 17.9121 4.45064 18.0695 4.45064 18.227C4.45064 18.3196 4.44138 18.4029 4.42286 18.4862V18.4955C4.4136 18.5233 4.40434 18.5418 4.39508 18.5603C4.38582 18.5788 4.38582 18.5973 4.38582 18.6159C4.38582 18.6807 4.38582 18.7455 4.37656 18.8103C4.3673 18.8659 4.34878 18.9214 4.33952 18.977C4.33027 19.0048 4.31175 19.0233 4.30249 19.0511C4.29323 19.0603 4.27471 19.0788 4.26545 19.0881C4.25619 19.0974 4.23767 19.1066 4.22841 19.1066C4.20989 19.1159 4.19137 19.1159 4.17285 19.1251C4.1173 19.1344 4.09878 19.1344 4.08952 19.1344ZM19.729 15.0509C19.7568 14.9213 19.7938 14.8009 19.8308 14.6805C19.8864 14.4953 19.9512 14.2916 20.0623 14.1157C20.1086 14.0416 20.1549 13.9583 20.229 13.8935C20.2475 13.8749 20.266 13.8657 20.2846 13.8472C20.3216 13.8101 20.3679 13.7823 20.4049 13.7638C20.5253 13.6805 20.6364 13.6064 20.7568 13.5601C20.8494 13.5231 20.9327 13.5046 21.0161 13.486C21.0531 13.486 21.0901 13.4768 21.1364 13.4768C21.1735 13.4768 21.2105 13.4768 21.2476 13.4768C21.3309 13.4953 21.4142 13.5138 21.4976 13.5416C21.6087 13.5879 21.7105 13.6527 21.8216 13.7361C21.9142 13.8101 21.9976 13.8935 22.0717 13.9768C22.1365 14.0601 22.1828 14.1527 22.2291 14.2453C22.2754 14.3564 22.3031 14.4676 22.3217 14.5972C22.3402 14.7824 22.3402 14.9768 22.3124 15.1805C22.2754 15.4306 22.2106 15.6898 22.1087 16.0047C22.0254 16.2547 21.942 16.4954 21.8494 16.7269C21.7568 16.9306 21.6457 17.1158 21.5253 17.301C21.3401 17.588 21.1457 17.8751 20.9327 18.1529C20.7105 18.4307 20.442 18.7548 20.1179 19.014C20.0253 19.0788 19.9419 19.1344 19.8586 19.1714C19.8216 19.1807 19.7845 19.1992 19.7568 19.1992C19.7475 19.1992 19.7382 19.1992 19.729 19.1992H19.7105C19.7012 19.1992 19.6919 19.1992 19.6919 19.19C19.6827 19.19 19.6827 19.1807 19.6734 19.1807C19.6642 19.1714 19.6549 19.1622 19.6456 19.1529C19.6271 19.1251 19.6086 19.0881 19.5901 19.0511C19.553 18.9585 19.5253 18.8473 19.5067 18.7177C19.4882 18.6899 19.4882 18.6529 19.479 18.6159C19.4604 18.4955 19.4512 18.3844 19.4419 18.2733C19.4419 18.264 19.4327 18.2547 19.4327 18.2547C19.4512 18.1344 19.4604 18.014 19.4697 17.8936C19.479 17.6714 19.5067 17.4492 19.5345 17.2732L19.5438 17.1899V17.1806V17.1065C19.5438 17.0047 19.553 16.8936 19.553 16.7917C19.553 16.7639 19.553 16.7362 19.5623 16.7084C19.5716 16.5787 19.5808 16.4676 19.5993 16.3658C19.5993 16.3473 19.6086 16.338 19.6086 16.3195C19.6179 16.2084 19.6271 16.0972 19.6364 15.9861C19.6549 15.7176 19.6827 15.4583 19.7012 15.1898C19.7105 15.1805 19.7197 15.162 19.7197 15.1528C19.729 15.1157 19.7382 15.0694 19.7475 15.0324L19.729 15.0509Z" fill="#2C2C2C"/>
<path d="M9.53435 10.9766C9.38619 10.9951 9.2473 11.0229 9.09915 11.0506C9.04359 11.0599 8.97877 11.0784 8.92321 11.0969C8.83062 11.1247 8.72876 11.1525 8.63617 11.1803C8.46949 11.2266 8.29356 11.2729 8.12689 11.3284C7.95095 11.384 7.77502 11.4488 7.60835 11.5229C7.44168 11.5969 7.29352 11.6803 7.14537 11.7821C7.07129 11.8377 6.99722 11.9025 6.92314 11.9766C6.92314 11.9859 6.91388 12.0044 6.91388 12.0136C6.91388 12.0322 6.91388 12.0599 6.91388 12.0784C6.91388 12.097 6.92314 12.1155 6.9324 12.1433C6.9324 12.1525 6.9324 12.1525 6.94166 12.1618C7.00648 12.0877 7.07129 12.0229 7.15463 11.9581C7.3213 11.8284 7.50649 11.7358 7.70095 11.6525C8.05281 11.5044 8.42319 11.4118 8.78432 11.3192C8.91395 11.2821 9.03433 11.2543 9.16396 11.2173C9.28434 11.1895 9.39545 11.171 9.51583 11.1525C9.52509 11.1525 9.52509 11.1525 9.53435 11.1525H9.52509H9.53435C9.61768 11.1432 9.70102 11.134 9.7751 11.134C9.84917 11.134 9.93251 11.134 10.0066 11.1432H9.98807C10.0344 11.1525 10.0807 11.1617 10.1177 11.171C10.127 11.1803 10.1455 11.1803 10.1547 11.1895C10.164 11.1988 10.164 11.1988 10.1733 11.208C10.1733 11.2173 10.1825 11.2173 10.1825 11.2266C10.1825 11.2358 10.1825 11.2358 10.1918 11.2451C10.1918 11.2543 10.1918 11.2636 10.1918 11.2821C10.1918 11.3006 10.1825 11.3284 10.1733 11.3469C10.1455 11.4118 10.0992 11.4766 10.0529 11.5414C10.0529 11.5321 10.0621 11.5321 10.0621 11.5229C10.0066 11.5969 9.94177 11.671 9.86769 11.7358C9.86769 11.7358 9.86769 11.7358 9.87695 11.7358C9.87695 11.7358 9.87695 11.7358 9.86769 11.7358C9.83065 11.7636 9.78436 11.7914 9.74732 11.8192C9.60842 11.8377 9.46027 11.8655 9.32137 11.884H9.33064C8.96951 11.9303 8.60839 11.9766 8.25652 12.0229C8.08059 12.0414 7.90466 12.0692 7.72872 12.097C7.63613 12.1062 7.55279 12.1247 7.4602 12.134C7.3676 12.1525 7.26574 12.171 7.17315 12.1803C7.15463 12.1803 7.14537 12.1988 7.14537 12.2173C7.14537 12.2359 7.16389 12.2544 7.18241 12.2544C7.21019 12.2544 7.22871 12.2544 7.25648 12.2544C7.28426 12.2544 7.3213 12.2544 7.34908 12.2544C7.4139 12.2544 7.48798 12.2544 7.55279 12.2544C7.71947 12.2544 7.88614 12.2544 8.05281 12.2451C8.238 12.2359 8.43245 12.2266 8.61765 12.2081C8.80284 12.1896 8.99729 12.1618 9.18248 12.1247C9.34915 12.0877 9.51583 12.0507 9.67324 11.9859C9.7751 11.9488 9.86769 11.9025 9.96029 11.8377C10.0066 11.8007 10.0436 11.7636 10.0899 11.7173C10.1084 11.6988 10.1177 11.6803 10.1362 11.671C10.1733 11.634 10.201 11.597 10.2288 11.5507C10.2751 11.4951 10.3122 11.4303 10.3307 11.3562C10.3399 11.3284 10.3492 11.3006 10.3492 11.2729C10.3492 11.2451 10.3492 11.2173 10.3399 11.1895C10.3399 11.171 10.3214 11.1432 10.3122 11.1247C10.3029 11.1062 10.2844 11.0877 10.2659 11.0692C10.1825 10.9951 10.0621 10.9766 9.95103 10.9673C9.91399 10.9673 9.87695 10.958 9.83991 10.958C9.7288 10.9488 9.6362 10.958 9.53435 10.9766ZM9.5899 11.8655C9.58064 11.8655 9.5899 11.8655 9.5899 11.8655V11.8655ZM8.27504 12.0507C8.70098 11.9951 9.12692 11.9396 9.54361 11.884C9.42323 11.9303 9.30286 11.9673 9.18248 11.9951C9.02507 12.0322 8.87691 12.0599 8.7195 12.0784C8.7195 12.0784 8.7195 12.0784 8.71024 12.0784C8.41394 12.1155 8.12689 12.134 7.83058 12.1433C7.74724 12.1433 7.67317 12.1525 7.58983 12.1525C7.63613 12.1433 7.68243 12.134 7.72872 12.134C7.90466 12.1062 8.08985 12.0784 8.27504 12.0507Z" fill="#2C2C2C"/>
<path d="M14.3863 11.6341C14.2938 11.6434 14.1734 11.6619 14.0715 11.7175C13.9882 11.7638 13.9234 11.8378 13.9048 11.9212C13.8863 12.0138 13.9141 12.1249 13.9882 12.2545C14.0067 12.2823 14.0252 12.3193 14.053 12.3471C14.0715 12.3749 14.09 12.4027 14.1178 12.4304C14.1456 12.4582 14.1919 12.4953 14.2382 12.523C14.2845 12.5508 14.34 12.5693 14.4049 12.5971C14.4604 12.6156 14.5252 12.6342 14.6086 12.6527C14.7752 12.6897 14.9512 12.7175 15.0993 12.736C15.2567 12.7545 15.4327 12.7731 15.6364 12.7916C15.8308 12.8101 16.0253 12.8194 16.2197 12.8286C16.266 12.8286 16.3216 12.8379 16.3679 12.8379C16.3864 12.8286 16.4142 12.8286 16.4327 12.8286C16.5901 12.8286 16.7475 12.8286 16.905 12.8193C16.979 12.8101 17.0438 12.7916 17.1179 12.7638C17.1457 12.7545 17.1735 12.736 17.192 12.7175C17.2013 12.6897 17.2013 12.6434 17.192 12.6064C17.1735 12.5601 17.1457 12.523 17.1272 12.4953C17.0994 12.4582 17.0624 12.4304 17.0253 12.4027C16.9142 12.3193 16.8031 12.2545 16.7105 12.199C16.5994 12.1434 16.479 12.0786 16.3309 12.0138C16.2105 11.9582 16.0901 11.9119 15.9605 11.8564C15.8771 11.8286 15.7938 11.7915 15.7012 11.7638C15.6364 11.7452 15.5716 11.736 15.516 11.7175H15.5068C15.2382 11.6619 14.9975 11.6341 14.7752 11.6249C14.7197 11.6249 14.6641 11.6156 14.6178 11.6156C14.5252 11.6156 14.4512 11.6249 14.3863 11.6341Z" fill="#2C2C2C"/>
<path d="M14.2288 11.958C14.2288 12.0136 14.2751 12.0599 14.3306 12.0599C14.3862 12.0599 14.4325 12.0136 14.4325 11.958C14.4325 11.9024 14.3862 11.8561 14.3306 11.8561C14.2751 11.8561 14.2288 11.9024 14.2288 11.958Z" fill="#2C2C2C"/>
<path d="M14.8028 11.8008C14.7287 11.8008 14.6547 11.8101 14.5806 11.8193C14.4973 11.8286 14.4139 11.8379 14.3306 11.8564C14.3028 11.8564 14.2843 11.8842 14.2658 11.9027C14.2473 11.9305 14.2472 11.9582 14.2565 11.986C14.2658 12.0138 14.2843 12.0323 14.3028 12.0508C14.3306 12.0694 14.3584 12.0694 14.3861 12.0601C14.4047 12.0601 14.4232 12.0508 14.4417 12.0508C14.5713 12.0323 14.6917 12.0323 14.8213 12.0323C14.8862 12.0323 14.9602 12.0416 15.0251 12.0416C15.0899 12.0508 15.1547 12.0601 15.2288 12.0601C15.2751 12.0601 15.3121 12.0231 15.3306 11.986C15.3399 11.9582 15.3306 11.9305 15.3214 11.9027C15.3028 11.8749 15.2843 11.8656 15.2565 11.8564C15.1825 11.8286 15.1084 11.8194 15.0251 11.8101C14.9695 11.8008 14.9139 11.8008 14.8584 11.8008C14.8491 11.7916 14.8306 11.7916 14.8028 11.8008Z" fill="#2C2C2C"/>
<path d="M15.3213 13.088C15.275 13.088 15.2379 13.0973 15.1916 13.1065C15.1546 13.1158 15.1176 13.125 15.0898 13.1436C15.062 13.1528 15.0342 13.1713 15.0157 13.1899C14.9879 13.2084 14.9509 13.2362 14.9324 13.2639C14.9046 13.2917 14.8768 13.338 14.8583 13.3751C14.8213 13.4306 14.8305 13.5047 14.8583 13.5602C14.8953 13.6343 14.9787 13.6621 15.062 13.6436C15.0805 13.6343 15.099 13.6343 15.1176 13.6343C15.0898 13.6528 15.0527 13.6621 15.025 13.6806C14.9694 13.7084 14.9509 13.7825 14.9879 13.8288C15.0157 13.8843 15.0898 13.8936 15.1361 13.8658C15.1731 13.8473 15.2194 13.8195 15.2565 13.801C15.2842 13.7917 15.312 13.7825 15.3398 13.7732C15.349 13.7732 15.3676 13.7732 15.3768 13.7732C15.3861 13.7732 15.4046 13.7825 15.4139 13.7825C15.4324 13.7917 15.4509 13.801 15.4602 13.8103C15.4879 13.838 15.5157 13.8658 15.5435 13.8936C15.5713 13.9306 15.6268 13.9399 15.6639 13.9214H15.6731C15.6917 13.9492 15.7287 13.9769 15.7657 13.9862C15.8491 14.0047 15.9417 13.9584 15.9602 13.8751C15.9787 13.8103 15.988 13.7362 15.9787 13.6714C15.9694 13.588 15.9509 13.514 15.9139 13.4399C15.8861 13.3751 15.8398 13.3195 15.7935 13.2732C15.7472 13.2269 15.6824 13.1899 15.6268 13.1621C15.5713 13.1343 15.5065 13.1158 15.4416 13.1065C15.4046 13.0973 15.3676 13.088 15.3213 13.088Z" fill="#2C2C2C"/>
<path d="M9.86751 11.3099C9.85825 11.3377 9.83973 11.3562 9.82121 11.3747C9.78417 11.421 9.73787 11.4581 9.69158 11.4858C9.6175 11.5321 9.53416 11.5784 9.45083 11.6062C9.2286 11.6896 8.99711 11.7173 8.76562 11.7451C8.54339 11.7636 8.32116 11.7822 8.09892 11.7914C7.92299 11.8007 7.7378 11.8099 7.55261 11.8377C7.52483 11.847 7.49705 11.8562 7.47853 11.8748C7.44149 11.9025 7.42297 11.9488 7.42297 11.9951C7.42297 12.0785 7.46927 12.134 7.54335 12.1618C7.62669 12.1896 7.71002 12.1988 7.80262 12.2081C7.90447 12.2174 8.00633 12.2174 8.11744 12.2174C8.37671 12.2081 8.62672 12.1711 8.87673 12.097C9.11748 12.0322 9.35823 11.9396 9.58046 11.8192C9.76565 11.7173 9.95085 11.5877 10.0527 11.4025C10.0805 11.3562 10.0712 11.2914 10.0157 11.2544C9.99714 11.2451 9.97863 11.2358 9.96011 11.2358C9.92307 11.2544 9.88603 11.2729 9.86751 11.3099ZM9.43231 11.6155H9.42305C9.43231 11.6247 9.43231 11.6247 9.43231 11.6155Z" fill="#2C2C2C"/>
<path d="M9.33051 11.7821C9.33051 11.8377 9.3768 11.8839 9.43236 11.8839C9.48792 11.8839 9.53422 11.8377 9.53422 11.7821C9.53422 11.7265 9.48792 11.6802 9.43236 11.6802C9.38606 11.6895 9.33977 11.7265 9.33051 11.7821Z" fill="#2C2C2C"/>
<path d="M9.58065 11.0971C9.3399 11.1063 9.09915 11.1526 8.86766 11.2082C8.63617 11.273 8.40468 11.3563 8.18245 11.4582C8.01578 11.5323 7.83984 11.6063 7.67317 11.6804C7.5991 11.7174 7.57132 11.8008 7.58058 11.8749C7.58984 11.9026 7.5991 11.9304 7.62687 11.9582C7.65465 11.986 7.71021 12.0138 7.74725 12.0138C7.90466 11.9952 8.05282 11.9675 8.20097 11.9212C8.36764 11.8749 8.53432 11.8193 8.70099 11.773C8.87692 11.7174 9.05285 11.6619 9.23805 11.6063C9.40472 11.56 9.57139 11.523 9.73806 11.5045C9.7751 11.5045 9.8214 11.4952 9.85844 11.4952C9.83066 11.523 9.80288 11.5508 9.7751 11.5693C9.71955 11.6063 9.66399 11.6341 9.60843 11.6526C9.55287 11.6711 9.49731 11.6897 9.4325 11.6989C9.39546 11.7082 9.37694 11.7452 9.3862 11.773C9.39546 11.81 9.4325 11.8286 9.46028 11.8193C9.59917 11.7915 9.7288 11.7452 9.84918 11.6804C9.914 11.6526 9.96955 11.6156 10.0251 11.5693C10.0529 11.5508 10.0714 11.5323 10.0992 11.5137C10.127 11.4952 10.1547 11.4674 10.1733 11.4489C10.201 11.4304 10.2196 11.4026 10.2288 11.3656C10.2473 11.31 10.2288 11.2637 10.1918 11.2267C10.1547 11.1804 10.0992 11.1526 10.0436 11.1341C9.99733 11.1156 9.95104 11.1063 9.90474 11.0971C9.81214 11.0785 9.71954 11.0693 9.61769 11.0693C9.61769 11.0971 9.59917 11.0971 9.58065 11.0971Z" fill="#2C2C2C"/>
<path d="M9.58972 11.384C9.44157 11.4673 9.27489 11.5322 9.11748 11.597C8.93229 11.6618 8.73784 11.7266 8.54338 11.7451C8.50635 11.7451 8.46005 11.7451 8.42301 11.7451C8.41375 11.7451 8.39523 11.7359 8.38597 11.7359C8.33967 11.7174 8.28412 11.7451 8.2656 11.7822C8.23782 11.8285 8.24708 11.9025 8.30263 11.9303C8.39523 11.9766 8.48783 11.9766 8.58968 11.9766C8.71932 11.9674 8.84895 11.9396 8.97859 11.9025C9.11748 11.8655 9.25637 11.8099 9.39527 11.7637C9.50638 11.7174 9.6175 11.6711 9.72861 11.6062C9.78417 11.5785 9.81195 11.4951 9.78417 11.4396C9.76565 11.4025 9.71935 11.3747 9.67306 11.3747C9.63602 11.3655 9.60824 11.3747 9.58972 11.384Z" fill="#2C2C2C"/>
<path d="M9.39508 11.81C9.39508 11.8656 9.44138 11.9119 9.49694 11.9119C9.55249 11.9119 9.59879 11.8656 9.59879 11.81C9.59879 11.7545 9.55249 11.7082 9.49694 11.7082C9.44138 11.7082 9.39508 11.7545 9.39508 11.81Z" fill="#2C2C2C"/>
<path d="M9.76567 11.5135C9.75641 11.532 9.7379 11.5506 9.72864 11.5691C9.6916 11.6061 9.65456 11.6432 9.61752 11.6709C9.57122 11.6987 9.52492 11.7265 9.47863 11.745C9.43233 11.7635 9.37677 11.7728 9.32121 11.7821C9.23788 11.7913 9.14528 11.7821 9.06195 11.7635C9.02491 11.7543 8.98787 11.7913 8.96935 11.8283C8.96009 11.8469 8.96935 11.8746 8.97861 11.8932C8.98787 11.9117 9.00639 11.9302 9.03417 11.9395C9.1175 11.9672 9.20084 11.9858 9.28418 11.9858C9.36751 11.9858 9.45085 11.9672 9.53418 11.9395C9.57122 11.9209 9.60826 11.9117 9.6453 11.8932C9.68234 11.8746 9.72864 11.8469 9.76567 11.8191C9.83049 11.7635 9.89531 11.6987 9.94161 11.6246C9.96938 11.5783 9.95087 11.5135 9.90457 11.4857C9.88605 11.4765 9.86753 11.4672 9.85827 11.4672C9.82123 11.4672 9.78419 11.4857 9.76567 11.5135ZM9.60826 11.6709L9.599 11.6802C9.60826 11.6802 9.60826 11.6802 9.60826 11.6709Z" fill="#2C2C2C"/>
<path d="M9.23804 10.986C9.09915 11.0045 8.96951 11.0323 8.83988 11.0601C8.55283 11.1249 8.26578 11.2175 7.99725 11.3286C7.7565 11.4305 7.52501 11.5416 7.30278 11.6712C7.18241 11.7453 7.06203 11.8194 6.96018 11.9213C6.94166 11.9398 6.92314 11.9675 6.91388 11.9953C6.91388 12.0138 6.91388 12.0416 6.91388 12.0601C6.91388 12.0787 6.92314 12.0972 6.9324 12.125C6.94166 12.1435 6.95092 12.1713 6.96944 12.1898C6.98796 12.2083 7.00648 12.2361 7.02499 12.2546L7.03425 12.2639C7.05277 12.2731 7.08055 12.2731 7.09907 12.2824C7.19167 12.2916 7.29352 12.2731 7.38612 12.2639C7.48798 12.2453 7.58057 12.2268 7.67317 12.1898C7.76576 12.162 7.85836 12.125 7.95095 12.0787C8.03429 12.0324 8.11763 11.9768 8.20096 11.9305C8.24726 11.9027 8.2843 11.8472 8.26578 11.7916C8.25652 11.7546 8.238 11.7268 8.21022 11.7083C8.18244 11.6898 8.14541 11.6805 8.11763 11.6898C8.06207 11.7083 8.00651 11.7268 7.95095 11.7361C7.96947 11.7268 7.98799 11.7175 7.99725 11.7083C8.18244 11.6157 8.36764 11.5416 8.56209 11.4675C8.86766 11.3564 9.18248 11.2638 9.50657 11.236C9.62694 11.2268 9.74732 11.2268 9.85843 11.236C9.90473 11.2453 9.94177 11.2546 9.98807 11.2731C9.92325 11.3472 9.84917 11.412 9.7751 11.4675C9.7751 11.4675 9.76584 11.4768 9.75658 11.4768C9.75658 11.4768 9.76584 11.4675 9.7751 11.4675C9.71954 11.5046 9.66398 11.5416 9.59916 11.5694C9.55287 11.5972 9.53435 11.6527 9.55287 11.699C9.58064 11.7453 9.6362 11.7638 9.6825 11.7361C9.78436 11.6805 9.88621 11.6157 9.97881 11.5416C10.0714 11.4675 10.1455 11.3842 10.2196 11.3009C10.2381 11.2823 10.2566 11.2546 10.2566 11.2268C10.2566 11.199 10.2473 11.162 10.2288 11.1434C10.1547 11.0786 10.0621 11.0323 9.96955 11.0045C9.86769 10.9768 9.74732 10.9583 9.64546 10.9583C9.62694 10.9583 9.60842 10.9583 9.58065 10.9583C9.46027 10.9675 9.34916 10.9768 9.23804 10.986Z" fill="#2C2C2C"/>
<path d="M6.87665 15.375C6.87665 15.4491 6.94147 15.5139 7.01554 15.5139C7.08962 15.5139 7.15444 15.4491 7.15444 15.375C7.15444 15.3009 7.08962 15.2361 7.01554 15.2361C6.94147 15.2361 6.87665 15.3009 6.87665 15.375Z" fill="#2C2C2C"/>
<path d="M6.51552 14.9953C6.45996 15.0231 6.42292 15.0787 6.4044 15.1342C6.38588 15.199 6.39514 15.2639 6.43218 15.3194C6.46922 15.375 6.51552 15.4028 6.57107 15.4305C6.71923 15.4861 6.87664 15.5324 7.03406 15.5879C7.11739 15.6157 7.20073 15.6435 7.28406 15.6713C7.3674 15.6991 7.44148 15.7268 7.52482 15.7546C7.56185 15.7639 7.59889 15.7639 7.64519 15.7546C7.70075 15.7361 7.74705 15.6991 7.77482 15.6528C7.83038 15.5509 7.8026 15.412 7.69149 15.3472C7.60815 15.3009 7.52482 15.2731 7.43222 15.2361C7.34888 15.2083 7.26555 15.1713 7.19147 15.1435C7.0248 15.0879 6.85812 15.0324 6.70071 14.9768C6.68219 14.9676 6.66367 14.9676 6.64515 14.9676C6.59885 14.9583 6.55255 14.9768 6.51552 14.9953Z" fill="#2C2C2C"/>
<path d="M16.4882 14.949C16.2012 15.0046 15.9141 15.1064 15.6641 15.2546C15.5623 15.3194 15.5252 15.449 15.5808 15.5602C15.6456 15.6713 15.7753 15.6991 15.8864 15.6435C15.9512 15.6065 16.0253 15.5694 16.0901 15.5416C16.2567 15.4768 16.4234 15.4213 16.5994 15.3935C16.6549 15.3842 16.7105 15.3379 16.7382 15.2916C16.766 15.2361 16.7753 15.1713 16.7568 15.1157C16.7382 15.0601 16.7012 15.0138 16.6549 14.9768C16.6179 14.9583 16.5808 14.949 16.5438 14.949C16.5345 14.9398 16.516 14.9398 16.4882 14.949ZM16.1364 15.5139C16.1271 15.5139 16.1179 15.5231 16.1086 15.5231C16.1179 15.5231 16.1271 15.5231 16.1364 15.5139Z" fill="#2C2C2C"/>
<path d="M12.275 13.6433C12.2473 14.1896 12.2102 14.7359 12.1824 15.2822C12.1547 15.8285 12.1362 16.3748 12.1547 16.9212C12.1547 16.9952 12.2195 17.0601 12.2936 17.0601C12.3676 17.0601 12.4325 16.9952 12.4325 16.9212C12.4417 16.3748 12.4602 15.8285 12.4973 15.2822C12.5251 14.7359 12.5621 14.1896 12.5899 13.6433C12.5899 13.5599 12.5158 13.4951 12.4417 13.4951C12.3491 13.4858 12.2843 13.5599 12.275 13.6433Z" fill="#2C2C2C"/>
<path d="M10.8121 18.0882C10.7381 18.1623 10.7288 18.3105 10.8121 18.3845C10.9047 18.4586 10.9973 18.5327 11.0992 18.5975C11.201 18.6623 11.3029 18.7086 11.414 18.7549C11.6362 18.8475 11.8677 18.9031 12.1085 18.9216C12.3492 18.9401 12.59 18.9216 12.8215 18.8753C13.0622 18.829 13.2937 18.7364 13.5159 18.6346C13.5715 18.6068 13.6085 18.542 13.627 18.4864C13.6456 18.4216 13.6363 18.3568 13.5993 18.3012C13.5715 18.2456 13.5159 18.2086 13.4511 18.1901C13.3863 18.1716 13.3215 18.1901 13.2659 18.2179C13.2381 18.2364 13.2104 18.2456 13.1733 18.2549C12.9789 18.329 12.7752 18.3845 12.5715 18.4216C12.377 18.4401 12.1733 18.4401 11.9788 18.4216C11.7936 18.3938 11.6177 18.3475 11.4418 18.2734C11.3029 18.2086 11.1733 18.1438 11.0436 18.0605C11.0158 18.0419 10.9788 18.0327 10.9418 18.0327C10.9047 18.0234 10.8492 18.0512 10.8121 18.0882ZM13.2289 18.2364C13.2196 18.2364 13.2196 18.2456 13.2104 18.2456L13.2289 18.2364Z" fill="#2C2C2C"/>
<path d="M19.1178 12.801C19.053 12.8195 18.9975 12.8658 18.9604 12.9213C18.9234 12.9861 18.9234 13.0417 18.9326 13.1158C18.9512 13.2176 18.9604 13.3102 18.9789 13.4121C19.1271 14.5232 19.1456 15.4307 19.0345 16.2733C18.9604 16.7641 18.8493 17.1993 18.6919 17.5882C18.5715 17.8567 18.4326 18.1067 18.266 18.3197C18.1271 18.4956 17.9604 18.6623 17.7845 18.8012C17.5993 18.9401 17.3863 19.0697 17.1641 19.1623C16.8863 19.2734 16.5807 19.3567 16.2566 19.403C16.0437 19.4308 15.8307 19.4401 15.5992 19.4401C15.2658 19.4401 14.9047 19.4123 14.4695 19.3567C14.2102 19.3197 13.951 19.2734 13.6917 19.2364C13.4695 19.1993 13.238 19.1623 13.0158 19.1253C12.5065 19.0512 12.0805 19.0141 11.6824 19.0141C11.6083 19.0141 11.5342 19.0141 11.4601 19.0141C10.9879 19.0327 10.5064 19.1067 9.93231 19.2456C9.83046 19.2734 9.71934 19.3012 9.61749 19.329C9.27488 19.4216 8.92302 19.5142 8.57115 19.5605C8.41374 19.579 8.24707 19.5882 8.09891 19.5882C7.96928 19.5882 7.83038 19.579 7.70075 19.5697C7.4137 19.5234 7.12665 19.4493 6.83961 19.329C6.5433 19.1993 6.24699 19.0327 5.97846 18.8289C5.70068 18.6067 5.45067 18.3567 5.22844 18.0697C5.00621 17.7734 4.81175 17.4493 4.6636 17.1067C4.59878 16.9493 4.54323 16.7918 4.49693 16.6344C4.47841 16.1807 4.42285 15.727 4.33951 15.2825C4.31174 15.1714 4.19136 15.0973 4.08951 15.0973C3.95061 15.0973 3.8395 15.2084 3.83024 15.3566C3.81172 15.8103 3.85802 16.264 3.97839 16.7178C3.99691 17.3011 3.95987 17.9308 3.86728 18.6438C3.7932 19.1716 3.7006 19.6994 3.60801 20.2086C3.45059 21.0976 3.29318 22.005 3.23762 22.9217C3.19132 23.6625 3.24688 24.3754 3.37652 25.0329C3.49689 25.5885 3.69134 26.1255 3.97839 26.6163C4.46915 27.4682 5.24696 28.1904 6.22847 28.7089C7.08962 29.1534 8.08965 29.459 9.2934 29.6442C9.8212 29.7182 10.3768 29.7738 10.9509 29.8016C11.1824 29.8108 11.4138 29.8201 11.6361 29.8201C12.0157 29.8201 12.3768 29.8016 12.7287 29.7738C14.0251 29.6627 15.2195 29.3386 16.2751 28.8293C16.8122 28.57 17.3215 28.2367 17.803 27.8478C18.266 27.4774 18.6919 27.0237 19.0715 26.4959C19.4882 25.9218 19.803 25.3199 20.0068 24.6995C20.192 24.1347 20.266 23.5328 20.229 22.8939C20.192 22.2643 20.0438 21.6439 19.9049 21.0513L19.8679 20.9124C19.729 20.366 19.5901 19.8012 19.516 19.2364V19.2179L19.5067 19.1716V19.2086C19.4327 18.6345 19.4327 18.0789 19.4882 17.5511C19.4975 17.4863 19.4512 17.4122 19.4141 17.3752C19.3864 17.3474 19.3493 17.3289 19.3123 17.3104C19.3216 17.2733 19.3308 17.2456 19.3401 17.2085C19.4512 16.8289 19.516 16.4029 19.5623 15.9122C19.6271 15.0696 19.5808 14.1436 19.4049 12.9954C19.3956 12.9306 19.3401 12.875 19.2845 12.838C19.2475 12.8195 19.2012 12.801 19.1549 12.801C19.1549 12.7917 19.1364 12.7917 19.1178 12.801ZM13.0806 22.8754C12.5343 22.8661 11.9879 22.8384 11.4416 22.7458C10.9231 22.6532 10.4138 22.505 9.94157 22.2735C9.83046 22.218 9.80268 22.0605 9.85824 21.9587C9.88602 21.9031 9.94157 21.8661 9.99713 21.8568C10.0157 21.8476 10.0342 21.8476 10.0619 21.8476C10.0805 21.8476 10.099 21.8476 10.1268 21.8568C10.562 22.0328 11.0064 22.1346 11.4694 22.2087C12.0065 22.2735 12.5435 22.292 13.0898 22.3013C13.2473 22.3013 13.3769 22.4309 13.3769 22.5883C13.3769 22.7365 13.2473 22.8754 13.0806 22.8754Z" fill="#2C2C2C"/>
</svg>
