<svg width="42" height="42" viewBox="0 0 42 42" fill="none" xmlns="http://www.w3.org/2000/svg">
<path d="M20.5107 3.12574C20.2038 3.16959 19.9297 3.21345 19.6776 3.27923C19.4254 3.345 19.1733 3.43271 18.8992 3.5533C18.4168 3.77256 18.0002 4.06856 17.6932 4.4413C17.6055 4.53997 17.5288 4.6496 17.463 4.75922C17.3753 4.89078 17.3205 5.0333 17.2767 5.14293C17.2328 5.2416 17.1999 5.35123 17.167 5.46086C17.1122 5.48278 17.0793 5.52664 17.0464 5.57049C16.9039 5.84456 16.7943 6.1296 16.7175 6.41463C15.5226 6.98471 14.1632 7.73019 13.0669 8.84841C12.5297 9.39656 12.0912 10.0215 11.7623 10.7012C11.4553 11.326 11.2361 12.0386 11.0935 12.8609C10.9072 13.8914 10.8414 15.0206 10.9181 16.2046C10.951 16.7418 11.0168 17.3118 11.1045 17.8929C11.1922 18.4191 11.3018 18.9234 11.4444 19.4058C11.4663 19.4935 11.5321 19.5702 11.6198 19.6031C11.6198 19.8772 11.6198 20.1622 11.6307 20.4363C11.5978 20.4034 11.565 20.3595 11.5321 20.3266C11.4005 20.1951 11.2361 20.0745 11.0607 19.9758C10.951 19.921 10.8414 19.8772 10.7318 19.8333L10.6989 19.8223C10.5344 19.7566 10.359 19.7018 10.2055 19.6689C10.063 19.6469 9.94243 19.625 9.82184 19.625C9.78895 19.625 9.75606 19.625 9.72318 19.625C9.56969 19.636 9.43814 19.6689 9.31754 19.7127C9.25177 19.7456 9.18599 19.7675 9.12021 19.8114C9.0654 19.8443 8.99962 19.8991 8.93384 19.9539C8.75843 20.1183 8.61591 20.3486 8.52821 20.6446C8.45147 20.8967 8.41858 21.1927 8.41858 21.5435C8.41858 21.8615 8.45147 22.1903 8.52821 22.585C8.65976 23.2866 8.90095 23.9883 9.2408 24.6789C9.39428 24.9969 9.56969 25.2819 9.7451 25.5341C9.87665 25.7204 10.0849 25.9945 10.3481 26.2028C10.6002 26.4111 10.8304 26.5207 11.0607 26.5646C11.1374 26.5755 11.2032 26.5865 11.269 26.5865C11.3457 26.5865 11.4115 26.5755 11.4992 26.5646C11.6088 26.5427 11.7294 26.4988 11.85 26.4221C11.9048 26.3892 11.9596 26.3453 12.0144 26.3015C12.146 27.1018 12.3324 27.8363 12.5735 28.516C12.8367 29.2615 13.1765 29.9741 13.5712 30.6209C13.9768 31.2787 14.4811 31.9035 15.0512 32.4627C15.3253 32.7258 15.6322 32.9889 15.9721 33.2629C16.3229 33.537 16.6518 33.7672 16.9916 33.9646C17.6933 34.3812 18.4387 34.6772 19.2061 34.8416C19.6666 34.9403 20.149 34.9841 20.6533 34.9841C21.015 34.9841 21.3878 34.9622 21.7605 34.9074C22.21 34.8526 22.6595 34.7539 23.0761 34.6333C23.4817 34.5127 23.8873 34.3592 24.3368 34.151C25.0384 33.8221 25.7401 33.3835 26.4307 32.8244C27.0227 32.353 27.5819 31.772 28.0971 31.1032C28.5685 30.4893 28.9742 29.8096 29.2921 29.097C29.5881 28.4173 29.8402 27.6718 30.0704 26.7948L30.0814 26.7619L30.0924 26.729C30.1801 26.7729 30.2787 26.7948 30.3884 26.7948H30.3993C30.6076 26.7948 30.805 26.7181 30.9913 26.6304C31.2106 26.5317 31.4079 26.4001 31.5614 26.2795C31.9561 25.9945 32.3069 25.6875 32.6139 25.3587C32.7235 25.2381 32.8331 25.1175 32.8989 24.9749C33.0195 24.7447 33.1182 24.4926 33.1839 24.2952C33.3922 23.7361 33.5238 23.1441 33.5786 22.5302C33.6444 21.8505 33.5567 21.2695 33.3374 20.809C33.2168 20.5678 33.0304 20.3705 32.7893 20.2061C32.6467 20.1074 32.4823 20.0416 32.3069 20.0087C32.2302 19.9978 32.1644 19.9868 32.0876 19.9868C31.989 19.9868 31.8793 19.9978 31.7697 20.0306C31.6382 20.0635 31.4956 20.1293 31.3421 20.228C31.2106 20.3157 31.079 20.4253 30.9584 20.5678C30.9475 20.3815 30.9365 20.1841 30.9256 19.9758C30.9584 19.9539 30.9804 19.932 30.9913 19.8991C31.09 19.7127 31.1558 19.5044 31.1887 19.2961C31.1996 19.2303 31.2106 19.1536 31.2216 19.0769C31.3641 18.748 31.4847 18.3972 31.5833 18.0573C31.682 17.6955 31.7697 17.3009 31.8245 16.8623C31.9451 16.073 31.978 15.2179 31.9561 14.3299C31.9342 13.5406 31.8465 12.7293 31.7039 11.9071C31.5833 11.1945 31.3202 10.5257 30.9584 9.96664C30.7282 9.61582 30.4322 9.28693 30.0924 8.97997C29.7964 8.72782 29.4675 8.47567 29.007 8.17967C28.7659 8.02619 28.5247 7.87271 28.2835 7.73019C28.141 7.64249 28.0094 7.56575 27.8669 7.47804C27.7024 7.37938 27.549 7.28071 27.4064 7.19301C27.2201 6.78738 27.0337 6.41463 26.8254 6.07478C26.3869 5.36219 25.8716 4.77019 25.3016 4.28782C24.7644 3.8493 24.1943 3.53137 23.6023 3.33404C23.1747 3.19152 22.6814 3.10382 22.1113 3.049C21.8921 3.02708 21.6728 3.01611 21.4536 3.01611C21.1466 3.07093 20.8287 3.09285 20.5107 3.12574ZM11.6088 13.4858C11.7294 12.6306 11.9158 11.8852 12.1898 11.2383C12.3981 10.756 12.6722 10.2846 12.9901 9.86797C13.3629 9.39656 13.8233 8.94708 14.3495 8.53049C14.9744 8.05908 15.687 7.62056 16.6079 7.16012C16.597 7.37938 16.597 7.6096 16.6189 7.82886C16.6298 7.93849 16.6408 8.05908 16.6627 8.16871C16.3887 8.22352 16.1365 8.32219 15.8953 8.45375C15.5226 8.66204 15.1937 9.0019 14.8977 9.45138C14.6565 9.81316 14.4592 10.2517 14.2728 10.8217C14.1303 11.2493 14.0097 11.7426 13.8891 12.3456C13.8014 12.7841 13.7356 13.2226 13.6698 13.6502C13.626 13.9572 13.5712 14.2751 13.5164 14.582C13.4725 14.8452 13.4067 15.1521 13.319 15.4591C13.1436 16.0401 12.9463 16.6212 12.7161 17.1693C12.5407 17.5969 12.3762 17.9258 12.2008 18.2218C12.2008 17.9367 12.1898 17.6407 12.1789 17.3557C12.1789 17.1803 12.0364 17.0487 11.8719 17.0487C11.7623 17.0487 11.6527 17.1145 11.5978 17.2241C11.4663 15.9415 11.4553 14.6807 11.6088 13.4858ZM31.1558 14.5053C31.079 14.0778 30.9804 13.6283 30.8707 13.1678C30.783 12.817 30.6515 12.3566 30.4761 11.929C30.3226 11.5563 30.1472 11.2055 29.9389 10.8875C29.7635 10.6135 29.5442 10.3284 29.2702 10.0105C28.9632 9.65968 28.6233 9.31982 28.2944 9.0019L28.1739 8.8813L27.9875 8.69493C27.9327 8.53049 27.8779 8.36604 27.8121 8.17967L28.0313 8.32219C28.4918 8.59626 28.9742 8.89227 29.4017 9.22116C29.7525 9.49523 30.0485 9.78027 30.2897 10.0872C30.498 10.3613 30.6734 10.6573 30.8159 10.9752C30.9146 11.2274 31.0023 11.4905 31.0681 11.7755C31.1339 12.0715 31.1777 12.3785 31.2216 12.6635V12.6745V12.6855V12.6964V12.7074V12.7293V12.7183C31.3641 13.8695 31.4079 14.9767 31.3312 15.9853C31.3093 15.5139 31.2435 15.0206 31.1558 14.5053ZM12.5187 25.4902V25.4683V25.4464C12.431 24.7557 12.3653 24.065 12.3324 23.3634C12.3324 23.3305 12.3214 23.2866 12.3214 23.2538C12.2556 22.1026 12.2556 20.9625 12.2447 19.8333V19.2632C12.7709 18.5945 13.1107 17.8381 13.3848 17.1803C13.5273 16.8295 13.6589 16.4567 13.8014 16.0401C13.8781 15.7989 13.9549 15.5468 14.0207 15.2946C14.1084 14.9109 14.1741 14.5272 14.229 14.1435L14.2399 14.0339L14.2509 13.9352C14.3276 13.4748 14.3934 12.9924 14.4811 12.532C14.5907 11.9509 14.7552 11.1945 15.0512 10.4709C15.2047 10.1092 15.3801 9.80219 15.5774 9.55004C15.6761 9.41849 15.7857 9.30886 15.9063 9.19923C15.9392 9.02382 16.0488 8.85938 16.2023 8.77167C16.301 8.71686 16.4106 8.68397 16.5202 8.68397C16.6189 8.68397 16.7175 8.7059 16.8053 8.74975C16.8053 8.74975 16.8162 8.74975 16.8272 8.74975V8.76071C16.9258 8.81552 17.0136 8.89227 17.0684 8.99093C17.2109 9.23212 17.3644 9.46234 17.5398 9.69256C17.9454 10.2078 18.4168 10.6683 18.9321 11.0739C19.5021 11.5015 20.1161 11.8632 20.7738 12.1592C21.0918 12.2908 21.4207 12.4004 21.7495 12.4881C21.8592 12.521 21.9688 12.5429 22.0784 12.5649C21.6838 12.3785 21.3001 12.1483 20.9493 11.8852C20.5875 11.6001 20.2696 11.2822 19.9845 10.9204C19.7324 10.5915 19.5241 10.2297 19.3596 9.86797C19.25 9.5939 19.1623 9.30886 19.1075 9.02382C19.2719 9.22116 19.4583 9.41849 19.6556 9.60486C19.9078 9.84604 20.2147 10.0763 20.5984 10.3613C20.8615 10.5477 21.1247 10.7231 21.3768 10.8766C21.7496 11.1068 22.1333 11.3041 22.4621 11.4795C22.9555 11.7317 23.4598 11.9729 23.975 12.1921C24.5999 12.4552 25.1261 12.6526 25.6304 12.806C26.2115 12.9815 26.661 13.0582 27.0776 13.0692H27.1214C27.4284 13.0692 27.8559 13.0034 28.119 12.7183C28.2616 12.5649 28.3712 12.3456 28.437 12.0825C28.4918 11.8523 28.5247 11.6001 28.5137 11.2822C28.5137 11.052 28.4808 10.8108 28.437 10.5148C28.5685 10.7231 28.6782 10.9423 28.7768 11.1506C29.0509 11.8084 29.1715 12.521 29.2482 13.124V13.1459V13.1678C29.2482 13.1569 29.2482 13.1569 29.2482 13.1459C29.303 13.6173 29.3469 14.1106 29.3907 14.582C29.4346 15.1083 29.4894 15.6455 29.5552 16.1826C29.6758 17.0706 29.8731 17.8271 30.1581 18.4958C30.191 18.6712 30.213 18.8576 30.2349 19.033C30.3664 20.0197 30.4103 20.82 30.3664 21.5655C30.3774 21.6093 30.3774 21.6532 30.3774 21.697C30.3774 21.7189 30.3774 21.7518 30.3774 21.7738C30.3774 21.8395 30.3555 21.9163 30.3336 21.9711C30.3336 21.9821 30.3336 21.993 30.3226 22.004V22.0149C30.3116 22.0807 30.3116 22.1465 30.3007 22.2123C30.2459 22.6289 30.1801 23.0455 30.1143 23.4292C30.1033 23.7581 30.0595 24.076 29.9718 24.3939C29.9608 24.4158 29.9499 24.4487 29.9389 24.4706C29.8731 24.8105 29.8183 25.1394 29.7525 25.4573C29.4784 26.7729 29.1824 27.8144 28.7987 28.7352C28.6343 29.1189 28.4589 29.4698 28.2725 29.7877C28.0642 30.1385 27.834 30.4784 27.5819 30.8182C27.0776 31.465 26.4965 32.0461 25.8607 32.5504C25.1919 33.0547 24.5013 33.4712 23.7887 33.7782C23.1419 34.0413 22.4621 34.2277 21.7715 34.3264C21.3987 34.3702 21.026 34.4031 20.6752 34.4031C20.3792 34.4031 20.0832 34.3812 19.8091 34.3483C19.25 34.2715 18.7018 34.1181 18.1756 33.8988C17.5727 33.6357 16.9587 33.2739 16.3667 32.8135C15.698 32.2872 15.117 31.7062 14.6346 31.0923C14.1413 30.4455 13.7356 29.7329 13.3958 28.9655C13.1875 28.4612 13.0011 27.913 12.8586 27.3539C12.7161 26.8167 12.6064 26.2247 12.5078 25.5121V25.5231V25.5012L12.5187 25.4902ZM30.6076 17.4653C30.5967 17.3886 30.5309 17.3228 30.4651 17.2789C30.4432 17.268 30.4103 17.257 30.3884 17.2461C30.2897 16.8623 30.213 16.4458 30.1472 15.9853C30.0814 15.5029 30.0376 15.0096 29.9937 14.5272C29.9718 14.2312 29.9389 13.9352 29.906 13.6392C29.8293 12.8718 29.7196 12.0606 29.4675 11.2932L29.4565 11.2712L29.4456 11.2383C29.61 11.5015 29.7525 11.7755 29.8731 12.0606C30.0814 12.5649 30.2239 13.0911 30.3445 13.5844C30.4761 14.0997 30.5747 14.6478 30.6515 15.2179C30.7392 15.8757 30.783 16.5225 30.783 17.1474C30.783 17.4653 30.7721 17.7942 30.7392 18.1231C30.7392 18.1669 30.7282 18.2108 30.7282 18.2437C30.6953 17.9915 30.6515 17.7284 30.6076 17.4653ZM11.2251 26.0055C11.1703 25.9945 11.1155 25.9835 11.0497 25.9616C10.962 25.9178 10.8743 25.8739 10.7975 25.8081C10.6441 25.6875 10.4906 25.5341 10.3371 25.3367C10.063 24.9749 9.82184 24.5474 9.60258 24.0321C9.33947 23.4072 9.16406 22.7824 9.07636 22.1684C9.02154 21.7738 9.02154 21.4449 9.05443 21.1379C9.07636 20.9735 9.12021 20.8309 9.16406 20.6994C9.19695 20.6226 9.2408 20.5569 9.28466 20.4911C9.31755 20.4472 9.3614 20.4144 9.39429 20.3705C9.43814 20.3376 9.48198 20.3157 9.52584 20.2938C9.58065 20.2718 9.63547 20.2609 9.70125 20.2499C9.7451 20.2499 9.78895 20.2389 9.82184 20.2389C9.87665 20.2389 9.93147 20.2389 9.98628 20.2499C10.1617 20.2828 10.3481 20.3376 10.5564 20.4143C10.7208 20.4911 10.8524 20.5569 10.9729 20.6446C11.0826 20.7323 11.1812 20.8309 11.269 20.9406C11.3786 21.0941 11.4772 21.2585 11.554 21.4449C11.5649 21.4778 11.5759 21.4997 11.5869 21.5326C11.6088 21.5764 11.6198 21.6093 11.6417 21.6422C11.6527 22.2452 11.6746 22.7604 11.6965 23.2428C11.7404 24.0431 11.8061 24.8105 11.9048 25.5341C11.8719 25.5889 11.839 25.6327 11.8061 25.6875C11.7404 25.7643 11.6746 25.8301 11.6088 25.8958C11.5649 25.9287 11.5211 25.9616 11.4663 25.9835C11.4224 25.9945 11.3895 26.0055 11.3457 26.0164C11.3238 26.0164 11.3018 26.0164 11.2799 26.0164C11.2689 26.0164 11.247 26.0055 11.2251 26.0055ZM30.3664 26.2138H30.3445L30.3336 26.2028C30.3336 26.1918 30.3226 26.1809 30.3226 26.1809C30.3116 26.148 30.3007 26.1151 30.3007 26.0822C30.3007 26.0274 30.2897 25.9726 30.3007 25.9178C30.3993 25.4683 30.487 24.9859 30.5857 24.4378C30.6624 24.0102 30.7282 23.5936 30.7721 23.2757L30.805 23.0455C30.8598 22.7275 30.9036 22.3986 30.9475 22.0698C30.9584 22.004 30.9585 21.9272 30.9694 21.8615C30.9913 21.7957 31.0133 21.7409 31.0352 21.6641C31.1229 21.4668 31.2325 21.2914 31.3421 21.1269C31.4408 21.0063 31.5285 20.9077 31.6382 20.8309C31.7149 20.7761 31.7807 20.7323 31.8574 20.6994C31.9232 20.6775 31.978 20.6665 32.0328 20.6446C32.0547 20.6446 32.0767 20.6446 32.1096 20.6446C32.1315 20.6446 32.1644 20.6446 32.1863 20.6446C32.2411 20.6555 32.2959 20.6665 32.3617 20.6884C32.4385 20.7213 32.5042 20.7652 32.57 20.809C32.6248 20.8529 32.6796 20.9077 32.7235 20.9625C32.7783 21.0392 32.8331 21.1269 32.866 21.2146C32.9208 21.3681 32.9647 21.5216 32.9866 21.697C33.0195 22.0149 33.0195 22.3548 32.9647 22.7385C32.877 23.3195 32.7344 23.8896 32.5152 24.4158C32.4604 24.5474 32.3946 24.7009 32.2959 24.8215C32.1753 24.9749 32.0438 25.1065 31.9342 25.2052C31.7697 25.3696 31.5833 25.5231 31.397 25.6766C31.1229 25.8849 30.8817 26.0384 30.6625 26.137C30.5857 26.1699 30.509 26.1918 30.4322 26.2028C30.4213 26.2028 30.3993 26.2028 30.3884 26.2028L30.3664 26.2138Z" fill="#2C2C2C"/>
<path d="M18.8005 8.48652C18.7238 8.50845 18.658 8.56327 18.6251 8.62904C18.5922 8.69482 18.5703 8.79349 18.5922 8.85927C18.7566 9.30875 18.954 9.74727 19.1842 10.1639C19.4035 10.5695 19.6666 10.9422 19.9516 11.293C20.2038 11.611 20.4888 11.896 20.7958 12.1701C21.1027 12.3016 21.4316 12.4113 21.7495 12.488C21.9688 12.5428 22.1771 12.5867 22.3964 12.6305C22.3854 12.6196 22.3744 12.6086 22.3525 12.5976C22.1113 12.4442 21.8811 12.2797 21.6618 12.1043C21.1575 11.7096 20.6861 11.2602 20.2915 10.7559C19.8968 10.2406 19.5789 9.67053 19.3267 9.07853C19.2719 8.94697 19.2171 8.81541 19.1732 8.68386C19.1403 8.60712 19.1075 8.54134 19.0307 8.50845C18.9869 8.48652 18.9321 8.4646 18.8772 8.4646C18.8444 8.47556 18.8224 8.47556 18.8005 8.48652Z" fill="#2C2C2C"/>
<path d="M26.8254 8.07007C26.7816 8.22356 26.8802 8.40993 27.0337 8.44282C27.3078 8.50859 27.5709 8.58534 27.834 8.69497C28.1629 8.83748 28.4698 9.01289 28.7549 9.23215C29.0399 9.46237 29.303 9.72548 29.5333 10.0105C29.8073 10.3723 30.0266 10.7779 30.213 11.1945C30.4651 11.8194 30.6296 12.4772 30.7282 13.135C30.8488 14.0339 30.8379 14.9439 30.7173 15.8428C30.6624 16.2813 30.5747 16.7089 30.4432 17.1365C30.3884 17.2899 30.498 17.4653 30.6515 17.5092C30.8159 17.553 30.9694 17.4544 31.0242 17.3009C31.1339 16.9501 31.2106 16.5993 31.2654 16.2375C31.3093 15.9415 31.3531 15.6345 31.375 15.3385C31.4299 14.7465 31.4189 14.1545 31.375 13.5625C31.2764 12.3676 30.9694 11.1616 30.3336 10.1311C30.1691 9.85704 29.9718 9.60489 29.7635 9.3637C29.5552 9.12252 29.303 8.91422 29.0509 8.71689C28.5027 8.3003 27.8669 8.02622 27.1981 7.8837C27.1762 7.87274 27.1433 7.87274 27.1214 7.87274C26.9898 7.85082 26.8693 7.93852 26.8254 8.07007ZM29.5113 9.97763C29.5113 9.98859 29.5223 9.9886 29.5223 9.99956C29.5113 9.9886 29.5113 9.97763 29.5113 9.97763ZM30.7173 13.0802C30.7173 13.1021 30.7173 13.113 30.7282 13.135C30.7282 13.124 30.7282 13.1021 30.7173 13.0802ZM30.7282 13.135C30.7282 13.1459 30.7282 13.1459 30.7282 13.1569C30.7282 13.1569 30.7282 13.1459 30.7282 13.135Z" fill="#2C2C2C"/>
<path d="M27.7463 8.70579C27.6367 8.81542 27.6257 9.02372 27.7463 9.13335C28.2725 9.5938 28.7549 10.0981 29.1934 10.6572C29.5004 11.0628 29.7854 11.4904 30.0376 11.9399C30.1143 12.0824 30.3116 12.1262 30.4541 12.0495C30.5967 11.9618 30.6405 11.7754 30.5638 11.6329C30.2459 11.0848 29.895 10.5585 29.4894 10.0652C29.0947 9.58283 28.6562 9.13335 28.1848 8.71676C28.119 8.66194 28.0533 8.62905 27.9765 8.62905C27.8779 8.61809 27.8011 8.65098 27.7463 8.70579Z" fill="#2C2C2C"/>
<path d="M28.1739 8.56329C28.1191 8.6181 28.0862 8.69484 28.0862 8.77158C28.0862 8.85929 28.1191 8.92507 28.1739 8.97988C28.4041 9.24299 28.6343 9.51707 28.8536 9.8021C29.325 10.427 29.7635 11.0848 30.0705 11.8083C30.1034 11.8741 30.1801 11.9289 30.2459 11.9508C30.3226 11.9728 30.4103 11.9618 30.4761 11.918C30.5419 11.8741 30.5967 11.8083 30.6186 11.7426C30.6186 11.7206 30.6296 11.6877 30.6296 11.6658C30.6296 11.611 30.6186 11.5562 30.5857 11.5123C30.1253 10.416 29.3798 9.46225 28.6014 8.56329C28.5466 8.50847 28.4699 8.47559 28.3931 8.47559C28.3164 8.47559 28.2287 8.50847 28.1739 8.56329ZM28.8755 9.84596C28.8755 9.85692 28.8865 9.85692 28.8865 9.86788C28.8865 9.85692 28.8755 9.84596 28.8755 9.84596Z" fill="#2C2C2C"/>
<path d="M29.1934 9.31973C29.1276 9.36358 29.0728 9.42936 29.0509 9.49514C29.029 9.57188 29.0399 9.65958 29.0838 9.72536C29.0947 9.74729 29.1167 9.76921 29.1276 9.79114C29.1605 9.82403 29.2044 9.85692 29.2592 9.86788C29.3688 9.92269 29.4784 9.98847 29.5771 10.0543C29.7087 10.1639 29.8293 10.2954 29.9498 10.427C30.1253 10.6572 30.2568 10.9094 30.3664 11.1725C30.487 11.4794 30.5857 11.7974 30.6405 12.1153C30.6734 12.2797 30.8598 12.3674 31.0132 12.3236C31.09 12.3017 31.1558 12.2578 31.1887 12.1811C31.2325 12.1043 31.2325 12.0276 31.2215 11.9508C31.1229 11.4137 30.9365 10.8765 30.6515 10.4051C30.509 10.1639 30.3445 9.94462 30.1472 9.75825C30.0485 9.65958 29.9279 9.56092 29.8073 9.48417C29.6867 9.39647 29.5552 9.34166 29.4236 9.28684C29.4017 9.27588 29.3798 9.27588 29.3469 9.27588C29.2921 9.27588 29.2372 9.2978 29.1934 9.31973Z" fill="#2C2C2C"/>
<path d="M30.2679 10.5147C30.2131 10.5695 30.1802 10.6463 30.1802 10.723C30.1802 10.8107 30.2131 10.8765 30.2679 10.9313C30.2898 10.9642 30.3227 10.9861 30.3446 11.019C30.4433 11.1506 30.52 11.2931 30.5968 11.4466C30.6954 11.6877 30.7612 11.9399 30.7941 12.203C30.827 12.5209 30.827 12.8389 30.7941 13.1677C30.7831 13.2445 30.7722 13.3103 30.7503 13.387C30.7283 13.4637 30.7393 13.5405 30.7831 13.6172C30.827 13.683 30.8928 13.7378 30.9585 13.7597C31.112 13.8036 31.2984 13.7049 31.3313 13.5514C31.3861 13.2993 31.408 13.0581 31.419 12.806C31.43 12.5319 31.3971 12.2469 31.3532 11.9728C31.2655 11.4356 31.0462 10.9203 30.6845 10.5147C30.6297 10.4599 30.5529 10.427 30.4762 10.427C30.4104 10.427 30.3227 10.4599 30.2679 10.5147ZM30.5748 11.4137C30.5748 11.4246 30.5858 11.4246 30.5858 11.4356C30.5748 11.4246 30.5748 11.4137 30.5748 11.4137ZM30.7831 13.1897C30.7831 13.2006 30.7831 13.2116 30.7831 13.2226C30.7831 13.2116 30.7831 13.2006 30.7831 13.1897Z" fill="#2C2C2C"/>
<path d="M29.3908 10.3064C29.2263 10.3502 29.1386 10.5147 29.1825 10.6791C29.4127 11.5342 29.6539 12.3784 29.7855 13.2554C29.8512 13.7707 29.8732 14.2969 29.8183 14.8122C29.8074 14.8889 29.8512 14.9766 29.906 15.0205C29.9609 15.0753 30.0376 15.1082 30.1143 15.1082C30.1911 15.1082 30.2678 15.0753 30.3226 15.0205C30.3884 14.9547 30.3994 14.8889 30.4103 14.8122C30.498 14.0886 30.4213 13.3541 30.2898 12.6415C30.1582 11.9179 29.9499 11.2163 29.7635 10.5147C29.7306 10.3831 29.5991 10.2954 29.4675 10.2954C29.4456 10.2954 29.4237 10.3064 29.3908 10.3064Z" fill="#2C2C2C"/>
<path d="M29.2483 10.9643C29.1715 10.9862 29.1057 11.0301 29.0728 11.1068C29.04 11.1726 29.018 11.2712 29.04 11.337C29.2811 11.9071 29.4565 12.4991 29.5991 13.0911C29.7306 13.6612 29.8293 14.2422 29.906 14.8342C29.906 14.8232 29.906 14.8123 29.906 14.8013C29.906 14.8232 29.917 14.8452 29.917 14.8671C29.917 14.8781 29.917 14.8781 29.917 14.889C29.917 14.889 29.917 14.889 29.917 14.8781C30.0266 15.7003 30.1034 16.5225 30.213 17.3447C30.213 17.3667 30.224 17.3995 30.224 17.4215C30.2349 17.4763 30.2678 17.5201 30.3007 17.553C30.3555 17.6078 30.4323 17.6407 30.509 17.6407C30.5857 17.6407 30.6625 17.6078 30.7173 17.553C30.7721 17.4982 30.816 17.4105 30.805 17.3447C30.6625 16.3142 30.5748 15.2727 30.4103 14.2422C30.2459 13.2007 30.0047 12.1702 29.5991 11.1835C29.5662 11.1068 29.5333 11.052 29.4566 11.0081C29.4127 10.9862 29.3579 10.9643 29.3031 10.9643C29.3031 10.9533 29.2811 10.9533 29.2483 10.9643ZM29.917 14.8671C29.917 14.8561 29.917 14.8671 29.917 14.8671C29.917 14.8452 29.917 14.8342 29.917 14.8232C29.917 14.8452 29.917 14.8561 29.917 14.8671Z" fill="#2C2C2C"/>
<path d="M29.9938 13.6393C29.8513 13.727 29.8074 13.9024 29.8842 14.0559C29.9171 14.1326 29.9609 14.2094 29.9938 14.2752C30.2021 14.7795 30.3227 15.3166 30.3994 15.8538C30.4652 16.3472 30.4981 16.8624 30.4323 17.3558C30.4214 17.4215 30.4104 17.4873 30.3994 17.5421C30.3665 17.7066 30.4433 17.871 30.6077 17.9149C30.7612 17.9587 30.9476 17.8601 30.9805 17.7066C31.123 17.0488 31.0682 16.3691 30.9805 15.7113C30.9366 15.3605 30.8599 15.0206 30.7722 14.6808C30.6845 14.3629 30.5639 14.0449 30.4104 13.738C30.3556 13.6393 30.2569 13.5955 30.1473 13.5955C30.0925 13.6064 30.0376 13.6174 29.9938 13.6393ZM29.9828 14.2423C29.9828 14.2532 29.9938 14.2532 29.9938 14.2642C29.9828 14.2532 29.9828 14.2532 29.9828 14.2423ZM30.3994 15.8977C30.3994 15.9086 30.3994 15.9196 30.3994 15.9306C30.4104 15.9196 30.4104 15.9086 30.3994 15.8977Z" fill="#2C2C2C"/>
<path d="M30.6515 14.1873C30.498 14.2311 30.3994 14.3956 30.4432 14.56C30.5309 14.867 30.5967 15.1849 30.6405 15.5028C30.7173 16.0838 30.7392 16.6759 30.6625 17.2679C30.6405 17.4542 30.5967 17.6406 30.5419 17.827C30.498 17.9804 30.5967 18.1559 30.7502 18.1997C30.9146 18.2436 31.0791 18.1449 31.1229 17.9914C31.2873 17.4213 31.3202 16.8074 31.2983 16.2154C31.2874 15.8975 31.2435 15.5796 31.1996 15.2726C31.1558 14.9876 31.09 14.6916 31.0133 14.4065C30.9804 14.275 30.8488 14.1873 30.7173 14.1873C30.6954 14.1873 30.6734 14.1873 30.6515 14.1873ZM30.6405 15.5467C30.6405 15.5576 30.6405 15.5576 30.6405 15.5686C30.6405 15.5576 30.6405 15.5467 30.6405 15.5467ZM30.6625 17.224C30.6625 17.235 30.6625 17.235 30.6625 17.2459C30.6625 17.2459 30.6625 17.235 30.6625 17.224Z" fill="#2C2C2C"/>
<path d="M31.0791 13.979C31.0023 14.0009 30.9365 14.0448 30.9037 14.1215C30.8598 14.1982 30.8598 14.275 30.8708 14.3517C30.8927 14.4942 30.9146 14.6258 30.9365 14.7683C31.0243 15.4261 31.0462 16.0948 30.9694 16.7526C30.9256 17.0815 30.8488 17.3994 30.7392 17.7064C30.6844 17.8599 30.805 18.0353 30.9475 18.0791C31.0243 18.1011 31.112 18.0901 31.1777 18.0462C31.2545 18.0024 31.2874 17.9476 31.3203 17.8708C31.5285 17.2898 31.6053 16.6649 31.6162 16.04C31.6272 15.4151 31.5614 14.8012 31.4518 14.1873C31.4408 14.1105 31.3751 14.0448 31.3093 14.0119C31.2654 13.9899 31.2106 13.968 31.1558 13.968C31.1339 13.968 31.112 13.968 31.0791 13.979Z" fill="#2C2C2C"/>
<path d="M29.314 9.44059C29.2044 9.55022 29.1935 9.75851 29.314 9.86814C29.5223 10.0655 29.7197 10.2738 29.8951 10.493C30.202 10.8987 30.4542 11.3372 30.6515 11.8086C30.9366 12.4993 31.112 13.2228 31.2106 13.9573C31.3532 15.0646 31.3312 16.1828 31.1887 17.2901C31.1229 17.7396 31.0462 18.189 30.9366 18.6385C30.805 19.1867 30.6406 19.7239 30.4213 20.2391C30.3884 20.3049 30.4103 20.4036 30.4542 20.4693C30.498 20.5351 30.5638 20.5899 30.6296 20.6119C30.7063 20.6338 30.794 20.6228 30.8598 20.579C30.9366 20.5351 30.9695 20.4693 31.0023 20.4036C31.1668 20.0089 31.3093 19.6142 31.4189 19.2086C31.5066 18.9016 31.5724 18.5837 31.6382 18.2767C31.7698 17.597 31.8575 16.9064 31.9013 16.2047C31.9342 15.5031 31.9232 14.8015 31.8465 14.0999C31.7698 13.3982 31.6272 12.7076 31.397 12.0498C31.0572 11.0741 30.52 10.1641 29.7635 9.46252C29.6978 9.4077 29.621 9.37481 29.5443 9.37481C29.4566 9.36385 29.3798 9.38577 29.314 9.44059ZM31.2216 13.9573C31.2216 13.9683 31.2216 13.9793 31.2216 14.0012C31.2216 13.9793 31.2216 13.9683 31.2216 13.9573Z" fill="#2C2C2C"/>
<path d="M26.343 7.13811C26.3211 7.21485 26.332 7.30256 26.3759 7.36834C26.4197 7.43411 26.4855 7.47796 26.5513 7.51085C26.7486 7.57663 26.946 7.65337 27.1323 7.73011C27.9546 8.08093 28.7329 8.53041 29.4455 9.07856C29.9169 9.44034 30.3445 9.85693 30.7172 10.3174C30.9474 10.6243 31.1448 10.9532 31.2983 11.304C31.4846 11.7535 31.6052 12.2359 31.671 12.7183C31.7806 13.5734 31.7368 14.4285 31.6271 15.2836C31.5394 15.9085 31.4189 16.5224 31.2763 17.1363C31.1996 17.4323 31.1229 17.7393 31.0461 18.0353C30.9474 18.3971 30.8488 18.7589 30.7172 19.1097C30.6843 19.1864 30.7063 19.2741 30.7501 19.3399C30.794 19.4057 30.8597 19.4605 30.9255 19.4824C31.0023 19.5043 31.09 19.4934 31.1557 19.4495C31.2325 19.4057 31.2654 19.3399 31.2983 19.2741C31.4517 18.8685 31.5614 18.4519 31.671 18.0353C31.7697 17.6735 31.8574 17.3118 31.9341 16.95C32.1095 16.1716 32.2411 15.3823 32.3069 14.5929C32.4274 13.0691 32.2411 11.4466 31.3421 10.1749C30.783 9.38552 30.0266 8.73871 29.2372 8.20152C28.4589 7.6753 27.6037 7.24774 26.7157 6.94078C26.6938 6.92982 26.6609 6.92982 26.639 6.92982C26.4965 6.90789 26.3759 7.00656 26.343 7.13811ZM29.4126 9.04567C29.4236 9.05663 29.4346 9.0676 29.4455 9.0676C29.4346 9.05663 29.4236 9.04567 29.4126 9.04567ZM31.671 12.6525C31.671 12.6634 31.671 12.6854 31.682 12.6963C31.671 12.6854 31.671 12.6744 31.671 12.6525Z" fill="#2C2C2C"/>
<path d="M16.586 8.1139C16.3887 8.12486 16.1804 8.16871 15.994 8.23449C15.9173 8.25642 15.8515 8.30027 15.8186 8.37701C15.7747 8.44279 15.7638 8.53049 15.7857 8.60723C15.8076 8.67301 15.8515 8.72782 15.8953 8.77168C15.8625 8.7936 15.8405 8.80456 15.8076 8.82649C15.413 9.0896 15.0512 9.40753 14.7333 9.76931C14.3934 10.153 14.1084 10.5696 13.8453 11.0081C13.6918 11.2712 13.5493 11.5343 13.4067 11.7975C13.2533 12.0825 13.1107 12.3785 12.9682 12.6745C12.9353 12.7512 12.9134 12.828 12.9353 12.9047C12.9573 12.9815 13.0011 13.0472 13.0779 13.0801C13.1436 13.124 13.2313 13.1349 13.3081 13.113C13.3739 13.0911 13.4616 13.0472 13.4835 12.9705C13.7027 12.4881 13.9549 12.0167 14.218 11.5453C14.4263 11.1726 14.6456 10.8218 14.9087 10.4819C15.1937 10.1201 15.5007 9.8022 15.8625 9.51716C16.2023 9.25405 16.575 9.04575 16.9697 8.8813C17.0684 8.83745 17.178 8.80456 17.2767 8.76071C17.3534 8.72782 17.4302 8.68397 17.463 8.60723C17.5398 8.55242 17.5836 8.46471 17.5836 8.36605C17.5836 8.2016 17.4411 8.07005 17.2767 8.05908C17.2438 8.05908 17.2109 8.05908 17.178 8.05908C16.9916 8.07005 16.7833 8.09197 16.586 8.1139Z" fill="#2C2C2C"/>
<path d="M16.915 7.40126C16.0379 7.87266 15.2267 8.47563 14.5031 9.1663C13.8125 9.82407 13.1985 10.5805 12.7052 11.4027C12.6175 11.5453 12.6723 11.7316 12.8148 11.8193C12.9573 11.907 13.1437 11.8522 13.2314 11.7097C13.4178 11.3918 13.6261 11.0958 13.8454 10.7998C14.4154 10.0762 15.0622 9.42941 15.7858 8.85933C16.2353 8.50852 16.7176 8.20156 17.2219 7.92748C17.3645 7.85074 17.4083 7.65341 17.3316 7.51089C17.2768 7.41222 17.1781 7.36837 17.0685 7.36837C17.0137 7.35741 16.9698 7.36837 16.915 7.40126ZM15.8187 8.81548L15.8077 8.82644L15.8187 8.81548ZM13.8673 10.745C13.8563 10.7559 13.8563 10.7669 13.8454 10.7779C13.8563 10.7669 13.8563 10.7559 13.8673 10.745Z" fill="#2C2C2C"/>
<path d="M16.8821 6.9409C16.1586 7.14919 15.5227 7.59867 14.9417 8.08104C14.3497 8.56341 13.8234 9.12252 13.3191 9.6926C13.2643 9.75838 13.2314 9.82416 13.2314 9.9009C13.2314 9.97764 13.2643 10.0544 13.3191 10.1092C13.374 10.164 13.4507 10.1969 13.5274 10.1969C13.5494 10.1969 13.5823 10.1859 13.6042 10.1859C13.659 10.175 13.7029 10.1421 13.7357 10.1092C13.7906 10.0653 13.8454 10.0215 13.9002 9.97764C13.966 9.93378 14.0208 9.87897 14.0427 9.80223C14.0427 9.79127 14.0427 9.7803 14.0537 9.76934C14.5251 9.25408 15.0403 8.76075 15.5885 8.32223C15.9393 8.04815 16.312 7.80697 16.7177 7.63156C16.8163 7.58771 16.926 7.55482 17.0356 7.52193C17.1891 7.47808 17.2877 7.31364 17.2439 7.14919C17.211 7.01764 17.0794 6.92993 16.9479 6.92993C16.926 6.92993 16.904 6.9409 16.8821 6.9409ZM15.6214 8.3003L15.6104 8.31127C15.6104 8.3003 15.6214 8.3003 15.6214 8.3003Z" fill="#2C2C2C"/>
<path d="M16.2023 7.09419C15.8734 7.20382 15.5555 7.34634 15.2595 7.52175C14.9415 7.69716 14.6455 7.91642 14.3605 8.13568C13.7795 8.59612 13.2752 9.16619 12.8476 9.78012C12.431 10.3831 12.1021 11.0518 11.8938 11.7644C11.7952 12.1043 11.7404 12.466 11.7184 12.8169C11.6965 13.1677 11.7184 13.5075 11.7842 13.8474C11.7842 13.8693 11.7952 13.9022 11.7952 13.9241C11.8281 14.0886 12.0144 14.1763 12.1679 14.1324C12.3324 14.0886 12.4091 13.9241 12.3762 13.7597C12.3543 13.6829 12.3433 13.5952 12.3324 13.5185C12.2885 13.1896 12.2995 12.8607 12.3433 12.5318C12.4091 12.0933 12.5297 11.6767 12.7051 11.2711C12.9353 10.7449 13.2313 10.2515 13.5712 9.80205C13.9549 9.31967 14.3824 8.88116 14.8648 8.49745C15.2375 8.21241 15.6432 7.96027 16.0817 7.7739C16.1694 7.74101 16.2681 7.69715 16.3667 7.66427C16.4435 7.64234 16.5092 7.59849 16.5421 7.52175C16.586 7.45597 16.597 7.36827 16.575 7.29153C16.5421 7.17093 16.4106 7.07227 16.29 7.07227C16.2571 7.08323 16.2352 7.09419 16.2023 7.09419ZM12.7161 11.2382C12.7161 11.2492 12.7051 11.2492 12.7051 11.2601C12.7161 11.2601 12.7161 11.2492 12.7161 11.2382ZM12.3543 12.488V12.5099V12.488Z" fill="#2C2C2C"/>
<path d="M13.8781 9.00182C13.33 9.83501 12.7599 10.6463 12.3433 11.5343C11.9267 12.4223 11.6307 13.4528 11.9158 14.4285C11.9596 14.582 12.1241 14.6806 12.2885 14.6368C12.442 14.5929 12.5516 14.4285 12.4968 14.2641C12.4639 14.1435 12.431 14.0229 12.4201 13.9023C12.3981 13.6721 12.3981 13.4418 12.431 13.2116C12.4858 12.8169 12.6174 12.4223 12.7709 12.0495C13.1984 11.0629 13.8233 10.1858 14.4153 9.28686C14.503 9.14434 14.4482 8.95797 14.3057 8.87027C14.2618 8.83738 14.207 8.82642 14.1522 8.82642C14.0426 8.84834 13.9439 8.90316 13.8781 9.00182Z" fill="#2C2C2C"/>
<path d="M14.2071 9.47331C13.9768 9.83508 13.7685 10.2078 13.5712 10.5915C13.2862 11.1178 13.034 11.6659 12.7928 12.214C12.5845 12.7074 12.3872 13.2226 12.2885 13.7489C12.2447 13.9572 12.2228 14.1764 12.2447 14.3957C12.2556 14.4943 12.2666 14.582 12.2995 14.6807C12.3434 14.7903 12.3872 14.8781 12.4639 14.9658C12.5078 15.0206 12.6065 15.0535 12.6722 15.0535C12.749 15.0535 12.8257 15.0206 12.8805 14.9658C12.9354 14.9109 12.9682 14.8342 12.9682 14.7575C12.9682 14.6917 12.9463 14.6369 12.9134 14.5821C12.9134 14.5821 12.9134 14.5821 12.9244 14.593C12.9025 14.5711 12.8915 14.5382 12.8696 14.5163C12.8586 14.4724 12.8476 14.4395 12.8367 14.3957C12.8257 14.2751 12.8367 14.1435 12.8476 14.0229C12.8805 13.7708 12.9573 13.5186 13.034 13.2775C13.1327 12.9815 13.2423 12.6855 13.3629 12.3895C13.3629 12.4004 13.3519 12.4114 13.3519 12.4114C13.3519 12.4004 13.3629 12.3895 13.3629 12.3895C13.3739 12.3785 13.3739 12.3566 13.3848 12.3456C13.3848 12.3566 13.3739 12.3675 13.3739 12.3785C13.5931 11.8632 13.8453 11.3589 14.0974 10.8656C14.2948 10.4929 14.4921 10.1311 14.7223 9.78027C14.81 9.63775 14.7552 9.45138 14.6127 9.36368C14.5688 9.33079 14.514 9.31982 14.4592 9.31982C14.3605 9.33079 14.2619 9.3856 14.2071 9.47331ZM13.3629 12.3895C13.3629 12.3785 13.3629 12.3895 13.3629 12.3895C13.3629 12.3895 13.3739 12.3785 13.3629 12.3895Z" fill="#2C2C2C"/>
<path d="M13.8343 10.5039C13.5712 11.6221 13.3081 12.7513 13.0011 13.8586C12.9573 13.8586 12.9024 13.8695 12.8586 13.9024C12.7928 13.9353 12.727 14.0121 12.7161 14.0778C12.6284 14.615 12.5297 15.1632 12.442 15.7004C12.431 15.7881 12.431 15.8538 12.4749 15.9306C12.5187 15.9964 12.5845 16.0512 12.6503 16.0731C12.8147 16.1169 12.9682 16.0183 13.023 15.8648C13.5931 14.1655 13.9987 12.4115 14.4153 10.6574C14.4482 10.4929 14.3715 10.3285 14.207 10.2846C14.1851 10.2737 14.1522 10.2737 14.1303 10.2737C13.9987 10.2846 13.8672 10.3723 13.8343 10.5039Z" fill="#2C2C2C"/>
<path d="M13.5711 11.4247C13.5492 11.4795 13.5273 11.5234 13.5163 11.5782C13.5053 11.5892 13.5053 11.6001 13.4944 11.6001C13.4505 11.6659 13.4396 11.7646 13.4615 11.8303C13.4834 11.8961 13.5163 11.9509 13.5711 11.9948C13.5163 12.3566 13.4286 12.7184 13.3409 13.0692C13.2203 13.5844 13.0778 14.0887 12.9462 14.593C12.8366 15.0096 12.716 15.4262 12.5954 15.8428C12.5625 15.9744 12.5187 16.0949 12.4858 16.2265C12.4748 16.2594 12.4639 16.2923 12.4639 16.3252C12.4419 16.4238 12.4419 16.4896 12.4858 16.5883C12.5625 16.7308 12.7599 16.7747 12.9024 16.6979C12.9791 16.6541 13.023 16.5883 13.0449 16.5115C13.0449 16.5006 13.0449 16.4896 13.0449 16.4787C13.0559 16.4129 13.0778 16.3471 13.0997 16.2813C13.1436 16.1169 13.1874 15.9634 13.2313 15.7989C13.3628 15.3166 13.5053 14.8452 13.6259 14.3628C13.7685 13.8475 13.9 13.3213 14.0206 12.7951C14.0645 12.5868 14.1083 12.3675 14.1522 12.1483C14.185 11.9729 14.207 11.8084 14.207 11.633C14.207 11.5672 14.196 11.5015 14.1631 11.4466C14.0973 11.348 13.9658 11.2712 13.8562 11.2712C13.7575 11.2712 13.6259 11.3261 13.5711 11.4247ZM13.0339 16.3361C13.0339 16.3471 13.0449 16.3471 13.0449 16.3581C13.0449 16.38 13.0559 16.4129 13.0559 16.4348C13.0559 16.4458 13.0559 16.4458 13.0559 16.4567C13.0559 16.4129 13.0559 16.38 13.0339 16.3361Z" fill="#2C2C2C"/>
<path d="M12.4859 11.1067C12.4092 11.315 12.3434 11.5342 12.2776 11.7535C12.2447 11.6658 12.168 11.6 12.0803 11.5781C12.0035 11.5562 11.9158 11.5671 11.85 11.611C11.7733 11.6548 11.7404 11.7206 11.7075 11.7864C11.554 12.192 11.4554 12.6196 11.4115 13.0471C11.3348 13.4418 11.28 13.8474 11.2471 14.2421C11.1813 15.0753 11.2252 15.9194 11.3896 16.7416C11.4006 16.8184 11.4554 16.8842 11.5212 16.9171C11.5212 17.0705 11.5212 17.224 11.5212 17.3775C11.5212 17.5419 11.6527 17.6845 11.8281 17.6845C11.8829 17.6845 11.9268 17.6735 11.9706 17.6516C11.9706 17.7283 11.9816 17.8051 11.9816 17.8928C11.9926 18.0243 12.0693 18.1449 12.2009 18.1888C12.2776 18.2107 12.3653 18.1997 12.4311 18.1559C12.5078 18.112 12.5407 18.0572 12.5736 17.9805C13.0669 16.7416 13.5383 15.4809 13.8015 14.1654C13.8124 14.0886 13.8124 14.0119 13.7686 13.9351C13.7247 13.8694 13.6589 13.8145 13.5932 13.7926C13.4397 13.7488 13.2533 13.8474 13.2204 14.0009C13.1108 14.5271 12.9792 15.0534 12.8148 15.5686C13.0669 14.4723 13.2423 13.3541 13.637 12.2907C13.6809 12.1701 13.6041 12.0166 13.4945 11.9508C13.3958 11.896 13.2533 11.896 13.1546 11.9728C13.1218 11.9399 13.0669 11.907 13.0231 11.896C12.9792 11.8851 12.9354 11.8851 12.8915 11.896C12.9463 11.6877 13.0121 11.4904 13.0779 11.2821C13.1327 11.1286 13.0231 10.9532 12.8696 10.9093C12.8477 10.8984 12.8148 10.8984 12.7929 10.8984C12.6394 10.8874 12.5298 10.9751 12.4859 11.1067Z" fill="#2C2C2C"/>
<path d="M16.9917 8.20164C16.6408 8.32223 16.301 8.47571 15.9831 8.66208C15.709 8.82653 15.4459 9.03482 15.2157 9.26504C14.9964 9.4843 14.81 9.72549 14.6456 9.9886C14.4811 10.2517 14.3496 10.5258 14.2399 10.8108C14.0097 11.3809 13.8891 11.9839 13.7905 12.5868C13.7357 12.9048 13.6918 13.2336 13.6479 13.5516V13.5625C13.6479 13.5845 13.637 13.6064 13.637 13.6283C13.626 13.6941 13.6151 13.7599 13.6041 13.8366C13.5931 13.8914 13.5822 13.9572 13.5822 14.023C13.5822 14.0449 13.5822 14.0559 13.5712 14.0778C13.5493 14.2422 13.5274 14.3957 13.5054 14.5602C13.4616 14.8891 13.4068 15.207 13.341 15.5359C13.1875 16.3033 12.9902 17.0707 12.6942 17.7942C12.4968 18.2437 12.2666 18.6713 11.9706 19.055C11.8939 19.1536 11.8062 19.2523 11.7185 19.351C11.6088 19.4716 11.5979 19.6579 11.7185 19.7785C11.8281 19.8882 12.0364 19.8991 12.146 19.7785C12.4201 19.4825 12.6613 19.1427 12.8696 18.7919C13.0779 18.4301 13.2423 18.0464 13.3848 17.6627C13.6589 16.9172 13.8453 16.1388 13.9768 15.3605C14.0317 15.0316 14.0865 14.6917 14.1303 14.3628C14.1413 14.2751 14.1522 14.1874 14.1632 14.1107C14.1632 14.0888 14.1742 14.0778 14.1742 14.0559C14.1851 13.9901 14.1961 13.9133 14.2071 13.8476C14.218 13.7928 14.229 13.727 14.229 13.6612C14.229 13.6502 14.229 13.6283 14.2399 13.6173C14.2509 13.5296 14.2619 13.431 14.2728 13.3433C14.3167 13.0253 14.3715 12.7074 14.4263 12.3895C14.525 11.8852 14.6456 11.3919 14.8429 10.9205C14.9745 10.6135 15.1389 10.3175 15.3362 10.0544C15.5226 9.82416 15.7309 9.61586 15.9611 9.42949C16.2352 9.22119 16.5422 9.05675 16.8601 8.91423C16.9588 8.87038 17.0574 8.83749 17.1451 8.8046C17.2219 8.78268 17.2877 8.73882 17.3205 8.66208C17.3644 8.5963 17.3754 8.5086 17.3534 8.43186C17.3205 8.31127 17.189 8.2126 17.0684 8.2126C17.0465 8.17971 17.0136 8.19068 16.9917 8.20164Z" fill="#2C2C2C"/>
<path d="M17.485 5.29636C17.4631 5.39503 17.4302 5.49369 17.3973 5.5814C17.3425 5.70199 17.2767 5.82258 17.189 5.93221C17.0574 6.09666 16.9149 6.23918 16.7505 6.35977C16.2462 6.74347 15.6651 6.99562 15.117 7.29162C14.7991 7.45607 14.5031 7.6534 14.2071 7.85073C13.8563 8.09192 13.5054 8.35503 13.1766 8.62911C12.5297 9.18822 11.9377 9.83503 11.4992 10.5695C11.2909 10.9313 11.1155 11.315 10.984 11.7097C10.8524 12.0934 10.7757 12.499 10.7208 12.9047C10.5674 14.0448 10.688 15.185 10.8634 16.3141C10.9511 16.8842 11.0607 17.4543 11.1703 18.0244C11.2251 18.3423 11.28 18.6493 11.3457 18.9672C11.4115 19.307 11.4883 19.6469 11.554 19.9867C11.5869 20.1512 11.7733 20.2389 11.9268 20.195C12.0035 20.1731 12.0693 20.1293 12.1022 20.0525C12.146 19.9758 12.146 19.899 12.1351 19.8223C12.0583 19.4386 11.9816 19.0659 11.9048 18.6821C11.8391 18.3313 11.7733 17.9696 11.7075 17.6078C11.5869 16.939 11.4663 16.2813 11.3677 15.6125C11.3677 15.6344 11.3786 15.6673 11.3786 15.6893C11.258 14.7903 11.2032 13.8694 11.3128 12.9595C11.3896 12.4552 11.5102 11.9509 11.7075 11.4795C11.8939 11.041 12.1351 10.6353 12.4201 10.2626C12.8696 9.69251 13.3848 9.18822 13.9549 8.7497C14.3606 8.44274 14.7771 8.14673 15.2157 7.90555C15.5774 7.69725 15.9611 7.52185 16.3229 7.32451C16.7066 7.11622 17.0684 6.88599 17.3863 6.57903C17.7043 6.27206 17.9454 5.8774 18.0441 5.43888C18.077 5.27444 18.0003 5.10999 17.8358 5.06614C17.8139 5.05518 17.781 5.05518 17.7591 5.05518C17.6494 5.0771 17.5179 5.16481 17.485 5.29636ZM13.9988 8.73873C13.9878 8.73873 13.9878 8.7497 13.9768 8.7497C13.9878 8.7497 13.9878 8.7497 13.9988 8.73873ZM13.9549 8.78259L13.944 8.79355C13.944 8.78259 13.944 8.78259 13.9549 8.78259ZM11.3348 12.9156C11.3348 12.9266 11.3348 12.9266 11.3348 12.9376C11.3348 12.9266 11.3348 12.9266 11.3348 12.9156Z" fill="#2C2C2C"/>
<path d="M9.86568 21.5108C9.81086 21.5985 9.85471 21.6971 9.93145 21.752C9.96434 21.7739 9.99723 21.7958 10.0301 21.8287C10.359 22.0918 10.6879 22.3768 10.951 22.6948C11.1155 22.925 11.247 23.1662 11.3566 23.4183C11.3676 23.4403 11.3786 23.4731 11.3895 23.4951C11.4115 23.5389 11.4224 23.5718 11.4443 23.6157C11.4882 23.6924 11.554 23.7472 11.6198 23.7911C11.7403 23.8568 11.8719 23.8788 12.0035 23.8459C12.1241 23.813 12.2337 23.7253 12.2995 23.6157C12.3104 23.5828 12.3323 23.5499 12.3433 23.506C12.3104 23.3854 12.2995 23.2649 12.3214 23.1443C12.2885 23.0675 12.2556 22.9908 12.2118 22.914C12.1679 22.8263 12.1131 22.7386 12.0473 22.6619C11.9815 22.5742 11.9158 22.4974 11.85 22.4207C11.7842 22.3549 11.7075 22.2891 11.6417 22.2343C11.4992 22.1137 11.3457 22.0151 11.1812 21.9164C11.0168 21.8177 10.8304 21.741 10.644 21.6643C10.666 21.6752 10.6879 21.6862 10.7098 21.6862C10.5563 21.6204 10.3919 21.5546 10.2384 21.4888C10.1946 21.4669 10.1507 21.445 10.1069 21.434C10.074 21.4231 10.0411 21.4121 10.0082 21.4121C9.95338 21.434 9.89857 21.456 9.86568 21.5108Z" fill="#2C2C2C"/>
<path d="M11.0388 22.7934C10.8415 22.8154 10.6661 22.8921 10.4907 22.9908C10.403 23.0346 10.381 23.1443 10.4249 23.232C10.4797 23.3197 10.5784 23.3416 10.6661 23.2977C10.699 23.2868 10.7318 23.2649 10.7647 23.2539C10.8744 23.21 10.973 23.1772 11.0827 23.1662C11.1813 23.1552 11.269 23.1552 11.3677 23.1662C11.4116 23.1772 11.4554 23.1772 11.4883 23.1881C11.587 23.21 11.6856 23.1552 11.7075 23.0566C11.7295 22.9579 11.6747 22.8592 11.576 22.8373C11.4883 22.8154 11.4006 22.8044 11.3129 22.7934C11.28 22.7934 11.2471 22.7934 11.2252 22.7934C11.1813 22.7825 11.1046 22.7934 11.0388 22.7934Z" fill="#2C2C2C"/>
<path d="M31.8904 21.7189C31.704 21.8286 31.5395 21.9601 31.3641 22.0917C31.1778 22.2342 31.0133 22.3877 30.8489 22.5521C30.6844 22.7275 30.531 22.9248 30.3775 23.1222C30.2898 23.2318 30.213 23.3524 30.1253 23.473C30.1144 23.6923 30.0924 23.9115 30.0486 24.1308C30.0705 24.1527 30.0924 24.1637 30.1144 24.1856C30.2021 24.2294 30.3007 24.2514 30.3884 24.2185C30.4871 24.1966 30.5529 24.1308 30.6077 24.054C30.9366 23.5607 31.2326 23.0454 31.5944 22.574C31.6601 22.4863 31.7259 22.4096 31.8027 22.3328C31.8794 22.2561 31.9671 22.1794 32.0658 22.1026L32.1096 22.0697C32.1535 22.0369 32.1864 22.004 32.2083 21.9491C32.2193 21.8943 32.2193 21.8395 32.1864 21.7847C32.1425 21.7189 32.0767 21.686 32 21.686C31.9561 21.686 31.9233 21.697 31.8904 21.7189ZM32.0438 22.1136C32.0329 22.1136 32.0329 22.1246 32.0219 22.1246C32.0329 22.1246 32.0438 22.1246 32.0438 22.1136ZM31.6382 22.5192C31.6382 22.5302 31.6273 22.5302 31.6273 22.5411C31.6273 22.5302 31.6273 22.5302 31.6382 22.5192Z" fill="#2C2C2C"/>
<path d="M30.7392 22.8921C30.6953 23.0456 30.794 23.1772 30.9256 23.232C30.9475 23.2429 30.9585 23.243 30.9804 23.2539C31.0462 23.2868 31.101 23.3197 31.1558 23.3526C31.2106 23.4074 31.2654 23.4622 31.3202 23.517C31.3312 23.539 31.3422 23.5499 31.3531 23.5718C31.4299 23.6924 31.5724 23.7363 31.7039 23.6595C31.7588 23.6267 31.8026 23.5718 31.8245 23.5061C31.8465 23.4403 31.8245 23.3745 31.8026 23.3087C31.7368 23.1662 31.6491 23.0347 31.5285 22.936C31.397 22.8264 31.2435 22.7496 31.0791 22.6948C31.0571 22.6838 31.0352 22.6838 31.0023 22.6838C30.8817 22.6838 30.7721 22.7715 30.7392 22.8921Z" fill="#2C2C2C"/>
<path d="M17.2547 19.0987C17.2328 19.1316 17.1999 19.1645 17.178 19.2083C17.0903 19.318 16.9587 19.3947 16.8381 19.4824C16.7724 19.5263 16.6956 19.5592 16.6189 19.5701C16.597 19.5811 16.586 19.5811 16.5641 19.592C16.5202 19.7017 16.4983 19.8113 16.4873 19.9319C16.4764 20.0525 16.4873 20.1731 16.5093 20.2937C16.5421 20.4362 16.6189 20.5568 16.7066 20.6664C16.7943 20.776 16.9259 20.8418 17.0574 20.8857C17.2219 20.9515 17.4082 20.9405 17.5836 20.9076C17.8796 20.8638 18.1537 20.7212 18.3072 20.4691C18.4387 20.2498 18.4497 19.9648 18.373 19.7126C18.3072 19.4824 18.1647 19.2632 17.9893 19.0987C17.9564 19.0658 17.9235 19.0439 17.8906 19.022C17.7152 19.1535 17.474 19.1864 17.2547 19.0987Z" fill="#2C2C2C"/>
<path d="M16.8381 19.4825C16.7724 19.5263 16.6956 19.5592 16.6189 19.5702C16.6189 19.5702 16.6079 19.5702 16.6079 19.5811C16.6079 19.7236 16.6189 19.8662 16.6627 19.9977C16.7285 20.217 16.8491 20.4033 17.0135 20.5678C17.0684 20.6226 17.1451 20.6226 17.1999 20.5678C17.2547 20.513 17.2547 20.4253 17.1999 20.3814C17.167 20.3485 17.1341 20.3156 17.1122 20.2828C17.0684 20.2279 17.0355 20.1731 17.0135 20.1073C16.9807 20.0306 16.9587 19.9648 16.9478 19.8771C16.9368 19.7894 16.9368 19.6908 16.9478 19.603C16.9587 19.5263 16.9806 19.4605 17.0026 19.3838C16.9368 19.4167 16.8929 19.4496 16.8381 19.4825Z" fill="#2C2C2C"/>
<path d="M24.7205 19.5481C24.5999 19.7564 24.5999 20.0086 24.6657 20.2278C24.7315 20.4581 24.8631 20.6664 25.0604 20.7979C25.2468 20.9404 25.4879 20.9733 25.7182 20.9076C25.8388 20.8747 25.9484 20.7979 26.0361 20.7212C26.1238 20.6335 26.1896 20.5129 26.2334 20.3923C26.2663 20.2936 26.2773 20.173 26.2773 20.0634C26.2773 19.9428 26.2554 19.8222 26.2005 19.7126C26.1567 19.603 26.0909 19.5043 26.0142 19.4166C25.9922 19.3947 25.9703 19.3727 25.9374 19.3508C25.8497 19.3837 25.7511 19.4056 25.6524 19.4056C25.4989 19.4056 25.3564 19.3727 25.2029 19.3398C25.0933 19.3618 24.9946 19.3618 24.8959 19.3398C24.8192 19.4056 24.7644 19.4714 24.7205 19.5481Z" fill="#2C2C2C"/>
<path d="M25.6415 19.4057C25.488 19.4057 25.3455 19.3728 25.192 19.3399C25.1153 19.3509 25.0276 19.3618 24.9508 19.3509C24.907 19.3838 24.8741 19.4166 24.8412 19.4495C24.7316 19.5811 24.6548 19.7346 24.6329 19.899C24.6219 19.9758 24.611 20.0525 24.611 20.1402C24.611 20.2279 24.6219 20.3156 24.6329 20.4033C24.6439 20.4691 24.6548 20.5239 24.6767 20.5787C24.6987 20.6555 24.7316 20.7322 24.7864 20.798C24.885 20.9515 25.0276 21.0501 25.192 21.1159C25.2358 21.1269 25.3016 21.1378 25.3455 21.1378C25.3784 21.1378 25.4113 21.1378 25.4441 21.1378C25.499 21.1269 25.5538 21.1269 25.6086 21.1159C25.6744 21.094 25.7292 21.072 25.795 21.0392C25.8936 20.9953 25.9813 20.9295 26.0581 20.8638C26.1567 20.787 26.2444 20.6774 26.2993 20.5568C26.3321 20.491 26.3541 20.4252 26.376 20.3595C26.3979 20.2827 26.3979 20.195 26.4089 20.1183C26.4089 20.0744 26.4089 20.0196 26.3979 19.9758C26.387 19.8881 26.376 19.8113 26.3541 19.7346C26.3212 19.603 26.2664 19.4824 26.2006 19.3728C26.1787 19.3289 26.1458 19.2851 26.1129 19.2522C25.9813 19.3509 25.8169 19.4166 25.6415 19.4057ZM25.3455 20.4033C25.3345 20.3923 25.3345 20.3923 25.3236 20.3814C25.3126 20.3595 25.2907 20.3266 25.2797 20.3046C25.2578 20.2498 25.2468 20.195 25.2359 20.1402C25.2359 20.0854 25.2249 20.0415 25.2359 19.9867C25.2359 19.9758 25.2468 19.9538 25.2468 19.9429C25.2687 19.899 25.2907 19.8661 25.3126 19.8332C25.3345 19.8113 25.3455 19.7894 25.3674 19.7784C25.3784 19.7784 25.3784 19.7784 25.3893 19.7894C25.4003 19.7894 25.4003 19.8003 25.4113 19.8003C25.4222 19.8113 25.4332 19.8223 25.4441 19.8332C25.4661 19.8661 25.477 19.8881 25.488 19.9209C25.5099 19.9758 25.5209 20.0196 25.5318 20.0744C25.5318 20.1292 25.5428 20.184 25.5318 20.2389C25.5209 20.2718 25.5209 20.3046 25.5099 20.3375L25.499 20.3485C25.4661 20.3704 25.4332 20.3923 25.3893 20.4143C25.3784 20.4143 25.3784 20.4143 25.3674 20.4252C25.3564 20.4143 25.3564 20.4143 25.3455 20.4033Z" fill="#2C2C2C"/>
<path d="M25.2906 19.3292C25.3019 19.3292 25.3132 19.3292 25.3132 19.3292C25.3019 19.318 25.3019 19.3292 25.2906 19.3292Z" fill="#2C2C2C"/>
<path d="M20.456 20.7542C20.4669 20.9405 20.445 21.1379 20.4231 21.3242C20.3902 21.6093 20.3573 21.9053 20.3134 22.1903C20.2586 22.6069 20.1819 23.0235 20.138 23.4401C20.1161 23.6374 20.1052 23.8348 20.1161 24.0321C20.1161 24.2075 20.1271 24.3829 20.149 24.5583C20.16 24.668 20.1709 24.7666 20.2038 24.8762C20.2257 24.9859 20.2696 25.0845 20.3134 25.1832C20.3792 25.3257 20.4669 25.4683 20.5875 25.5669C20.6533 25.6217 20.7191 25.6765 20.7958 25.7204C20.8506 25.7423 20.9055 25.7752 20.9603 25.7862C21.026 25.8081 21.0918 25.8081 21.1576 25.8191C21.2453 25.83 21.333 25.8191 21.4317 25.8081C21.5084 25.7971 21.5742 25.7752 21.6509 25.7423C21.7715 25.6875 21.8921 25.6327 22.0017 25.556C22.1333 25.4683 22.2649 25.3586 22.3855 25.26C22.4951 25.1722 22.4951 24.9968 22.4293 24.8872C22.3416 24.7447 22.1443 24.6899 22.0017 24.7776C21.914 24.8324 21.8154 24.8872 21.7167 24.9311C21.618 24.964 21.5194 24.9968 21.4207 25.0188C21.3769 25.0188 21.344 25.0188 21.3001 25.0188C21.2782 25.0188 21.2672 25.0078 21.2453 25.0078C21.2343 24.9968 21.2234 24.9968 21.2124 24.9859C21.1905 24.964 21.1795 24.953 21.1576 24.9311C21.1137 24.8653 21.0699 24.7885 21.037 24.7008C20.9383 24.4597 20.8835 24.2075 20.8397 23.9554C20.8397 23.9444 20.8397 23.9225 20.8287 23.9115C20.8287 23.9225 20.8287 23.9225 20.8287 23.9334C20.7849 23.6265 20.7629 23.3195 20.741 23.0125C20.7191 22.6946 20.7081 22.3877 20.7191 22.0697C20.73 21.8066 20.741 21.5545 20.7629 21.2914C20.7739 21.116 20.7958 20.9405 20.7849 20.7651C20.7849 20.6774 20.7081 20.6007 20.6204 20.6007C20.5327 20.5788 20.456 20.6555 20.456 20.7542Z" fill="#2C2C2C"/>
<path d="M18.5375 26.4002C18.4169 26.5208 18.4169 26.7291 18.5375 26.8387C18.7348 27.0251 18.9541 27.1786 19.1733 27.332C19.3816 27.4746 19.5899 27.6171 19.8201 27.7267C20.0723 27.8363 20.3244 27.924 20.5985 27.9789C20.8835 28.0337 21.1686 28.0666 21.4536 28.0666C21.9689 28.0666 22.4841 27.9679 22.9665 27.8034C23.4708 27.628 23.9203 27.343 24.3588 27.047C24.4355 26.9922 24.4684 26.8935 24.4246 26.8168C24.3807 26.74 24.2711 26.7071 24.1944 26.751C24.0409 26.8606 23.8764 26.9483 23.712 27.0141C23.3941 27.1457 23.0542 27.2224 22.7253 27.2663C22.2978 27.3211 21.8702 27.3101 21.4536 27.2553C21.1576 27.2114 20.8616 27.1457 20.5766 27.0689C20.4231 27.0251 20.2696 26.9812 20.1271 26.9374C19.9736 26.8826 19.8201 26.8387 19.6667 26.7839C19.4035 26.6633 19.1733 26.5098 18.9431 26.3454C18.8992 26.3125 18.8444 26.3015 18.7896 26.3015C18.68 26.3015 18.6032 26.3344 18.5375 26.4002Z" fill="#2C2C2C"/>
<path d="M20.171 28.6037C20.1491 28.6695 20.1929 28.7462 20.2587 28.7681C20.6972 28.9107 21.1686 28.9874 21.6291 28.9435C21.6729 28.9435 21.7058 28.9326 21.7277 28.8997C21.7497 28.8778 21.7716 28.8339 21.7716 28.801C21.7716 28.7572 21.7606 28.7243 21.7277 28.7024C21.7058 28.6804 21.6619 28.6585 21.6291 28.6585C21.3988 28.6804 21.1686 28.6804 20.9384 28.6476C20.7301 28.6147 20.5328 28.5708 20.3354 28.516C20.3245 28.516 20.3135 28.516 20.3025 28.516C20.2477 28.505 20.1929 28.5379 20.171 28.6037ZM20.9055 28.6366C20.9165 28.6366 20.9274 28.6366 20.9384 28.6366C20.9274 28.6366 20.9165 28.6366 20.9055 28.6366Z" fill="#2C2C2C"/>
<path d="M24.3807 15.0535C24.2492 15.0535 24.1176 15.0754 23.9861 15.0864C23.9751 15.0864 23.9641 15.0973 23.9532 15.0973C23.9312 15.1192 23.9093 15.1412 23.8764 15.1741C23.8545 15.2069 23.8435 15.2289 23.8216 15.2618C23.7997 15.3056 23.7887 15.3604 23.7778 15.4043C23.7668 15.481 23.7668 15.5578 23.7778 15.6235C23.7997 15.7441 23.8326 15.8538 23.8764 15.9744C23.8983 16.0182 23.9093 16.0511 23.9312 16.0949C23.9422 16.1059 23.9641 16.1278 23.9751 16.1388C24.2053 16.3581 24.5013 16.4896 24.7973 16.6102C25.1262 16.7418 25.4661 16.8295 25.8059 16.9281C26.1677 17.0268 26.5295 17.1364 26.8693 17.2789C27.0995 17.3776 27.3298 17.4982 27.5271 17.6517C27.6367 17.7394 27.7354 17.8381 27.8231 17.9477C27.856 17.9915 27.8779 18.0244 27.8998 18.0683C27.9546 18.156 28.0424 18.1889 28.141 18.1669C28.152 18.1669 28.1629 18.1669 28.1629 18.156C28.1629 18.0792 28.1629 17.9915 28.1629 17.9148C28.152 17.8819 28.152 17.8381 28.141 17.8052C28.0643 17.6078 27.9985 17.4105 27.9108 17.2132C27.9108 17.2132 27.9108 17.2132 27.9108 17.2022C27.9108 17.2022 27.9108 17.2022 27.9108 17.2132C27.9108 17.2022 27.8998 17.1912 27.8998 17.1803C27.856 17.0926 27.8231 17.0049 27.7792 16.9172C27.7025 16.8075 27.6148 16.7089 27.5381 16.6102C27.253 16.2813 26.9241 15.9963 26.5624 15.7551C26.1896 15.5139 25.784 15.3275 25.3564 15.2069C25.1262 15.1412 24.896 15.1083 24.6658 15.0754C24.5671 15.0644 24.4684 15.0644 24.3698 15.0644H24.3807V15.0535ZM26.7597 16.7527C26.1677 16.5225 25.5318 16.38 24.9398 16.1278C24.8192 16.073 24.6986 16.0182 24.5781 15.9415C24.7425 15.9415 24.9069 15.9524 25.0714 15.9744C25.4222 16.0292 25.7621 16.1169 26.0909 16.2484C26.376 16.38 26.6501 16.5335 26.8912 16.7198C26.957 16.7747 27.0228 16.8295 27.0886 16.8843C26.9899 16.8404 26.8693 16.7966 26.7597 16.7527Z" fill="#2C2C2C"/>
<path d="M24.4246 15.843C24.4027 15.9416 24.4575 16.0622 24.5562 16.0841C24.6 16.0951 24.6548 16.1061 24.6987 16.117C24.6987 16.117 24.6987 16.117 24.6987 16.128C24.7096 16.1828 24.7535 16.2376 24.7973 16.2596C25.0385 16.3692 25.2797 16.4569 25.5319 16.5555C26.0252 16.7967 26.4966 17.0927 26.9461 17.4107C27.0119 17.4545 27.0996 17.4326 27.1544 17.3887C27.2202 17.323 27.2202 17.2133 27.1544 17.1475C27.0448 17.0489 26.9351 16.9612 26.8255 16.8625C26.8255 16.8516 26.8365 16.8516 26.8365 16.8406C26.8913 16.7419 26.8584 16.6213 26.7597 16.5555C26.6062 16.4569 26.4527 16.3692 26.2883 16.2815C26.1129 16.1938 25.9265 16.1061 25.7402 16.0293C25.3893 15.8868 25.0276 15.7772 24.6548 15.7004C24.6439 15.7004 24.6219 15.7004 24.611 15.7004C24.5233 15.7004 24.4465 15.7553 24.4246 15.843Z" fill="#2C2C2C"/>
<path d="M23.8764 15.503C23.8216 15.5578 23.7997 15.6236 23.7997 15.7003C23.8106 15.7223 23.8106 15.7552 23.8216 15.7771C23.8326 15.81 23.8545 15.8319 23.8764 15.8538C23.9093 15.8977 23.9422 15.9306 23.9861 15.9635C24.008 15.9854 24.0299 16.0073 24.0518 16.0292C24.293 16.2485 24.5671 16.4349 24.8631 16.5883C25.2358 16.7857 25.6305 16.9392 26.0142 17.1036H26.0252C26.0252 17.1036 26.0252 17.1036 26.0361 17.1036C26.0361 17.1036 26.0361 17.1036 26.0252 17.1036C26.0252 17.1036 26.0361 17.1036 26.0471 17.1146C26.4966 17.3009 26.9351 17.5092 27.3188 17.8052C27.4284 17.8929 27.5271 17.9916 27.6367 18.0793C27.6477 18.0903 27.6586 18.1012 27.6696 18.1012C27.6806 18.1122 27.6915 18.1122 27.7025 18.1232C27.7464 18.1451 27.8121 18.1341 27.856 18.1122C27.9327 18.0683 27.9766 17.9368 27.9218 17.86C27.9108 17.8491 27.9108 17.8381 27.8998 17.8272C27.9656 17.7395 27.9766 17.6079 27.9108 17.5092C27.8231 17.3667 27.7354 17.2242 27.6148 17.1036C27.5052 16.983 27.3846 16.8843 27.253 16.7966C27.0118 16.6212 26.7378 16.5116 26.4637 16.4129C26.3321 16.3691 26.1896 16.3252 26.0581 16.2814C25.7401 16.084 25.4112 15.8867 25.1043 15.6675C25.0275 15.6126 24.9179 15.6565 24.8741 15.7332C24.8412 15.788 24.8412 15.8538 24.8741 15.8977C24.6877 15.81 24.5013 15.7003 24.3369 15.5798C24.304 15.5578 24.2821 15.5359 24.2492 15.514L24.2382 15.503C24.1834 15.4592 24.1286 15.4263 24.0628 15.4263C23.9861 15.4263 23.9203 15.4592 23.8764 15.503ZM24.2492 15.5249C24.2601 15.5359 24.2711 15.5359 24.2711 15.5469C24.2711 15.5359 24.2601 15.5359 24.2492 15.5249Z" fill="#2C2C2C"/>
<path d="M18.384 14.3298C18.2634 14.3518 18.1428 14.3956 18.0332 14.4285C17.7701 14.5272 17.5179 14.6478 17.2658 14.8012C17.0027 14.9547 16.7615 15.1301 16.5313 15.3165C16.312 15.4919 16.0927 15.6783 15.8954 15.8647C15.72 16.0291 15.5446 16.2155 15.3801 16.4018C15.2486 16.5553 15.117 16.7088 15.0184 16.8842C14.9745 16.9609 14.9745 17.0596 15.0184 17.1473C15.0622 17.2241 15.1499 17.2898 15.2376 17.2789C16.0708 17.1802 16.8821 16.8952 17.6275 16.5005C17.7153 16.4567 17.803 16.4128 17.8797 16.358C18.077 16.3141 18.2744 16.2703 18.4827 16.2155C18.68 16.1607 18.8664 16.0949 19.0527 16.0291C19.2281 15.9633 19.4035 15.8866 19.557 15.7769C19.6886 15.6892 19.8311 15.5796 19.8969 15.4261C19.9407 15.3384 19.9627 15.2507 19.9627 15.1521C19.9627 15.0534 19.9298 14.9547 19.8859 14.867C19.7982 14.7026 19.6338 14.571 19.4693 14.4833C19.272 14.3627 19.0308 14.3079 18.7896 14.3079C18.7896 14.3079 18.7896 14.3079 18.7787 14.3079C18.6471 14.286 18.5156 14.3079 18.384 14.3298ZM18.5813 14.9438C18.4388 14.9876 18.3073 15.0205 18.1647 15.0644C18.099 15.0863 18.0441 15.1082 17.9784 15.1301C17.9893 15.1301 18.0003 15.1192 18.0113 15.1192C18.1976 15.0424 18.384 14.9767 18.5813 14.9438ZM17.9893 15.1192C17.9784 15.1192 17.9784 15.1192 17.9674 15.1301C17.9784 15.1301 17.9893 15.1301 17.9893 15.1192Z" fill="#2C2C2C"/>
<path d="M16.3229 22.7166C16.3339 22.7385 16.3449 22.7495 16.3668 22.7604C16.3449 22.7166 16.323 22.6727 16.301 22.6179C16.301 22.6508 16.301 22.6837 16.3229 22.7166Z" fill="#2C2C2C"/>
<path d="M18.5483 14.6697C18.4387 14.6806 18.34 14.6916 18.2304 14.7355C18.1208 14.7793 18.0221 14.8341 17.9125 14.8889C17.8248 14.9438 17.7809 15.0424 17.8028 15.152C17.8138 15.1959 17.8357 15.2288 17.8576 15.2507C17.8905 15.2836 17.9344 15.3055 17.9782 15.3165C18.0221 15.3494 18.0879 15.3603 18.1536 15.3494C18.2304 15.3275 18.3071 15.2946 18.3839 15.2507C18.4387 15.2288 18.4825 15.1959 18.5154 15.152C18.5264 15.1301 18.5373 15.1192 18.5373 15.0972C18.5922 15.0972 18.647 15.0753 18.6908 15.0315C18.7347 14.9876 18.7566 14.9328 18.7566 14.878C18.7566 14.7683 18.6689 14.6697 18.5593 14.6697C18.5593 14.6697 18.5593 14.6697 18.5483 14.6697Z" fill="#2C2C2C"/>
<path d="M17.0137 18.8026C16.8492 18.8465 16.7067 18.9232 16.5752 19.0329C16.5094 19.0877 16.4655 19.1425 16.4107 19.2083C16.3669 19.274 16.334 19.3508 16.3011 19.4166C16.2682 19.4933 16.2682 19.581 16.2682 19.6578C16.2682 19.7455 16.2901 19.8332 16.312 19.9209C16.3778 20.1292 16.5094 20.2936 16.6629 20.4471C16.8383 20.6115 17.1123 20.6225 17.2878 20.4471C17.3426 20.3923 17.3755 20.3265 17.3974 20.2498C17.5289 20.3375 17.7263 20.3484 17.8578 20.2607C18.0332 20.1621 18.099 19.9647 18.0552 19.7783C18.099 19.6687 18.1319 19.5481 18.1209 19.4275C18.11 19.2521 18.0442 19.0767 17.9017 18.9561C17.814 18.8794 17.7482 18.8465 17.6386 18.8026C17.5618 18.7807 17.4851 18.7698 17.4083 18.7588C17.3755 18.7588 17.3426 18.7588 17.3206 18.7588C17.211 18.7588 17.1123 18.7807 17.0137 18.8026Z" fill="#2C2C2C"/>
<path d="M25.2139 18.8906C24.9508 18.9344 24.7096 19.1098 24.589 19.3401C24.5123 19.4716 24.4794 19.6251 24.4794 19.7895C24.4794 19.9869 24.5451 20.1623 24.6219 20.3377C24.6657 20.4364 24.7863 20.5131 24.885 20.535C24.9946 20.5679 25.1262 20.546 25.2249 20.4912C25.3235 20.4364 25.4003 20.3377 25.4222 20.2281C25.4222 20.2171 25.4332 20.2061 25.4332 20.1952C25.488 20.2829 25.5866 20.3487 25.6853 20.3815C25.9046 20.4473 26.1786 20.3048 26.2225 20.0746C26.2554 19.8992 26.2773 19.7238 26.2444 19.5484C26.2115 19.3839 26.1348 19.2524 26.0251 19.1318C25.9374 19.0221 25.7949 18.9673 25.6743 18.9125C25.5976 18.8796 25.5209 18.8687 25.4332 18.8687C25.3564 18.8687 25.2906 18.8796 25.2139 18.8906ZM25.3893 19.7567C25.3893 19.7786 25.3893 19.8005 25.3893 19.8334C25.3893 19.8444 25.3893 19.8444 25.3893 19.8553C25.3893 19.8663 25.3893 19.8663 25.3893 19.8772C25.3783 19.8553 25.3783 19.8334 25.3674 19.8115C25.3674 19.8005 25.3674 19.7895 25.3674 19.7786V19.7676C25.3674 19.7676 25.3783 19.7676 25.3783 19.7567C25.3783 19.7567 25.3783 19.7567 25.3893 19.7567Z" fill="#2C2C2C"/>
<path d="M25.0823 19.0769C25.0823 19.1427 25.1371 19.1975 25.2029 19.1975C25.2686 19.1975 25.3235 19.1427 25.3235 19.0769C25.3235 19.0111 25.2686 18.9563 25.2029 18.9563C25.1371 18.9563 25.0823 19.0111 25.0823 19.0769Z" fill="#2C2C2C"/>
<path d="M24.9069 16.8075C24.874 16.8075 24.8521 16.8184 24.8192 16.8184C24.7644 16.8294 24.7096 16.8623 24.6767 16.9061C24.6109 16.9719 24.578 17.0487 24.578 17.1364C24.578 17.2241 24.6109 17.3118 24.6767 17.3666C24.7315 17.4214 24.8302 17.4762 24.9069 17.4653C25.2029 17.4214 25.4989 17.4214 25.7949 17.4543C26.069 17.4981 26.3321 17.5639 26.5842 17.6736C26.8254 17.7832 27.0556 17.9147 27.2639 18.0792C27.4722 18.2436 27.6586 18.43 27.823 18.6383C27.9875 18.8576 28.119 19.0878 28.2287 19.3399C28.3273 19.5921 28.4041 19.8552 28.437 20.1293C28.4699 20.4033 28.4699 20.6774 28.437 20.9624C28.3931 21.2365 28.3273 21.4996 28.2177 21.7518C28.1081 21.993 27.9765 22.2232 27.823 22.4315C27.6586 22.6398 27.4613 22.8261 27.253 23.0016C27.0337 23.166 26.8035 23.2976 26.5513 23.4072C26.4746 23.4401 26.4088 23.473 26.365 23.5497C26.3211 23.6264 26.3102 23.7141 26.3321 23.8019C26.354 23.8896 26.4088 23.9553 26.4856 23.9992C26.5513 24.043 26.661 24.065 26.7377 24.0321C26.8802 23.9663 27.0337 23.9115 27.1653 23.8347C27.3516 23.7361 27.527 23.6155 27.7024 23.473C28.0204 23.2208 28.2835 22.9248 28.5027 22.5959C28.733 22.267 28.8864 21.8833 28.9961 21.4887C29.1057 21.094 29.1386 20.6664 29.1057 20.2608C29.0728 19.8771 28.9851 19.4934 28.8426 19.1316C28.7659 18.9562 28.6891 18.7918 28.5904 18.6273C28.4918 18.4519 28.3712 18.2875 28.2396 18.134C27.9984 17.838 27.7134 17.5968 27.3955 17.3885C27.0776 17.1802 26.7267 17.0267 26.354 16.9171C26.0361 16.8294 25.6962 16.7856 25.3673 16.7856C25.2248 16.7746 25.0713 16.7856 24.9069 16.8075ZM28.4589 20.8857C28.4589 20.8967 28.4589 20.9076 28.4589 20.9186C28.4589 20.9076 28.4589 20.8967 28.4589 20.8857Z" fill="#2C2C2C"/>
<path d="M25.0932 16.7856C24.5999 16.8185 24.1285 16.961 23.679 17.1802C23.2734 17.3776 22.9006 17.6736 22.5937 18.0134C22.4402 18.1779 22.3086 18.3533 22.1881 18.5396C22.0455 18.7589 21.9469 18.9891 21.8482 19.2303C21.6728 19.6798 21.607 20.1731 21.618 20.6445C21.6289 20.8857 21.6618 21.1269 21.7057 21.3681C21.7605 21.6202 21.8482 21.8614 21.9469 22.0916C22.1332 22.5192 22.4292 22.9139 22.7581 23.2428C22.9335 23.4072 23.1199 23.5607 23.3282 23.6922C23.5475 23.8348 23.7777 23.9444 24.0079 24.0431C24.4355 24.2185 24.9069 24.2952 25.3564 24.2952C25.8497 24.2952 26.343 24.1965 26.7925 24.0102L26.8692 23.9773C26.9241 23.9444 26.957 23.9115 26.9898 23.8567C27.0337 23.7799 27.0447 23.6922 27.0227 23.6045C27.0008 23.5168 26.946 23.4511 26.8692 23.4072C26.8035 23.3633 26.6938 23.3414 26.6171 23.3743C26.343 23.4839 26.058 23.5716 25.7729 23.6155C25.4989 23.6484 25.2138 23.6484 24.9398 23.6155C24.6767 23.5716 24.4135 23.5059 24.1614 23.4072C23.9202 23.2976 23.679 23.166 23.4707 23.0016C23.2624 22.8371 23.0761 22.6508 22.9006 22.4315C22.7472 22.2232 22.6046 21.993 22.506 21.7518C22.4073 21.4996 22.3306 21.2365 22.2867 20.9625C22.2538 20.6884 22.2538 20.4033 22.2867 20.1293C22.3306 19.8552 22.3964 19.603 22.506 19.3399C22.6156 19.0988 22.7472 18.8576 22.9116 18.6493C23.0761 18.441 23.2624 18.2546 23.4707 18.0902C23.69 17.9257 23.9202 17.7942 24.1724 17.6845C24.4245 17.5859 24.6876 17.5091 24.9507 17.4762C25.2248 17.4433 25.4989 17.4433 25.7729 17.4762C26.047 17.5201 26.3101 17.5859 26.5623 17.6955C26.8035 17.8051 27.0337 17.9367 27.242 18.0902C27.4503 18.2546 27.6367 18.441 27.8121 18.6493C27.8998 18.7699 27.9875 18.8905 28.0532 19.022C28.1409 19.1755 28.3492 19.2303 28.5027 19.1426C28.6562 19.0549 28.711 18.8466 28.6233 18.6931C28.3821 18.2875 28.0752 17.9148 27.7134 17.6188C27.3297 17.3118 26.8912 17.0816 26.4307 16.939C26.2115 16.8733 25.9812 16.8404 25.751 16.8075C25.6304 16.7965 25.4989 16.7856 25.3783 16.7856C25.2906 16.7746 25.1919 16.7746 25.0932 16.7856Z" fill="#2C2C2C"/>
<path d="M16.6409 19.0879C16.6409 19.1537 16.6957 19.2085 16.7615 19.2085C16.8272 19.2085 16.8821 19.1537 16.8821 19.0879C16.8821 19.0221 16.8272 18.9673 16.7615 18.9673C16.6957 18.9673 16.6409 19.0221 16.6409 19.0879Z" fill="#2C2C2C"/>
<path d="M16.4654 16.8185C16.4325 16.8185 16.4105 16.8294 16.3777 16.8294C16.3228 16.8404 16.268 16.8733 16.2351 16.9171C16.1694 16.9829 16.1365 17.0596 16.1365 17.1474C16.1365 17.2351 16.1694 17.3228 16.2351 17.3776C16.29 17.4324 16.3886 17.4872 16.4654 17.4762C16.7614 17.4324 17.0574 17.4324 17.3534 17.4653C17.6274 17.5091 17.8905 17.5749 18.1427 17.6845C18.3839 17.7942 18.6141 17.9257 18.8224 18.0902C19.0307 18.2546 19.2171 18.441 19.3815 18.6493C19.546 18.8685 19.6775 19.0988 19.7871 19.3509C19.8858 19.6031 19.9625 19.8662 19.9954 20.1402C20.0283 20.4143 20.0283 20.6884 19.9954 20.9734C19.9516 21.2475 19.8858 21.5106 19.7762 21.7628C19.6665 22.0039 19.535 22.2342 19.3815 22.4425C19.2171 22.6508 19.0197 22.8371 18.8114 23.0125C18.5922 23.177 18.362 23.3085 18.1098 23.4182C18.0331 23.4511 17.9673 23.4839 17.9234 23.5607C17.8796 23.6374 17.8686 23.7251 17.8906 23.8128C17.9125 23.9005 17.9673 23.9663 18.044 24.0102C18.1098 24.054 18.2194 24.076 18.2962 24.0431C18.4387 23.9773 18.5922 23.9225 18.7237 23.8457C18.9101 23.7471 19.0855 23.6265 19.2609 23.484C19.5788 23.2318 19.842 22.9358 20.0612 22.6069C20.2914 22.278 20.4449 21.8943 20.5546 21.4997C20.6642 21.105 20.6971 20.6774 20.6642 20.2718C20.6313 19.8881 20.5436 19.5044 20.4011 19.1426C20.3243 18.9672 20.2476 18.8028 20.1489 18.6383C20.0503 18.4629 19.9297 18.2985 19.7981 18.145C19.5569 17.849 19.2719 17.6078 18.954 17.3995C18.636 17.1912 18.2852 17.0377 17.9125 16.9281C17.5945 16.8404 17.2547 16.7965 16.9258 16.7965C16.7942 16.7856 16.6298 16.7965 16.4654 16.8185ZM20.0174 20.8967C20.0174 20.9077 20.0174 20.9186 20.0174 20.9296C20.0174 20.9186 20.0174 20.9077 20.0174 20.8967Z" fill="#2C2C2C"/>
<path d="M16.6627 16.7966C16.1694 16.8294 15.698 16.972 15.2485 17.1912C14.8428 17.3886 14.4701 17.6846 14.1631 18.0244C14.0097 18.1888 13.8781 18.3643 13.7575 18.5506C13.615 18.7699 13.5163 19.0001 13.4177 19.2413C13.2423 19.6908 13.1765 20.1841 13.1874 20.6555C13.1984 20.8967 13.2313 21.1379 13.2751 21.3791C13.33 21.6312 13.4177 21.8724 13.5163 22.1026C13.7027 22.5302 13.9987 22.9249 14.3276 23.2537C14.503 23.4182 14.6894 23.5717 14.8977 23.7032C15.1169 23.8457 15.3471 23.9554 15.5774 24.054C16.0049 24.2294 16.4763 24.3062 16.9258 24.3062C17.4191 24.3062 17.9125 24.2075 18.362 24.0212L18.4387 23.9883C18.4935 23.9554 18.5264 23.9225 18.5593 23.8677C18.6032 23.7909 18.6141 23.7032 18.5922 23.6155C18.5703 23.5278 18.5154 23.462 18.4387 23.4182C18.3729 23.3743 18.2633 23.3524 18.1866 23.3853C17.9125 23.4949 17.6274 23.5826 17.3424 23.6265C17.0683 23.6594 16.7833 23.6594 16.5092 23.6265C16.2461 23.5826 15.983 23.5169 15.7309 23.4182C15.4897 23.3086 15.2485 23.177 15.0402 23.0126C14.8319 22.8481 14.6455 22.6617 14.4701 22.4425C14.3166 22.2342 14.1741 22.004 14.0754 21.7628C13.9768 21.5106 13.9 21.2475 13.8562 20.9734C13.8233 20.6994 13.8233 20.4143 13.8562 20.1403C13.9 19.8662 13.9658 19.614 14.0754 19.3509C14.1851 19.1097 14.3166 18.8686 14.4811 18.6603C14.6455 18.452 14.8319 18.2656 15.0402 18.1011C15.2594 17.9367 15.4897 17.8051 15.7418 17.6955C15.994 17.5968 16.2571 17.5201 16.5202 17.4872C16.7943 17.4543 17.0683 17.4543 17.3424 17.4872C17.6165 17.5311 17.8796 17.5968 18.1317 17.7065C18.3729 17.8161 18.6031 17.9477 18.8114 18.1011C19.0197 18.2656 19.2061 18.452 19.3815 18.6603C19.4692 18.7809 19.5569 18.9014 19.6227 19.033C19.7104 19.1865 19.9187 19.2413 20.0722 19.1536C20.2257 19.0659 20.2805 18.8576 20.1928 18.7041C19.9516 18.2985 19.6446 17.9257 19.2829 17.6297C18.8991 17.3228 18.4606 17.0926 18.0002 16.95C17.7809 16.8843 17.5507 16.8514 17.3205 16.8185C17.1999 16.8075 17.0683 16.7966 16.9477 16.7966C16.86 16.7856 16.7614 16.7856 16.6627 16.7966Z" fill="#2C2C2C"/>
<path d="M20.6095 20.1402C20.5657 20.1402 20.5328 20.1512 20.4889 20.1512C20.4122 20.1731 20.3464 20.206 20.2916 20.2608C20.2149 20.3376 20.16 20.4582 20.16 20.5678C20.16 20.6884 20.2039 20.798 20.2916 20.8748C20.3683 20.9515 20.4889 21.0173 20.5986 21.0063C20.9603 20.9625 21.3331 20.9515 21.6949 20.9515C21.936 20.9625 22.1334 20.7432 22.1334 20.513C22.1334 20.2718 21.936 20.0854 21.6949 20.0745C21.6291 20.0745 21.5633 20.0745 21.5085 20.0745C21.2234 20.0854 20.9165 20.1074 20.6095 20.1402Z" fill="#2C2C2C"/>
</svg>
