<svg width="30" height="18" viewBox="0 0 30 18" fill="none" xmlns="http://www.w3.org/2000/svg">
<path d="M8.4541 6.51543C8.4541 6.8846 8.49401 7.18393 8.56385 7.40344C8.64368 7.62295 8.74345 7.86241 8.88314 8.12183C8.93303 8.20166 8.95298 8.28148 8.95298 8.35132C8.95298 8.4511 8.89312 8.55087 8.76341 8.65065L8.13481 9.06971C8.04501 9.12958 7.95522 9.15951 7.87539 9.15951C7.77562 9.15951 7.67584 9.10962 7.57606 9.01983C7.43638 8.87016 7.31664 8.71052 7.21687 8.55087C7.11709 8.38125 7.01731 8.19168 6.90756 7.96219C6.1293 8.88014 5.15149 9.33911 3.97412 9.33911C3.13599 9.33911 2.46749 9.09965 1.97858 8.62072C1.48968 8.14179 1.24023 7.50322 1.24023 6.705C1.24023 5.8569 1.53956 5.16844 2.1482 4.6496C2.75684 4.13076 3.56503 3.87134 4.59274 3.87134C4.93198 3.87134 5.2812 3.90127 5.65037 3.95116C6.01954 4.00105 6.3987 4.08087 6.7978 4.17067V3.4423C6.7978 2.684 6.63816 2.15518 6.32885 1.84587C6.00957 1.53656 5.47077 1.3869 4.70249 1.3869C4.35327 1.3869 3.99408 1.42681 3.6249 1.51661C3.25573 1.60641 2.89653 1.71616 2.54731 1.85585C2.38767 1.92569 2.26794 1.9656 2.19809 1.98556C2.12825 2.00551 2.07836 2.01549 2.03845 2.01549C1.89876 2.01549 1.82892 1.91572 1.82892 1.70618V1.21728C1.82892 1.05763 1.84887 0.937902 1.89876 0.868058C1.94865 0.798215 2.03845 0.728371 2.17814 0.658527C2.52736 0.478929 2.94642 0.329264 3.43532 0.209531C3.92423 0.0798215 4.44307 0.0199554 4.99184 0.0199554C6.17919 0.0199554 7.04725 0.289353 7.606 0.828148C8.15477 1.36694 8.43414 2.18511 8.43414 3.28266V6.51543H8.4541ZM4.40316 8.03203C4.73242 8.03203 5.07167 7.97217 5.43086 7.85244C5.79006 7.73271 6.10934 7.5132 6.37874 7.21387C6.53838 7.02429 6.65812 6.81476 6.71798 6.57529C6.77785 6.33583 6.81776 6.04648 6.81776 5.70723V5.28817C6.52841 5.21833 6.2191 5.15846 5.89981 5.11855C5.58053 5.07864 5.27122 5.05869 4.96191 5.05869C4.29341 5.05869 3.8045 5.1884 3.47524 5.45779C3.14597 5.72719 2.98633 6.10634 2.98633 6.60523C2.98633 7.07418 3.10606 7.4234 3.3555 7.66286C3.59497 7.9123 3.94419 8.03203 4.40316 8.03203ZM12.4152 9.10962C12.2356 9.10962 12.1159 9.07969 12.0361 9.00985C11.9563 8.94998 11.8864 8.81029 11.8266 8.62072L9.4818 0.907969C9.42194 0.708415 9.392 0.578706 9.392 0.508862C9.392 0.349219 9.47182 0.25942 9.63147 0.25942H10.6093C10.7989 0.25942 10.9286 0.289353 10.9984 0.359197C11.0782 0.419063 11.1381 0.55875 11.198 0.748326L12.8742 7.35355L14.4307 0.748326C14.4806 0.548773 14.5405 0.419063 14.6203 0.359197C14.7001 0.299331 14.8398 0.25942 15.0194 0.25942H15.8176C16.0072 0.25942 16.1369 0.289353 16.2167 0.359197C16.2966 0.419063 16.3664 0.55875 16.4063 0.748326L17.9828 7.43337L19.7089 0.748326C19.7688 0.548773 19.8386 0.419063 19.9085 0.359197C19.9883 0.299331 20.118 0.25942 20.2976 0.25942H21.2255C21.3852 0.25942 21.475 0.339241 21.475 0.508862C21.475 0.55875 21.465 0.608639 21.455 0.668505C21.445 0.728371 21.4251 0.808192 21.3852 0.917947L18.9806 8.6307C18.9207 8.83025 18.8508 8.95996 18.771 9.01983C18.6912 9.07969 18.5615 9.1196 18.3919 9.1196H17.5338C17.3442 9.1196 17.2145 9.08967 17.1347 9.01983C17.0549 8.94998 16.985 8.82027 16.9451 8.62072L15.3986 2.18511L13.862 8.61074C13.8121 8.8103 13.7522 8.94 13.6724 9.00985C13.5926 9.07969 13.4529 9.10962 13.2733 9.10962H12.4152ZM25.2366 9.37902C24.7177 9.37902 24.1989 9.31916 23.7 9.19942C23.2011 9.07969 22.812 8.94998 22.5526 8.80032C22.3929 8.71052 22.2832 8.61074 22.2433 8.52094C22.2033 8.43114 22.1834 8.33137 22.1834 8.24157V7.7327C22.1834 7.52317 22.2632 7.4234 22.4129 7.4234C22.4727 7.4234 22.5326 7.43337 22.5925 7.45333C22.6523 7.47329 22.7421 7.5132 22.8419 7.55311C23.1812 7.70277 23.5503 7.8225 23.9395 7.90233C24.3386 7.98215 24.7277 8.02206 25.1268 8.02206C25.7554 8.02206 26.2443 7.9123 26.5836 7.69279C26.9228 7.47328 27.1024 7.154 27.1024 6.74491C27.1024 6.46554 27.0126 6.23605 26.833 6.04648C26.6534 5.8569 26.3142 5.68728 25.8252 5.52764L24.3785 5.07864C23.6501 4.84915 23.1113 4.50991 22.7821 4.06092C22.4528 3.6219 22.2832 3.13299 22.2832 2.61415C22.2832 2.19509 22.373 1.82592 22.5526 1.50663C22.7322 1.18734 22.9716 0.907969 23.271 0.68846C23.5703 0.458973 23.9095 0.289353 24.3086 0.169621C24.7077 0.0498884 25.1268 0 25.5658 0C25.7853 0 26.0148 0.00997768 26.2343 0.0399107C26.4638 0.0698438 26.6734 0.109755 26.8829 0.149665C27.0824 0.199554 27.272 0.249442 27.4516 0.309308C27.6312 0.369174 27.7709 0.42904 27.8707 0.488907C28.0104 0.568728 28.1101 0.648549 28.17 0.738349C28.2299 0.81817 28.2598 0.927925 28.2598 1.06761V1.53656C28.2598 1.74609 28.18 1.85585 28.0303 1.85585C27.9505 1.85585 27.8208 1.81594 27.6512 1.73612C27.0824 1.4767 26.4439 1.34699 25.7354 1.34699C25.1667 1.34699 24.7177 1.43679 24.4084 1.62636C24.0991 1.81594 23.9395 2.10529 23.9395 2.51438C23.9395 2.79375 24.0392 3.03322 24.2388 3.22279C24.4384 3.41237 24.8075 3.60194 25.3363 3.77156L26.7532 4.22056C27.4716 4.45005 27.9904 4.76933 28.2997 5.17842C28.609 5.5875 28.7587 6.05645 28.7587 6.57529C28.7587 7.00433 28.6689 7.39346 28.4993 7.7327C28.3197 8.07195 28.0802 8.37128 27.7709 8.61074C27.4616 8.86018 27.0924 9.03978 26.6634 9.16949C26.2144 9.30918 25.7454 9.37902 25.2366 9.37902Z" fill="white"/>
<path fill-rule="evenodd" clip-rule="evenodd" d="M27.1225 14.2283C23.8399 16.6529 19.0705 17.94 14.9697 17.94C9.22257 17.94 4.04416 15.8148 0.132904 12.2827C-0.176404 12.0033 0.102971 11.6241 0.472146 11.8436C4.70268 14.2981 9.92101 15.7848 15.3189 15.7848C18.9608 15.7848 22.9618 15.0265 26.6436 13.47C27.1924 13.2206 27.6613 13.8292 27.1225 14.2283Z" fill="#FF9900"/>
<path fill-rule="evenodd" clip-rule="evenodd" d="M28.4891 12.6718C28.07 12.133 25.7153 12.4124 24.6477 12.5421C24.3284 12.582 24.2785 12.3026 24.5679 12.0931C26.4437 10.776 29.5268 11.1552 29.886 11.5942C30.2452 12.0432 29.7862 15.1263 28.0301 16.603C27.7607 16.8325 27.5013 16.7127 27.621 16.4134C28.0201 15.4256 28.9082 13.2006 28.4891 12.6718Z" fill="#FF9900"/>
</svg>
